G04*
G04 #@! TF.GenerationSoftware,Altium Limited,Altium Designer,24.1.2 (44)*
G04*
G04 Layer_Color=2752767*
%FSLAX44Y44*%
%MOMM*%
G71*
G04*
G04 #@! TF.SameCoordinates,51AA683D-CA4B-47C4-9456-8286C0F4AF48*
G04*
G04*
G04 #@! TF.FilePolarity,Positive*
G04*
G01*
G75*
%ADD18C,0.1270*%
%ADD94C,0.1693*%
%ADD95C,0.1016*%
D18*
X924666Y629840D02*
Y640000D01*
X934826D01*
Y629840D01*
X924666D01*
X829746Y219630D02*
X824666Y229790D01*
X834826D01*
X829746Y219630D01*
X164976Y396840D02*
Y407000D01*
X175136D01*
Y396840D01*
X164976D01*
X167008Y398872D02*
Y404968D01*
X173104D01*
Y398872D01*
X167008D01*
X164976Y422240D02*
Y432400D01*
X175136D01*
Y422240D01*
X164976D01*
X167008Y424272D02*
Y430368D01*
X173104D01*
Y424272D01*
X167008D01*
X164976Y447640D02*
Y457800D01*
X175136D01*
Y447640D01*
X164976D01*
X167008Y449672D02*
Y455768D01*
X173104D01*
Y449672D01*
X167008D01*
X74920Y890210D02*
X77460Y895290D01*
X74920Y900370D01*
X80000Y897830D01*
X85080Y900370D01*
X82540Y895290D01*
X85080Y890210D01*
X80000Y892750D01*
X74920Y890210D01*
Y610210D02*
X77460Y615290D01*
X74920Y620370D01*
X80000Y617830D01*
X85080Y620370D01*
X82540Y615290D01*
X85080Y610210D01*
X80000Y612750D01*
X74920Y610210D01*
X34920Y870210D02*
X37460Y875290D01*
X34920Y880370D01*
X40000Y877830D01*
X45080Y880370D01*
X42540Y875290D01*
X45080Y870210D01*
X40000Y872750D01*
X34920Y870210D01*
Y630210D02*
X37460Y635290D01*
X34920Y640370D01*
X40000Y637830D01*
X45080Y640370D01*
X42540Y635290D01*
X45080Y630210D01*
X40000Y632750D01*
X34920Y630210D01*
X-5080Y890210D02*
X-2540Y895290D01*
X-5080Y900370D01*
X0Y897830D01*
X5080Y900370D01*
X2540Y895290D01*
X5080Y890210D01*
X0Y892750D01*
X-5080Y890210D01*
Y610210D02*
X-2540Y615290D01*
X-5080Y620370D01*
X0Y617830D01*
X5080Y620370D01*
X2540Y615290D01*
X5080Y610210D01*
X0Y612750D01*
X-5080Y610210D01*
X74920Y850210D02*
X77460Y855290D01*
X74920Y860370D01*
X80000Y857830D01*
X85080Y860370D01*
X82540Y855290D01*
X85080Y850210D01*
X80000Y852750D01*
X74920Y850210D01*
Y810210D02*
X77460Y815290D01*
X74920Y820370D01*
X80000Y817830D01*
X85080Y820370D01*
X82540Y815290D01*
X85080Y810210D01*
X80000Y812750D01*
X74920Y810210D01*
Y770210D02*
X77460Y775290D01*
X74920Y780370D01*
X80000Y777830D01*
X85080Y780370D01*
X82540Y775290D01*
X85080Y770210D01*
X80000Y772750D01*
X74920Y770210D01*
Y730210D02*
X77460Y735290D01*
X74920Y740370D01*
X80000Y737830D01*
X85080Y740370D01*
X82540Y735290D01*
X85080Y730210D01*
X80000Y732750D01*
X74920Y730210D01*
Y690210D02*
X77460Y695290D01*
X74920Y700370D01*
X80000Y697830D01*
X85080Y700370D01*
X82540Y695290D01*
X85080Y690210D01*
X80000Y692750D01*
X74920Y690210D01*
Y650210D02*
X77460Y655290D01*
X74920Y660370D01*
X80000Y657830D01*
X85080Y660370D01*
X82540Y655290D01*
X85080Y650210D01*
X80000Y652750D01*
X74920Y650210D01*
X34920Y830210D02*
X37460Y835290D01*
X34920Y840370D01*
X40000Y837830D01*
X45080Y840370D01*
X42540Y835290D01*
X45080Y830210D01*
X40000Y832750D01*
X34920Y830210D01*
Y790210D02*
X37460Y795290D01*
X34920Y800370D01*
X40000Y797830D01*
X45080Y800370D01*
X42540Y795290D01*
X45080Y790210D01*
X40000Y792750D01*
X34920Y790210D01*
Y750210D02*
X37460Y755290D01*
X34920Y760370D01*
X40000Y757830D01*
X45080Y760370D01*
X42540Y755290D01*
X45080Y750210D01*
X40000Y752750D01*
X34920Y750210D01*
Y710210D02*
X37460Y715290D01*
X34920Y720370D01*
X40000Y717830D01*
X45080Y720370D01*
X42540Y715290D01*
X45080Y710210D01*
X40000Y712750D01*
X34920Y710210D01*
Y670210D02*
X37460Y675290D01*
X34920Y680370D01*
X40000Y677830D01*
X45080Y680370D01*
X42540Y675290D01*
X45080Y670210D01*
X40000Y672750D01*
X34920Y670210D01*
X-5080Y850210D02*
X-2540Y855290D01*
X-5080Y860370D01*
X0Y857830D01*
X5080Y860370D01*
X2540Y855290D01*
X5080Y850210D01*
X0Y852750D01*
X-5080Y850210D01*
Y810210D02*
X-2540Y815290D01*
X-5080Y820370D01*
X0Y817830D01*
X5080Y820370D01*
X2540Y815290D01*
X5080Y810210D01*
X0Y812750D01*
X-5080Y810210D01*
Y770210D02*
X-2540Y775290D01*
X-5080Y780370D01*
X0Y777830D01*
X5080Y780370D01*
X2540Y775290D01*
X5080Y770210D01*
X0Y772750D01*
X-5080Y770210D01*
Y730210D02*
X-2540Y735290D01*
X-5080Y740370D01*
X0Y737830D01*
X5080Y740370D01*
X2540Y735290D01*
X5080Y730210D01*
X0Y732750D01*
X-5080Y730210D01*
Y690210D02*
X-2540Y695290D01*
X-5080Y700370D01*
X0Y697830D01*
X5080Y700370D01*
X2540Y695290D01*
X5080Y690210D01*
X0Y692750D01*
X-5080Y690210D01*
Y650210D02*
X-2540Y655290D01*
X-5080Y660370D01*
X0Y657830D01*
X5080Y660370D01*
X2540Y655290D01*
X5080Y650210D01*
X0Y652750D01*
X-5080Y650210D01*
X74920Y274920D02*
X77460Y280000D01*
X74920Y285080D01*
X80000Y282540D01*
X85080Y285080D01*
X82540Y280000D01*
X85080Y274920D01*
X80000Y277460D01*
X74920Y274920D01*
Y-5080D02*
X77460Y0D01*
X74920Y5080D01*
X80000Y2540D01*
X85080Y5080D01*
X82540Y0D01*
X85080Y-5080D01*
X80000Y-2540D01*
X74920Y-5080D01*
X34920Y254920D02*
X37460Y260000D01*
X34920Y265080D01*
X40000Y262540D01*
X45080Y265080D01*
X42540Y260000D01*
X45080Y254920D01*
X40000Y257460D01*
X34920Y254920D01*
Y14920D02*
X37460Y20000D01*
X34920Y25080D01*
X40000Y22540D01*
X45080Y25080D01*
X42540Y20000D01*
X45080Y14920D01*
X40000Y17460D01*
X34920Y14920D01*
X-5080Y274920D02*
X-2540Y280000D01*
X-5080Y285080D01*
X0Y282540D01*
X5080Y285080D01*
X2540Y280000D01*
X5080Y274920D01*
X0Y277460D01*
X-5080Y274920D01*
Y-5080D02*
X-2540Y0D01*
X-5080Y5080D01*
X0Y2540D01*
X5080Y5080D01*
X2540Y0D01*
X5080Y-5080D01*
X0Y-2540D01*
X-5080Y-5080D01*
X74920Y234920D02*
X77460Y240000D01*
X74920Y245080D01*
X80000Y242540D01*
X85080Y245080D01*
X82540Y240000D01*
X85080Y234920D01*
X80000Y237460D01*
X74920Y234920D01*
Y194920D02*
X77460Y200000D01*
X74920Y205080D01*
X80000Y202540D01*
X85080Y205080D01*
X82540Y200000D01*
X85080Y194920D01*
X80000Y197460D01*
X74920Y194920D01*
Y154920D02*
X77460Y160000D01*
X74920Y165080D01*
X80000Y162540D01*
X85080Y165080D01*
X82540Y160000D01*
X85080Y154920D01*
X80000Y157460D01*
X74920Y154920D01*
Y114920D02*
X77460Y120000D01*
X74920Y125080D01*
X80000Y122540D01*
X85080Y125080D01*
X82540Y120000D01*
X85080Y114920D01*
X80000Y117460D01*
X74920Y114920D01*
Y74920D02*
X77460Y80000D01*
X74920Y85080D01*
X80000Y82540D01*
X85080Y85080D01*
X82540Y80000D01*
X85080Y74920D01*
X80000Y77460D01*
X74920Y74920D01*
Y34920D02*
X77460Y40000D01*
X74920Y45080D01*
X80000Y42540D01*
X85080Y45080D01*
X82540Y40000D01*
X85080Y34920D01*
X80000Y37460D01*
X74920Y34920D01*
X34920Y214920D02*
X37460Y220000D01*
X34920Y225080D01*
X40000Y222540D01*
X45080Y225080D01*
X42540Y220000D01*
X45080Y214920D01*
X40000Y217460D01*
X34920Y214920D01*
Y174920D02*
X37460Y180000D01*
X34920Y185080D01*
X40000Y182540D01*
X45080Y185080D01*
X42540Y180000D01*
X45080Y174920D01*
X40000Y177460D01*
X34920Y174920D01*
Y134920D02*
X37460Y140000D01*
X34920Y145080D01*
X40000Y142540D01*
X45080Y145080D01*
X42540Y140000D01*
X45080Y134920D01*
X40000Y137460D01*
X34920Y134920D01*
Y94920D02*
X37460Y100000D01*
X34920Y105080D01*
X40000Y102540D01*
X45080Y105080D01*
X42540Y100000D01*
X45080Y94920D01*
X40000Y97460D01*
X34920Y94920D01*
Y54920D02*
X37460Y60000D01*
X34920Y65080D01*
X40000Y62540D01*
X45080Y65080D01*
X42540Y60000D01*
X45080Y54920D01*
X40000Y57460D01*
X34920Y54920D01*
X-5080Y234920D02*
X-2540Y240000D01*
X-5080Y245080D01*
X0Y242540D01*
X5080Y245080D01*
X2540Y240000D01*
X5080Y234920D01*
X0Y237460D01*
X-5080Y234920D01*
Y194920D02*
X-2540Y200000D01*
X-5080Y205080D01*
X0Y202540D01*
X5080Y205080D01*
X2540Y200000D01*
X5080Y194920D01*
X0Y197460D01*
X-5080Y194920D01*
Y154920D02*
X-2540Y160000D01*
X-5080Y165080D01*
X0Y162540D01*
X5080Y165080D01*
X2540Y160000D01*
X5080Y154920D01*
X0Y157460D01*
X-5080Y154920D01*
Y114920D02*
X-2540Y120000D01*
X-5080Y125080D01*
X0Y122540D01*
X5080Y125080D01*
X2540Y120000D01*
X5080Y114920D01*
X0Y117460D01*
X-5080Y114920D01*
Y74920D02*
X-2540Y80000D01*
X-5080Y85080D01*
X0Y82540D01*
X5080Y85080D01*
X2540Y80000D01*
X5080Y74920D01*
X0Y77460D01*
X-5080Y74920D01*
Y34920D02*
X-2540Y40000D01*
X-5080Y45080D01*
X0Y42540D01*
X5080Y45080D01*
X2540Y40000D01*
X5080Y34920D01*
X0Y37460D01*
X-5080Y34920D01*
X452136Y189970D02*
X454676Y192510D01*
X457216D01*
X454676Y195050D01*
X457216Y197590D01*
X454676D01*
X452136Y200130D01*
X449596Y197590D01*
X447056D01*
X449596Y195050D01*
X447056Y192510D01*
X449596D01*
X452136Y189970D01*
X401336D02*
X403876Y192510D01*
X406416D01*
X403876Y195050D01*
X406416Y197590D01*
X403876D01*
X401336Y200130D01*
X398796Y197590D01*
X396256D01*
X398796Y195050D01*
X396256Y192510D01*
X398796D01*
X401336Y189970D01*
X477536D02*
X480076Y192510D01*
X482616D01*
X480076Y195050D01*
X482616Y197590D01*
X480076D01*
X477536Y200130D01*
X474996Y197590D01*
X472456D01*
X474996Y195050D01*
X472456Y192510D01*
X474996D01*
X477536Y189970D01*
X426736D02*
X429276Y192510D01*
X431816D01*
X429276Y195050D01*
X431816Y197590D01*
X429276D01*
X426736Y200130D01*
X424196Y197590D01*
X421656D01*
X424196Y195050D01*
X421656Y192510D01*
X424196D01*
X426736Y189970D01*
X894920Y-5080D02*
X897460D01*
X900000Y-2540D01*
X902540Y-5080D01*
X905080D01*
Y-2540D01*
X902540Y0D01*
X905080Y2540D01*
Y5080D01*
X902540D01*
X900000Y2540D01*
X897460Y5080D01*
X894920D01*
Y2540D01*
X897460Y0D01*
X894920Y-2540D01*
Y-5080D01*
Y844920D02*
X897460D01*
X900000Y847460D01*
X902540Y844920D01*
X905080D01*
Y847460D01*
X902540Y850000D01*
X905080Y852540D01*
Y855080D01*
X902540D01*
X900000Y852540D01*
X897460Y855080D01*
X894920D01*
Y852540D01*
X897460Y850000D01*
X894920Y847460D01*
Y844920D01*
X929997Y909131D02*
X935077Y914211D01*
X940157Y909131D01*
X935077Y904051D01*
X929997Y909131D01*
X939997Y889131D02*
X945077Y894211D01*
X950157Y889131D01*
X945077Y884051D01*
X939997Y889131D01*
X929997Y869131D02*
X935077Y874211D01*
X940157Y869131D01*
X935077Y864051D01*
X929997Y869131D01*
X939997Y849131D02*
X945077Y854211D01*
X950157Y849131D01*
X945077Y844051D01*
X939997Y849131D01*
X929997Y829131D02*
X935077Y834211D01*
X940157Y829131D01*
X935077Y824051D01*
X929997Y829131D01*
X939997Y809131D02*
X945077Y814211D01*
X950157Y809131D01*
X945077Y804051D01*
X939997Y809131D01*
X929997Y789131D02*
X935077Y794211D01*
X940157Y789131D01*
X935077Y784051D01*
X929997Y789131D01*
X939997Y769131D02*
X945077Y774211D01*
X950157Y769131D01*
X945077Y764051D01*
X939997Y769131D01*
X929997Y749131D02*
X935077Y754211D01*
X940157Y749131D01*
X935077Y744051D01*
X929997Y749131D01*
X939997Y729131D02*
X945077Y734211D01*
X950157Y729131D01*
X945077Y724051D01*
X939997Y729131D01*
X929997Y709131D02*
X935077Y714211D01*
X940157Y709131D01*
X935077Y704051D01*
X929997Y709131D01*
X939997Y689130D02*
X945077Y694211D01*
X950157Y689130D01*
X945077Y684051D01*
X939997Y689130D01*
X929997Y589131D02*
X935077Y594211D01*
X940157Y589131D01*
X935077Y584050D01*
X929997Y589131D01*
Y549131D02*
X935077Y554211D01*
X940157Y549131D01*
X935077Y544050D01*
X929997Y549131D01*
Y509131D02*
X935077Y514211D01*
X940157Y509131D01*
X935077Y504050D01*
X929997Y509131D01*
Y469130D02*
X935077Y474210D01*
X940157Y469130D01*
X935077Y464050D01*
X929997Y469130D01*
X939997Y409130D02*
X945077Y414210D01*
X950157Y409130D01*
X945077Y404050D01*
X939997Y409130D01*
X929997Y389130D02*
X935077Y394210D01*
X940157Y389130D01*
X935077Y384050D01*
X929997Y389130D01*
X939997Y369130D02*
X945077Y374210D01*
X950157Y369130D01*
X945077Y364050D01*
X939997Y369130D01*
X929997Y349130D02*
X935077Y354210D01*
X940157Y349130D01*
X935077Y344050D01*
X929997Y349130D01*
X939997Y329130D02*
X945077Y334210D01*
X950157Y329130D01*
X945077Y324050D01*
X939997Y329130D01*
X929997Y309130D02*
X935077Y314210D01*
X940157Y309130D01*
X935077Y304050D01*
X929997Y309130D01*
X939997Y289130D02*
X945077Y294210D01*
X950157Y289130D01*
X945077Y284050D01*
X939997Y289130D01*
X929997Y269130D02*
X935077Y274210D01*
X940157Y269130D01*
X935077Y264050D01*
X929997Y269130D01*
X939997Y249130D02*
X945077Y254210D01*
X950157Y249130D01*
X945077Y244050D01*
X939997Y249130D01*
X929997Y229130D02*
X935077Y234210D01*
X940157Y229130D01*
X935077Y224050D01*
X929997Y229130D01*
X939997Y209130D02*
X945077Y214210D01*
X950157Y209130D01*
X945077Y204050D01*
X939997Y209130D01*
X929997Y189130D02*
X935077Y194210D01*
X940157Y189130D01*
X935077Y184050D01*
X929997Y189130D01*
X939997Y169130D02*
X945077Y174210D01*
X950157Y169130D01*
X945077Y164050D01*
X939997Y169130D01*
X929997Y149130D02*
X935077Y154210D01*
X940157Y149130D01*
X935077Y144050D01*
X929997Y149130D01*
X939997Y129130D02*
X945077Y134210D01*
X950157Y129130D01*
X945077Y124050D01*
X939997Y129130D01*
X929997Y109130D02*
X935077Y114210D01*
X940157Y109130D01*
X935077Y104050D01*
X929997Y109130D01*
X939997Y89130D02*
X945077Y94210D01*
X950157Y89130D01*
X945077Y84050D01*
X939997Y89130D01*
X929997Y69130D02*
X935077Y74210D01*
X940157Y69130D01*
X935077Y64050D01*
X929997Y69130D01*
X939997Y49130D02*
X945077Y54210D01*
X950157Y49130D01*
X945077Y44050D01*
X939997Y49130D01*
X929997Y29130D02*
X935077Y34210D01*
X940157Y29130D01*
X935077Y24050D01*
X929997Y29130D01*
X939997Y9130D02*
X945077Y14210D01*
X950157Y9130D01*
X945077Y4050D01*
X939997Y9130D01*
X929997Y-10870D02*
X935077Y-5790D01*
X940157Y-10870D01*
X935077Y-15950D01*
X929997Y-10870D01*
X939997Y-30870D02*
X945077Y-25790D01*
X950157Y-30870D01*
X945077Y-35950D01*
X939997Y-30870D01*
X929997Y-50870D02*
X935077Y-45790D01*
X940157Y-50870D01*
X935077Y-55950D01*
X929997Y-50870D01*
X909997Y909131D02*
X915077Y914211D01*
X920157Y909131D01*
X915077Y904051D01*
X909997Y909131D01*
X919997Y889131D02*
X925077Y894211D01*
X930157Y889131D01*
X925077Y884051D01*
X919997Y889131D01*
Y809131D02*
X925077Y814211D01*
X930157Y809131D01*
X925077Y804051D01*
X919997Y809131D01*
X909997Y789131D02*
X915077Y794211D01*
X920157Y789131D01*
X915077Y784051D01*
X909997Y789131D01*
X919997Y769131D02*
X925077Y774211D01*
X930157Y769131D01*
X925077Y764051D01*
X919997Y769131D01*
X909997Y749131D02*
X915077Y754211D01*
X920157Y749131D01*
X915077Y744051D01*
X909997Y749131D01*
X919997Y729131D02*
X925077Y734211D01*
X930157Y729131D01*
X925077Y724051D01*
X919997Y729131D01*
X909997Y709131D02*
X915077Y714211D01*
X920157Y709131D01*
X915077Y704051D01*
X909997Y709131D01*
Y429130D02*
X915077Y434210D01*
X920157Y429130D01*
X915077Y424050D01*
X909997Y429130D01*
X919997Y369130D02*
X925077Y374210D01*
X930157Y369130D01*
X925077Y364050D01*
X919997Y369130D01*
Y329130D02*
X925077Y334210D01*
X930157Y329130D01*
X925077Y324050D01*
X919997Y329130D01*
Y289130D02*
X925077Y294210D01*
X930157Y289130D01*
X925077Y284050D01*
X919997Y289130D01*
Y249130D02*
X925077Y254210D01*
X930157Y249130D01*
X925077Y244050D01*
X919997Y249130D01*
Y209130D02*
X925077Y214210D01*
X930157Y209130D01*
X925077Y204050D01*
X919997Y209130D01*
Y169130D02*
X925077Y174210D01*
X930157Y169130D01*
X925077Y164050D01*
X919997Y169130D01*
Y129130D02*
X925077Y134210D01*
X930157Y129130D01*
X925077Y124050D01*
X919997Y129130D01*
Y89130D02*
X925077Y94210D01*
X930157Y89130D01*
X925077Y84050D01*
X919997Y89130D01*
X909997Y69130D02*
X915077Y74210D01*
X920157Y69130D01*
X915077Y64050D01*
X909997Y69130D01*
X919997Y49130D02*
X925077Y54210D01*
X930157Y49130D01*
X925077Y44050D01*
X919997Y49130D01*
Y-30870D02*
X925077Y-25790D01*
X930157Y-30870D01*
X925077Y-35950D01*
X919997Y-30870D01*
X909997Y-50870D02*
X915077Y-45790D01*
X920157Y-50870D01*
X915077Y-55950D01*
X909997Y-50870D01*
X889997Y909131D02*
X895077Y914211D01*
X900157Y909131D01*
X895077Y904051D01*
X889997Y909131D01*
X899997Y889131D02*
X905077Y894211D01*
X910157Y889131D01*
X905077Y884051D01*
X899997Y889131D01*
Y809131D02*
X905077Y814211D01*
X910157Y809131D01*
X905077Y804051D01*
X899997Y809131D01*
X889997Y789131D02*
X895077Y794211D01*
X900157Y789131D01*
X895077Y784051D01*
X889997Y789131D01*
X899997Y769131D02*
X905077Y774211D01*
X910157Y769131D01*
X905077Y764051D01*
X899997Y769131D01*
Y649130D02*
X905077Y654211D01*
X910157Y649130D01*
X905077Y644051D01*
X899997Y649130D01*
Y129130D02*
X905077Y134210D01*
X910157Y129130D01*
X905077Y124050D01*
X899997Y129130D01*
X889997Y109130D02*
X895077Y114210D01*
X900157Y109130D01*
X895077Y104050D01*
X889997Y109130D01*
X899997Y89130D02*
X905077Y94210D01*
X910157Y89130D01*
X905077Y84050D01*
X899997Y89130D01*
X889997Y69130D02*
X895077Y74210D01*
X900157Y69130D01*
X895077Y64050D01*
X889997Y69130D01*
X899997Y49130D02*
X905077Y54210D01*
X910157Y49130D01*
X905077Y44050D01*
X899997Y49130D01*
X889997Y-50870D02*
X895077Y-45790D01*
X900157Y-50870D01*
X895077Y-55950D01*
X889997Y-50870D01*
X869997Y909131D02*
X875077Y914211D01*
X880157Y909131D01*
X875077Y904051D01*
X869997Y909131D01*
X879997Y889131D02*
X885077Y894211D01*
X890157Y889131D01*
X885077Y884051D01*
X879997Y889131D01*
Y809131D02*
X885077Y814211D01*
X890157Y809131D01*
X885077Y804051D01*
X879997Y809131D01*
X869997Y509131D02*
X875077Y514211D01*
X880157Y509131D01*
X875077Y504050D01*
X869997Y509131D01*
X879997Y489130D02*
X885077Y494210D01*
X890157Y489130D01*
X885077Y484050D01*
X879997Y489130D01*
X869997Y469130D02*
X875077Y474210D01*
X880157Y469130D01*
X875077Y464050D01*
X869997Y469130D01*
X879997Y409130D02*
X885077Y414210D01*
X890157Y409130D01*
X885077Y404050D01*
X879997Y409130D01*
Y369130D02*
X885077Y374210D01*
X890157Y369130D01*
X885077Y364050D01*
X879997Y369130D01*
Y329130D02*
X885077Y334210D01*
X890157Y329130D01*
X885077Y324050D01*
X879997Y329130D01*
X869997Y309130D02*
X875077Y314210D01*
X880157Y309130D01*
X875077Y304050D01*
X869997Y309130D01*
X879997Y289130D02*
X885077Y294210D01*
X890157Y289130D01*
X885077Y284050D01*
X879997Y289130D01*
X869997Y269130D02*
X875077Y274210D01*
X880157Y269130D01*
X875077Y264050D01*
X869997Y269130D01*
X879997Y249130D02*
X885077Y254210D01*
X890157Y249130D01*
X885077Y244050D01*
X879997Y249130D01*
X869997Y229130D02*
X875077Y234210D01*
X880157Y229130D01*
X875077Y224050D01*
X869997Y229130D01*
X879997Y209130D02*
X885077Y214210D01*
X890157Y209130D01*
X885077Y204050D01*
X879997Y209130D01*
X869997Y189130D02*
X875077Y194210D01*
X880157Y189130D01*
X875077Y184050D01*
X869997Y189130D01*
X879997Y169130D02*
X885077Y174210D01*
X890157Y169130D01*
X885077Y164050D01*
X879997Y169130D01*
X869997Y149130D02*
X875077Y154210D01*
X880157Y149130D01*
X875077Y144050D01*
X869997Y149130D01*
X879997Y49130D02*
X885077Y54210D01*
X890157Y49130D01*
X885077Y44050D01*
X879997Y49130D01*
X869997Y29130D02*
X875077Y34210D01*
X880157Y29130D01*
X875077Y24050D01*
X869997Y29130D01*
Y-50870D02*
X875077Y-45790D01*
X880157Y-50870D01*
X875077Y-55950D01*
X869997Y-50870D01*
X849997Y909131D02*
X855077Y914211D01*
X860157Y909131D01*
X855077Y904051D01*
X849997Y909131D01*
X859997Y889131D02*
X865077Y894211D01*
X870157Y889131D01*
X865077Y884051D01*
X859997Y889131D01*
X849997Y869131D02*
X855077Y874211D01*
X860157Y869131D01*
X855077Y864051D01*
X849997Y869131D01*
X859997Y849131D02*
X865077Y854211D01*
X870157Y849131D01*
X865077Y844051D01*
X859997Y849131D01*
X849997Y829131D02*
X855077Y834211D01*
X860157Y829131D01*
X855077Y824051D01*
X849997Y829131D01*
X859997Y809131D02*
X865077Y814211D01*
X870157Y809131D01*
X865077Y804051D01*
X859997Y809131D01*
X849997Y389130D02*
X855077Y394210D01*
X860157Y389130D01*
X855077Y384050D01*
X849997Y389130D01*
X859997Y369130D02*
X865077Y374210D01*
X870157Y369130D01*
X865077Y364050D01*
X859997Y369130D01*
X849997Y349130D02*
X855077Y354210D01*
X860157Y349130D01*
X855077Y344050D01*
X849997Y349130D01*
Y309130D02*
X855077Y314210D01*
X860157Y309130D01*
X855077Y304050D01*
X849997Y309130D01*
X859997Y289130D02*
X865077Y294210D01*
X870157Y289130D01*
X865077Y284050D01*
X859997Y289130D01*
X849997Y269130D02*
X855077Y274210D01*
X860157Y269130D01*
X855077Y264050D01*
X849997Y269130D01*
X859997Y249130D02*
X865077Y254210D01*
X870157Y249130D01*
X865077Y244050D01*
X859997Y249130D01*
Y209130D02*
X865077Y214210D01*
X870157Y209130D01*
X865077Y204050D01*
X859997Y209130D01*
Y169130D02*
X865077Y174210D01*
X870157Y169130D01*
X865077Y164050D01*
X859997Y169130D01*
X849997Y149130D02*
X855077Y154210D01*
X860157Y149130D01*
X855077Y144050D01*
X849997Y149130D01*
X859997Y129130D02*
X865077Y134210D01*
X870157Y129130D01*
X865077Y124050D01*
X859997Y129130D01*
X849997Y109130D02*
X855077Y114210D01*
X860157Y109130D01*
X855077Y104050D01*
X849997Y109130D01*
X859997Y89130D02*
X865077Y94210D01*
X870157Y89130D01*
X865077Y84050D01*
X859997Y89130D01*
X849997Y69130D02*
X855077Y74210D01*
X860157Y69130D01*
X855077Y64050D01*
X849997Y69130D01*
X859997Y49130D02*
X865077Y54210D01*
X870157Y49130D01*
X865077Y44050D01*
X859997Y49130D01*
X849997Y29130D02*
X855077Y34210D01*
X860157Y29130D01*
X855077Y24050D01*
X849997Y29130D01*
X859997Y9130D02*
X865077Y14210D01*
X870157Y9130D01*
X865077Y4050D01*
X859997Y9130D01*
X849997Y-10870D02*
X855077Y-5790D01*
X860157Y-10870D01*
X855077Y-15950D01*
X849997Y-10870D01*
X859997Y-30870D02*
X865077Y-25790D01*
X870157Y-30870D01*
X865077Y-35950D01*
X859997Y-30870D01*
X849997Y-50870D02*
X855077Y-45790D01*
X860157Y-50870D01*
X855077Y-55950D01*
X849997Y-50870D01*
X829997Y909131D02*
X835077Y914211D01*
X840157Y909131D01*
X835077Y904051D01*
X829997Y909131D01*
X839997Y889131D02*
X845077Y894211D01*
X850157Y889131D01*
X845077Y884051D01*
X839997Y889131D01*
Y729131D02*
X845077Y734211D01*
X850157Y729131D01*
X845077Y724051D01*
X839997Y729131D01*
X829997Y709131D02*
X835077Y714211D01*
X840157Y709131D01*
X835077Y704051D01*
X829997Y709131D01*
Y629131D02*
X835077Y634211D01*
X840157Y629131D01*
X835077Y624050D01*
X829997Y629131D01*
X839997Y329130D02*
X845077Y334210D01*
X850157Y329130D01*
X845077Y324050D01*
X839997Y329130D01*
Y289130D02*
X845077Y294210D01*
X850157Y289130D01*
X845077Y284050D01*
X839997Y289130D01*
Y169130D02*
X845077Y174210D01*
X850157Y169130D01*
X845077Y164050D01*
X839997Y169130D01*
X829997Y149130D02*
X835077Y154210D01*
X840157Y149130D01*
X835077Y144050D01*
X829997Y149130D01*
X839997Y129130D02*
X845077Y134210D01*
X850157Y129130D01*
X845077Y124050D01*
X839997Y129130D01*
X829997Y109130D02*
X835077Y114210D01*
X840157Y109130D01*
X835077Y104050D01*
X829997Y109130D01*
X839997Y9130D02*
X845077Y14210D01*
X850157Y9130D01*
X845077Y4050D01*
X839997Y9130D01*
X829997Y-10870D02*
X835077Y-5790D01*
X840157Y-10870D01*
X835077Y-15950D01*
X829997Y-10870D01*
X839997Y-30870D02*
X845077Y-25790D01*
X850157Y-30870D01*
X845077Y-35950D01*
X839997Y-30870D01*
X829997Y-50870D02*
X835077Y-45790D01*
X840157Y-50870D01*
X835077Y-55950D01*
X829997Y-50870D01*
X809997Y909131D02*
X815077Y914211D01*
X820157Y909131D01*
X815077Y904051D01*
X809997Y909131D01*
X819997Y889131D02*
X825077Y894211D01*
X830157Y889131D01*
X825077Y884051D01*
X819997Y889131D01*
X809997Y869131D02*
X815077Y874211D01*
X820157Y869131D01*
X815077Y864051D01*
X809997Y869131D01*
Y709131D02*
X815077Y714211D01*
X820157Y709131D01*
X815077Y704051D01*
X809997Y709131D01*
X819997Y569131D02*
X825077Y574211D01*
X830157Y569131D01*
X825077Y564050D01*
X819997Y569131D01*
X809997Y469130D02*
X815077Y474210D01*
X820157Y469130D01*
X815077Y464050D01*
X809997Y469130D01*
Y429130D02*
X815077Y434210D01*
X820157Y429130D01*
X815077Y424050D01*
X809997Y429130D01*
Y349130D02*
X815077Y354210D01*
X820157Y349130D01*
X815077Y344050D01*
X809997Y349130D01*
X819997Y169130D02*
X825077Y174210D01*
X830157Y169130D01*
X825077Y164050D01*
X819997Y169130D01*
X809997Y149130D02*
X815077Y154210D01*
X820157Y149130D01*
X815077Y144050D01*
X809997Y149130D01*
X819997Y129130D02*
X825077Y134210D01*
X830157Y129130D01*
X825077Y124050D01*
X819997Y129130D01*
X809997Y109130D02*
X815077Y114210D01*
X820157Y109130D01*
X815077Y104050D01*
X809997Y109130D01*
X819997Y89130D02*
X825077Y94210D01*
X830157Y89130D01*
X825077Y84050D01*
X819997Y89130D01*
X809997Y69130D02*
X815077Y74210D01*
X820157Y69130D01*
X815077Y64050D01*
X809997Y69130D01*
X819997Y49130D02*
X825077Y54210D01*
X830157Y49130D01*
X825077Y44050D01*
X819997Y49130D01*
X809997Y29130D02*
X815077Y34210D01*
X820157Y29130D01*
X815077Y24050D01*
X809997Y29130D01*
X819997Y9130D02*
X825077Y14210D01*
X830157Y9130D01*
X825077Y4050D01*
X819997Y9130D01*
X809997Y-10870D02*
X815077Y-5790D01*
X820157Y-10870D01*
X815077Y-15950D01*
X809997Y-10870D01*
X819997Y-30870D02*
X825077Y-25790D01*
X830157Y-30870D01*
X825077Y-35950D01*
X819997Y-30870D01*
X809997Y-50870D02*
X815077Y-45790D01*
X820157Y-50870D01*
X815077Y-55950D01*
X809997Y-50870D01*
X789997Y909131D02*
X795077Y914211D01*
X800157Y909131D01*
X795077Y904051D01*
X789997Y909131D01*
X799997Y889131D02*
X805077Y894211D01*
X810157Y889131D01*
X805077Y884051D01*
X799997Y889131D01*
X789997Y829131D02*
X795077Y834211D01*
X800157Y829131D01*
X795077Y824051D01*
X789997Y829131D01*
Y709131D02*
X795077Y714211D01*
X800157Y709131D01*
X795077Y704051D01*
X789997Y709131D01*
Y549131D02*
X795077Y554211D01*
X800157Y549131D01*
X795077Y544050D01*
X789997Y549131D01*
X799997Y329130D02*
X805077Y334210D01*
X810157Y329130D01*
X805077Y324050D01*
X799997Y329130D01*
Y289130D02*
X805077Y294210D01*
X810157Y289130D01*
X805077Y284050D01*
X799997Y289130D01*
Y169130D02*
X805077Y174210D01*
X810157Y169130D01*
X805077Y164050D01*
X799997Y169130D01*
Y129130D02*
X805077Y134210D01*
X810157Y129130D01*
X805077Y124050D01*
X799997Y129130D01*
Y-30870D02*
X805077Y-25790D01*
X810157Y-30870D01*
X805077Y-35950D01*
X799997Y-30870D01*
X789997Y-50870D02*
X795077Y-45790D01*
X800157Y-50870D01*
X795077Y-55950D01*
X789997Y-50870D01*
X769997Y909131D02*
X775077Y914211D01*
X780157Y909131D01*
X775077Y904051D01*
X769997Y909131D01*
X779997Y889131D02*
X785077Y894211D01*
X790157Y889131D01*
X785077Y884051D01*
X779997Y889131D01*
Y809131D02*
X785077Y814211D01*
X790157Y809131D01*
X785077Y804051D01*
X779997Y809131D01*
X769997Y789131D02*
X775077Y794211D01*
X780157Y789131D01*
X775077Y784051D01*
X769997Y789131D01*
X779997Y729131D02*
X785077Y734211D01*
X790157Y729131D01*
X785077Y724051D01*
X779997Y729131D01*
X769997Y309130D02*
X775077Y314210D01*
X780157Y309130D01*
X775077Y304050D01*
X769997Y309130D01*
Y69130D02*
X775077Y74210D01*
X780157Y69130D01*
X775077Y64050D01*
X769997Y69130D01*
X779997Y-30870D02*
X785077Y-25790D01*
X790157Y-30870D01*
X785077Y-35950D01*
X779997Y-30870D01*
X769997Y-50870D02*
X775077Y-45790D01*
X780157Y-50870D01*
X775077Y-55950D01*
X769997Y-50870D01*
X749997Y909131D02*
X755077Y914211D01*
X760157Y909131D01*
X755077Y904051D01*
X749997Y909131D01*
X759997Y889131D02*
X765077Y894211D01*
X770157Y889131D01*
X765077Y884051D01*
X759997Y889131D01*
X749997Y749131D02*
X755077Y754211D01*
X760157Y749131D01*
X755077Y744051D01*
X749997Y749131D01*
X759997Y729131D02*
X765077Y734211D01*
X770157Y729131D01*
X765077Y724051D01*
X759997Y729131D01*
X749997Y549131D02*
X755077Y554211D01*
X760157Y549131D01*
X755077Y544050D01*
X749997Y549131D01*
Y509131D02*
X755077Y514211D01*
X760157Y509131D01*
X755077Y504050D01*
X749997Y509131D01*
Y469130D02*
X755077Y474210D01*
X760157Y469130D01*
X755077Y464050D01*
X749997Y469130D01*
Y429130D02*
X755077Y434210D01*
X760157Y429130D01*
X755077Y424050D01*
X749997Y429130D01*
X759997Y289130D02*
X765077Y294210D01*
X770157Y289130D01*
X765077Y284050D01*
X759997Y289130D01*
Y249130D02*
X765077Y254210D01*
X770157Y249130D01*
X765077Y244050D01*
X759997Y249130D01*
X749997Y229130D02*
X755077Y234210D01*
X760157Y229130D01*
X755077Y224050D01*
X749997Y229130D01*
X759997Y209130D02*
X765077Y214210D01*
X770157Y209130D01*
X765077Y204050D01*
X759997Y209130D01*
X749997Y189130D02*
X755077Y194210D01*
X760157Y189130D01*
X755077Y184050D01*
X749997Y189130D01*
X759997Y169130D02*
X765077Y174210D01*
X770157Y169130D01*
X765077Y164050D01*
X759997Y169130D01*
X749997Y149130D02*
X755077Y154210D01*
X760157Y149130D01*
X755077Y144050D01*
X749997Y149130D01*
X759997Y129130D02*
X765077Y134210D01*
X770157Y129130D01*
X765077Y124050D01*
X759997Y129130D01*
X749997Y109130D02*
X755077Y114210D01*
X760157Y109130D01*
X755077Y104050D01*
X749997Y109130D01*
X759997Y89130D02*
X765077Y94210D01*
X770157Y89130D01*
X765077Y84050D01*
X759997Y89130D01*
X749997Y29130D02*
X755077Y34210D01*
X760157Y29130D01*
X755077Y24050D01*
X749997Y29130D01*
X759997Y-30870D02*
X765077Y-25790D01*
X770157Y-30870D01*
X765077Y-35950D01*
X759997Y-30870D01*
X749997Y-50870D02*
X755077Y-45790D01*
X760157Y-50870D01*
X755077Y-55950D01*
X749997Y-50870D01*
X729997Y909131D02*
X735077Y914211D01*
X740157Y909131D01*
X735077Y904051D01*
X729997Y909131D01*
X739997Y889131D02*
X745077Y894211D01*
X750157Y889131D01*
X745077Y884051D01*
X739997Y889131D01*
X729997Y829131D02*
X735077Y834211D01*
X740157Y829131D01*
X735077Y824051D01*
X729997Y829131D01*
Y749131D02*
X735077Y754211D01*
X740157Y749131D01*
X735077Y744051D01*
X729997Y749131D01*
X739997Y729131D02*
X745077Y734211D01*
X750157Y729131D01*
X745077Y724051D01*
X739997Y729131D01*
Y529131D02*
X745077Y534211D01*
X750157Y529131D01*
X745077Y524050D01*
X739997Y529131D01*
Y489130D02*
X745077Y494210D01*
X750157Y489130D01*
X745077Y484050D01*
X739997Y489130D01*
Y449130D02*
X745077Y454210D01*
X750157Y449130D01*
X745077Y444050D01*
X739997Y449130D01*
Y409130D02*
X745077Y414210D01*
X750157Y409130D01*
X745077Y404050D01*
X739997Y409130D01*
X729997Y269130D02*
X735077Y274210D01*
X740157Y269130D01*
X735077Y264050D01*
X729997Y269130D01*
Y229130D02*
X735077Y234210D01*
X740157Y229130D01*
X735077Y224050D01*
X729997Y229130D01*
X739997Y169130D02*
X745077Y174210D01*
X750157Y169130D01*
X745077Y164050D01*
X739997Y169130D01*
X729997Y149130D02*
X735077Y154210D01*
X740157Y149130D01*
X735077Y144050D01*
X729997Y149130D01*
X739997Y129130D02*
X745077Y134210D01*
X750157Y129130D01*
X745077Y124050D01*
X739997Y129130D01*
X729997Y109130D02*
X735077Y114210D01*
X740157Y109130D01*
X735077Y104050D01*
X729997Y109130D01*
X739997Y89130D02*
X745077Y94210D01*
X750157Y89130D01*
X745077Y84050D01*
X739997Y89130D01*
Y9130D02*
X745077Y14210D01*
X750157Y9130D01*
X745077Y4050D01*
X739997Y9130D01*
Y-30870D02*
X745077Y-25790D01*
X750157Y-30870D01*
X745077Y-35950D01*
X739997Y-30870D01*
X729997Y-50870D02*
X735077Y-45790D01*
X740157Y-50870D01*
X735077Y-55950D01*
X729997Y-50870D01*
X709996Y909131D02*
X715077Y914211D01*
X720156Y909131D01*
X715077Y904051D01*
X709996Y909131D01*
X719997Y889131D02*
X725077Y894211D01*
X730157Y889131D01*
X725077Y884051D01*
X719997Y889131D01*
X709996Y789131D02*
X715077Y794211D01*
X720156Y789131D01*
X715077Y784051D01*
X709996Y789131D01*
Y749131D02*
X715077Y754211D01*
X720156Y749131D01*
X715077Y744051D01*
X709996Y749131D01*
X719997Y729131D02*
X725077Y734211D01*
X730157Y729131D01*
X725077Y724051D01*
X719997Y729131D01*
X709996Y549131D02*
X715077Y554211D01*
X720156Y549131D01*
X715077Y544050D01*
X709996Y549131D01*
X719997Y529131D02*
X725077Y534211D01*
X730157Y529131D01*
X725077Y524050D01*
X719997Y529131D01*
X709996Y509131D02*
X715077Y514211D01*
X720156Y509131D01*
X715077Y504050D01*
X709996Y509131D01*
X719997Y489130D02*
X725077Y494210D01*
X730157Y489130D01*
X725077Y484050D01*
X719997Y489130D01*
X709996Y469130D02*
X715077Y474210D01*
X720156Y469130D01*
X715077Y464050D01*
X709996Y469130D01*
X719997Y449130D02*
X725077Y454210D01*
X730157Y449130D01*
X725077Y444050D01*
X719997Y449130D01*
X709996Y429130D02*
X715077Y434210D01*
X720156Y429130D01*
X715077Y424050D01*
X709996Y429130D01*
X719997Y409130D02*
X725077Y414210D01*
X730157Y409130D01*
X725077Y404050D01*
X719997Y409130D01*
X709996Y389130D02*
X715077Y394210D01*
X720156Y389130D01*
X715077Y384050D01*
X709996Y389130D01*
X719997Y249130D02*
X725077Y254210D01*
X730157Y249130D01*
X725077Y244050D01*
X719997Y249130D01*
X709996Y229130D02*
X715077Y234210D01*
X720156Y229130D01*
X715077Y224050D01*
X709996Y229130D01*
X719997Y209130D02*
X725077Y214210D01*
X730157Y209130D01*
X725077Y204050D01*
X719997Y209130D01*
X709996Y189130D02*
X715077Y194210D01*
X720156Y189130D01*
X715077Y184050D01*
X709996Y189130D01*
X719997Y169130D02*
X725077Y174210D01*
X730157Y169130D01*
X725077Y164050D01*
X719997Y169130D01*
X709996Y149130D02*
X715077Y154210D01*
X720156Y149130D01*
X715077Y144050D01*
X709996Y149130D01*
X719997Y129130D02*
X725077Y134210D01*
X730157Y129130D01*
X725077Y124050D01*
X719997Y129130D01*
X709996Y109130D02*
X715077Y114210D01*
X720156Y109130D01*
X715077Y104050D01*
X709996Y109130D01*
X719997Y89130D02*
X725077Y94210D01*
X730157Y89130D01*
X725077Y84050D01*
X719997Y89130D01*
Y-30870D02*
X725077Y-25790D01*
X730157Y-30870D01*
X725077Y-35950D01*
X719997Y-30870D01*
X709996Y-50870D02*
X715077Y-45790D01*
X720156Y-50870D01*
X715077Y-55950D01*
X709996Y-50870D01*
X689996Y909131D02*
X695077Y914211D01*
X700156Y909131D01*
X695077Y904051D01*
X689996Y909131D01*
X699996Y889131D02*
X705077Y894211D01*
X710156Y889131D01*
X705077Y884051D01*
X699996Y889131D01*
X689996Y869131D02*
X695077Y874211D01*
X700156Y869131D01*
X695077Y864051D01*
X689996Y869131D01*
Y829131D02*
X695077Y834211D01*
X700156Y829131D01*
X695077Y824051D01*
X689996Y829131D01*
Y789131D02*
X695077Y794211D01*
X700156Y789131D01*
X695077Y784051D01*
X689996Y789131D01*
Y749131D02*
X695077Y754211D01*
X700156Y749131D01*
X695077Y744051D01*
X689996Y749131D01*
X699996Y729131D02*
X705077Y734211D01*
X710156Y729131D01*
X705077Y724051D01*
X699996Y729131D01*
X689996Y709131D02*
X695077Y714211D01*
X700156Y709131D01*
X695077Y704051D01*
X689996Y709131D01*
Y669130D02*
X695077Y674211D01*
X700156Y669130D01*
X695077Y664051D01*
X689996Y669130D01*
Y629131D02*
X695077Y634211D01*
X700156Y629131D01*
X695077Y624050D01*
X689996Y629131D01*
X699996Y529131D02*
X705077Y534211D01*
X710156Y529131D01*
X705077Y524050D01*
X699996Y529131D01*
X689996Y509131D02*
X695077Y514211D01*
X700156Y509131D01*
X695077Y504050D01*
X689996Y509131D01*
X699996Y489130D02*
X705077Y494210D01*
X710156Y489130D01*
X705077Y484050D01*
X699996Y489130D01*
X689996Y469130D02*
X695077Y474210D01*
X700156Y469130D01*
X695077Y464050D01*
X689996Y469130D01*
X699996Y449130D02*
X705077Y454210D01*
X710156Y449130D01*
X705077Y444050D01*
X699996Y449130D01*
X689996Y429130D02*
X695077Y434210D01*
X700156Y429130D01*
X695077Y424050D01*
X689996Y429130D01*
X699996Y409130D02*
X705077Y414210D01*
X710156Y409130D01*
X705077Y404050D01*
X699996Y409130D01*
X689996Y389130D02*
X695077Y394210D01*
X700156Y389130D01*
X695077Y384050D01*
X689996Y389130D01*
X699996Y369130D02*
X705077Y374210D01*
X710156Y369130D01*
X705077Y364050D01*
X699996Y369130D01*
X689996Y349130D02*
X695077Y354210D01*
X700156Y349130D01*
X695077Y344050D01*
X689996Y349130D01*
Y229130D02*
X695077Y234210D01*
X700156Y229130D01*
X695077Y224050D01*
X689996Y229130D01*
Y189130D02*
X695077Y194210D01*
X700156Y189130D01*
X695077Y184050D01*
X689996Y189130D01*
X699996Y129130D02*
X705077Y134210D01*
X710156Y129130D01*
X705077Y124050D01*
X699996Y129130D01*
X689996Y109130D02*
X695077Y114210D01*
X700156Y109130D01*
X695077Y104050D01*
X689996Y109130D01*
X699996Y89130D02*
X705077Y94210D01*
X710156Y89130D01*
X705077Y84050D01*
X699996Y89130D01*
Y49130D02*
X705077Y54210D01*
X710156Y49130D01*
X705077Y44050D01*
X699996Y49130D01*
Y9130D02*
X705077Y14210D01*
X710156Y9130D01*
X705077Y4050D01*
X699996Y9130D01*
Y-30870D02*
X705077Y-25790D01*
X710156Y-30870D01*
X705077Y-35950D01*
X699996Y-30870D01*
X689996Y-50870D02*
X695077Y-45790D01*
X700156Y-50870D01*
X695077Y-55950D01*
X689996Y-50870D01*
X669996Y909131D02*
X675077Y914211D01*
X680156Y909131D01*
X675077Y904051D01*
X669996Y909131D01*
X679996Y889131D02*
X685077Y894211D01*
X690156Y889131D01*
X685077Y884051D01*
X679996Y889131D01*
X669996Y869131D02*
X675077Y874211D01*
X680156Y869131D01*
X675077Y864051D01*
X669996Y869131D01*
Y829131D02*
X675077Y834211D01*
X680156Y829131D01*
X675077Y824051D01*
X669996Y829131D01*
Y789131D02*
X675077Y794211D01*
X680156Y789131D01*
X675077Y784051D01*
X669996Y789131D01*
Y749131D02*
X675077Y754211D01*
X680156Y749131D01*
X675077Y744051D01*
X669996Y749131D01*
X679996Y729131D02*
X685077Y734211D01*
X690156Y729131D01*
X685077Y724051D01*
X679996Y729131D01*
X669996Y709131D02*
X675077Y714211D01*
X680156Y709131D01*
X675077Y704051D01*
X669996Y709131D01*
Y509131D02*
X675077Y514211D01*
X680156Y509131D01*
X675077Y504050D01*
X669996Y509131D01*
Y469130D02*
X675077Y474210D01*
X680156Y469130D01*
X675077Y464050D01*
X669996Y469130D01*
Y429130D02*
X675077Y434210D01*
X680156Y429130D01*
X675077Y424050D01*
X669996Y429130D01*
Y389130D02*
X675077Y394210D01*
X680156Y389130D01*
X675077Y384050D01*
X669996Y389130D01*
Y349130D02*
X675077Y354210D01*
X680156Y349130D01*
X675077Y344050D01*
X669996Y349130D01*
X679996Y209130D02*
X685077Y214210D01*
X690156Y209130D01*
X685077Y204050D01*
X679996Y209130D01*
X669996Y189130D02*
X675077Y194210D01*
X680156Y189130D01*
X675077Y184050D01*
X669996Y189130D01*
X679996Y169130D02*
X685077Y174210D01*
X690156Y169130D01*
X685077Y164050D01*
X679996Y169130D01*
Y129130D02*
X685077Y134210D01*
X690156Y129130D01*
X685077Y124050D01*
X679996Y129130D01*
Y89130D02*
X685077Y94210D01*
X690156Y89130D01*
X685077Y84050D01*
X679996Y89130D01*
Y49130D02*
X685077Y54210D01*
X690156Y49130D01*
X685077Y44050D01*
X679996Y49130D01*
X669996Y29130D02*
X675077Y34210D01*
X680156Y29130D01*
X675077Y24050D01*
X669996Y29130D01*
X679996Y9130D02*
X685077Y14210D01*
X690156Y9130D01*
X685077Y4050D01*
X679996Y9130D01*
Y-30870D02*
X685077Y-25790D01*
X690156Y-30870D01*
X685077Y-35950D01*
X679996Y-30870D01*
X669996Y-50870D02*
X675077Y-45790D01*
X680156Y-50870D01*
X675077Y-55950D01*
X669996Y-50870D01*
X649996Y909131D02*
X655077Y914211D01*
X660156Y909131D01*
X655077Y904051D01*
X649996Y909131D01*
X659996Y889131D02*
X665077Y894211D01*
X670156Y889131D01*
X665077Y884051D01*
X659996Y889131D01*
Y849131D02*
X665077Y854211D01*
X670156Y849131D01*
X665077Y844051D01*
X659996Y849131D01*
Y729131D02*
X665077Y734211D01*
X670156Y729131D01*
X665077Y724051D01*
X659996Y729131D01*
Y689130D02*
X665077Y694211D01*
X670156Y689130D01*
X665077Y684051D01*
X659996Y689130D01*
X649996Y669130D02*
X655077Y674211D01*
X660156Y669130D01*
X655077Y664051D01*
X649996Y669130D01*
X659996Y529131D02*
X665077Y534211D01*
X670156Y529131D01*
X665077Y524050D01*
X659996Y529131D01*
X649996Y509131D02*
X655077Y514211D01*
X660156Y509131D01*
X655077Y504050D01*
X649996Y509131D01*
X659996Y489130D02*
X665077Y494210D01*
X670156Y489130D01*
X665077Y484050D01*
X659996Y489130D01*
Y449130D02*
X665077Y454210D01*
X670156Y449130D01*
X665077Y444050D01*
X659996Y449130D01*
Y409130D02*
X665077Y414210D01*
X670156Y409130D01*
X665077Y404050D01*
X659996Y409130D01*
X649996Y389130D02*
X655077Y394210D01*
X660156Y389130D01*
X655077Y384050D01*
X649996Y389130D01*
X659996Y369130D02*
X665077Y374210D01*
X670156Y369130D01*
X665077Y364050D01*
X659996Y369130D01*
X649996Y349130D02*
X655077Y354210D01*
X660156Y349130D01*
X655077Y344050D01*
X649996Y349130D01*
X659996Y329130D02*
X665077Y334210D01*
X670156Y329130D01*
X665077Y324050D01*
X659996Y329130D01*
X649996Y309130D02*
X655077Y314210D01*
X660156Y309130D01*
X655077Y304050D01*
X649996Y309130D01*
Y189130D02*
X655077Y194210D01*
X660156Y189130D01*
X655077Y184050D01*
X649996Y189130D01*
X659996Y49130D02*
X665077Y54210D01*
X670156Y49130D01*
X665077Y44050D01*
X659996Y49130D01*
Y9130D02*
X665077Y14210D01*
X670156Y9130D01*
X665077Y4050D01*
X659996Y9130D01*
Y-30870D02*
X665077Y-25790D01*
X670156Y-30870D01*
X665077Y-35950D01*
X659996Y-30870D01*
X649996Y-50870D02*
X655077Y-45790D01*
X660156Y-50870D01*
X655077Y-55950D01*
X649996Y-50870D01*
X629996Y909131D02*
X635076Y914211D01*
X640156Y909131D01*
X635076Y904051D01*
X629996Y909131D01*
X639996Y889131D02*
X645077Y894211D01*
X650156Y889131D01*
X645077Y884051D01*
X639996Y889131D01*
X629996Y789131D02*
X635076Y794211D01*
X640156Y789131D01*
X635076Y784051D01*
X629996Y789131D01*
Y749131D02*
X635076Y754211D01*
X640156Y749131D01*
X635076Y744051D01*
X629996Y749131D01*
X639996Y729131D02*
X645077Y734211D01*
X650156Y729131D01*
X645077Y724051D01*
X639996Y729131D01*
X629996Y709131D02*
X635076Y714211D01*
X640156Y709131D01*
X635076Y704051D01*
X629996Y709131D01*
Y589131D02*
X635076Y594211D01*
X640156Y589131D01*
X635076Y584050D01*
X629996Y589131D01*
X639996Y569131D02*
X645077Y574211D01*
X650156Y569131D01*
X645077Y564050D01*
X639996Y569131D01*
X629996Y509131D02*
X635076Y514211D01*
X640156Y509131D01*
X635076Y504050D01*
X629996Y509131D01*
Y469130D02*
X635076Y474210D01*
X640156Y469130D01*
X635076Y464050D01*
X629996Y469130D01*
X639996Y449130D02*
X645077Y454210D01*
X650156Y449130D01*
X645077Y444050D01*
X639996Y449130D01*
X629996Y389130D02*
X635076Y394210D01*
X640156Y389130D01*
X635076Y384050D01*
X629996Y389130D01*
X639996Y329130D02*
X645077Y334210D01*
X650156Y329130D01*
X645077Y324050D01*
X639996Y329130D01*
X629996Y309130D02*
X635076Y314210D01*
X640156Y309130D01*
X635076Y304050D01*
X629996Y309130D01*
X639996Y129130D02*
X645077Y134210D01*
X650156Y129130D01*
X645077Y124050D01*
X639996Y129130D01*
X629996Y109130D02*
X635076Y114210D01*
X640156Y109130D01*
X635076Y104050D01*
X629996Y109130D01*
X639996Y9130D02*
X645077Y14210D01*
X650156Y9130D01*
X645077Y4050D01*
X639996Y9130D01*
X629996Y-50870D02*
X635076Y-45790D01*
X640156Y-50870D01*
X635076Y-55950D01*
X629996Y-50870D01*
X609996Y909131D02*
X615076Y914211D01*
X620157Y909131D01*
X615076Y904051D01*
X609996Y909131D01*
X619996Y889131D02*
X625076Y894211D01*
X630157Y889131D01*
X625076Y884051D01*
X619996Y889131D01*
X609996Y829131D02*
X615076Y834211D01*
X620157Y829131D01*
X615076Y824051D01*
X609996Y829131D01*
Y789131D02*
X615076Y794211D01*
X620157Y789131D01*
X615076Y784051D01*
X609996Y789131D01*
Y749131D02*
X615076Y754211D01*
X620157Y749131D01*
X615076Y744051D01*
X609996Y749131D01*
X619996Y729131D02*
X625076Y734211D01*
X630157Y729131D01*
X625076Y724051D01*
X619996Y729131D01*
X609996Y709131D02*
X615076Y714211D01*
X620157Y709131D01*
X615076Y704051D01*
X609996Y709131D01*
Y669130D02*
X615076Y674211D01*
X620157Y669130D01*
X615076Y664051D01*
X609996Y669130D01*
Y509131D02*
X615076Y514211D01*
X620157Y509131D01*
X615076Y504050D01*
X609996Y509131D01*
X619996Y489130D02*
X625076Y494210D01*
X630157Y489130D01*
X625076Y484050D01*
X619996Y489130D01*
X609996Y469130D02*
X615076Y474210D01*
X620157Y469130D01*
X615076Y464050D01*
X609996Y469130D01*
Y389130D02*
X615076Y394210D01*
X620157Y389130D01*
X615076Y384050D01*
X609996Y389130D01*
X619996Y329130D02*
X625076Y334210D01*
X630157Y329130D01*
X625076Y324050D01*
X619996Y329130D01*
X609996Y309130D02*
X615076Y314210D01*
X620157Y309130D01*
X615076Y304050D01*
X609996Y309130D01*
X619996Y289130D02*
X625076Y294210D01*
X630157Y289130D01*
X625076Y284050D01*
X619996Y289130D01*
X609996Y269130D02*
X615076Y274210D01*
X620157Y269130D01*
X615076Y264050D01*
X609996Y269130D01*
X619996Y129130D02*
X625076Y134210D01*
X630157Y129130D01*
X625076Y124050D01*
X619996Y129130D01*
X609996Y109130D02*
X615076Y114210D01*
X620157Y109130D01*
X615076Y104050D01*
X609996Y109130D01*
X619996Y9130D02*
X625076Y14210D01*
X630157Y9130D01*
X625076Y4050D01*
X619996Y9130D01*
X609996Y-50870D02*
X615076Y-45790D01*
X620157Y-50870D01*
X615076Y-55950D01*
X609996Y-50870D01*
X589996Y909131D02*
X595076Y914211D01*
X600157Y909131D01*
X595076Y904051D01*
X589996Y909131D01*
Y869131D02*
X595076Y874211D01*
X600157Y869131D01*
X595076Y864051D01*
X589996Y869131D01*
X599996Y809131D02*
X605076Y814211D01*
X610157Y809131D01*
X605076Y804051D01*
X599996Y809131D01*
X589996Y789131D02*
X595076Y794211D01*
X600157Y789131D01*
X595076Y784051D01*
X589996Y789131D01*
Y749131D02*
X595076Y754211D01*
X600157Y749131D01*
X595076Y744051D01*
X589996Y749131D01*
X599996Y729131D02*
X605076Y734211D01*
X610157Y729131D01*
X605076Y724051D01*
X599996Y729131D01*
X589996Y709131D02*
X595076Y714211D01*
X600157Y709131D01*
X595076Y704051D01*
X589996Y709131D01*
X599996Y449130D02*
X605076Y454210D01*
X610157Y449130D01*
X605076Y444050D01*
X599996Y449130D01*
Y329130D02*
X605076Y334210D01*
X610157Y329130D01*
X605076Y324050D01*
X599996Y329130D01*
Y289130D02*
X605076Y294210D01*
X610157Y289130D01*
X605076Y284050D01*
X599996Y289130D01*
Y129130D02*
X605076Y134210D01*
X610157Y129130D01*
X605076Y124050D01*
X599996Y129130D01*
X589996Y109130D02*
X595076Y114210D01*
X600157Y109130D01*
X595076Y104050D01*
X589996Y109130D01*
Y29130D02*
X595076Y34210D01*
X600157Y29130D01*
X595076Y24050D01*
X589996Y29130D01*
Y-50870D02*
X595076Y-45790D01*
X600157Y-50870D01*
X595076Y-55950D01*
X589996Y-50870D01*
X569996Y909131D02*
X575076Y914211D01*
X580157Y909131D01*
X575076Y904051D01*
X569996Y909131D01*
X579996Y849131D02*
X585076Y854211D01*
X590157Y849131D01*
X585076Y844051D01*
X579996Y849131D01*
X569996Y829131D02*
X575076Y834211D01*
X580157Y829131D01*
X575076Y824051D01*
X569996Y829131D01*
X579996Y809131D02*
X585076Y814211D01*
X590157Y809131D01*
X585076Y804051D01*
X579996Y809131D01*
X569996Y789131D02*
X575076Y794211D01*
X580157Y789131D01*
X575076Y784051D01*
X569996Y789131D01*
Y749131D02*
X575076Y754211D01*
X580157Y749131D01*
X575076Y744051D01*
X569996Y749131D01*
X579996Y729131D02*
X585076Y734211D01*
X590157Y729131D01*
X585076Y724051D01*
X579996Y729131D01*
Y689130D02*
X585076Y694211D01*
X590157Y689130D01*
X585076Y684051D01*
X579996Y689130D01*
X569996Y669130D02*
X575076Y674211D01*
X580157Y669130D01*
X575076Y664051D01*
X569996Y669130D01*
Y109130D02*
X575076Y114210D01*
X580157Y109130D01*
X575076Y104050D01*
X569996Y109130D01*
Y29130D02*
X575076Y34210D01*
X580157Y29130D01*
X575076Y24050D01*
X569996Y29130D01*
X579996Y9130D02*
X585076Y14210D01*
X590157Y9130D01*
X585076Y4050D01*
X579996Y9130D01*
X569996Y-50870D02*
X575076Y-45790D01*
X580157Y-50870D01*
X575076Y-55950D01*
X569996Y-50870D01*
X549996Y909131D02*
X555076Y914211D01*
X560157Y909131D01*
X555076Y904051D01*
X549996Y909131D01*
Y869131D02*
X555076Y874211D01*
X560157Y869131D01*
X555076Y864051D01*
X549996Y869131D01*
X559996Y849131D02*
X565076Y854211D01*
X570157Y849131D01*
X565076Y844051D01*
X559996Y849131D01*
X549996Y829131D02*
X555076Y834211D01*
X560157Y829131D01*
X555076Y824051D01*
X549996Y829131D01*
X559996Y809131D02*
X565076Y814211D01*
X570157Y809131D01*
X565076Y804051D01*
X559996Y809131D01*
X549996Y789131D02*
X555076Y794211D01*
X560157Y789131D01*
X555076Y784051D01*
X549996Y789131D01*
Y749131D02*
X555076Y754211D01*
X560157Y749131D01*
X555076Y744051D01*
X549996Y749131D01*
X559996Y729131D02*
X565076Y734211D01*
X570157Y729131D01*
X565076Y724051D01*
X559996Y729131D01*
Y689130D02*
X565076Y694211D01*
X570157Y689130D01*
X565076Y684051D01*
X559996Y689130D01*
X549996Y549131D02*
X555076Y554211D01*
X560157Y549131D01*
X555076Y544050D01*
X549996Y549131D01*
Y509131D02*
X555076Y514211D01*
X560157Y509131D01*
X555076Y504050D01*
X549996Y509131D01*
Y429130D02*
X555076Y434210D01*
X560157Y429130D01*
X555076Y424050D01*
X549996Y429130D01*
Y269130D02*
X555076Y274210D01*
X560157Y269130D01*
X555076Y264050D01*
X549996Y269130D01*
X559996Y89130D02*
X565076Y94210D01*
X570157Y89130D01*
X565076Y84050D01*
X559996Y89130D01*
X549996Y69130D02*
X555076Y74210D01*
X560157Y69130D01*
X555076Y64050D01*
X549996Y69130D01*
Y29130D02*
X555076Y34210D01*
X560157Y29130D01*
X555076Y24050D01*
X549996Y29130D01*
X559996Y9130D02*
X565076Y14210D01*
X570157Y9130D01*
X565076Y4050D01*
X559996Y9130D01*
X549996Y-50870D02*
X555076Y-45790D01*
X560157Y-50870D01*
X555076Y-55950D01*
X549996Y-50870D01*
X529996Y909131D02*
X535076Y914211D01*
X540157Y909131D01*
X535076Y904051D01*
X529996Y909131D01*
X539996Y809131D02*
X545076Y814211D01*
X550157Y809131D01*
X545076Y804051D01*
X539996Y809131D01*
X529996Y789131D02*
X535076Y794211D01*
X540157Y789131D01*
X535076Y784051D01*
X529996Y789131D01*
Y749131D02*
X535076Y754211D01*
X540157Y749131D01*
X535076Y744051D01*
X529996Y749131D01*
X539996Y729131D02*
X545076Y734211D01*
X550157Y729131D01*
X545076Y724051D01*
X539996Y729131D01*
Y569131D02*
X545076Y574211D01*
X550157Y569131D01*
X545076Y564050D01*
X539996Y569131D01*
X529996Y549131D02*
X535076Y554211D01*
X540157Y549131D01*
X535076Y544050D01*
X529996Y549131D01*
X539996Y529131D02*
X545076Y534211D01*
X550157Y529131D01*
X545076Y524050D01*
X539996Y529131D01*
X529996Y509131D02*
X535076Y514211D01*
X540157Y509131D01*
X535076Y504050D01*
X529996Y509131D01*
X539996Y489130D02*
X545076Y494210D01*
X550157Y489130D01*
X545076Y484050D01*
X539996Y489130D01*
Y449130D02*
X545076Y454210D01*
X550157Y449130D01*
X545076Y444050D01*
X539996Y449130D01*
Y409130D02*
X545076Y414210D01*
X550157Y409130D01*
X545076Y404050D01*
X539996Y409130D01*
X529996Y389130D02*
X535076Y394210D01*
X540157Y389130D01*
X535076Y384050D01*
X529996Y389130D01*
X539996Y369130D02*
X545076Y374210D01*
X550157Y369130D01*
X545076Y364050D01*
X539996Y369130D01*
X529996Y349130D02*
X535076Y354210D01*
X540157Y349130D01*
X535076Y344050D01*
X529996Y349130D01*
X539996Y329130D02*
X545076Y334210D01*
X550157Y329130D01*
X545076Y324050D01*
X539996Y329130D01*
X529996Y309130D02*
X535076Y314210D01*
X540157Y309130D01*
X535076Y304050D01*
X529996Y309130D01*
X539996Y289130D02*
X545076Y294210D01*
X550157Y289130D01*
X545076Y284050D01*
X539996Y289130D01*
X529996Y269130D02*
X535076Y274210D01*
X540157Y269130D01*
X535076Y264050D01*
X529996Y269130D01*
X539996Y249130D02*
X545076Y254210D01*
X550157Y249130D01*
X545076Y244050D01*
X539996Y249130D01*
X529996Y-50870D02*
X535076Y-45790D01*
X540157Y-50870D01*
X535076Y-55950D01*
X529996Y-50870D01*
X509996Y909131D02*
X515076Y914211D01*
X520156Y909131D01*
X515076Y904051D01*
X509996Y909131D01*
Y829131D02*
X515076Y834211D01*
X520156Y829131D01*
X515076Y824051D01*
X509996Y829131D01*
X519996Y809131D02*
X525076Y814211D01*
X530156Y809131D01*
X525076Y804051D01*
X519996Y809131D01*
X509996Y789131D02*
X515076Y794211D01*
X520156Y789131D01*
X515076Y784051D01*
X509996Y789131D01*
Y749131D02*
X515076Y754211D01*
X520156Y749131D01*
X515076Y744051D01*
X509996Y749131D01*
X519996Y729131D02*
X525076Y734211D01*
X530156Y729131D01*
X525076Y724051D01*
X519996Y729131D01*
X509996Y669130D02*
X515076Y674211D01*
X520156Y669130D01*
X515076Y664051D01*
X509996Y669130D01*
X519996Y569131D02*
X525076Y574211D01*
X530156Y569131D01*
X525076Y564050D01*
X519996Y569131D01*
X509996Y549131D02*
X515076Y554211D01*
X520156Y549131D01*
X515076Y544050D01*
X509996Y549131D01*
X519996Y529131D02*
X525076Y534211D01*
X530156Y529131D01*
X525076Y524050D01*
X519996Y529131D01*
X509996Y509131D02*
X515076Y514211D01*
X520156Y509131D01*
X515076Y504050D01*
X509996Y509131D01*
X519996Y489130D02*
X525076Y494210D01*
X530156Y489130D01*
X525076Y484050D01*
X519996Y489130D01*
X509996Y469130D02*
X515076Y474210D01*
X520156Y469130D01*
X515076Y464050D01*
X509996Y469130D01*
X519996Y449130D02*
X525076Y454210D01*
X530156Y449130D01*
X525076Y444050D01*
X519996Y449130D01*
X509996Y429130D02*
X515076Y434210D01*
X520156Y429130D01*
X515076Y424050D01*
X509996Y429130D01*
X519996Y409130D02*
X525076Y414210D01*
X530156Y409130D01*
X525076Y404050D01*
X519996Y409130D01*
X509996Y389130D02*
X515076Y394210D01*
X520156Y389130D01*
X515076Y384050D01*
X509996Y389130D01*
X519996Y369130D02*
X525076Y374210D01*
X530156Y369130D01*
X525076Y364050D01*
X519996Y369130D01*
X509996Y349130D02*
X515076Y354210D01*
X520156Y349130D01*
X515076Y344050D01*
X509996Y349130D01*
X519996Y329130D02*
X525076Y334210D01*
X530156Y329130D01*
X525076Y324050D01*
X519996Y329130D01*
X509996Y309130D02*
X515076Y314210D01*
X520156Y309130D01*
X515076Y304050D01*
X509996Y309130D01*
X519996Y289130D02*
X525076Y294210D01*
X530156Y289130D01*
X525076Y284050D01*
X519996Y289130D01*
X509996Y269130D02*
X515076Y274210D01*
X520156Y269130D01*
X515076Y264050D01*
X509996Y269130D01*
X519996Y249130D02*
X525076Y254210D01*
X530156Y249130D01*
X525076Y244050D01*
X519996Y249130D01*
Y89130D02*
X525076Y94210D01*
X530156Y89130D01*
X525076Y84050D01*
X519996Y89130D01*
X509996Y-50870D02*
X515076Y-45790D01*
X520156Y-50870D01*
X515076Y-55950D01*
X509996Y-50870D01*
X489996Y909131D02*
X495076Y914211D01*
X500156Y909131D01*
X495076Y904051D01*
X489996Y909131D01*
X499996Y809131D02*
X505076Y814211D01*
X510156Y809131D01*
X505076Y804051D01*
X499996Y809131D01*
X489996Y789131D02*
X495076Y794211D01*
X500156Y789131D01*
X495076Y784051D01*
X489996Y789131D01*
Y709131D02*
X495076Y714211D01*
X500156Y709131D01*
X495076Y704051D01*
X489996Y709131D01*
X499996Y689130D02*
X505076Y694211D01*
X510156Y689130D01*
X505076Y684051D01*
X499996Y689130D01*
Y569131D02*
X505076Y574211D01*
X510156Y569131D01*
X505076Y564050D01*
X499996Y569131D01*
Y89130D02*
X505076Y94210D01*
X510156Y89130D01*
X505076Y84050D01*
X499996Y89130D01*
X489996Y-50870D02*
X495076Y-45790D01*
X500156Y-50870D01*
X495076Y-55950D01*
X489996Y-50870D01*
X469996Y909131D02*
X475076Y914211D01*
X480156Y909131D01*
X475076Y904051D01*
X469996Y909131D01*
X479996Y889131D02*
X485076Y894211D01*
X490156Y889131D01*
X485076Y884051D01*
X479996Y889131D01*
Y809131D02*
X485076Y814211D01*
X490156Y809131D01*
X485076Y804051D01*
X479996Y809131D01*
X469996Y789131D02*
X475076Y794211D01*
X480156Y789131D01*
X475076Y784051D01*
X469996Y789131D01*
X479996Y729131D02*
X485076Y734211D01*
X490156Y729131D01*
X485076Y724051D01*
X479996Y729131D01*
X469996Y549131D02*
X475076Y554211D01*
X480156Y549131D01*
X475076Y544050D01*
X469996Y549131D01*
Y509131D02*
X475076Y514211D01*
X480156Y509131D01*
X475076Y504050D01*
X469996Y509131D01*
Y469130D02*
X475076Y474210D01*
X480156Y469130D01*
X475076Y464050D01*
X469996Y469130D01*
Y429130D02*
X475076Y434210D01*
X480156Y429130D01*
X475076Y424050D01*
X469996Y429130D01*
Y389130D02*
X475076Y394210D01*
X480156Y389130D01*
X475076Y384050D01*
X469996Y389130D01*
Y349130D02*
X475076Y354210D01*
X480156Y349130D01*
X475076Y344050D01*
X469996Y349130D01*
Y309130D02*
X475076Y314210D01*
X480156Y309130D01*
X475076Y304050D01*
X469996Y309130D01*
Y269130D02*
X475076Y274210D01*
X480156Y269130D01*
X475076Y264050D01*
X469996Y269130D01*
X479996Y209130D02*
X485076Y214210D01*
X490156Y209130D01*
X485076Y204050D01*
X479996Y209130D01*
Y89130D02*
X485076Y94210D01*
X490156Y89130D01*
X485076Y84050D01*
X479996Y89130D01*
X469996Y-50870D02*
X475076Y-45790D01*
X480156Y-50870D01*
X475076Y-55950D01*
X469996Y-50870D01*
X449996Y909131D02*
X455076Y914211D01*
X460156Y909131D01*
X455076Y904051D01*
X449996Y909131D01*
X459996Y889131D02*
X465076Y894211D01*
X470156Y889131D01*
X465076Y884051D01*
X459996Y889131D01*
X449996Y749131D02*
X455076Y754211D01*
X460156Y749131D01*
X455076Y744051D01*
X449996Y749131D01*
Y549131D02*
X455076Y554211D01*
X460156Y549131D01*
X455076Y544050D01*
X449996Y549131D01*
X459996Y529131D02*
X465076Y534211D01*
X470156Y529131D01*
X465076Y524050D01*
X459996Y529131D01*
X449996Y509131D02*
X455076Y514211D01*
X460156Y509131D01*
X455076Y504050D01*
X449996Y509131D01*
X459996Y489130D02*
X465076Y494210D01*
X470156Y489130D01*
X465076Y484050D01*
X459996Y489130D01*
X449996Y469130D02*
X455076Y474210D01*
X460156Y469130D01*
X455076Y464050D01*
X449996Y469130D01*
X459996Y449130D02*
X465076Y454210D01*
X470156Y449130D01*
X465076Y444050D01*
X459996Y449130D01*
X449996Y429130D02*
X455076Y434210D01*
X460156Y429130D01*
X455076Y424050D01*
X449996Y429130D01*
X459996Y409130D02*
X465076Y414210D01*
X470156Y409130D01*
X465076Y404050D01*
X459996Y409130D01*
X449996Y389130D02*
X455076Y394210D01*
X460156Y389130D01*
X455076Y384050D01*
X449996Y389130D01*
X459996Y369130D02*
X465076Y374210D01*
X470156Y369130D01*
X465076Y364050D01*
X459996Y369130D01*
X449996Y349130D02*
X455076Y354210D01*
X460156Y349130D01*
X455076Y344050D01*
X449996Y349130D01*
X459996Y329130D02*
X465076Y334210D01*
X470156Y329130D01*
X465076Y324050D01*
X459996Y329130D01*
X449996Y309130D02*
X455076Y314210D01*
X460156Y309130D01*
X455076Y304050D01*
X449996Y309130D01*
X459996Y289130D02*
X465076Y294210D01*
X470156Y289130D01*
X465076Y284050D01*
X459996Y289130D01*
X449996Y269130D02*
X455076Y274210D01*
X460156Y269130D01*
X455076Y264050D01*
X449996Y269130D01*
X459996Y209130D02*
X465076Y214210D01*
X470156Y209130D01*
X465076Y204050D01*
X459996Y209130D01*
Y89130D02*
X465076Y94210D01*
X470156Y89130D01*
X465076Y84050D01*
X459996Y89130D01*
X449996Y-50870D02*
X455076Y-45790D01*
X460156Y-50870D01*
X455076Y-55950D01*
X449996Y-50870D01*
X429996Y909131D02*
X435076Y914211D01*
X440156Y909131D01*
X435076Y904051D01*
X429996Y909131D01*
Y749131D02*
X435076Y754211D01*
X440156Y749131D01*
X435076Y744051D01*
X429996Y749131D01*
Y709131D02*
X435076Y714211D01*
X440156Y709131D01*
X435076Y704051D01*
X429996Y709131D01*
X439996Y689130D02*
X445076Y694211D01*
X450156Y689130D01*
X445076Y684051D01*
X439996Y689130D01*
X429996Y549131D02*
X435076Y554211D01*
X440156Y549131D01*
X435076Y544050D01*
X429996Y549131D01*
X439996Y529131D02*
X445076Y534211D01*
X450156Y529131D01*
X445076Y524050D01*
X439996Y529131D01*
X429996Y509131D02*
X435076Y514211D01*
X440156Y509131D01*
X435076Y504050D01*
X429996Y509131D01*
X439996Y489130D02*
X445076Y494210D01*
X450156Y489130D01*
X445076Y484050D01*
X439996Y489130D01*
X429996Y469130D02*
X435076Y474210D01*
X440156Y469130D01*
X435076Y464050D01*
X429996Y469130D01*
X439996Y449130D02*
X445076Y454210D01*
X450156Y449130D01*
X445076Y444050D01*
X439996Y449130D01*
X429996Y429130D02*
X435076Y434210D01*
X440156Y429130D01*
X435076Y424050D01*
X429996Y429130D01*
X439996Y409130D02*
X445076Y414210D01*
X450156Y409130D01*
X445076Y404050D01*
X439996Y409130D01*
X429996Y389130D02*
X435076Y394210D01*
X440156Y389130D01*
X435076Y384050D01*
X429996Y389130D01*
X439996Y369130D02*
X445076Y374210D01*
X450156Y369130D01*
X445076Y364050D01*
X439996Y369130D01*
X429996Y349130D02*
X435076Y354210D01*
X440156Y349130D01*
X435076Y344050D01*
X429996Y349130D01*
X439996Y329130D02*
X445076Y334210D01*
X450156Y329130D01*
X445076Y324050D01*
X439996Y329130D01*
X429996Y309130D02*
X435076Y314210D01*
X440156Y309130D01*
X435076Y304050D01*
X429996Y309130D01*
X439996Y289130D02*
X445076Y294210D01*
X450156Y289130D01*
X445076Y284050D01*
X439996Y289130D01*
X429996Y269130D02*
X435076Y274210D01*
X440156Y269130D01*
X435076Y264050D01*
X429996Y269130D01*
X439996Y209130D02*
X445076Y214210D01*
X450156Y209130D01*
X445076Y204050D01*
X439996Y209130D01*
Y89130D02*
X445076Y94210D01*
X450156Y89130D01*
X445076Y84050D01*
X439996Y89130D01*
Y9130D02*
X445076Y14210D01*
X450156Y9130D01*
X445076Y4050D01*
X439996Y9130D01*
X429996Y-50870D02*
X435076Y-45790D01*
X440156Y-50870D01*
X435076Y-55950D01*
X429996Y-50870D01*
X409996Y909131D02*
X415076Y914211D01*
X420156Y909131D01*
X415076Y904051D01*
X409996Y909131D01*
Y749131D02*
X415076Y754211D01*
X420156Y749131D01*
X415076Y744051D01*
X409996Y749131D01*
X419996Y729131D02*
X425076Y734211D01*
X430156Y729131D01*
X425076Y724051D01*
X419996Y729131D01*
X409996Y709131D02*
X415076Y714211D01*
X420156Y709131D01*
X415076Y704051D01*
X409996Y709131D01*
Y669130D02*
X415076Y674211D01*
X420156Y669130D01*
X415076Y664051D01*
X409996Y669130D01*
Y549131D02*
X415076Y554211D01*
X420156Y549131D01*
X415076Y544050D01*
X409996Y549131D01*
X419996Y529131D02*
X425076Y534211D01*
X430156Y529131D01*
X425076Y524050D01*
X419996Y529131D01*
X409996Y509131D02*
X415076Y514211D01*
X420156Y509131D01*
X415076Y504050D01*
X409996Y509131D01*
X419996Y489130D02*
X425076Y494210D01*
X430156Y489130D01*
X425076Y484050D01*
X419996Y489130D01*
X409996Y469130D02*
X415076Y474210D01*
X420156Y469130D01*
X415076Y464050D01*
X409996Y469130D01*
X419996Y449130D02*
X425076Y454210D01*
X430156Y449130D01*
X425076Y444050D01*
X419996Y449130D01*
X409996Y429130D02*
X415076Y434210D01*
X420156Y429130D01*
X415076Y424050D01*
X409996Y429130D01*
X419996Y409130D02*
X425076Y414210D01*
X430156Y409130D01*
X425076Y404050D01*
X419996Y409130D01*
X409996Y389130D02*
X415076Y394210D01*
X420156Y389130D01*
X415076Y384050D01*
X409996Y389130D01*
X419996Y369130D02*
X425076Y374210D01*
X430156Y369130D01*
X425076Y364050D01*
X419996Y369130D01*
X409996Y349130D02*
X415076Y354210D01*
X420156Y349130D01*
X415076Y344050D01*
X409996Y349130D01*
X419996Y329130D02*
X425076Y334210D01*
X430156Y329130D01*
X425076Y324050D01*
X419996Y329130D01*
X409996Y309130D02*
X415076Y314210D01*
X420156Y309130D01*
X415076Y304050D01*
X409996Y309130D01*
X419996Y289130D02*
X425076Y294210D01*
X430156Y289130D01*
X425076Y284050D01*
X419996Y289130D01*
X409996Y269130D02*
X415076Y274210D01*
X420156Y269130D01*
X415076Y264050D01*
X409996Y269130D01*
Y229130D02*
X415076Y234210D01*
X420156Y229130D01*
X415076Y224050D01*
X409996Y229130D01*
X419996Y89130D02*
X425076Y94210D01*
X430156Y89130D01*
X425076Y84050D01*
X419996Y89130D01*
Y9130D02*
X425076Y14210D01*
X430156Y9130D01*
X425076Y4050D01*
X419996Y9130D01*
Y-30870D02*
X425076Y-25790D01*
X430156Y-30870D01*
X425076Y-35950D01*
X419996Y-30870D01*
X409996Y-50870D02*
X415076Y-45790D01*
X420156Y-50870D01*
X415076Y-55950D01*
X409996Y-50870D01*
X389996Y909131D02*
X395076Y914211D01*
X400156Y909131D01*
X395076Y904051D01*
X389996Y909131D01*
X399996Y889131D02*
X405076Y894211D01*
X410156Y889131D01*
X405076Y884051D01*
X399996Y889131D01*
Y809131D02*
X405076Y814211D01*
X410156Y809131D01*
X405076Y804051D01*
X399996Y809131D01*
X389996Y749131D02*
X395076Y754211D01*
X400156Y749131D01*
X395076Y744051D01*
X389996Y749131D01*
X399996Y729131D02*
X405076Y734211D01*
X410156Y729131D01*
X405076Y724051D01*
X399996Y729131D01*
Y689130D02*
X405076Y694211D01*
X410156Y689130D01*
X405076Y684051D01*
X399996Y689130D01*
X389996Y549131D02*
X395076Y554211D01*
X400156Y549131D01*
X395076Y544050D01*
X389996Y549131D01*
X399996Y449130D02*
X405076Y454210D01*
X410156Y449130D01*
X405076Y444050D01*
X399996Y449130D01*
X389996Y429130D02*
X395076Y434210D01*
X400156Y429130D01*
X395076Y424050D01*
X389996Y429130D01*
Y309130D02*
X395076Y314210D01*
X400156Y309130D01*
X395076Y304050D01*
X389996Y309130D01*
X399996Y289130D02*
X405076Y294210D01*
X410156Y289130D01*
X405076Y284050D01*
X399996Y289130D01*
X389996Y269130D02*
X395076Y274210D01*
X400156Y269130D01*
X395076Y264050D01*
X389996Y269130D01*
Y229130D02*
X395076Y234210D01*
X400156Y229130D01*
X395076Y224050D01*
X389996Y229130D01*
X399996Y209130D02*
X405076Y214210D01*
X410156Y209130D01*
X405076Y204050D01*
X399996Y209130D01*
Y89130D02*
X405076Y94210D01*
X410156Y89130D01*
X405076Y84050D01*
X399996Y89130D01*
Y9130D02*
X405076Y14210D01*
X410156Y9130D01*
X405076Y4050D01*
X399996Y9130D01*
Y-30870D02*
X405076Y-25790D01*
X410156Y-30870D01*
X405076Y-35950D01*
X399996Y-30870D01*
X389996Y-50870D02*
X395076Y-45790D01*
X400156Y-50870D01*
X395076Y-55950D01*
X389996Y-50870D01*
X369996Y909131D02*
X375076Y914211D01*
X380156Y909131D01*
X375076Y904051D01*
X369996Y909131D01*
X379996Y889131D02*
X385076Y894211D01*
X390156Y889131D01*
X385076Y884051D01*
X379996Y889131D01*
Y809131D02*
X385076Y814211D01*
X390156Y809131D01*
X385076Y804051D01*
X379996Y809131D01*
X369996Y749131D02*
X375076Y754211D01*
X380156Y749131D01*
X375076Y744051D01*
X369996Y749131D01*
X379996Y609131D02*
X385076Y614211D01*
X390156Y609131D01*
X385076Y604050D01*
X379996Y609131D01*
Y449130D02*
X385076Y454210D01*
X390156Y449130D01*
X385076Y444050D01*
X379996Y449130D01*
X369996Y429130D02*
X375076Y434210D01*
X380156Y429130D01*
X375076Y424050D01*
X369996Y429130D01*
X379996Y289130D02*
X385076Y294210D01*
X390156Y289130D01*
X385076Y284050D01*
X379996Y289130D01*
X369996Y269130D02*
X375076Y274210D01*
X380156Y269130D01*
X375076Y264050D01*
X369996Y269130D01*
Y229130D02*
X375076Y234210D01*
X380156Y229130D01*
X375076Y224050D01*
X369996Y229130D01*
X379996Y209130D02*
X385076Y214210D01*
X390156Y209130D01*
X385076Y204050D01*
X379996Y209130D01*
X369996Y189130D02*
X375076Y194210D01*
X380156Y189130D01*
X375076Y184050D01*
X369996Y189130D01*
X379996Y89130D02*
X385076Y94210D01*
X390156Y89130D01*
X385076Y84050D01*
X379996Y89130D01*
Y9130D02*
X385076Y14210D01*
X390156Y9130D01*
X385076Y4050D01*
X379996Y9130D01*
Y-30870D02*
X385076Y-25790D01*
X390156Y-30870D01*
X385076Y-35950D01*
X379996Y-30870D01*
X369996Y-50870D02*
X375076Y-45790D01*
X380156Y-50870D01*
X375076Y-55950D01*
X369996Y-50870D01*
X359996Y809131D02*
X365076Y814211D01*
X370156Y809131D01*
X365076Y804051D01*
X359996Y809131D01*
Y769131D02*
X365076Y774211D01*
X370156Y769131D01*
X365076Y764051D01*
X359996Y769131D01*
Y609131D02*
X365076Y614211D01*
X370156Y609131D01*
X365076Y604050D01*
X359996Y609131D01*
X349996Y549131D02*
X355076Y554211D01*
X360156Y549131D01*
X355076Y544050D01*
X349996Y549131D01*
Y509131D02*
X355076Y514211D01*
X360156Y509131D01*
X355076Y504050D01*
X349996Y509131D01*
X359996Y489130D02*
X365076Y494210D01*
X370156Y489130D01*
X365076Y484050D01*
X359996Y489130D01*
X349996Y469130D02*
X355076Y474210D01*
X360156Y469130D01*
X355076Y464050D01*
X349996Y469130D01*
Y429130D02*
X355076Y434210D01*
X360156Y429130D01*
X355076Y424050D01*
X349996Y429130D01*
X359996Y409130D02*
X365076Y414210D01*
X370156Y409130D01*
X365076Y404050D01*
X359996Y409130D01*
X349996Y349130D02*
X355076Y354210D01*
X360156Y349130D01*
X355076Y344050D01*
X349996Y349130D01*
X359996Y289130D02*
X365076Y294210D01*
X370156Y289130D01*
X365076Y284050D01*
X359996Y289130D01*
X349996Y269130D02*
X355076Y274210D01*
X360156Y269130D01*
X355076Y264050D01*
X349996Y269130D01*
Y229130D02*
X355076Y234210D01*
X360156Y229130D01*
X355076Y224050D01*
X349996Y229130D01*
X359996Y209130D02*
X365076Y214210D01*
X370156Y209130D01*
X365076Y204050D01*
X359996Y209130D01*
X349996Y189130D02*
X355076Y194210D01*
X360156Y189130D01*
X355076Y184050D01*
X349996Y189130D01*
X359996Y89130D02*
X365076Y94210D01*
X370156Y89130D01*
X365076Y84050D01*
X359996Y89130D01*
Y9130D02*
X365076Y14210D01*
X370156Y9130D01*
X365076Y4050D01*
X359996Y9130D01*
Y-30870D02*
X365076Y-25790D01*
X370156Y-30870D01*
X365076Y-35950D01*
X359996Y-30870D01*
X349996Y-50870D02*
X355076Y-45790D01*
X360156Y-50870D01*
X355076Y-55950D01*
X349996Y-50870D01*
X339996Y609131D02*
X345076Y614211D01*
X350156Y609131D01*
X345076Y604050D01*
X339996Y609131D01*
X329996Y549131D02*
X335076Y554211D01*
X340156Y549131D01*
X335076Y544050D01*
X329996Y549131D01*
Y509131D02*
X335076Y514211D01*
X340156Y509131D01*
X335076Y504050D01*
X329996Y509131D01*
X339996Y489130D02*
X345076Y494210D01*
X350156Y489130D01*
X345076Y484050D01*
X339996Y489130D01*
X329996Y469130D02*
X335076Y474210D01*
X340156Y469130D01*
X335076Y464050D01*
X329996Y469130D01*
Y429130D02*
X335076Y434210D01*
X340156Y429130D01*
X335076Y424050D01*
X329996Y429130D01*
X339996Y409130D02*
X345076Y414210D01*
X350156Y409130D01*
X345076Y404050D01*
X339996Y409130D01*
Y369130D02*
X345076Y374210D01*
X350156Y369130D01*
X345076Y364050D01*
X339996Y369130D01*
X329996Y349130D02*
X335076Y354210D01*
X340156Y349130D01*
X335076Y344050D01*
X329996Y349130D01*
X339996Y329130D02*
X345076Y334210D01*
X350156Y329130D01*
X345076Y324050D01*
X339996Y329130D01*
Y289130D02*
X345076Y294210D01*
X350156Y289130D01*
X345076Y284050D01*
X339996Y289130D01*
Y249130D02*
X345076Y254210D01*
X350156Y249130D01*
X345076Y244050D01*
X339996Y249130D01*
Y209130D02*
X345076Y214210D01*
X350156Y209130D01*
X345076Y204050D01*
X339996Y209130D01*
X329996Y189130D02*
X335076Y194210D01*
X340156Y189130D01*
X335076Y184050D01*
X329996Y189130D01*
X339996Y-30870D02*
X345076Y-25790D01*
X350156Y-30870D01*
X345076Y-35950D01*
X339996Y-30870D01*
X329996Y-50870D02*
X335076Y-45790D01*
X340156Y-50870D01*
X335076Y-55950D01*
X329996Y-50870D01*
X309996Y869131D02*
X315076Y874211D01*
X320156Y869131D01*
X315076Y864051D01*
X309996Y869131D01*
X319996Y809131D02*
X325076Y814211D01*
X330156Y809131D01*
X325076Y804051D01*
X319996Y809131D01*
Y729131D02*
X325076Y734211D01*
X330156Y729131D01*
X325076Y724051D01*
X319996Y729131D01*
Y609131D02*
X325076Y614211D01*
X330156Y609131D01*
X325076Y604050D01*
X319996Y609131D01*
Y489130D02*
X325076Y494210D01*
X330156Y489130D01*
X325076Y484050D01*
X319996Y489130D01*
Y409130D02*
X325076Y414210D01*
X330156Y409130D01*
X325076Y404050D01*
X319996Y409130D01*
Y369130D02*
X325076Y374210D01*
X330156Y369130D01*
X325076Y364050D01*
X319996Y369130D01*
Y329130D02*
X325076Y334210D01*
X330156Y329130D01*
X325076Y324050D01*
X319996Y329130D01*
X309996Y189130D02*
X315076Y194210D01*
X320156Y189130D01*
X315076Y184050D01*
X309996Y189130D01*
X319996Y9130D02*
X325076Y14210D01*
X330156Y9130D01*
X325076Y4050D01*
X319996Y9130D01*
Y-30870D02*
X325076Y-25790D01*
X330156Y-30870D01*
X325076Y-35950D01*
X319996Y-30870D01*
X309996Y-50870D02*
X315076Y-45790D01*
X320156Y-50870D01*
X315076Y-55950D01*
X309996Y-50870D01*
X289996Y789131D02*
X295076Y794211D01*
X300156Y789131D01*
X295076Y784051D01*
X289996Y789131D01*
Y669130D02*
X295076Y674211D01*
X300156Y669130D01*
X295076Y664051D01*
X289996Y669130D01*
Y629131D02*
X295076Y634211D01*
X300156Y629131D01*
X295076Y624050D01*
X289996Y629131D01*
Y549131D02*
X295076Y554211D01*
X300156Y549131D01*
X295076Y544050D01*
X289996Y549131D01*
Y469130D02*
X295076Y474210D01*
X300156Y469130D01*
X295076Y464050D01*
X289996Y469130D01*
Y429130D02*
X295076Y434210D01*
X300156Y429130D01*
X295076Y424050D01*
X289996Y429130D01*
Y349130D02*
X295076Y354210D01*
X300156Y349130D01*
X295076Y344050D01*
X289996Y349130D01*
Y269130D02*
X295076Y274210D01*
X300156Y269130D01*
X295076Y264050D01*
X289996Y269130D01*
Y189130D02*
X295076Y194210D01*
X300156Y189130D01*
X295076Y184050D01*
X289996Y189130D01*
X299996Y9130D02*
X305076Y14210D01*
X310156Y9130D01*
X305076Y4050D01*
X299996Y9130D01*
Y-30870D02*
X305076Y-25790D01*
X310156Y-30870D01*
X305076Y-35950D01*
X299996Y-30870D01*
X289996Y-50870D02*
X295076Y-45790D01*
X300156Y-50870D01*
X295076Y-55950D01*
X289996Y-50870D01*
X279996Y809131D02*
X285076Y814211D01*
X290156Y809131D01*
X285076Y804051D01*
X279996Y809131D01*
X269996Y789131D02*
X275076Y794211D01*
X280156Y789131D01*
X275076Y784051D01*
X269996Y789131D01*
Y629131D02*
X275076Y634211D01*
X280156Y629131D01*
X275076Y624050D01*
X269996Y629131D01*
X279996Y609131D02*
X285076Y614211D01*
X290156Y609131D01*
X285076Y604050D01*
X279996Y609131D01*
X269996Y549131D02*
X275076Y554211D01*
X280156Y549131D01*
X275076Y544050D01*
X269996Y549131D01*
X279996Y529131D02*
X285076Y534211D01*
X290156Y529131D01*
X285076Y524050D01*
X279996Y529131D01*
X269996Y509131D02*
X275076Y514211D01*
X280156Y509131D01*
X275076Y504050D01*
X269996Y509131D01*
X279996Y489130D02*
X285076Y494210D01*
X290156Y489130D01*
X285076Y484050D01*
X279996Y489130D01*
X269996Y469130D02*
X275076Y474210D01*
X280156Y469130D01*
X275076Y464050D01*
X269996Y469130D01*
Y429130D02*
X275076Y434210D01*
X280156Y429130D01*
X275076Y424050D01*
X269996Y429130D01*
Y309130D02*
X275076Y314210D01*
X280156Y309130D01*
X275076Y304050D01*
X269996Y309130D01*
X279996Y289130D02*
X285076Y294210D01*
X290156Y289130D01*
X285076Y284050D01*
X279996Y289130D01*
X269996Y269130D02*
X275076Y274210D01*
X280156Y269130D01*
X275076Y264050D01*
X269996Y269130D01*
X279996Y-30870D02*
X285076Y-25790D01*
X290156Y-30870D01*
X285076Y-35950D01*
X279996Y-30870D01*
X269996Y-50870D02*
X275076Y-45790D01*
X280156Y-50870D01*
X275076Y-55950D01*
X269996Y-50870D01*
X259996Y809131D02*
X265076Y814211D01*
X270156Y809131D01*
X265076Y804051D01*
X259996Y809131D01*
X249996Y789131D02*
X255076Y794211D01*
X260156Y789131D01*
X255076Y784051D01*
X249996Y789131D01*
X259996Y729131D02*
X265076Y734211D01*
X270156Y729131D01*
X265076Y724051D01*
X259996Y729131D01*
X249996Y709131D02*
X255076Y714211D01*
X260156Y709131D01*
X255076Y704051D01*
X249996Y709131D01*
X259996Y649130D02*
X265076Y654211D01*
X270156Y649130D01*
X265076Y644051D01*
X259996Y649130D01*
X249996Y629131D02*
X255076Y634211D01*
X260156Y629131D01*
X255076Y624050D01*
X249996Y629131D01*
X259996Y609131D02*
X265076Y614211D01*
X270156Y609131D01*
X265076Y604050D01*
X259996Y609131D01*
X249996Y549131D02*
X255076Y554211D01*
X260156Y549131D01*
X255076Y544050D01*
X249996Y549131D01*
X259996Y529131D02*
X265076Y534211D01*
X270156Y529131D01*
X265076Y524050D01*
X259996Y529131D01*
X249996Y509131D02*
X255076Y514211D01*
X260156Y509131D01*
X255076Y504050D01*
X249996Y509131D01*
X259996Y489130D02*
X265076Y494210D01*
X270156Y489130D01*
X265076Y484050D01*
X259996Y489130D01*
X249996Y469130D02*
X255076Y474210D01*
X260156Y469130D01*
X255076Y464050D01*
X249996Y469130D01*
Y309130D02*
X255076Y314210D01*
X260156Y309130D01*
X255076Y304050D01*
X249996Y309130D01*
X259996Y289130D02*
X265076Y294210D01*
X270156Y289130D01*
X265076Y284050D01*
X259996Y289130D01*
X249996Y269130D02*
X255076Y274210D01*
X260156Y269130D01*
X255076Y264050D01*
X249996Y269130D01*
X259996Y-30870D02*
X265076Y-25790D01*
X270156Y-30870D01*
X265076Y-35950D01*
X259996Y-30870D01*
X249996Y-50870D02*
X255076Y-45790D01*
X260156Y-50870D01*
X255076Y-55950D01*
X249996Y-50870D01*
X229996Y429130D02*
X235076Y434210D01*
X240156Y429130D01*
X235076Y424050D01*
X229996Y429130D01*
X239996Y409130D02*
X245076Y414210D01*
X250156Y409130D01*
X245076Y404050D01*
X239996Y409130D01*
X229996Y389130D02*
X235076Y394210D01*
X240156Y389130D01*
X235076Y384050D01*
X229996Y389130D01*
Y309130D02*
X235076Y314210D01*
X240156Y309130D01*
X235076Y304050D01*
X229996Y309130D01*
Y269130D02*
X235076Y274210D01*
X240156Y269130D01*
X235076Y264050D01*
X229996Y269130D01*
X239996Y249130D02*
X245076Y254210D01*
X250156Y249130D01*
X245076Y244050D01*
X239996Y249130D01*
Y129130D02*
X245076Y134210D01*
X250156Y129130D01*
X245076Y124050D01*
X239996Y129130D01*
X229996Y-50870D02*
X235076Y-45790D01*
X240156Y-50870D01*
X235076Y-55950D01*
X229996Y-50870D01*
X219996Y889131D02*
X225076Y894211D01*
X230156Y889131D01*
X225076Y884051D01*
X219996Y889131D01*
Y809131D02*
X225076Y814211D01*
X230156Y809131D01*
X225076Y804051D01*
X219996Y809131D01*
X209996Y789131D02*
X215076Y794211D01*
X220156Y789131D01*
X215076Y784051D01*
X209996Y789131D01*
Y749131D02*
X215076Y754211D01*
X220156Y749131D01*
X215076Y744051D01*
X209996Y749131D01*
X219996Y729131D02*
X225076Y734211D01*
X230156Y729131D01*
X225076Y724051D01*
X219996Y729131D01*
X209996Y709131D02*
X215076Y714211D01*
X220156Y709131D01*
X215076Y704051D01*
X209996Y709131D01*
Y629131D02*
X215076Y634211D01*
X220156Y629131D01*
X215076Y624050D01*
X209996Y629131D01*
X219996Y609131D02*
X225076Y614211D01*
X230156Y609131D01*
X225076Y604050D01*
X219996Y609131D01*
X209996Y549131D02*
X215076Y554211D01*
X220156Y549131D01*
X215076Y544050D01*
X209996Y549131D01*
X219996Y529131D02*
X225076Y534211D01*
X230156Y529131D01*
X225076Y524050D01*
X219996Y529131D01*
Y489130D02*
X225076Y494210D01*
X230156Y489130D01*
X225076Y484050D01*
X219996Y489130D01*
X209996Y469130D02*
X215076Y474210D01*
X220156Y469130D01*
X215076Y464050D01*
X209996Y469130D01*
Y429130D02*
X215076Y434210D01*
X220156Y429130D01*
X215076Y424050D01*
X209996Y429130D01*
X219996Y409130D02*
X225076Y414210D01*
X230156Y409130D01*
X225076Y404050D01*
X219996Y409130D01*
X209996Y389130D02*
X215076Y394210D01*
X220156Y389130D01*
X215076Y384050D01*
X209996Y389130D01*
X219996Y369130D02*
X225076Y374210D01*
X230156Y369130D01*
X225076Y364050D01*
X219996Y369130D01*
Y329130D02*
X225076Y334210D01*
X230156Y329130D01*
X225076Y324050D01*
X219996Y329130D01*
X209996Y269130D02*
X215076Y274210D01*
X220156Y269130D01*
X215076Y264050D01*
X209996Y269130D01*
X219996Y249130D02*
X225076Y254210D01*
X230156Y249130D01*
X225076Y244050D01*
X219996Y249130D01*
Y129130D02*
X225076Y134210D01*
X230156Y129130D01*
X225076Y124050D01*
X219996Y129130D01*
X209996Y-50870D02*
X215076Y-45790D01*
X220156Y-50870D01*
X215076Y-55950D01*
X209996Y-50870D01*
X199996Y889131D02*
X205076Y894211D01*
X210156Y889131D01*
X205076Y884051D01*
X199996Y889131D01*
X189996Y749131D02*
X195076Y754211D01*
X200156Y749131D01*
X195076Y744051D01*
X189996Y749131D01*
X199996Y729131D02*
X205076Y734211D01*
X210156Y729131D01*
X205076Y724051D01*
X199996Y729131D01*
X189996Y629131D02*
X195076Y634211D01*
X200156Y629131D01*
X195076Y624050D01*
X189996Y629131D01*
X199996Y609131D02*
X205076Y614211D01*
X210156Y609131D01*
X205076Y604050D01*
X199996Y609131D01*
Y489130D02*
X205076Y494210D01*
X210156Y489130D01*
X205076Y484050D01*
X199996Y489130D01*
X189996Y469130D02*
X195076Y474210D01*
X200156Y469130D01*
X195076Y464050D01*
X189996Y469130D01*
X199996Y409130D02*
X205076Y414210D01*
X210156Y409130D01*
X205076Y404050D01*
X199996Y409130D01*
X189996Y389130D02*
X195076Y394210D01*
X200156Y389130D01*
X195076Y384050D01*
X189996Y389130D01*
X199996Y369130D02*
X205076Y374210D01*
X210156Y369130D01*
X205076Y364050D01*
X199996Y369130D01*
X189996Y349130D02*
X195076Y354210D01*
X200156Y349130D01*
X195076Y344050D01*
X189996Y349130D01*
Y309130D02*
X195076Y314210D01*
X200156Y309130D01*
X195076Y304050D01*
X189996Y309130D01*
X199996Y129130D02*
X205076Y134210D01*
X210156Y129130D01*
X205076Y124050D01*
X199996Y129130D01*
Y9130D02*
X205076Y14210D01*
X210156Y9130D01*
X205076Y4050D01*
X199996Y9130D01*
X189996Y-50870D02*
X195076Y-45790D01*
X200156Y-50870D01*
X195076Y-55950D01*
X189996Y-50870D01*
X169996Y829131D02*
X175076Y834211D01*
X180156Y829131D01*
X175076Y824051D01*
X169996Y829131D01*
Y749131D02*
X175076Y754211D01*
X180156Y749131D01*
X175076Y744051D01*
X169996Y749131D01*
X179996Y689130D02*
X185076Y694211D01*
X190156Y689130D01*
X185076Y684051D01*
X179996Y689130D01*
Y609131D02*
X185076Y614211D01*
X190156Y609131D01*
X185076Y604050D01*
X179996Y609131D01*
Y489130D02*
X185076Y494210D01*
X190156Y489130D01*
X185076Y484050D01*
X179996Y489130D01*
Y289130D02*
X185076Y294210D01*
X190156Y289130D01*
X185076Y284050D01*
X179996Y289130D01*
X169996Y269130D02*
X175076Y274210D01*
X180156Y269130D01*
X175076Y264050D01*
X169996Y269130D01*
X179996Y249130D02*
X185076Y254210D01*
X190156Y249130D01*
X185076Y244050D01*
X179996Y249130D01*
X169996Y69130D02*
X175076Y74210D01*
X180156Y69130D01*
X175076Y64050D01*
X169996Y69130D01*
X179996Y9130D02*
X185076Y14210D01*
X190156Y9130D01*
X185076Y4050D01*
X179996Y9130D01*
X169996Y-50870D02*
X175076Y-45790D01*
X180156Y-50870D01*
X175076Y-55950D01*
X169996Y-50870D01*
X159996Y889131D02*
X165076Y894211D01*
X170156Y889131D01*
X165076Y884051D01*
X159996Y889131D01*
X149996Y829131D02*
X155076Y834211D01*
X160156Y829131D01*
X155076Y824051D01*
X149996Y829131D01*
Y789131D02*
X155076Y794211D01*
X160156Y789131D01*
X155076Y784051D01*
X149996Y789131D01*
Y749131D02*
X155076Y754211D01*
X160156Y749131D01*
X155076Y744051D01*
X149996Y749131D01*
X159996Y729131D02*
X165076Y734211D01*
X170156Y729131D01*
X165076Y724051D01*
X159996Y729131D01*
Y689130D02*
X165076Y694211D01*
X170156Y689130D01*
X165076Y684051D01*
X159996Y689130D01*
Y529131D02*
X165076Y534211D01*
X170156Y529131D01*
X165076Y524050D01*
X159996Y529131D01*
X149996Y429130D02*
X155076Y434210D01*
X160156Y429130D01*
X155076Y424050D01*
X149996Y429130D01*
Y389130D02*
X155076Y394210D01*
X160156Y389130D01*
X155076Y384050D01*
X149996Y389130D01*
Y309130D02*
X155076Y314210D01*
X160156Y309130D01*
X155076Y304050D01*
X149996Y309130D01*
Y269130D02*
X155076Y274210D01*
X160156Y269130D01*
X155076Y264050D01*
X149996Y269130D01*
X159996Y249130D02*
X165076Y254210D01*
X170156Y249130D01*
X165076Y244050D01*
X159996Y249130D01*
X149996Y189130D02*
X155076Y194210D01*
X160156Y189130D01*
X155076Y184050D01*
X149996Y189130D01*
X159996Y129130D02*
X165076Y134210D01*
X170156Y129130D01*
X165076Y124050D01*
X159996Y129130D01*
X149996Y69130D02*
X155076Y74210D01*
X160156Y69130D01*
X155076Y64050D01*
X149996Y69130D01*
X159996Y9130D02*
X165076Y14210D01*
X170156Y9130D01*
X165076Y4050D01*
X159996Y9130D01*
X149996Y-50870D02*
X155076Y-45790D01*
X160156Y-50870D01*
X155076Y-55950D01*
X149996Y-50870D01*
X139996Y889131D02*
X145076Y894211D01*
X150156Y889131D01*
X145076Y884051D01*
X139996Y889131D01*
Y809131D02*
X145076Y814211D01*
X150156Y809131D01*
X145076Y804051D01*
X139996Y809131D01*
Y769131D02*
X145076Y774211D01*
X150156Y769131D01*
X145076Y764051D01*
X139996Y769131D01*
X129996Y749131D02*
X135076Y754211D01*
X140156Y749131D01*
X135076Y744051D01*
X129996Y749131D01*
X139996Y729131D02*
X145076Y734211D01*
X150156Y729131D01*
X145076Y724051D01*
X139996Y729131D01*
Y689130D02*
X145076Y694211D01*
X150156Y689130D01*
X145076Y684051D01*
X139996Y689130D01*
Y489130D02*
X145076Y494210D01*
X150156Y489130D01*
X145076Y484050D01*
X139996Y489130D01*
Y449130D02*
X145076Y454210D01*
X150156Y449130D01*
X145076Y444050D01*
X139996Y449130D01*
Y409130D02*
X145076Y414210D01*
X150156Y409130D01*
X145076Y404050D01*
X139996Y409130D01*
Y369130D02*
X145076Y374210D01*
X150156Y369130D01*
X145076Y364050D01*
X139996Y369130D01*
Y289130D02*
X145076Y294210D01*
X150156Y289130D01*
X145076Y284050D01*
X139996Y289130D01*
X129996Y269130D02*
X135076Y274210D01*
X140156Y269130D01*
X135076Y264050D01*
X129996Y269130D01*
X139996Y209130D02*
X145076Y214210D01*
X150156Y209130D01*
X145076Y204050D01*
X139996Y209130D01*
X129996Y69130D02*
X135076Y74210D01*
X140156Y69130D01*
X135076Y64050D01*
X129996Y69130D01*
X139996Y9130D02*
X145076Y14210D01*
X150156Y9130D01*
X145076Y4050D01*
X139996Y9130D01*
X129996Y-50870D02*
X135076Y-45790D01*
X140156Y-50870D01*
X135076Y-55950D01*
X129996Y-50870D01*
X109996Y829131D02*
X115076Y834211D01*
X120156Y829131D01*
X115076Y824051D01*
X109996Y829131D01*
Y589131D02*
X115076Y594211D01*
X120156Y589131D01*
X115076Y584050D01*
X109996Y589131D01*
Y469130D02*
X115076Y474210D01*
X120156Y469130D01*
X115076Y464050D01*
X109996Y469130D01*
Y429130D02*
X115076Y434210D01*
X120156Y429130D01*
X115076Y424050D01*
X109996Y429130D01*
Y389130D02*
X115076Y394210D01*
X120156Y389130D01*
X115076Y384050D01*
X109996Y389130D01*
Y349130D02*
X115076Y354210D01*
X120156Y349130D01*
X115076Y344050D01*
X109996Y349130D01*
Y309130D02*
X115076Y314210D01*
X120156Y309130D01*
X115076Y304050D01*
X109996Y309130D01*
X119996Y289130D02*
X125076Y294210D01*
X130156Y289130D01*
X125076Y284050D01*
X119996Y289130D01*
X109996Y269130D02*
X115076Y274210D01*
X120156Y269130D01*
X115076Y264050D01*
X109996Y269130D01*
X119996Y209130D02*
X125076Y214210D01*
X130156Y209130D01*
X125076Y204050D01*
X119996Y209130D01*
X109996Y189130D02*
X115076Y194210D01*
X120156Y189130D01*
X115076Y184050D01*
X109996Y189130D01*
X119996Y129130D02*
X125076Y134210D01*
X130156Y129130D01*
X125076Y124050D01*
X119996Y129130D01*
Y-30870D02*
X125076Y-25790D01*
X130156Y-30870D01*
X125076Y-35950D01*
X119996Y-30870D01*
X109996Y-50870D02*
X115076Y-45790D01*
X120156Y-50870D01*
X115076Y-55950D01*
X109996Y-50870D01*
X99996Y849131D02*
X105076Y854211D01*
X110156Y849131D01*
X105076Y844051D01*
X99996Y849131D01*
X89996Y589131D02*
X95076Y594211D01*
X100156Y589131D01*
X95076Y584050D01*
X89996Y589131D01*
Y469130D02*
X95076Y474210D01*
X100156Y469130D01*
X95076Y464050D01*
X89996Y469130D01*
Y429130D02*
X95076Y434210D01*
X100156Y429130D01*
X95076Y424050D01*
X89996Y429130D01*
Y389130D02*
X95076Y394210D01*
X100156Y389130D01*
X95076Y384050D01*
X89996Y389130D01*
Y349130D02*
X95076Y354210D01*
X100156Y349130D01*
X95076Y344050D01*
X89996Y349130D01*
X99996Y329130D02*
X105076Y334210D01*
X110156Y329130D01*
X105076Y324050D01*
X99996Y329130D01*
X89996Y309130D02*
X95076Y314210D01*
X100156Y309130D01*
X95076Y304050D01*
X89996Y309130D01*
X99996Y289130D02*
X105076Y294210D01*
X110156Y289130D01*
X105076Y284050D01*
X99996Y289130D01*
X89996Y229130D02*
X95076Y234210D01*
X100156Y229130D01*
X95076Y224050D01*
X89996Y229130D01*
X99996Y209130D02*
X105076Y214210D01*
X110156Y209130D01*
X105076Y204050D01*
X99996Y209130D01*
X89996Y189130D02*
X95076Y194210D01*
X100156Y189130D01*
X95076Y184050D01*
X89996Y189130D01*
X99996Y129130D02*
X105076Y134210D01*
X110156Y129130D01*
X105076Y124050D01*
X99996Y129130D01*
X89996Y69130D02*
X95076Y74210D01*
X100156Y69130D01*
X95076Y64050D01*
X89996Y69130D01*
X99996Y-30870D02*
X105076Y-25790D01*
X110156Y-30870D01*
X105076Y-35950D01*
X99996Y-30870D01*
X89996Y-50870D02*
X95076Y-45790D01*
X100156Y-50870D01*
X95076Y-55950D01*
X89996Y-50870D01*
X69996Y589131D02*
X75076Y594211D01*
X80156Y589131D01*
X75076Y584050D01*
X69996Y589131D01*
X79996Y569131D02*
X85076Y574211D01*
X90156Y569131D01*
X85076Y564050D01*
X79996Y569131D01*
Y489130D02*
X85076Y494210D01*
X90156Y489130D01*
X85076Y484050D01*
X79996Y489130D01*
Y449130D02*
X85076Y454210D01*
X90156Y449130D01*
X85076Y444050D01*
X79996Y449130D01*
Y409130D02*
X85076Y414210D01*
X90156Y409130D01*
X85076Y404050D01*
X79996Y409130D01*
Y369130D02*
X85076Y374210D01*
X90156Y369130D01*
X85076Y364050D01*
X79996Y369130D01*
Y329130D02*
X85076Y334210D01*
X90156Y329130D01*
X85076Y324050D01*
X79996Y329130D01*
Y-30870D02*
X85076Y-25790D01*
X90156Y-30870D01*
X85076Y-35950D01*
X79996Y-30870D01*
X69996Y-50870D02*
X75076Y-45790D01*
X80156Y-50870D01*
X75076Y-55950D01*
X69996Y-50870D01*
X59996Y489130D02*
X65076Y494210D01*
X70156Y489130D01*
X65076Y484050D01*
X59996Y489130D01*
X49996Y469130D02*
X55076Y474210D01*
X60156Y469130D01*
X55076Y464050D01*
X49996Y469130D01*
X59996Y449130D02*
X65076Y454210D01*
X70156Y449130D01*
X65076Y444050D01*
X59996Y449130D01*
X49996Y429130D02*
X55076Y434210D01*
X60156Y429130D01*
X55076Y424050D01*
X49996Y429130D01*
X59996Y-30870D02*
X65076Y-25790D01*
X70156Y-30870D01*
X65076Y-35950D01*
X59996Y-30870D01*
X49996Y-50870D02*
X55076Y-45790D01*
X60156Y-50870D01*
X55076Y-55950D01*
X49996Y-50870D01*
X29996Y549131D02*
X35076Y554211D01*
X40156Y549131D01*
X35076Y544050D01*
X29996Y549131D01*
Y509131D02*
X35076Y514211D01*
X40156Y509131D01*
X35076Y504050D01*
X29996Y509131D01*
X39996Y449130D02*
X45076Y454210D01*
X50156Y449130D01*
X45076Y444050D01*
X39996Y449130D01*
X29996Y349130D02*
X35076Y354210D01*
X40156Y349130D01*
X35076Y344050D01*
X29996Y349130D01*
Y-10870D02*
X35076Y-5790D01*
X40156Y-10870D01*
X35076Y-15950D01*
X29996Y-10870D01*
X39996Y-30870D02*
X45076Y-25790D01*
X50156Y-30870D01*
X45076Y-35950D01*
X39996Y-30870D01*
X29996Y-50870D02*
X35076Y-45790D01*
X40156Y-50870D01*
X35076Y-55950D01*
X29996Y-50870D01*
X9996Y909131D02*
X15076Y914211D01*
X20156Y909131D01*
X15076Y904051D01*
X9996Y909131D01*
Y869131D02*
X15076Y874211D01*
X20156Y869131D01*
X15076Y864051D01*
X9996Y869131D01*
Y829131D02*
X15076Y834211D01*
X20156Y829131D01*
X15076Y824051D01*
X9996Y829131D01*
X19996Y809131D02*
X25076Y814211D01*
X30156Y809131D01*
X25076Y804051D01*
X19996Y809131D01*
X9996Y789131D02*
X15076Y794211D01*
X20156Y789131D01*
X15076Y784051D01*
X9996Y789131D01*
X19996Y769131D02*
X25076Y774211D01*
X30156Y769131D01*
X25076Y764051D01*
X19996Y769131D01*
X9996Y749131D02*
X15076Y754211D01*
X20156Y749131D01*
X15076Y744051D01*
X9996Y749131D01*
X19996Y729131D02*
X25076Y734211D01*
X30156Y729131D01*
X25076Y724051D01*
X19996Y729131D01*
X9996Y709131D02*
X15076Y714211D01*
X20156Y709131D01*
X15076Y704051D01*
X9996Y709131D01*
Y629131D02*
X15076Y634211D01*
X20156Y629131D01*
X15076Y624050D01*
X9996Y629131D01*
X19996Y609131D02*
X25076Y614211D01*
X30156Y609131D01*
X25076Y604050D01*
X19996Y609131D01*
X9996Y589131D02*
X15076Y594211D01*
X20156Y589131D01*
X15076Y584050D01*
X9996Y589131D01*
Y269130D02*
X15076Y274210D01*
X20156Y269130D01*
X15076Y264050D01*
X9996Y269130D01*
X19996Y249130D02*
X25076Y254210D01*
X30156Y249130D01*
X25076Y244050D01*
X19996Y249130D01*
X9996Y229130D02*
X15076Y234210D01*
X20156Y229130D01*
X15076Y224050D01*
X9996Y229130D01*
X19996Y209130D02*
X25076Y214210D01*
X30156Y209130D01*
X25076Y204050D01*
X19996Y209130D01*
X9996Y189130D02*
X15076Y194210D01*
X20156Y189130D01*
X15076Y184050D01*
X9996Y189130D01*
X19996Y169130D02*
X25076Y174210D01*
X30156Y169130D01*
X25076Y164050D01*
X19996Y169130D01*
X9996Y149130D02*
X15076Y154210D01*
X20156Y149130D01*
X15076Y144050D01*
X9996Y149130D01*
X19996Y129130D02*
X25076Y134210D01*
X30156Y129130D01*
X25076Y124050D01*
X19996Y129130D01*
X9996Y109130D02*
X15076Y114210D01*
X20156Y109130D01*
X15076Y104050D01*
X9996Y109130D01*
X19996Y89130D02*
X25076Y94210D01*
X30156Y89130D01*
X25076Y84050D01*
X19996Y89130D01*
X9996Y-10870D02*
X15076Y-5790D01*
X20156Y-10870D01*
X15076Y-15950D01*
X9996Y-10870D01*
X19996Y-30870D02*
X25076Y-25790D01*
X30156Y-30870D01*
X25076Y-35950D01*
X19996Y-30870D01*
X9996Y-50870D02*
X15076Y-45790D01*
X20156Y-50870D01*
X15076Y-55950D01*
X9996Y-50870D01*
X-4Y-30870D02*
X5076Y-25790D01*
X10156Y-30870D01*
X5076Y-35950D01*
X-4Y-30870D01*
X-10004Y-50870D02*
X-4924Y-45790D01*
X156Y-50870D01*
X-4924Y-55950D01*
X-10004Y-50870D01*
X-30004Y869131D02*
X-24924Y874211D01*
X-19844Y869131D01*
X-24924Y864051D01*
X-30004Y869131D01*
Y829131D02*
X-24924Y834211D01*
X-19844Y829131D01*
X-24924Y824051D01*
X-30004Y829131D01*
Y789131D02*
X-24924Y794211D01*
X-19844Y789131D01*
X-24924Y784051D01*
X-30004Y789131D01*
Y749131D02*
X-24924Y754211D01*
X-19844Y749131D01*
X-24924Y744051D01*
X-30004Y749131D01*
Y709131D02*
X-24924Y714211D01*
X-19844Y709131D01*
X-24924Y704051D01*
X-30004Y709131D01*
Y669130D02*
X-24924Y674211D01*
X-19844Y669130D01*
X-24924Y664051D01*
X-30004Y669130D01*
Y629131D02*
X-24924Y634211D01*
X-19844Y629131D01*
X-24924Y624050D01*
X-30004Y629131D01*
Y589131D02*
X-24924Y594211D01*
X-19844Y589131D01*
X-24924Y584050D01*
X-30004Y589131D01*
Y549131D02*
X-24924Y554211D01*
X-19844Y549131D01*
X-24924Y544050D01*
X-30004Y549131D01*
Y509131D02*
X-24924Y514211D01*
X-19844Y509131D01*
X-24924Y504050D01*
X-30004Y509131D01*
Y469130D02*
X-24924Y474210D01*
X-19844Y469130D01*
X-24924Y464050D01*
X-30004Y469130D01*
Y429130D02*
X-24924Y434210D01*
X-19844Y429130D01*
X-24924Y424050D01*
X-30004Y429130D01*
Y389130D02*
X-24924Y394210D01*
X-19844Y389130D01*
X-24924Y384050D01*
X-30004Y389130D01*
Y349130D02*
X-24924Y354210D01*
X-19844Y349130D01*
X-24924Y344050D01*
X-30004Y349130D01*
Y309130D02*
X-24924Y314210D01*
X-19844Y309130D01*
X-24924Y304050D01*
X-30004Y309130D01*
Y269130D02*
X-24924Y274210D01*
X-19844Y269130D01*
X-24924Y264050D01*
X-30004Y269130D01*
Y229130D02*
X-24924Y234210D01*
X-19844Y229130D01*
X-24924Y224050D01*
X-30004Y229130D01*
Y189130D02*
X-24924Y194210D01*
X-19844Y189130D01*
X-24924Y184050D01*
X-30004Y189130D01*
Y149130D02*
X-24924Y154210D01*
X-19844Y149130D01*
X-24924Y144050D01*
X-30004Y149130D01*
Y109130D02*
X-24924Y114210D01*
X-19844Y109130D01*
X-24924Y104050D01*
X-30004Y109130D01*
Y69130D02*
X-24924Y74210D01*
X-19844Y69130D01*
X-24924Y64050D01*
X-30004Y69130D01*
Y29130D02*
X-24924Y34210D01*
X-19844Y29130D01*
X-24924Y24050D01*
X-30004Y29130D01*
Y-10870D02*
X-24924Y-5790D01*
X-19844Y-10870D01*
X-24924Y-15950D01*
X-30004Y-10870D01*
X-20004Y-30870D02*
X-14924Y-25790D01*
X-9844Y-30870D01*
X-14924Y-35950D01*
X-20004Y-30870D01*
X198746Y-7500D02*
X203826Y-2420D01*
X208906Y-7500D01*
X203826Y-12580D01*
X198746Y-7500D01*
X451496Y-4370D02*
X456576Y710D01*
X461656Y-4370D01*
X456576Y-9450D01*
X451496Y-4370D01*
X898746Y624630D02*
X903826Y629710D01*
X908906Y624630D01*
X903826Y619550D01*
X898746Y624630D01*
X867670Y664500D02*
X872750Y669580D01*
X877830Y664500D01*
X872750Y659420D01*
X867670Y664500D01*
X872170Y624500D02*
X877250Y629580D01*
X882330Y624500D01*
X877250Y619420D01*
X872170Y624500D01*
X852670Y624750D02*
X857750Y629830D01*
X862830Y624750D01*
X857750Y619670D01*
X852670Y624750D01*
X855920Y657750D02*
X861000Y662830D01*
X866080Y657750D01*
X861000Y652670D01*
X855920Y657750D01*
X633116Y574760D02*
X638196Y579840D01*
X643276Y574760D01*
X638196Y569680D01*
X633116Y574760D01*
X799746Y659800D02*
X804826Y664880D01*
X809906Y659800D01*
X804826Y654720D01*
X799746Y659800D01*
X782464Y661180D02*
X787544Y666260D01*
X792624Y661180D01*
X787544Y656099D01*
X782464Y661180D01*
X750446Y631545D02*
X755526Y636625D01*
X760606Y631545D01*
X755526Y626465D01*
X750446Y631545D01*
X646651Y582380D02*
X651731Y587460D01*
X656811Y582380D01*
X651731Y577300D01*
X646651Y582380D01*
X776920Y670250D02*
X782000Y675330D01*
X787080Y670250D01*
X782000Y665170D01*
X776920Y670250D01*
X735704Y598922D02*
X740784Y604002D01*
X745864Y598922D01*
X740784Y593842D01*
X735704Y598922D01*
X561920Y476500D02*
X567000Y481580D01*
X572080Y476500D01*
X567000Y471420D01*
X561920Y476500D01*
X559246Y501630D02*
X564326Y506710D01*
X569406Y501630D01*
X564326Y496550D01*
X559246Y501630D01*
X605193Y548621D02*
X610273Y553701D01*
X615353Y548621D01*
X610273Y543541D01*
X605193Y548621D01*
X528670Y437000D02*
X533750Y442080D01*
X538830Y437000D01*
X533750Y431920D01*
X528670Y437000D01*
X642170Y347250D02*
X647250Y352330D01*
X652330Y347250D01*
X647250Y342170D01*
X642170Y347250D01*
X583420Y365000D02*
X588500Y370080D01*
X593580Y365000D01*
X588500Y359920D01*
X583420Y365000D01*
X823046Y872750D02*
X828126Y877830D01*
X833206Y872750D01*
X828126Y867670D01*
X823046Y872750D01*
X795106D02*
X800186Y877830D01*
X805266Y872750D01*
X800186Y867670D01*
X795106Y872750D01*
X711286D02*
X716366Y877830D01*
X721446Y872750D01*
X716366Y867670D01*
X711286Y872750D01*
X739226D02*
X744306Y877830D01*
X749386Y872750D01*
X744306Y867670D01*
X739226Y872750D01*
X767166D02*
X772246Y877830D01*
X777326Y872750D01*
X772246Y867670D01*
X767166Y872750D01*
X800080Y637800D02*
X805160Y642880D01*
X810240Y637800D01*
X805160Y632720D01*
X800080Y637800D01*
X762496Y594380D02*
X767576Y599460D01*
X772656Y594380D01*
X767576Y589300D01*
X762496Y594380D01*
X356746Y143380D02*
X361826Y148460D01*
X366906Y143380D01*
X361826Y138300D01*
X356746Y143380D01*
X67575Y712016D02*
X72655Y717096D01*
X77735Y712016D01*
X72655Y706936D01*
X67575Y712016D01*
X61406Y707680D02*
X66486Y712760D01*
X71566Y707680D01*
X66486Y702600D01*
X61406Y707680D01*
X57590Y701177D02*
X62670Y706257D01*
X67750Y701177D01*
X62670Y696097D01*
X57590Y701177D01*
X56709Y693689D02*
X61789Y698769D01*
X66869Y693689D01*
X61789Y688609D01*
X56709Y693689D01*
X58868Y686465D02*
X63948Y691545D01*
X69028Y686465D01*
X63948Y681385D01*
X58868Y686465D01*
X63825Y680783D02*
X68905Y685863D01*
X73985Y680783D01*
X68905Y675703D01*
X63825Y680783D01*
X70604Y677482D02*
X75684Y682562D01*
X80764Y677482D01*
X75684Y672402D01*
X70604Y677482D01*
X78141Y677293D02*
X83222Y682373D01*
X88301Y677293D01*
X83222Y672213D01*
X78141Y677293D01*
X85374Y679424D02*
X90454Y684504D01*
X95534Y679424D01*
X90454Y674344D01*
X85374Y679424D01*
X89340Y673011D02*
X94420Y678091D01*
X99500Y673011D01*
X94420Y667931D01*
X89340Y673011D01*
X89482Y642852D02*
X94562Y647932D01*
X99642Y642852D01*
X94562Y637772D01*
X89482Y642852D01*
X135898Y577650D02*
X140978Y582730D01*
X146058Y577650D01*
X140978Y572570D01*
X135898Y577650D01*
X141229Y572318D02*
X146309Y577398D01*
X151389Y572318D01*
X146309Y567239D01*
X141229Y572318D01*
X146691Y567120D02*
X151771Y572200D01*
X156851Y567120D01*
X151771Y562040D01*
X146691Y567120D01*
X152976Y562955D02*
X158056Y568035D01*
X163136Y562955D01*
X158056Y557875D01*
X152976Y562955D01*
X160074Y560410D02*
X165154Y565490D01*
X170233Y560410D01*
X165154Y555330D01*
X160074Y560410D01*
X167551Y559438D02*
X172631Y564518D01*
X177711Y559438D01*
X172631Y554358D01*
X167551Y559438D01*
X175091Y559442D02*
X180171Y564522D01*
X185251Y559442D01*
X180171Y554362D01*
X175091Y559442D01*
X182631D02*
X187711Y564522D01*
X192791Y559442D01*
X187711Y554362D01*
X182631Y559442D01*
X190171D02*
X195251Y564522D01*
X200331Y559442D01*
X195251Y554362D01*
X190171Y559442D01*
X197711D02*
X202791Y564522D01*
X207871Y559442D01*
X202791Y554362D01*
X197711Y559442D01*
X205250D02*
X210331Y564522D01*
X215410Y559442D01*
X210331Y554362D01*
X205250Y559442D01*
X212791D02*
X217871Y564522D01*
X222950Y559442D01*
X217871Y554362D01*
X212791Y559442D01*
X220331D02*
X225410Y564522D01*
X230490Y559442D01*
X225410Y554362D01*
X220331Y559442D01*
X227871D02*
X232950Y564522D01*
X238030Y559442D01*
X232950Y554362D01*
X227871Y559442D01*
X250490D02*
X255571Y564522D01*
X260651Y559442D01*
X255571Y554362D01*
X250490Y559442D01*
X258030D02*
X263111Y564522D01*
X268190Y559442D01*
X263111Y554362D01*
X258030Y559442D01*
X265571D02*
X270651Y564522D01*
X275730Y559442D01*
X270651Y554362D01*
X265571Y559442D01*
X273111D02*
X278190Y564522D01*
X283270Y559442D01*
X278190Y554362D01*
X273111Y559442D01*
X280650D02*
X285730Y564522D01*
X290810Y559442D01*
X285730Y554362D01*
X280650Y559442D01*
X288190D02*
X293270Y564522D01*
X298350Y559442D01*
X293270Y554362D01*
X288190Y559442D01*
X318350D02*
X323430Y564522D01*
X328510Y559442D01*
X323430Y554362D01*
X318350Y559442D01*
X325890D02*
X330970Y564522D01*
X336050Y559442D01*
X330970Y554362D01*
X325890Y559442D01*
X333430D02*
X338510Y564522D01*
X343590Y559442D01*
X338510Y554362D01*
X333430Y559442D01*
X340970D02*
X346050Y564522D01*
X351130Y559442D01*
X346050Y554362D01*
X340970Y559442D01*
X348510D02*
X353590Y564522D01*
X358670Y559442D01*
X353590Y554362D01*
X348510Y559442D01*
X356050D02*
X361130Y564522D01*
X366210Y559442D01*
X361130Y554362D01*
X356050Y559442D01*
X363590D02*
X368670Y564522D01*
X373750Y559442D01*
X368670Y554362D01*
X363590Y559442D01*
X371130D02*
X376210Y564522D01*
X381290Y559442D01*
X376210Y554362D01*
X371130Y559442D01*
X378670D02*
X383750Y564522D01*
X388830Y559442D01*
X383750Y554362D01*
X378670Y559442D01*
X386210D02*
X391290Y564522D01*
X396370Y559442D01*
X391290Y554362D01*
X386210Y559442D01*
X393750D02*
X398830Y564522D01*
X403910Y559442D01*
X398830Y554362D01*
X393750Y559442D01*
X401290D02*
X406370Y564522D01*
X411450Y559442D01*
X406370Y554362D01*
X401290Y559442D01*
X408830D02*
X413910Y564522D01*
X418990Y559442D01*
X413910Y554362D01*
X408830Y559442D01*
X416370D02*
X421450Y564522D01*
X426530Y559442D01*
X421450Y554362D01*
X416370Y559442D01*
X423910D02*
X428990Y564522D01*
X434070Y559442D01*
X428990Y554362D01*
X423910Y559442D01*
X431450D02*
X436530Y564522D01*
X441610Y559442D01*
X436530Y554362D01*
X431450Y559442D01*
X438990D02*
X444070Y564522D01*
X449150Y559442D01*
X444070Y554362D01*
X438990Y559442D01*
X446530D02*
X451610Y564522D01*
X456690Y559442D01*
X451610Y554362D01*
X446530Y559442D01*
X454070D02*
X459150Y564522D01*
X464230Y559442D01*
X459150Y554362D01*
X454070Y559442D01*
X461610D02*
X466690Y564522D01*
X471770Y559442D01*
X466690Y554362D01*
X461610Y559442D01*
X469147Y559226D02*
X474227Y564306D01*
X479307Y559226D01*
X474227Y554146D01*
X469147Y559226D01*
X475904Y555880D02*
X480984Y560960D01*
X486063Y555880D01*
X480984Y550799D01*
X475904Y555880D01*
X479574Y549293D02*
X484654Y554373D01*
X489734Y549293D01*
X484654Y544213D01*
X479574Y549293D01*
X479868Y541759D02*
X484948Y546839D01*
X490028Y541759D01*
X484948Y536679D01*
X479868Y541759D01*
Y534219D02*
X484948Y539299D01*
X490028Y534219D01*
X484948Y529139D01*
X479868Y534219D01*
Y526679D02*
X484948Y531759D01*
X490028Y526679D01*
X484948Y521599D01*
X479868Y526679D01*
Y519139D02*
X484948Y524219D01*
X490028Y519139D01*
X484948Y514059D01*
X479868Y519139D01*
Y511599D02*
X484948Y516679D01*
X490028Y511599D01*
X484948Y506519D01*
X479868Y511599D01*
Y504059D02*
X484948Y509139D01*
X490028Y504059D01*
X484948Y498979D01*
X479868Y504059D01*
Y496519D02*
X484948Y501599D01*
X490028Y496519D01*
X484948Y491439D01*
X479868Y496519D01*
Y488979D02*
X484948Y494059D01*
X490028Y488979D01*
X484948Y483899D01*
X479868Y488979D01*
Y481439D02*
X484948Y486519D01*
X490028Y481439D01*
X484948Y476359D01*
X479868Y481439D01*
Y473899D02*
X484948Y478979D01*
X490028Y473899D01*
X484948Y468819D01*
X479868Y473899D01*
Y466359D02*
X484948Y471439D01*
X490028Y466359D01*
X484948Y461279D01*
X479868Y466359D01*
Y458819D02*
X484948Y463899D01*
X490028Y458819D01*
X484948Y453739D01*
X479868Y458819D01*
Y451279D02*
X484948Y456359D01*
X490028Y451279D01*
X484948Y446199D01*
X479868Y451279D01*
Y443739D02*
X484948Y448819D01*
X490028Y443739D01*
X484948Y438659D01*
X479868Y443739D01*
Y436199D02*
X484948Y441279D01*
X490028Y436199D01*
X484948Y431119D01*
X479868Y436199D01*
Y428659D02*
X484948Y433739D01*
X490028Y428659D01*
X484948Y423579D01*
X479868Y428659D01*
Y421119D02*
X484948Y426199D01*
X490028Y421119D01*
X484948Y416039D01*
X479868Y421119D01*
Y413579D02*
X484948Y418659D01*
X490028Y413579D01*
X484948Y408499D01*
X479868Y413579D01*
Y406039D02*
X484948Y411119D01*
X490028Y406039D01*
X484948Y400959D01*
X479868Y406039D01*
Y398499D02*
X484948Y403579D01*
X490028Y398499D01*
X484948Y393419D01*
X479868Y398499D01*
Y390959D02*
X484948Y396039D01*
X490028Y390959D01*
X484948Y385879D01*
X479868Y390959D01*
Y383419D02*
X484948Y388499D01*
X490028Y383419D01*
X484948Y378339D01*
X479868Y383419D01*
Y375879D02*
X484948Y380959D01*
X490028Y375879D01*
X484948Y370799D01*
X479868Y375879D01*
Y368339D02*
X484948Y373419D01*
X490028Y368339D01*
X484948Y363259D01*
X479868Y368339D01*
Y360799D02*
X484948Y365879D01*
X490028Y360799D01*
X484948Y355719D01*
X479868Y360799D01*
Y353259D02*
X484948Y358339D01*
X490028Y353259D01*
X484948Y348179D01*
X479868Y353259D01*
Y345719D02*
X484948Y350799D01*
X490028Y345719D01*
X484948Y340639D01*
X479868Y345719D01*
Y338179D02*
X484948Y343259D01*
X490028Y338179D01*
X484948Y333099D01*
X479868Y338179D01*
Y330639D02*
X484948Y335719D01*
X490028Y330639D01*
X484948Y325559D01*
X479868Y330639D01*
Y323099D02*
X484948Y328179D01*
X490028Y323099D01*
X484948Y318019D01*
X479868Y323099D01*
Y315559D02*
X484948Y320639D01*
X490028Y315559D01*
X484948Y310479D01*
X479868Y315559D01*
Y308019D02*
X484948Y313099D01*
X490028Y308019D01*
X484948Y302939D01*
X479868Y308019D01*
Y300479D02*
X484948Y305559D01*
X490028Y300479D01*
X484948Y295399D01*
X479868Y300479D01*
Y292939D02*
X484948Y298019D01*
X490028Y292939D01*
X484948Y287859D01*
X479868Y292939D01*
Y285399D02*
X484948Y290479D01*
X490028Y285399D01*
X484948Y280319D01*
X479868Y285399D01*
Y277859D02*
X484948Y282939D01*
X490028Y277859D01*
X484948Y272779D01*
X479868Y277859D01*
Y270319D02*
X484948Y275399D01*
X490028Y270319D01*
X484948Y265239D01*
X479868Y270319D01*
Y262779D02*
X484948Y267859D01*
X490028Y262779D01*
X484948Y257699D01*
X479868Y262779D01*
Y255239D02*
X484948Y260319D01*
X490028Y255239D01*
X484948Y250159D01*
X479868Y255239D01*
Y247699D02*
X484948Y252779D01*
X490028Y247699D01*
X484948Y242619D01*
X479868Y247699D01*
X480152Y240165D02*
X485232Y245245D01*
X490312Y240165D01*
X485232Y235084D01*
X480152Y240165D01*
X481995Y232853D02*
X487075Y237933D01*
X492155Y232853D01*
X487075Y227773D01*
X481995Y232853D01*
X485337Y226095D02*
X490417Y231175D01*
X495497Y226095D01*
X490417Y221015D01*
X485337Y226095D01*
X490620Y220715D02*
X495700Y225795D01*
X500780Y220715D01*
X495700Y215635D01*
X490620Y220715D01*
X496380Y215849D02*
X501460Y220929D01*
X506540Y215849D01*
X501460Y210769D01*
X496380Y215849D01*
X503270Y212788D02*
X508350Y217868D01*
X513430Y212788D01*
X508350Y207708D01*
X503270Y212788D01*
X510696Y211477D02*
X515776Y216557D01*
X520856Y211477D01*
X515776Y206397D01*
X510696Y211477D01*
X518235Y211352D02*
X523315Y216432D01*
X528395Y211352D01*
X523315Y206272D01*
X518235Y211352D01*
X525775D02*
X530855Y216432D01*
X535935Y211352D01*
X530855Y206272D01*
X525775Y211352D01*
X533315D02*
X538395Y216432D01*
X543475Y211352D01*
X538395Y206272D01*
X533315Y211352D01*
X540855D02*
X545935Y216432D01*
X551015Y211352D01*
X545935Y206272D01*
X540855Y211352D01*
X548386Y211723D02*
X553465Y216803D01*
X558545Y211723D01*
X553465Y206643D01*
X548386Y211723D01*
X555651Y213739D02*
X560731Y218819D01*
X565811Y213739D01*
X560731Y208659D01*
X555651Y213739D01*
X562317Y217262D02*
X567397Y222342D01*
X572477Y217262D01*
X567397Y212182D01*
X562317Y217262D01*
X567952Y222272D02*
X573032Y227352D01*
X578112Y222272D01*
X573032Y217192D01*
X567952Y222272D01*
X572352Y228395D02*
X577432Y233475D01*
X582512Y228395D01*
X577432Y223315D01*
X572352Y228395D01*
X568486Y258182D02*
X573566Y263262D01*
X578646Y258182D01*
X573566Y253102D01*
X568486Y258182D01*
X561097Y256682D02*
X566177Y261762D01*
X571257Y256682D01*
X566177Y251602D01*
X561097Y256682D01*
X558594Y249569D02*
X563674Y254649D01*
X568754Y249569D01*
X563674Y244489D01*
X558594Y249569D01*
Y242029D02*
X563674Y247109D01*
X568754Y242029D01*
X563674Y236949D01*
X558594Y242029D01*
X558096Y234506D02*
X563176Y239586D01*
X568256Y234506D01*
X563176Y229426D01*
X558096Y234506D01*
X552601Y229343D02*
X557681Y234423D01*
X562761Y229343D01*
X557681Y224263D01*
X552601Y229343D01*
X545461Y226920D02*
X550541Y232000D01*
X555621Y226920D01*
X550541Y221840D01*
X545461Y226920D01*
X537923Y226728D02*
X543003Y231808D01*
X548083Y226728D01*
X543003Y221648D01*
X537923Y226728D01*
X530383D02*
X535463Y231808D01*
X540543Y226728D01*
X535463Y221648D01*
X530383Y226728D01*
X522843D02*
X527923Y231808D01*
X533003Y226728D01*
X527923Y221648D01*
X522843Y226728D01*
X515303D02*
X520383Y231808D01*
X525463Y226728D01*
X520383Y221648D01*
X515303Y226728D01*
X507811Y227573D02*
X512891Y232653D01*
X517971Y227573D01*
X512891Y222493D01*
X507811Y227573D01*
X501453Y231626D02*
X506533Y236706D01*
X511613Y231626D01*
X506533Y226546D01*
X501453Y231626D01*
X496687Y237469D02*
X501767Y242549D01*
X506847Y237469D01*
X501767Y232389D01*
X496687Y237469D01*
X495244Y244870D02*
X500324Y249950D01*
X505404Y244870D01*
X500324Y239790D01*
X495244Y244870D01*
Y252410D02*
X500324Y257490D01*
X505404Y252410D01*
X500324Y247330D01*
X495244Y252410D01*
Y259950D02*
X500324Y265030D01*
X505404Y259950D01*
X500324Y254870D01*
X495244Y259950D01*
Y267490D02*
X500324Y272570D01*
X505404Y267490D01*
X500324Y262410D01*
X495244Y267490D01*
Y275030D02*
X500324Y280110D01*
X505404Y275030D01*
X500324Y269949D01*
X495244Y275030D01*
Y282570D02*
X500324Y287649D01*
X505404Y282570D01*
X500324Y277489D01*
X495244Y282570D01*
Y290110D02*
X500324Y295189D01*
X505404Y290110D01*
X500324Y285030D01*
X495244Y290110D01*
Y297649D02*
X500324Y302729D01*
X505404Y297649D01*
X500324Y292570D01*
X495244Y297649D01*
Y305189D02*
X500324Y310270D01*
X505404Y305189D01*
X500324Y300110D01*
X495244Y305189D01*
Y312729D02*
X500324Y317810D01*
X505404Y312729D01*
X500324Y307649D01*
X495244Y312729D01*
Y320270D02*
X500324Y325350D01*
X505404Y320270D01*
X500324Y315189D01*
X495244Y320270D01*
Y327809D02*
X500324Y332890D01*
X505404Y327809D01*
X500324Y322729D01*
X495244Y327809D01*
Y335350D02*
X500324Y340429D01*
X505404Y335350D01*
X500324Y330270D01*
X495244Y335350D01*
Y342890D02*
X500324Y347970D01*
X505404Y342890D01*
X500324Y337809D01*
X495244Y342890D01*
Y350429D02*
X500324Y355509D01*
X505404Y350429D01*
X500324Y345349D01*
X495244Y350429D01*
Y357969D02*
X500324Y363049D01*
X505404Y357969D01*
X500324Y352889D01*
X495244Y357969D01*
Y365509D02*
X500324Y370589D01*
X505404Y365509D01*
X500324Y360429D01*
X495244Y365509D01*
Y373049D02*
X500324Y378129D01*
X505404Y373049D01*
X500324Y367969D01*
X495244Y373049D01*
Y380589D02*
X500324Y385669D01*
X505404Y380589D01*
X500324Y375509D01*
X495244Y380589D01*
Y388129D02*
X500324Y393209D01*
X505404Y388129D01*
X500324Y383049D01*
X495244Y388129D01*
Y395669D02*
X500324Y400749D01*
X505404Y395669D01*
X500324Y390589D01*
X495244Y395669D01*
Y403209D02*
X500324Y408289D01*
X505404Y403209D01*
X500324Y398129D01*
X495244Y403209D01*
Y410749D02*
X500324Y415829D01*
X505404Y410749D01*
X500324Y405669D01*
X495244Y410749D01*
Y418289D02*
X500324Y423369D01*
X505404Y418289D01*
X500324Y413209D01*
X495244Y418289D01*
Y425829D02*
X500324Y430909D01*
X505404Y425829D01*
X500324Y420749D01*
X495244Y425829D01*
Y433369D02*
X500324Y438449D01*
X505404Y433369D01*
X500324Y428289D01*
X495244Y433369D01*
Y440909D02*
X500324Y445989D01*
X505404Y440909D01*
X500324Y435829D01*
X495244Y440909D01*
Y448449D02*
X500324Y453529D01*
X505404Y448449D01*
X500324Y443369D01*
X495244Y448449D01*
Y455989D02*
X500324Y461069D01*
X505404Y455989D01*
X500324Y450909D01*
X495244Y455989D01*
Y463529D02*
X500324Y468609D01*
X505404Y463529D01*
X500324Y458449D01*
X495244Y463529D01*
Y471069D02*
X500324Y476149D01*
X505404Y471069D01*
X500324Y465989D01*
X495244Y471069D01*
Y478609D02*
X500324Y483689D01*
X505404Y478609D01*
X500324Y473529D01*
X495244Y478609D01*
Y486149D02*
X500324Y491229D01*
X505404Y486149D01*
X500324Y481069D01*
X495244Y486149D01*
Y493689D02*
X500324Y498769D01*
X505404Y493689D01*
X500324Y488609D01*
X495244Y493689D01*
Y501229D02*
X500324Y506309D01*
X505404Y501229D01*
X500324Y496149D01*
X495244Y501229D01*
Y508769D02*
X500324Y513849D01*
X505404Y508769D01*
X500324Y503689D01*
X495244Y508769D01*
Y516309D02*
X500324Y521389D01*
X505404Y516309D01*
X500324Y511229D01*
X495244Y516309D01*
Y523849D02*
X500324Y528929D01*
X505404Y523849D01*
X500324Y518769D01*
X495244Y523849D01*
Y531389D02*
X500324Y536469D01*
X505404Y531389D01*
X500324Y526309D01*
X495244Y531389D01*
Y538929D02*
X500324Y544009D01*
X505404Y538929D01*
X500324Y533849D01*
X495244Y538929D01*
X495260Y546469D02*
X500340Y551549D01*
X505420Y546469D01*
X500340Y541389D01*
X495260Y546469D01*
X494261Y553943D02*
X499341Y559023D01*
X504421Y553943D01*
X499341Y548863D01*
X494261Y553943D01*
X491361Y560903D02*
X496441Y565983D01*
X501521Y560903D01*
X496441Y555823D01*
X491361Y560903D01*
X486754Y566872D02*
X491834Y571952D01*
X496914Y566872D01*
X491834Y561792D01*
X486754Y566872D01*
X480650Y571298D02*
X485730Y576378D01*
X490810Y571298D01*
X485730Y566218D01*
X480650Y571298D01*
X473633Y574058D02*
X478713Y579138D01*
X483793Y574058D01*
X478713Y568978D01*
X473633Y574058D01*
X466132Y574818D02*
X471212Y579898D01*
X476292Y574818D01*
X471212Y569738D01*
X466132Y574818D01*
X458592D02*
X463672Y579898D01*
X468752Y574818D01*
X463672Y569738D01*
X458592Y574818D01*
X451052D02*
X456132Y579898D01*
X461212Y574818D01*
X456132Y569738D01*
X451052Y574818D01*
X443512D02*
X448592Y579898D01*
X453672Y574818D01*
X448592Y569738D01*
X443512Y574818D01*
X435972D02*
X441052Y579898D01*
X446132Y574818D01*
X441052Y569738D01*
X435972Y574818D01*
X428432D02*
X433512Y579898D01*
X438592Y574818D01*
X433512Y569738D01*
X428432Y574818D01*
X420892D02*
X425972Y579898D01*
X431052Y574818D01*
X425972Y569738D01*
X420892Y574818D01*
X413352D02*
X418432Y579898D01*
X423512Y574818D01*
X418432Y569738D01*
X413352Y574818D01*
X405812D02*
X410892Y579898D01*
X415972Y574818D01*
X410892Y569738D01*
X405812Y574818D01*
X398272D02*
X403352Y579898D01*
X408432Y574818D01*
X403352Y569738D01*
X398272Y574818D01*
X390732D02*
X395812Y579898D01*
X400892Y574818D01*
X395812Y569738D01*
X390732Y574818D01*
X383192D02*
X388272Y579898D01*
X393352Y574818D01*
X388272Y569738D01*
X383192Y574818D01*
X375652D02*
X380732Y579898D01*
X385812Y574818D01*
X380732Y569738D01*
X375652Y574818D01*
X368112D02*
X373192Y579898D01*
X378272Y574818D01*
X373192Y569738D01*
X368112Y574818D01*
X360572D02*
X365652Y579898D01*
X370732Y574818D01*
X365652Y569738D01*
X360572Y574818D01*
X353032D02*
X358112Y579898D01*
X363192Y574818D01*
X358112Y569738D01*
X353032Y574818D01*
X345492D02*
X350572Y579898D01*
X355652Y574818D01*
X350572Y569738D01*
X345492Y574818D01*
X337952D02*
X343032Y579898D01*
X348112Y574818D01*
X343032Y569738D01*
X337952Y574818D01*
X330412D02*
X335492Y579898D01*
X340572Y574818D01*
X335492Y569738D01*
X330412Y574818D01*
X322872D02*
X327952Y579898D01*
X333032Y574818D01*
X327952Y569738D01*
X322872Y574818D01*
X285172D02*
X290252Y579898D01*
X295332Y574818D01*
X290252Y569738D01*
X285172Y574818D01*
X277632D02*
X282712Y579898D01*
X287792Y574818D01*
X282712Y569738D01*
X277632Y574818D01*
X270092D02*
X275172Y579898D01*
X280252Y574818D01*
X275172Y569738D01*
X270092Y574818D01*
X262552D02*
X267632Y579898D01*
X272712Y574818D01*
X267632Y569738D01*
X262552Y574818D01*
X255012D02*
X260092Y579898D01*
X265172Y574818D01*
X260092Y569738D01*
X255012Y574818D01*
X224852D02*
X229932Y579898D01*
X235012Y574818D01*
X229932Y569738D01*
X224852Y574818D01*
X217312D02*
X222392Y579898D01*
X227472Y574818D01*
X222392Y569738D01*
X217312Y574818D01*
X209772D02*
X214852Y579898D01*
X219932Y574818D01*
X214852Y569738D01*
X209772Y574818D01*
X202232D02*
X207312Y579898D01*
X212392Y574818D01*
X207312Y569738D01*
X202232Y574818D01*
X194692D02*
X199772Y579898D01*
X204852Y574818D01*
X199772Y569738D01*
X194692Y574818D01*
X187152D02*
X192232Y579898D01*
X197312Y574818D01*
X192232Y569738D01*
X187152Y574818D01*
X179612D02*
X184692Y579898D01*
X189772Y574818D01*
X184692Y569738D01*
X179612Y574818D01*
X172072D02*
X177152Y579898D01*
X182232Y574818D01*
X177152Y569738D01*
X172072Y574818D01*
X164539Y575133D02*
X169619Y580213D01*
X174699Y575133D01*
X169619Y570053D01*
X164539Y575133D01*
X157605Y578094D02*
X162685Y583174D01*
X167765Y578094D01*
X162685Y573014D01*
X157605Y578094D01*
X152074Y583218D02*
X157154Y588298D01*
X162234Y583218D01*
X157154Y578138D01*
X152074Y583218D01*
X146742Y588550D02*
X151822Y593630D01*
X156902Y588550D01*
X151822Y583470D01*
X146742Y588550D01*
X141411Y593881D02*
X146490Y598961D01*
X151571Y593881D01*
X146490Y588801D01*
X141411Y593881D01*
X136079Y599213D02*
X141159Y604293D01*
X146239Y599213D01*
X141159Y594133D01*
X136079Y599213D01*
X104858Y670127D02*
X109938Y675207D01*
X115018Y670127D01*
X109938Y665047D01*
X104858Y670127D01*
X104150Y677633D02*
X109230Y682713D01*
X114310Y677633D01*
X109230Y672553D01*
X104150Y677633D01*
X101210Y684577D02*
X106290Y689657D01*
X111370Y684577D01*
X106290Y679497D01*
X101210Y684577D01*
X96269Y690273D02*
X101349Y695353D01*
X106429Y690273D01*
X101349Y685193D01*
X96269Y690273D01*
X93101Y697115D02*
X98181Y702195D01*
X103261Y697115D01*
X98181Y692035D01*
X93101Y697115D01*
X90843Y704308D02*
X95923Y709389D01*
X101003Y704308D01*
X95923Y699229D01*
X90843Y704308D01*
X85829Y709940D02*
X90909Y715020D01*
X95989Y709940D01*
X90909Y704860D01*
X85829Y709940D01*
X79017Y713172D02*
X84097Y718252D01*
X89177Y713172D01*
X84097Y708092D01*
X79017Y713172D01*
X678115Y531328D02*
X683195Y536408D01*
X688275Y531328D01*
X683195Y526248D01*
X678115Y531328D01*
X732170Y554000D02*
X737250Y559080D01*
X742330Y554000D01*
X737250Y548920D01*
X732170Y554000D01*
X390246Y154880D02*
X395326Y159960D01*
X400406Y154880D01*
X395326Y149800D01*
X390246Y154880D01*
X58891Y744150D02*
X63971Y749230D01*
X69051Y744150D01*
X63971Y739070D01*
X58891Y744150D01*
X56715Y736931D02*
X61795Y742011D01*
X66875Y736931D01*
X61795Y731851D01*
X56715Y736931D01*
X57574Y729441D02*
X62654Y734520D01*
X67734Y729441D01*
X62654Y724361D01*
X57574Y729441D01*
X61382Y722932D02*
X66462Y728012D01*
X71542Y722932D01*
X66462Y717852D01*
X61382Y722932D01*
X67538Y718579D02*
X72618Y723659D01*
X77698Y718579D01*
X72618Y713499D01*
X67538Y718579D01*
X98445Y700893D02*
X103525Y705973D01*
X108605Y700893D01*
X103525Y695813D01*
X98445Y700893D01*
X103422Y695230D02*
X108502Y700310D01*
X113582Y695230D01*
X108502Y690150D01*
X103422Y695230D01*
X136818Y608980D02*
X141898Y614060D01*
X146978Y608980D01*
X141898Y603900D01*
X136818Y608980D01*
X142149Y603648D02*
X147229Y608728D01*
X152310Y603648D01*
X147229Y598568D01*
X142149Y603648D01*
X147481Y598317D02*
X152561Y603397D01*
X157641Y598317D01*
X152561Y593237D01*
X147481Y598317D01*
X152813Y592985D02*
X157893Y598065D01*
X162973Y592985D01*
X157893Y587905D01*
X152813Y592985D01*
X158198Y587708D02*
X163278Y592788D01*
X168358Y587708D01*
X163278Y582628D01*
X158198Y587708D01*
X164322Y583310D02*
X169402Y588390D01*
X174482Y583310D01*
X169402Y578230D01*
X164322Y583310D01*
X171299Y580449D02*
X176379Y585529D01*
X181459Y580449D01*
X176379Y575369D01*
X171299Y580449D01*
X291843Y579192D02*
X296923Y584272D01*
X302003Y579192D01*
X296923Y574112D01*
X291843Y579192D01*
X480343D02*
X485423Y584272D01*
X490503Y579192D01*
X485423Y574112D01*
X480343Y579192D01*
X487883D02*
X492963Y584272D01*
X498043Y579192D01*
X492963Y574112D01*
X487883Y579192D01*
X495423D02*
X500503Y584272D01*
X505583Y579192D01*
X500503Y574112D01*
X495423Y579192D01*
X502963D02*
X508043Y584272D01*
X513123Y579192D01*
X508043Y574112D01*
X502963Y579192D01*
X510503D02*
X515583Y584272D01*
X520663Y579192D01*
X515583Y574112D01*
X510503Y579192D01*
X518043D02*
X523123Y584272D01*
X528203Y579192D01*
X523123Y574112D01*
X518043Y579192D01*
X525583D02*
X530663Y584272D01*
X535743Y579192D01*
X530663Y574112D01*
X525583Y579192D01*
X533123D02*
X538203Y584272D01*
X543283Y579192D01*
X538203Y574112D01*
X533123Y579192D01*
X540663D02*
X545743Y584272D01*
X550823Y579192D01*
X545743Y574112D01*
X540663Y579192D01*
X548203D02*
X553283Y584272D01*
X558363Y579192D01*
X553283Y574112D01*
X548203Y579192D01*
X555736Y578878D02*
X560816Y583958D01*
X565896Y578878D01*
X560816Y573798D01*
X555736Y578878D01*
X562462Y575470D02*
X567542Y580550D01*
X572622Y575470D01*
X567542Y570390D01*
X562462Y575470D01*
X566647Y569198D02*
X571727Y574278D01*
X576808Y569198D01*
X571727Y564118D01*
X566647Y569198D01*
X567498Y561707D02*
X572578Y566787D01*
X577658Y561707D01*
X572578Y556627D01*
X567498Y561707D01*
Y554167D02*
X572578Y559247D01*
X577658Y554167D01*
X572578Y549087D01*
X567498Y554167D01*
X565803Y546820D02*
X570883Y551900D01*
X575963Y546820D01*
X570883Y541740D01*
X565803Y546820D01*
X564944Y539329D02*
X570024Y544409D01*
X575104Y539329D01*
X570024Y534249D01*
X564944Y539329D01*
Y531789D02*
X570024Y536869D01*
X575104Y531789D01*
X570024Y526709D01*
X564944Y531789D01*
X567065Y524553D02*
X572145Y529633D01*
X577225Y524553D01*
X572145Y519473D01*
X567065Y524553D01*
X574398Y522798D02*
X579478Y527878D01*
X584558Y522798D01*
X579478Y517718D01*
X574398Y522798D01*
X600998Y554886D02*
X606078Y559966D01*
X611158Y554886D01*
X606078Y549806D01*
X600998Y554886D01*
X604038Y561787D02*
X609118Y566867D01*
X614198Y561787D01*
X609118Y556707D01*
X604038Y561787D01*
X589916Y573664D02*
X594995Y578744D01*
X600075Y573664D01*
X594995Y568584D01*
X589916Y573664D01*
X582874Y553332D02*
X587954Y558412D01*
X593034Y553332D01*
X587954Y548252D01*
X582874Y553332D01*
Y560872D02*
X587954Y565952D01*
X593034Y560872D01*
X587954Y555792D01*
X582874Y560872D01*
X582583Y568406D02*
X587663Y573487D01*
X592743Y568406D01*
X587663Y563326D01*
X582583Y568406D01*
X580729Y575715D02*
X585809Y580795D01*
X590889Y575715D01*
X585809Y570635D01*
X580729Y575715D01*
X577032Y582286D02*
X582112Y587366D01*
X587192Y582286D01*
X582112Y577206D01*
X577032Y582286D01*
X571811Y587726D02*
X576891Y592806D01*
X581971Y587726D01*
X576891Y582646D01*
X571811Y587726D01*
X565449Y591772D02*
X570529Y596852D01*
X575609Y591772D01*
X570529Y586692D01*
X565449Y591772D01*
X558277Y594101D02*
X563357Y599181D01*
X568437Y594101D01*
X563357Y589021D01*
X558277Y594101D01*
X550752Y594568D02*
X555832Y599648D01*
X560912Y594568D01*
X555832Y589488D01*
X550752Y594568D01*
X543212D02*
X548292Y599648D01*
X553372Y594568D01*
X548292Y589488D01*
X543212Y594568D01*
X535672D02*
X540752Y599648D01*
X545832Y594568D01*
X540752Y589488D01*
X535672Y594568D01*
X528132D02*
X533212Y599648D01*
X538292Y594568D01*
X533212Y589488D01*
X528132Y594568D01*
X520592D02*
X525672Y599648D01*
X530752Y594568D01*
X525672Y589488D01*
X520592Y594568D01*
X513052D02*
X518132Y599648D01*
X523212Y594568D01*
X518132Y589488D01*
X513052Y594568D01*
X505512D02*
X510592Y599648D01*
X515672Y594568D01*
X510592Y589488D01*
X505512Y594568D01*
X497972D02*
X503052Y599648D01*
X508132Y594568D01*
X503052Y589488D01*
X497972Y594568D01*
X490432D02*
X495512Y599648D01*
X500592Y594568D01*
X495512Y589488D01*
X490432Y594568D01*
X482892D02*
X487972Y599648D01*
X493052Y594568D01*
X487972Y589488D01*
X482892Y594568D01*
X475352D02*
X480432Y599648D01*
X485512Y594568D01*
X480432Y589488D01*
X475352Y594568D01*
X467812D02*
X472892Y599648D01*
X477972Y594568D01*
X472892Y589488D01*
X467812Y594568D01*
X460272D02*
X465352Y599648D01*
X470432Y594568D01*
X465352Y589488D01*
X460272Y594568D01*
X452732D02*
X457812Y599648D01*
X462892Y594568D01*
X457812Y589488D01*
X452732Y594568D01*
X445192D02*
X450272Y599648D01*
X455352Y594568D01*
X450272Y589488D01*
X445192Y594568D01*
X437652D02*
X442732Y599648D01*
X447812Y594568D01*
X442732Y589488D01*
X437652Y594568D01*
X430112D02*
X435192Y599648D01*
X440272Y594568D01*
X435192Y589488D01*
X430112Y594568D01*
X422572D02*
X427652Y599648D01*
X432732Y594568D01*
X427652Y589488D01*
X422572Y594568D01*
X415032D02*
X420112Y599648D01*
X425192Y594568D01*
X420112Y589488D01*
X415032Y594568D01*
X407492D02*
X412572Y599648D01*
X417652Y594568D01*
X412572Y589488D01*
X407492Y594568D01*
X399952D02*
X405032Y599648D01*
X410112Y594568D01*
X405032Y589488D01*
X399952Y594568D01*
X392412D02*
X397492Y599648D01*
X402572Y594568D01*
X397492Y589488D01*
X392412Y594568D01*
X384872D02*
X389952Y599648D01*
X395032Y594568D01*
X389952Y589488D01*
X384872Y594568D01*
X377332D02*
X382412Y599648D01*
X387492Y594568D01*
X382412Y589488D01*
X377332Y594568D01*
X369792D02*
X374872Y599648D01*
X379952Y594568D01*
X374872Y589488D01*
X369792Y594568D01*
X362252D02*
X367332Y599648D01*
X372412Y594568D01*
X367332Y589488D01*
X362252Y594568D01*
X354712D02*
X359792Y599648D01*
X364872Y594568D01*
X359792Y589488D01*
X354712Y594568D01*
X347172D02*
X352252Y599648D01*
X357332Y594568D01*
X352252Y589488D01*
X347172Y594568D01*
X339632D02*
X344712Y599648D01*
X349792Y594568D01*
X344712Y589488D01*
X339632Y594568D01*
X332092D02*
X337172Y599648D01*
X342252Y594568D01*
X337172Y589488D01*
X332092Y594568D01*
X324552D02*
X329632Y599648D01*
X334712Y594568D01*
X329632Y589488D01*
X324552Y594568D01*
X317012D02*
X322092Y599648D01*
X327172Y594568D01*
X322092Y589488D01*
X317012Y594568D01*
X286852D02*
X291932Y599648D01*
X297012Y594568D01*
X291932Y589488D01*
X286852Y594568D01*
X279312D02*
X284392Y599648D01*
X289472Y594568D01*
X284392Y589488D01*
X279312Y594568D01*
X271772D02*
X276852Y599648D01*
X281932Y594568D01*
X276852Y589488D01*
X271772Y594568D01*
X264232D02*
X269312Y599648D01*
X274392Y594568D01*
X269312Y589488D01*
X264232Y594568D01*
X256692D02*
X261772Y599648D01*
X266852Y594568D01*
X261772Y589488D01*
X256692Y594568D01*
X249152D02*
X254232Y599648D01*
X259312Y594568D01*
X254232Y589488D01*
X249152Y594568D01*
X226532D02*
X231612Y599648D01*
X236692Y594568D01*
X231612Y589488D01*
X226532Y594568D01*
X218992D02*
X224072Y599648D01*
X229152Y594568D01*
X224072Y589488D01*
X218992Y594568D01*
X211452D02*
X216532Y599648D01*
X221612Y594568D01*
X216532Y589488D01*
X211452Y594568D01*
X203912D02*
X208992Y599648D01*
X214072Y594568D01*
X208992Y589488D01*
X203912Y594568D01*
X196372D02*
X201452Y599648D01*
X206532Y594568D01*
X201452Y589488D01*
X196372Y594568D01*
X188832D02*
X193912Y599648D01*
X198992Y594568D01*
X193912Y589488D01*
X188832Y594568D01*
X181292D02*
X186372Y599648D01*
X191452Y594568D01*
X186372Y589488D01*
X181292Y594568D01*
X173852Y595792D02*
X178932Y600872D01*
X184012Y595792D01*
X178932Y590712D01*
X173852Y595792D01*
X167574Y599968D02*
X172654Y605048D01*
X177734Y599968D01*
X172654Y594888D01*
X167574Y599968D01*
X162243Y605299D02*
X167323Y610379D01*
X172403Y605299D01*
X167323Y600219D01*
X162243Y605299D01*
X156911Y610631D02*
X161991Y615711D01*
X167071Y610631D01*
X161991Y605551D01*
X156911Y610631D01*
X151580Y615962D02*
X156659Y621043D01*
X161740Y615962D01*
X156659Y610882D01*
X151580Y615962D01*
X146248Y621294D02*
X151328Y626374D01*
X156408Y621294D01*
X151328Y616214D01*
X146248Y621294D01*
X140916Y626626D02*
X145996Y631706D01*
X151076Y626626D01*
X145996Y621546D01*
X140916Y626626D01*
X135585Y631957D02*
X140665Y637037D01*
X145745Y631957D01*
X140665Y626877D01*
X135585Y631957D01*
X121541Y649410D02*
X126621Y654490D01*
X131701Y649410D01*
X126621Y644330D01*
X121541Y649410D01*
X120858Y656919D02*
X125938Y661999D01*
X131018Y656919D01*
X125938Y651839D01*
X120858Y656919D01*
Y664459D02*
X125938Y669539D01*
X131018Y664459D01*
X125938Y659379D01*
X120858Y664459D01*
Y671999D02*
X125938Y677079D01*
X131018Y671999D01*
X125938Y666919D01*
X120858Y671999D01*
Y679539D02*
X125938Y684619D01*
X131018Y679539D01*
X125938Y674459D01*
X120858Y679539D01*
Y687079D02*
X125938Y692159D01*
X131018Y687079D01*
X125938Y681999D01*
X120858Y687079D01*
X120137Y694584D02*
X125217Y699664D01*
X130297Y694584D01*
X125217Y689504D01*
X120137Y694584D01*
X117465Y701635D02*
X122545Y706715D01*
X127625Y701635D01*
X122545Y696555D01*
X117465Y701635D01*
X113179Y707839D02*
X118259Y712918D01*
X123339Y707839D01*
X118259Y702758D01*
X113179Y707839D01*
X107880Y713202D02*
X112960Y718282D01*
X118040Y713202D01*
X112960Y708122D01*
X107880Y713202D01*
X102548Y718534D02*
X107628Y723614D01*
X112708Y718534D01*
X107628Y713454D01*
X102548Y718534D01*
X97217Y723865D02*
X102297Y728945D01*
X107377Y723865D01*
X102297Y718785D01*
X97217Y723865D01*
X92337Y729613D02*
X97417Y734693D01*
X102497Y729613D01*
X97417Y724533D01*
X92337Y729613D01*
X93101Y737115D02*
X98181Y742195D01*
X103261Y737115D01*
X98181Y732035D01*
X93101Y737115D01*
X90843Y744308D02*
X95923Y749389D01*
X101003Y744308D01*
X95923Y739229D01*
X90843Y744308D01*
X139420Y545250D02*
X144500Y550330D01*
X149580Y545250D01*
X144500Y540170D01*
X139420Y545250D01*
X286496Y357630D02*
X291576Y362710D01*
X296656Y357630D01*
X291576Y352550D01*
X286496Y357630D01*
X328746Y209880D02*
X333826Y214960D01*
X338906Y209880D01*
X333826Y204800D01*
X328746Y209880D01*
X669496Y108380D02*
X674576Y113460D01*
X679656Y108380D01*
X674576Y103300D01*
X669496Y108380D01*
X187246Y726880D02*
X192326Y731960D01*
X197406Y726880D01*
X192326Y721800D01*
X187246Y726880D01*
X914496Y599380D02*
X919576Y604460D01*
X924656Y599380D01*
X919576Y594300D01*
X914496Y599380D01*
X882996Y627130D02*
X888076Y632210D01*
X893156Y627130D01*
X888076Y622050D01*
X882996Y627130D01*
X745496Y597130D02*
X750576Y602210D01*
X755656Y597130D01*
X750576Y592050D01*
X745496Y597130D01*
X697746Y842880D02*
X702826Y847960D01*
X707906Y842880D01*
X702826Y837800D01*
X697746Y842880D01*
X841246Y842630D02*
X846326Y847710D01*
X851406Y842630D01*
X846326Y837550D01*
X841246Y842630D01*
X187496Y896630D02*
X192576Y901710D01*
X197656Y896630D01*
X192576Y891550D01*
X187496Y896630D01*
X140496Y845630D02*
X145576Y850710D01*
X150656Y845630D01*
X145576Y840550D01*
X140496Y845630D01*
X186246Y622130D02*
X191326Y627210D01*
X196406Y622130D01*
X191326Y617050D01*
X186246Y622130D01*
X152746Y687880D02*
X157826Y692960D01*
X162906Y687880D01*
X157826Y682800D01*
X152746Y687880D01*
X291246Y699130D02*
X296326Y704210D01*
X301406Y699130D01*
X296326Y694050D01*
X291246Y699130D01*
X285996Y653130D02*
X291076Y658210D01*
X296156Y653130D01*
X291076Y648050D01*
X285996Y653130D01*
X455246Y615380D02*
X460326Y620460D01*
X465406Y615380D01*
X460326Y610300D01*
X455246Y615380D01*
X376496Y662130D02*
X381576Y667210D01*
X386656Y662130D01*
X381576Y657050D01*
X376496Y662130D01*
X420996Y686130D02*
X426076Y691210D01*
X431156Y686130D01*
X426076Y681050D01*
X420996Y686130D01*
X457746Y722880D02*
X462826Y727960D01*
X467906Y722880D01*
X462826Y717800D01*
X457746Y722880D01*
X575246Y710380D02*
X580326Y715460D01*
X585406Y710380D01*
X580326Y705300D01*
X575246Y710380D01*
X557996Y659380D02*
X563076Y664460D01*
X568156Y659380D01*
X563076Y654300D01*
X557996Y659380D01*
X641496Y658380D02*
X646576Y663460D01*
X651656Y658380D01*
X646576Y653300D01*
X641496Y658380D01*
X712246Y668130D02*
X717326Y673210D01*
X722406Y668130D01*
X717326Y663050D01*
X712246Y668130D01*
X751496Y672880D02*
X756576Y677960D01*
X761656Y672880D01*
X756576Y667800D01*
X751496Y672880D01*
X764246Y697880D02*
X769326Y702960D01*
X774406Y697880D01*
X769326Y692800D01*
X764246Y697880D01*
X776246Y679630D02*
X781326Y684710D01*
X786406Y679630D01*
X781326Y674550D01*
X776246Y679630D01*
X797746Y703130D02*
X802826Y708210D01*
X807906Y703130D01*
X802826Y698050D01*
X797746Y703130D01*
X812746Y701130D02*
X817826Y706210D01*
X822906Y701130D01*
X817826Y696050D01*
X812746Y701130D01*
X844996Y671380D02*
X850076Y676460D01*
X855156Y671380D01*
X850076Y666300D01*
X844996Y671380D01*
X830246Y669880D02*
X835326Y674960D01*
X840406Y669880D01*
X835326Y664800D01*
X830246Y669880D01*
X917496Y698380D02*
X922576Y703460D01*
X927656Y698380D01*
X922576Y693300D01*
X917496Y698380D01*
X901996Y675380D02*
X907076Y680460D01*
X912156Y675380D01*
X907076Y670300D01*
X901996Y675380D01*
X886996D02*
X892076Y680460D01*
X897156Y675380D01*
X892076Y670300D01*
X886996Y675380D01*
X872496Y675880D02*
X877576Y680960D01*
X882656Y675880D01*
X877576Y670800D01*
X872496Y675880D01*
X856996Y676380D02*
X862076Y681460D01*
X867156Y676380D01*
X862076Y671300D01*
X856996Y676380D01*
X824666Y623880D02*
X829746Y628960D01*
X834826Y623880D01*
X829746Y618800D01*
X824666Y623880D01*
X839666D02*
X844746Y628960D01*
X849826Y623880D01*
X844746Y618800D01*
X839666Y623880D01*
X808666Y600630D02*
X813746Y605710D01*
X818826Y600630D01*
X813746Y595550D01*
X808666Y600630D01*
X794746Y598880D02*
X799826Y603960D01*
X804906Y598880D01*
X799826Y593800D01*
X794746Y598880D01*
X778666Y601380D02*
X783746Y606460D01*
X788826Y601380D01*
X783746Y596300D01*
X778666Y601380D01*
X838666Y580380D02*
X843746Y585460D01*
X848826Y580380D01*
X843746Y575300D01*
X838666Y580380D01*
X831726Y547970D02*
X836806Y553050D01*
X841886Y547970D01*
X836806Y542890D01*
X831726Y547970D01*
X804746Y742130D02*
X809826Y747210D01*
X814906Y742130D01*
X809826Y737050D01*
X804746Y742130D01*
X851496Y731380D02*
X856576Y736460D01*
X861656Y731380D01*
X856576Y726300D01*
X851496Y731380D01*
X854583Y739737D02*
X859663Y744817D01*
X864743Y739737D01*
X859663Y734657D01*
X854583Y739737D01*
X784246Y595880D02*
X789326Y600960D01*
X794406Y595880D01*
X789326Y590800D01*
X784246Y595880D01*
X779746Y629630D02*
X784826Y634710D01*
X789906Y629630D01*
X784826Y624550D01*
X779746Y629630D01*
X436996Y221130D02*
X442076Y226210D01*
X447156Y221130D01*
X442076Y216050D01*
X436996Y221130D01*
X461996Y221630D02*
X467076Y226710D01*
X472156Y221630D01*
X467076Y216550D01*
X461996Y221630D01*
X386496Y127130D02*
X391576Y132210D01*
X396656Y127130D01*
X391576Y122050D01*
X386496Y127130D01*
X835536Y361280D02*
X840616Y366360D01*
X845696Y361280D01*
X840616Y356200D01*
X835536Y361280D01*
X753246Y760380D02*
X758326Y765460D01*
X763406Y760380D01*
X758326Y755300D01*
X753246Y760380D01*
X927996Y696880D02*
X933076Y701960D01*
X938156Y696880D01*
X933076Y691800D01*
X927996Y696880D01*
X575746Y880130D02*
X580826Y885210D01*
X585906Y880130D01*
X580826Y875050D01*
X575746Y880130D01*
X640246Y829130D02*
X645326Y834210D01*
X650406Y829130D01*
X645326Y824050D01*
X640246Y829130D01*
X527496Y819630D02*
X532576Y824710D01*
X537656Y819630D01*
X532576Y814550D01*
X527496Y819630D01*
X455496Y895880D02*
X460576Y900960D01*
X465656Y895880D01*
X460576Y890800D01*
X455496Y895880D01*
X420246Y856630D02*
X425326Y861710D01*
X430406Y856630D01*
X425326Y851550D01*
X420246Y856630D01*
X407496Y798130D02*
X412576Y803210D01*
X417656Y798130D01*
X412576Y793050D01*
X407496Y798130D01*
X456996Y793630D02*
X462076Y798710D01*
X467156Y793630D01*
X462076Y788550D01*
X456996Y793630D01*
X295996Y871880D02*
X301076Y876960D01*
X306156Y871880D01*
X301076Y866800D01*
X295996Y871880D01*
X359246Y822130D02*
X364326Y827210D01*
X369406Y822130D01*
X364326Y817050D01*
X359246Y822130D01*
X257246Y820130D02*
X262326Y825210D01*
X267406Y820130D01*
X262326Y815050D01*
X257246Y820130D01*
X187496Y793880D02*
X192576Y798960D01*
X197656Y793880D01*
X192576Y788800D01*
X187496Y793880D01*
X172996Y525130D02*
X178076Y530210D01*
X183156Y525130D01*
X178076Y520050D01*
X172996Y525130D01*
X28746Y524630D02*
X33826Y529710D01*
X38906Y524630D01*
X33826Y519550D01*
X28746Y524630D01*
X83996Y525130D02*
X89076Y530210D01*
X94156Y525130D01*
X89076Y520050D01*
X83996Y525130D01*
X243996Y288130D02*
X249076Y293210D01*
X254156Y288130D01*
X249076Y283050D01*
X243996Y288130D01*
X753496Y79630D02*
X758576Y84710D01*
X763656Y79630D01*
X758576Y74550D01*
X753496Y79630D01*
X666246Y154630D02*
X671326Y159710D01*
X676406Y154630D01*
X671326Y149550D01*
X666246Y154630D01*
X536746Y263380D02*
X541826Y268460D01*
X546906Y263380D01*
X541826Y258300D01*
X536746Y263380D01*
X556496Y552130D02*
X561576Y557210D01*
X566656Y552130D01*
X561576Y547050D01*
X556496Y552130D01*
X358016Y697830D02*
X363096Y702910D01*
X368176Y697830D01*
X363096Y692750D01*
X358016Y697830D01*
X326996Y738380D02*
X332076Y743460D01*
X337156Y738380D01*
X332076Y733300D01*
X326996Y738380D01*
X227496Y735380D02*
X232576Y740460D01*
X237656Y735380D01*
X232576Y730300D01*
X227496Y735380D01*
X322746Y746630D02*
X327826Y751710D01*
X332906Y746630D01*
X327826Y741550D01*
X322746Y746630D01*
X223496D02*
X228576Y751710D01*
X233656Y746630D01*
X228576Y741550D01*
X223496Y746630D01*
X602996Y595880D02*
X608076Y600960D01*
X613156Y595880D01*
X608076Y590800D01*
X602996Y595880D01*
X863746Y463380D02*
X868826Y468460D01*
X873906Y463380D01*
X868826Y458300D01*
X863746Y463380D01*
X170746Y218130D02*
X175826Y223210D01*
X180906Y218130D01*
X175826Y213050D01*
X170746Y218130D01*
X355996Y77210D02*
X361076Y82290D01*
X366156Y77210D01*
X361076Y72130D01*
X355996Y77210D01*
X557406Y74180D02*
X562486Y79260D01*
X567566Y74180D01*
X562486Y69100D01*
X557406Y74180D01*
X327536Y85690D02*
X332616Y90770D01*
X337696Y85690D01*
X332616Y80610D01*
X327536Y85690D01*
X283086Y377790D02*
X288166Y382870D01*
X293246Y377790D01*
X288166Y372710D01*
X283086Y377790D01*
X164976Y380330D02*
X170056Y385410D01*
X175136Y380330D01*
X170056Y375250D01*
X164976Y380330D01*
X879986Y580990D02*
X885066Y586070D01*
X890146Y580990D01*
X885066Y575910D01*
X879986Y580990D01*
X565026Y649570D02*
X570106Y654650D01*
X575186Y649570D01*
X570106Y644490D01*
X565026Y649570D01*
X648846Y686400D02*
X653926Y691480D01*
X659006Y686400D01*
X653926Y681320D01*
X648846Y686400D01*
X642496Y850230D02*
X647576Y855310D01*
X652656Y850230D01*
X647576Y845150D01*
X642496Y850230D01*
X373256Y845150D02*
X378336Y850230D01*
X383416Y845150D01*
X378336Y840070D01*
X373256Y845150D01*
X526926Y880710D02*
X532006Y885790D01*
X537086Y880710D01*
X532006Y875630D01*
X526926Y880710D01*
X511686Y55210D02*
X516766Y60290D01*
X521846Y55210D01*
X516766Y50130D01*
X511686Y55210D01*
X520576Y710530D02*
X525656Y715610D01*
X530736Y710530D01*
X525656Y705450D01*
X520576Y710530D01*
X304676Y733390D02*
X309756Y738470D01*
X314836Y733390D01*
X309756Y728310D01*
X304676Y733390D01*
X253876Y881980D02*
X258956Y887060D01*
X264036Y881980D01*
X258956Y876900D01*
X253876Y881980D01*
X304676Y207610D02*
X309756Y212690D01*
X314836Y207610D01*
X309756Y202530D01*
X304676Y207610D01*
X690756Y774040D02*
X695836Y779120D01*
X700916Y774040D01*
X695836Y768960D01*
X690756Y774040D01*
X747906Y742280D02*
X752986Y747360D01*
X758066Y742280D01*
X752986Y737200D01*
X747906Y742280D01*
X152276Y774030D02*
X157356Y779110D01*
X162436Y774030D01*
X157356Y768950D01*
X152276Y774030D01*
X120526Y812130D02*
X125606Y817210D01*
X130686Y812130D01*
X125606Y807050D01*
X120526Y812130D01*
X393576Y861660D02*
X398656Y866740D01*
X403736Y861660D01*
X398656Y856580D01*
X393576Y861660D01*
X123066Y901030D02*
X128146Y906110D01*
X133226Y901030D01*
X128146Y895950D01*
X123066Y901030D01*
X149736Y353660D02*
X154816Y358740D01*
X159896Y353660D01*
X154816Y348580D01*
X149736Y353660D01*
X30356Y408270D02*
X35436Y413350D01*
X40516Y408270D01*
X35436Y403190D01*
X30356Y408270D01*
X894920Y22860D02*
X900000Y27940D01*
X905080Y22860D01*
X900000Y17780D01*
X894920Y22860D01*
X878755Y16164D02*
X883836Y21244D01*
X888915Y16164D01*
X883836Y11085D01*
X878755Y16164D01*
X872060Y0D02*
X877140Y5080D01*
X882220Y0D01*
X877140Y-5080D01*
X872060Y0D01*
X878755Y-16164D02*
X883836Y-11085D01*
X888915Y-16164D01*
X883836Y-21244D01*
X878755Y-16164D01*
X894920Y-22860D02*
X900000Y-17780D01*
X905080Y-22860D01*
X900000Y-27940D01*
X894920Y-22860D01*
X911085Y-16164D02*
X916164Y-11085D01*
X921245Y-16164D01*
X916164Y-21244D01*
X911085Y-16164D01*
X917780Y0D02*
X922860Y5080D01*
X927940Y0D01*
X922860Y-5080D01*
X917780Y0D01*
X911085Y16164D02*
X916164Y21244D01*
X921245Y16164D01*
X916164Y11085D01*
X911085Y16164D01*
X894920Y872860D02*
X900000Y877940D01*
X905080Y872860D01*
X900000Y867780D01*
X894920Y872860D01*
X878755Y866164D02*
X883836Y871245D01*
X888915Y866164D01*
X883836Y861085D01*
X878755Y866164D01*
X872060Y850000D02*
X877140Y855080D01*
X882220Y850000D01*
X877140Y844920D01*
X872060Y850000D01*
X878755Y833836D02*
X883836Y838915D01*
X888915Y833836D01*
X883836Y828755D01*
X878755Y833836D01*
X894920Y827140D02*
X900000Y832220D01*
X905080Y827140D01*
X900000Y822060D01*
X894920Y827140D01*
X911085Y833836D02*
X916164Y838915D01*
X921245Y833836D01*
X916164Y828755D01*
X911085Y833836D01*
X917780Y850000D02*
X922860Y855080D01*
X927940Y850000D01*
X922860Y844920D01*
X917780Y850000D01*
X911085Y866164D02*
X916164Y871245D01*
X921245Y866164D01*
X916164Y861085D01*
X911085Y866164D01*
D94*
X734826Y634920D02*
G03*
X734826Y634920I-5080J0D01*
G01*
X747906Y662270D02*
G03*
X747906Y662270I-5080J0D01*
G01*
D95*
X745874D02*
G03*
X745874Y662270I-3048J0D01*
G01*
M02*
