G04*
G04 #@! TF.GenerationSoftware,Altium Limited,Altium Designer,24.1.2 (44)*
G04*
G04 Layer_Color=16711935*
%FSLAX44Y44*%
%MOMM*%
G71*
G04*
G04 #@! TF.SameCoordinates,51AA683D-CA4B-47C4-9456-8286C0F4AF48*
G04*
G04*
G04 #@! TF.FilePolarity,Positive*
G04*
G01*
G75*
%ADD10C,0.2540*%
%ADD12C,0.2000*%
%ADD15C,0.1000*%
%ADD16C,0.4000*%
%ADD17C,0.1750*%
%ADD18C,0.1270*%
%ADD92C,0.1500*%
D10*
X964756Y878530D02*
G03*
X914756Y928530I-50000J0D01*
G01*
Y-71470D02*
G03*
X964756Y-21470I0J50000D01*
G01*
X14756Y928530D02*
G03*
X-35244Y878530I0J-50000D01*
G01*
Y-21470D02*
G03*
X14756Y-71470I50000J0D01*
G01*
X914756D01*
X14756Y928530D02*
X914756D01*
X964756Y-21470D02*
Y878530D01*
X-35244Y-21470D02*
Y878530D01*
X106033Y1059441D02*
X123816D01*
X106033Y1047586D01*
X123816D01*
X106033Y1041658D02*
X117888D01*
X123816Y1035730D01*
X117888Y1029803D01*
X106033D01*
X114924D01*
Y1041658D01*
X106033Y1023875D02*
X123816D01*
X117888Y1017947D01*
X123816Y1012020D01*
X106033D01*
X123816Y994237D02*
Y1006092D01*
X106033D01*
Y994237D01*
X114924Y1006092D02*
Y1000164D01*
X-284590Y974536D02*
X-296453D01*
X-302384Y968605D01*
X-296453Y962673D01*
X-284590D01*
X-302384Y956742D02*
X-290521D01*
X-284590Y950810D01*
X-290521Y944879D01*
X-302384D01*
X-293487D01*
Y956742D01*
X-284590Y938948D02*
X-302384D01*
Y927085D01*
X-284590Y921154D02*
X-299418D01*
X-302384Y918188D01*
Y912257D01*
X-299418Y909291D01*
X-284590D01*
Y891497D02*
Y903360D01*
X-302384D01*
Y891497D01*
X-293487Y903360D02*
Y897428D01*
X106033Y444151D02*
X123816D01*
X106033Y432296D01*
X123816D01*
X106033Y426368D02*
X117888D01*
X123816Y420440D01*
X117888Y414513D01*
X106033D01*
X114924D01*
Y426368D01*
X106033Y408585D02*
X123816D01*
X117888Y402657D01*
X123816Y396730D01*
X106033D01*
X123816Y378946D02*
Y390802D01*
X106033D01*
Y378946D01*
X114924Y390802D02*
Y384874D01*
X-284590Y359246D02*
X-296453D01*
X-302384Y353315D01*
X-296453Y347383D01*
X-284590D01*
X-302384Y341452D02*
X-290521D01*
X-284590Y335521D01*
X-290521Y329589D01*
X-302384D01*
X-293487D01*
Y341452D01*
X-284590Y323658D02*
X-302384D01*
Y311795D01*
X-284590Y305864D02*
X-299418D01*
X-302384Y302898D01*
Y296967D01*
X-299418Y294001D01*
X-284590D01*
Y276207D02*
Y288069D01*
X-302384D01*
Y276207D01*
X-293487Y288069D02*
Y282138D01*
D12*
X99116Y505060D02*
G03*
X99116Y505060I-2000J0D01*
G01*
X98116Y431540D02*
G03*
X98116Y431540I-1000J0D01*
G01*
X720246Y611170D02*
Y688670D01*
Y611170D02*
X939246D01*
Y688670D01*
X720246D02*
X939246D01*
X150056Y485320D02*
X235056D01*
X150056Y369320D02*
Y485320D01*
Y369320D02*
X235056D01*
Y485320D01*
X558796Y-14520D02*
Y51280D01*
X497796D02*
X558796D01*
X497796Y-14520D02*
Y51280D01*
Y-14520D02*
X558796D01*
X307876Y-11980D02*
Y53820D01*
X246876D02*
X307876D01*
X246876Y-11980D02*
Y53820D01*
Y-11980D02*
X307876D01*
X333966Y61640D02*
X343966D01*
Y81640D01*
X333966D02*
X343966D01*
X333966Y61640D02*
Y81640D01*
X317456Y61800D02*
X327456D01*
Y81800D01*
X317456D02*
X327456D01*
X317456Y61800D02*
Y81800D01*
X584797Y59180D02*
X594797D01*
Y79180D01*
X584797D02*
X594797D01*
X584797Y59180D02*
Y79180D01*
X567017Y59180D02*
X577017D01*
Y79180D01*
X567017D02*
X577017D01*
X567017Y59180D02*
Y79180D01*
D15*
X589916Y653890D02*
G03*
X589916Y653890I-5000J0D01*
G01*
X320676Y827880D02*
G03*
X320676Y827880I-5000J0D01*
G01*
X588646Y825340D02*
G03*
X588646Y825340I-5000J0D01*
G01*
X320676Y656430D02*
G03*
X320676Y656430I-5000J0D01*
G01*
X604000Y379700D02*
X616700Y367000D01*
X604000D02*
X653000D01*
Y406000D01*
X604000D02*
X653000D01*
X604000Y367000D02*
Y406000D01*
X593916Y644890D02*
Y694890D01*
X553916Y644890D02*
Y694890D01*
Y644890D02*
X593916D01*
X553916Y694890D02*
X593916D01*
X192166Y262390D02*
X215166Y239390D01*
X192166D02*
X257166D01*
Y274390D01*
X192166D02*
X257166D01*
X192166Y239390D02*
Y274390D01*
X333466Y468480D02*
X356466Y491480D01*
Y468480D02*
Y533480D01*
X321466D02*
X356466D01*
X321466Y468480D02*
Y533480D01*
Y468480D02*
X356466D01*
X336006Y331320D02*
X359006Y354320D01*
Y331320D02*
Y396320D01*
X324006D02*
X359006D01*
X324006Y331320D02*
Y396320D01*
Y331320D02*
X359006D01*
X834376Y842680D02*
Y862680D01*
X821876Y842680D02*
X834376D01*
X821876D02*
Y862680D01*
X834376D01*
X830206D02*
X834376Y858510D01*
X806436Y842680D02*
Y862680D01*
X793936Y842680D02*
X806436D01*
X793936D02*
Y862680D01*
X806436D01*
X802266D02*
X806436Y858510D01*
X778496Y842680D02*
Y862680D01*
X765996Y842680D02*
X778496D01*
X765996D02*
Y862680D01*
X778496D01*
X774326D02*
X778496Y858510D01*
X750556Y842680D02*
Y862680D01*
X738056Y842680D02*
X750556D01*
X738056D02*
Y862680D01*
X750556D01*
X746386D02*
X750556Y858510D01*
X722616Y842680D02*
Y862680D01*
X710116Y842680D02*
X722616D01*
X710116D02*
Y862680D01*
X722616D01*
X718446D02*
X722616Y858510D01*
X727136Y-20090D02*
X766136D01*
X727136D02*
Y28910D01*
X766136D01*
Y-20090D02*
Y28910D01*
X753436Y-20090D02*
X766136Y-7390D01*
X464167Y28700D02*
Y48700D01*
X476667D01*
Y28700D02*
Y48700D01*
X464167Y28700D02*
X476667D01*
X464167Y32870D02*
X468337Y28700D01*
X212386Y32510D02*
Y52510D01*
X224886D01*
Y32510D02*
Y52510D01*
X212386Y32510D02*
X224886D01*
X212386Y36680D02*
X216556Y32510D01*
X126376Y359910D02*
X146376D01*
Y347410D02*
Y359910D01*
X126376Y347410D02*
X146376D01*
X126376D02*
Y359910D01*
Y355740D02*
X130546Y359910D01*
X284676Y868880D02*
X324676D01*
X284676Y818880D02*
X324676D01*
X284676D02*
Y868880D01*
X324676Y818880D02*
Y868880D01*
X420056Y717640D02*
X428056D01*
X420056Y701640D02*
Y717640D01*
Y701640D02*
X428056D01*
Y717640D01*
X533896Y655260D02*
Y687060D01*
X484396D02*
X533896D01*
X484396Y655260D02*
Y687060D01*
Y655260D02*
X533896D01*
X418786Y889090D02*
X426786D01*
X418786Y873090D02*
Y889090D01*
Y873090D02*
X426786D01*
Y889090D01*
X532626Y826710D02*
Y858510D01*
X483126D02*
X532626D01*
X483126Y826710D02*
Y858510D01*
Y826710D02*
X532626D01*
X552646Y866340D02*
X592646D01*
X552646Y816340D02*
X592646D01*
X552646D02*
Y866340D01*
X592646Y816340D02*
Y866340D01*
X150816Y891630D02*
X158816D01*
X150816Y875630D02*
Y891630D01*
Y875630D02*
X158816D01*
Y891630D01*
X150816Y720180D02*
X158816D01*
X150816Y704180D02*
Y720180D01*
Y704180D02*
X158816D01*
Y720180D01*
X420056Y641950D02*
X428056D01*
X420056Y625950D02*
Y641950D01*
Y625950D02*
X428056D01*
Y641950D01*
X150816Y644490D02*
X158816D01*
X150816Y628490D02*
Y644490D01*
Y628490D02*
X158816D01*
Y644490D01*
X264656Y657800D02*
Y689600D01*
X215156D02*
X264656D01*
X215156Y657800D02*
Y689600D01*
Y657800D02*
X264656D01*
X284676Y697430D02*
X324676D01*
X284676Y647430D02*
X324676D01*
X284676D02*
Y697430D01*
X324676Y647430D02*
Y697430D01*
X418786Y813400D02*
X426786D01*
X418786Y797400D02*
Y813400D01*
Y797400D02*
X426786D01*
Y813400D01*
X150816Y815940D02*
X158816D01*
X150816Y799940D02*
Y815940D01*
Y799940D02*
X158816D01*
Y815940D01*
X264656Y829250D02*
Y861050D01*
X215156D02*
X264656D01*
X215156Y829250D02*
Y861050D01*
Y829250D02*
X264656D01*
D16*
X81500Y895790D02*
G03*
X81500Y895790I-2000J0D01*
G01*
Y280500D02*
G03*
X81500Y280500I-2000J0D01*
G01*
D17*
X633410Y86430D02*
X676590D01*
Y63570D02*
Y86430D01*
X633410Y63570D02*
X676590D01*
X633410D02*
Y86430D01*
X607980Y176430D02*
X651160D01*
Y153570D02*
Y176430D01*
X607980Y153570D02*
X651160D01*
X607980D02*
Y176430D01*
X453876Y225900D02*
Y261460D01*
X431016Y225900D02*
X453876D01*
X431016D02*
Y261460D01*
X453876D01*
X476736Y225900D02*
Y261460D01*
X453876Y225900D02*
X476736D01*
X453876D02*
Y261460D01*
X476736D01*
X643766Y819750D02*
Y862930D01*
X620906D02*
X643766D01*
X620906Y819750D02*
Y862930D01*
Y819750D02*
X643766D01*
X817966Y834290D02*
Y869850D01*
X840826D01*
Y834290D02*
Y869850D01*
X817966Y834290D02*
X840826D01*
X790026D02*
Y869850D01*
X812886D01*
Y834290D02*
Y869850D01*
X790026Y834290D02*
X812886D01*
X762086D02*
Y869850D01*
X784946D01*
Y834290D02*
Y869850D01*
X762086Y834290D02*
X784946D01*
X734146D02*
Y869850D01*
X757006D01*
Y834290D02*
Y869850D01*
X734146Y834290D02*
X757006D01*
X706206D02*
Y869850D01*
X729066D01*
Y834290D02*
Y869850D01*
X706206Y834290D02*
X729066D01*
X635326Y108950D02*
X670886D01*
Y86090D02*
Y108950D01*
X635326Y86090D02*
X670886D01*
X635326D02*
Y108950D01*
X597276Y131810D02*
X632836D01*
X597276D02*
Y154670D01*
X632836D01*
Y131810D02*
Y154670D01*
X597886Y86090D02*
X633446D01*
X597886D02*
Y108950D01*
X633446D01*
Y86090D02*
Y108950D01*
X634716Y154670D02*
X670276D01*
Y131810D02*
Y154670D01*
X634716Y131810D02*
X670276D01*
X634716D02*
Y154670D01*
X546636Y233010D02*
Y255870D01*
X582196D01*
Y233010D02*
Y255870D01*
X546636Y233010D02*
X582196D01*
X190376Y342230D02*
Y365090D01*
X154816D02*
X190376D01*
X154816Y342230D02*
Y365090D01*
Y342230D02*
X190376D01*
X768226Y33620D02*
Y56480D01*
X725046Y33620D02*
X768226D01*
X725046D02*
Y56480D01*
X768226D01*
X576820Y366160D02*
X599680D01*
X576820D02*
Y409340D01*
X599680D01*
Y366160D02*
Y409340D01*
X768226Y55210D02*
Y78070D01*
X725046Y55210D02*
X768226D01*
X725046D02*
Y78070D01*
X768226D01*
X552986Y525110D02*
Y547970D01*
X588546D01*
Y525110D02*
Y547970D01*
X552986Y525110D02*
X588546D01*
X610746Y489550D02*
Y512410D01*
X567566Y489550D02*
X610746D01*
X567566D02*
Y512410D01*
X610746D01*
X587886D02*
X610746D01*
X587886D02*
Y547970D01*
X610746D01*
Y512410D02*
Y547970D01*
X590956Y475120D02*
X593956Y478120D01*
X590956Y481120D02*
X593956Y478120D01*
X587206D02*
X593956D01*
X573206Y469620D02*
Y486620D01*
X608206D01*
Y469620D02*
Y486620D01*
X573206Y469620D02*
X608206D01*
X563096Y445100D02*
Y467960D01*
X598656D01*
Y445100D02*
Y467960D01*
X563096Y445100D02*
X598656D01*
X563146Y422240D02*
Y445100D01*
X598706D01*
Y422240D02*
Y445100D01*
X563146Y422240D02*
X598706D01*
X581536Y233670D02*
X604396D01*
X581536D02*
Y269230D01*
X604396D01*
Y233670D02*
Y269230D01*
X603126Y267300D02*
Y290160D01*
X559946Y267300D02*
X603126D01*
X559946D02*
Y290160D01*
X603126D01*
X585876Y296050D02*
X588876Y299050D01*
X585876Y302050D02*
X588876Y299050D01*
X582126D02*
X588876D01*
X568126Y290550D02*
Y307550D01*
X603126D01*
Y290550D02*
Y307550D01*
X568126Y290550D02*
X603126D01*
X588546Y333340D02*
Y356200D01*
X552986Y333340D02*
X588546D01*
X552986D02*
Y356200D01*
X588546D01*
X552986Y309210D02*
Y332070D01*
X588546D01*
Y309210D02*
Y332070D01*
X552986Y309210D02*
X588546D01*
X631707Y13300D02*
X654567D01*
X631707D02*
Y48860D01*
X654567D01*
Y13300D02*
Y48860D01*
X607577Y13300D02*
X630437D01*
X607577D02*
Y48860D01*
X630437D01*
Y13300D02*
Y48860D01*
X458987Y-15910D02*
X481847D01*
X458987D02*
Y19650D01*
X481847D01*
Y-15910D02*
Y19650D01*
X379606Y50790D02*
X402466D01*
Y15230D02*
Y50790D01*
X379606Y15230D02*
X402466D01*
X379606D02*
Y50790D01*
X207761Y-16570D02*
X230621D01*
X207761D02*
Y18990D01*
X230621D01*
Y-16570D02*
Y18990D01*
X355476Y15230D02*
X378336D01*
X355476D02*
Y50790D01*
X378336D01*
Y15230D02*
Y50790D01*
X182756Y539080D02*
X205616D01*
Y495900D02*
Y539080D01*
X182756Y495900D02*
X205616D01*
X182756D02*
Y539080D01*
X36706Y535270D02*
X59566D01*
Y492090D02*
Y535270D01*
X36706Y492090D02*
X59566D01*
X36706D02*
Y535270D01*
X63376D02*
X86236D01*
Y492090D02*
Y535270D01*
X63376Y492090D02*
X86236D01*
X63376D02*
Y535270D01*
X117986Y424780D02*
X140846D01*
Y381600D02*
Y424780D01*
X117986Y381600D02*
X140846D01*
X117986D02*
Y424780D01*
Y427320D02*
X140846D01*
X117986D02*
Y470500D01*
X140846D01*
Y427320D02*
Y470500D01*
X181486Y189830D02*
Y212690D01*
X224666D01*
Y189830D02*
Y212690D01*
X181486Y189830D02*
X224666D01*
X269116D02*
Y212690D01*
X225936Y189830D02*
X269116D01*
X225936D02*
Y212690D01*
X269116D01*
X622176Y648300D02*
X645036D01*
X622176D02*
Y691480D01*
X645036D01*
Y648300D02*
Y691480D01*
X580266Y699100D02*
Y721960D01*
X537086Y699100D02*
X580266D01*
X537086D02*
Y721960D01*
X580266D01*
X436756Y691480D02*
X459616D01*
X436756D02*
Y734660D01*
X459616D01*
Y691480D02*
Y734660D01*
Y708600D02*
X482476D01*
Y673040D02*
Y708600D01*
X459616Y673040D02*
X482476D01*
X459616D02*
Y708600D01*
Y661000D02*
Y683860D01*
X416436Y661000D02*
X459616D01*
X416436D02*
Y683860D01*
X459616D01*
Y671160D02*
X482476D01*
Y635600D02*
Y671160D01*
X459616Y635600D02*
X482476D01*
X459616D02*
Y671160D01*
X435486Y608930D02*
X458346D01*
X435486D02*
Y652110D01*
X458346D01*
Y608930D02*
Y652110D01*
X352936Y650840D02*
X375796D01*
X352936D02*
Y694020D01*
X375796D01*
Y650840D02*
Y694020D01*
X311026Y701640D02*
Y724500D01*
X267846Y701640D02*
X311026D01*
X267846D02*
Y724500D01*
X311026D01*
X435486Y862930D02*
X458346D01*
X435486D02*
Y906110D01*
X458346D01*
Y862930D02*
Y906110D01*
Y880050D02*
X481206D01*
Y844490D02*
Y880050D01*
X458346Y844490D02*
X481206D01*
X458346D02*
Y880050D01*
Y832450D02*
Y855310D01*
X415166Y832450D02*
X458346D01*
X415166D02*
Y855310D01*
X458346D01*
Y842610D02*
X481206D01*
Y807050D02*
Y842610D01*
X458346Y807050D02*
X481206D01*
X458346D02*
Y842610D01*
X434216Y780380D02*
X457076D01*
X434216D02*
Y823560D01*
X457076D01*
Y780380D02*
Y823560D01*
X578996Y870550D02*
Y893410D01*
X535816Y870550D02*
X578996D01*
X535816D02*
Y893410D01*
X578996D01*
X167516Y694020D02*
X190376D01*
X167516D02*
Y737200D01*
X190376D01*
Y694020D02*
Y737200D01*
Y711140D02*
X213236D01*
Y675580D02*
Y711140D01*
X190376Y675580D02*
X213236D01*
X190376D02*
Y711140D01*
Y663540D02*
Y686400D01*
X147196Y663540D02*
X190376D01*
X147196D02*
Y686400D01*
X190376D01*
Y673700D02*
X213236D01*
Y638140D02*
Y673700D01*
X190376Y638140D02*
X213236D01*
X190376D02*
Y673700D01*
X166246Y611470D02*
X189106D01*
X166246D02*
Y654650D01*
X189106D01*
Y611470D02*
Y654650D01*
X166246Y782920D02*
X189106D01*
X166246D02*
Y826100D01*
X189106D01*
Y782920D02*
Y826100D01*
X167516Y865470D02*
X190376D01*
X167516D02*
Y908650D01*
X190376D01*
Y865470D02*
Y908650D01*
Y834990D02*
Y857850D01*
X147196Y834990D02*
X190376D01*
X147196D02*
Y857850D01*
X190376D01*
Y845150D02*
X213236D01*
Y809590D02*
Y845150D01*
X190376Y809590D02*
X213236D01*
X190376D02*
Y845150D01*
Y882590D02*
X213236D01*
Y847030D02*
Y882590D01*
X190376Y847030D02*
X213236D01*
X190376D02*
Y882590D01*
X311026Y873090D02*
Y895950D01*
X267846Y873090D02*
X311026D01*
X267846D02*
Y895950D01*
X311026D01*
X352936Y822290D02*
X375796D01*
X352936D02*
Y865470D01*
X375796D01*
Y822290D02*
Y865470D01*
X385956Y408270D02*
X408816D01*
Y365090D02*
Y408270D01*
X385956Y365090D02*
X408816D01*
X385956D02*
Y408270D01*
Y318100D02*
X408816D01*
X385956D02*
Y361280D01*
X408816D01*
Y318100D02*
Y361280D01*
X382146Y302860D02*
Y325720D01*
X346586Y302860D02*
X382146D01*
X346586D02*
Y325720D01*
X382146D01*
X322706Y312560D02*
X325706Y315560D01*
X322706Y318560D02*
X325706Y315560D01*
X318956D02*
X325706D01*
X304956Y307060D02*
Y324060D01*
X339956D01*
Y307060D02*
Y324060D01*
X304956Y307060D02*
X339956D01*
X320166Y449720D02*
X323166Y452720D01*
X320166Y455720D02*
X323166Y452720D01*
X316416D02*
X323166D01*
X302416Y444220D02*
Y461220D01*
X337416D01*
Y444220D02*
Y461220D01*
X302416Y444220D02*
X337416D01*
X379606Y440020D02*
Y462880D01*
X344046Y440020D02*
X379606D01*
X344046D02*
Y462880D01*
X379606D01*
X383416Y455260D02*
X406276D01*
X383416D02*
Y498440D01*
X406276D01*
Y455260D02*
Y498440D01*
X383416Y545430D02*
X406276D01*
Y502250D02*
Y545430D01*
X383416Y502250D02*
X406276D01*
X383416D02*
Y545430D01*
X584799Y62515D02*
Y59183D01*
Y60849D01*
X593129D01*
X594795Y59183D01*
Y57517D01*
X593129Y55851D01*
X594795Y65848D02*
X584799D01*
Y70846D01*
X586465Y72512D01*
X589797D01*
X591463Y70846D01*
Y65848D01*
X594795Y80843D02*
X584799D01*
X589797Y75844D01*
Y82509D01*
X333968Y64976D02*
Y61643D01*
Y63309D01*
X342298D01*
X343964Y61643D01*
Y59977D01*
X342298Y58311D01*
X343964Y68308D02*
X333968D01*
Y73306D01*
X335634Y74972D01*
X338966D01*
X340632Y73306D01*
Y68308D01*
X343964Y84969D02*
Y78305D01*
X337300Y84969D01*
X335634D01*
X333968Y83303D01*
Y79971D01*
X335634Y78305D01*
X45514Y336439D02*
X35518D01*
Y341438D01*
X37184Y343104D01*
X43848D01*
X45514Y341438D01*
Y336439D01*
X37184Y346436D02*
X35518Y348102D01*
Y351435D01*
X37184Y353101D01*
X43848D01*
X45514Y351435D01*
Y348102D01*
X43848Y346436D01*
X42182D01*
X40516Y348102D01*
Y353101D01*
X567019Y62515D02*
Y59183D01*
Y60849D01*
X575349D01*
X577015Y59183D01*
Y57517D01*
X575349Y55851D01*
X577015Y65848D02*
X567019D01*
Y70846D01*
X568685Y72512D01*
X572017D01*
X573683Y70846D01*
Y65848D01*
X568685Y75844D02*
X567019Y77511D01*
Y80843D01*
X568685Y82509D01*
X570351D01*
X572017Y80843D01*
Y79177D01*
Y80843D01*
X573683Y82509D01*
X575349D01*
X577015Y80843D01*
Y77511D01*
X575349Y75844D01*
X317458Y66802D02*
Y63469D01*
Y65135D01*
X325788D01*
X327454Y63469D01*
Y61803D01*
X325788Y60137D01*
X327454Y70134D02*
X317458D01*
Y75132D01*
X319124Y76798D01*
X322456D01*
X324122Y75132D01*
Y70134D01*
X327454Y80131D02*
Y83463D01*
Y81797D01*
X317458D01*
X319124Y80131D01*
D18*
X-85500Y1059290D02*
X100500D01*
Y451290D02*
Y1059290D01*
X-85500Y451290D02*
X100500D01*
X-85500D02*
Y538290D01*
Y972290D01*
Y1059290D01*
X-278500Y972290D02*
X-85500D01*
X-278500Y538290D02*
Y972290D01*
Y538290D02*
X-85500D01*
Y444000D02*
X100500D01*
Y-164000D02*
Y444000D01*
X-85500Y-164000D02*
X100500D01*
X-85500D02*
Y-77000D01*
Y357000D01*
Y444000D01*
X-278500Y357000D02*
X-85500D01*
X-278500Y-77000D02*
Y357000D01*
Y-77000D02*
X-85500D01*
X172116Y488560D02*
Y523560D01*
X112116Y488560D02*
Y523560D01*
X172116D01*
X112116Y488560D02*
X172116D01*
X87116Y421540D02*
Y481540D01*
X27116D02*
X87116D01*
X27116Y421540D02*
Y481540D01*
Y421540D02*
X87116D01*
D92*
X648335Y71668D02*
X646669Y70002D01*
X643337D01*
X641671Y71668D01*
Y78332D01*
X643337Y79998D01*
X646669D01*
X648335Y78332D01*
X651668Y71668D02*
X653334Y70002D01*
X656666D01*
X658332Y71668D01*
Y73334D01*
X656666Y75000D01*
X655000D01*
X656666D01*
X658332Y76666D01*
Y78332D01*
X656666Y79998D01*
X653334D01*
X651668Y78332D01*
X661665Y71668D02*
X663331Y70002D01*
X666663D01*
X668329Y71668D01*
Y73334D01*
X666663Y75000D01*
X668329Y76666D01*
Y78332D01*
X666663Y79998D01*
X663331D01*
X661665Y78332D01*
Y76666D01*
X663331Y75000D01*
X661665Y73334D01*
Y71668D01*
X663331Y75000D02*
X666663D01*
X622905Y161668D02*
X621239Y160002D01*
X617907D01*
X616241Y161668D01*
Y168332D01*
X617907Y169998D01*
X621239D01*
X622905Y168332D01*
X626238Y161668D02*
X627904Y160002D01*
X631236D01*
X632902Y161668D01*
Y163334D01*
X631236Y165000D01*
X629570D01*
X631236D01*
X632902Y166666D01*
Y168332D01*
X631236Y169998D01*
X627904D01*
X626238Y168332D01*
X636235Y160002D02*
X642899D01*
Y161668D01*
X636235Y168332D01*
Y169998D01*
X447444Y252011D02*
X437448D01*
Y247012D01*
X439114Y245346D01*
X442446D01*
X444112Y247012D01*
Y252011D01*
Y248678D02*
X447444Y245346D01*
Y235349D02*
Y242014D01*
X440780Y235349D01*
X439114D01*
X437448Y237015D01*
Y240348D01*
X439114Y242014D01*
X470304Y250345D02*
X460308D01*
Y245346D01*
X461974Y243680D01*
X465306D01*
X466972Y245346D01*
Y250345D01*
Y247012D02*
X470304Y243680D01*
Y240348D02*
Y237015D01*
Y238682D01*
X460308D01*
X461974Y240348D01*
X629004Y835508D02*
X627338Y833842D01*
Y830510D01*
X629004Y828844D01*
X635668D01*
X637334Y830510D01*
Y833842D01*
X635668Y835508D01*
X637334Y838841D02*
Y842173D01*
Y840507D01*
X627338D01*
X629004Y838841D01*
X627338Y847171D02*
Y853836D01*
X629004D01*
X635668Y847171D01*
X637334D01*
X824398Y838741D02*
X834394D01*
Y843739D01*
X832728Y845405D01*
X829396D01*
X827730Y843739D01*
Y838741D01*
Y842073D02*
X824398Y845405D01*
X832728Y848738D02*
X834394Y850404D01*
Y853736D01*
X832728Y855402D01*
X831062D01*
X829396Y853736D01*
Y852070D01*
Y853736D01*
X827730Y855402D01*
X826064D01*
X824398Y853736D01*
Y850404D01*
X826064Y848738D01*
X834394Y865399D02*
X832728Y862067D01*
X829396Y858735D01*
X826064D01*
X824398Y860401D01*
Y863733D01*
X826064Y865399D01*
X827730D01*
X829396Y863733D01*
Y858735D01*
X796458Y838741D02*
X806454D01*
Y843739D01*
X804788Y845405D01*
X801456D01*
X799790Y843739D01*
Y838741D01*
Y842073D02*
X796458Y845405D01*
X804788Y848738D02*
X806454Y850404D01*
Y853736D01*
X804788Y855402D01*
X803122D01*
X801456Y853736D01*
Y852070D01*
Y853736D01*
X799790Y855402D01*
X798124D01*
X796458Y853736D01*
Y850404D01*
X798124Y848738D01*
X806454Y865399D02*
Y858735D01*
X801456D01*
X803122Y862067D01*
Y863733D01*
X801456Y865399D01*
X798124D01*
X796458Y863733D01*
Y860401D01*
X798124Y858735D01*
X768518Y843739D02*
X778514D01*
Y848738D01*
X776848Y850404D01*
X773516D01*
X771850Y848738D01*
Y843739D01*
Y847072D02*
X768518Y850404D01*
X778514Y860401D02*
Y853736D01*
X773516D01*
X775182Y857068D01*
Y858735D01*
X773516Y860401D01*
X770184D01*
X768518Y858735D01*
Y855402D01*
X770184Y853736D01*
X740578Y843739D02*
X750574D01*
Y848738D01*
X748908Y850404D01*
X745576D01*
X743910Y848738D01*
Y843739D01*
Y847072D02*
X740578Y850404D01*
Y858735D02*
X750574D01*
X745576Y853736D01*
Y860401D01*
X712638Y843739D02*
X722634D01*
Y848738D01*
X720968Y850404D01*
X717636D01*
X715970Y848738D01*
Y843739D01*
Y847072D02*
X712638Y850404D01*
X720968Y853736D02*
X722634Y855402D01*
Y858735D01*
X720968Y860401D01*
X719302D01*
X717636Y858735D01*
Y857068D01*
Y858735D01*
X715970Y860401D01*
X714304D01*
X712638Y858735D01*
Y855402D01*
X714304Y853736D01*
X639777Y102518D02*
Y92522D01*
X644775D01*
X646441Y94188D01*
Y97520D01*
X644775Y99186D01*
X639777D01*
X643109D02*
X646441Y102518D01*
X656438D02*
X649774D01*
X656438Y95854D01*
Y94188D01*
X654772Y92522D01*
X651440D01*
X649774Y94188D01*
X659771D02*
X661437Y92522D01*
X664769D01*
X666435Y94188D01*
Y95854D01*
X664769Y97520D01*
X666435Y99186D01*
Y100852D01*
X664769Y102518D01*
X661437D01*
X659771Y100852D01*
Y99186D01*
X661437Y97520D01*
X659771Y95854D01*
Y94188D01*
X661437Y97520D02*
X664769D01*
X628385Y138242D02*
Y148238D01*
X623387D01*
X621721Y146572D01*
Y143240D01*
X623387Y141574D01*
X628385D01*
X625053D02*
X621721Y138242D01*
X611724D02*
X618388D01*
X611724Y144906D01*
Y146572D01*
X613390Y148238D01*
X616722D01*
X618388Y146572D01*
X601727Y148238D02*
X608391D01*
Y143240D01*
X605059Y144906D01*
X603393D01*
X601727Y143240D01*
Y139908D01*
X603393Y138242D01*
X606725D01*
X608391Y139908D01*
X628995Y92522D02*
Y102518D01*
X623997D01*
X622331Y100852D01*
Y97520D01*
X623997Y95854D01*
X628995D01*
X625663D02*
X622331Y92522D01*
X612334D02*
X618998D01*
X612334Y99186D01*
Y100852D01*
X614000Y102518D01*
X617332D01*
X618998Y100852D01*
X609002Y102518D02*
X602337D01*
Y100852D01*
X609002Y94188D01*
Y92522D01*
X639167Y148238D02*
Y138242D01*
X644165D01*
X645832Y139908D01*
Y143240D01*
X644165Y144906D01*
X639167D01*
X642499D02*
X645832Y148238D01*
X655828D02*
X649164D01*
X655828Y141574D01*
Y139908D01*
X654162Y138242D01*
X650830D01*
X649164Y139908D01*
X665825Y138242D02*
X662493Y139908D01*
X659161Y143240D01*
Y146572D01*
X660827Y148238D01*
X664159D01*
X665825Y146572D01*
Y144906D01*
X664159Y143240D01*
X659161D01*
X552753Y239442D02*
Y249438D01*
X557752D01*
X559418Y247772D01*
Y244440D01*
X557752Y242774D01*
X552753D01*
X556085D02*
X559418Y239442D01*
X569414D02*
X562750D01*
X569414Y246106D01*
Y247772D01*
X567748Y249438D01*
X564416D01*
X562750Y247772D01*
X572747Y239442D02*
X576079D01*
X574413D01*
Y249438D01*
X572747Y247772D01*
X185092Y348662D02*
Y358658D01*
X180094D01*
X178428Y356992D01*
Y353660D01*
X180094Y351994D01*
X185092D01*
X181760D02*
X178428Y348662D01*
X175095D02*
X171763D01*
X173429D01*
Y358658D01*
X175095Y356992D01*
X161766Y348662D02*
Y358658D01*
X166765Y353660D01*
X160100D01*
X753300Y41718D02*
X754967Y40052D01*
X758299D01*
X759965Y41718D01*
Y48382D01*
X758299Y50048D01*
X754967D01*
X753300Y48382D01*
X749968Y41718D02*
X748302Y40052D01*
X744970D01*
X743304Y41718D01*
Y43384D01*
X744970Y45050D01*
X746636D01*
X744970D01*
X743304Y46716D01*
Y48382D01*
X744970Y50048D01*
X748302D01*
X749968Y48382D01*
X733307Y40052D02*
X739971D01*
Y45050D01*
X736639Y43384D01*
X734973D01*
X733307Y45050D01*
Y48382D01*
X734973Y50048D01*
X738305D01*
X739971Y48382D01*
X584918Y381086D02*
X583252Y379419D01*
Y376087D01*
X584918Y374421D01*
X591582D01*
X593248Y376087D01*
Y379419D01*
X591582Y381086D01*
X584918Y384418D02*
X583252Y386084D01*
Y389416D01*
X584918Y391082D01*
X586584D01*
X588250Y389416D01*
Y387750D01*
Y389416D01*
X589916Y391082D01*
X591582D01*
X593248Y389416D01*
Y386084D01*
X591582Y384418D01*
X584918Y394415D02*
X583252Y396081D01*
Y399413D01*
X584918Y401079D01*
X586584D01*
X588250Y399413D01*
Y397747D01*
Y399413D01*
X589916Y401079D01*
X591582D01*
X593248Y399413D01*
Y396081D01*
X591582Y394415D01*
X753300Y63308D02*
X754967Y61642D01*
X758299D01*
X759965Y63308D01*
Y69972D01*
X758299Y71638D01*
X754967D01*
X753300Y69972D01*
X749968Y63308D02*
X748302Y61642D01*
X744970D01*
X743304Y63308D01*
Y64974D01*
X744970Y66640D01*
X746636D01*
X744970D01*
X743304Y68306D01*
Y69972D01*
X744970Y71638D01*
X748302D01*
X749968Y69972D01*
X733307Y61642D02*
X736639Y63308D01*
X739971Y66640D01*
Y69972D01*
X738305Y71638D01*
X734973D01*
X733307Y69972D01*
Y68306D01*
X734973Y66640D01*
X739971D01*
X557437Y531542D02*
Y541538D01*
X562435D01*
X564101Y539872D01*
Y536540D01*
X562435Y534874D01*
X557437D01*
X560769D02*
X564101Y531542D01*
X574098D02*
X567434D01*
X574098Y538206D01*
Y539872D01*
X572432Y541538D01*
X569100D01*
X567434Y539872D01*
X582429Y531542D02*
Y541538D01*
X577430Y536540D01*
X584095D01*
X595821Y497648D02*
X597487Y495982D01*
X600819D01*
X602485Y497648D01*
Y504312D01*
X600819Y505978D01*
X597487D01*
X595821Y504312D01*
X592488Y497648D02*
X590822Y495982D01*
X587490D01*
X585824Y497648D01*
Y499314D01*
X587490Y500980D01*
X589156D01*
X587490D01*
X585824Y502646D01*
Y504312D01*
X587490Y505978D01*
X590822D01*
X592488Y504312D01*
X577493Y505978D02*
Y495982D01*
X582491Y500980D01*
X575827D01*
X604314Y516861D02*
X594318D01*
Y521859D01*
X595984Y523526D01*
X599316D01*
X600982Y521859D01*
Y516861D01*
Y520193D02*
X604314Y523526D01*
Y533522D02*
Y526858D01*
X597650Y533522D01*
X595984D01*
X594318Y531856D01*
Y528524D01*
X595984Y526858D01*
Y536855D02*
X594318Y538521D01*
Y541853D01*
X595984Y543519D01*
X602648D01*
X604314Y541853D01*
Y538521D01*
X602648Y536855D01*
X595984D01*
X578085Y483118D02*
Y473122D01*
X583083D01*
X584750Y474788D01*
Y481452D01*
X583083Y483118D01*
X578085D01*
X588082Y473122D02*
X591414D01*
X589748D01*
Y483118D01*
X588082Y481452D01*
X596413D02*
X598079Y483118D01*
X601411D01*
X603077Y481452D01*
Y479786D01*
X601411Y478120D01*
X599745D01*
X601411D01*
X603077Y476454D01*
Y474788D01*
X601411Y473122D01*
X598079D01*
X596413Y474788D01*
X567547Y451532D02*
Y461528D01*
X572545D01*
X574212Y459862D01*
Y456530D01*
X572545Y454864D01*
X567547D01*
X570879D02*
X574212Y451532D01*
X584208D02*
X577544D01*
X584208Y458196D01*
Y459862D01*
X582542Y461528D01*
X579210D01*
X577544Y459862D01*
X587541D02*
X589207Y461528D01*
X592539D01*
X594205Y459862D01*
Y458196D01*
X592539Y456530D01*
X590873D01*
X592539D01*
X594205Y454864D01*
Y453198D01*
X592539Y451532D01*
X589207D01*
X587541Y453198D01*
X568430Y428672D02*
Y438668D01*
X573428D01*
X575094Y437002D01*
Y433670D01*
X573428Y432004D01*
X568430D01*
X571762D02*
X575094Y428672D01*
X578427D02*
X581759D01*
X580093D01*
Y438668D01*
X578427Y437002D01*
X586757D02*
X588424Y438668D01*
X591756D01*
X593422Y437002D01*
Y435336D01*
X591756Y433670D01*
X593422Y432004D01*
Y430338D01*
X591756Y428672D01*
X588424D01*
X586757Y430338D01*
Y432004D01*
X588424Y433670D01*
X586757Y435336D01*
Y437002D01*
X588424Y433670D02*
X591756D01*
X597964Y238954D02*
X587968D01*
Y243952D01*
X589634Y245618D01*
X592966D01*
X594632Y243952D01*
Y238954D01*
Y242286D02*
X597964Y245618D01*
Y248951D02*
Y252283D01*
Y250617D01*
X587968D01*
X589634Y248951D01*
X596298Y257281D02*
X597964Y258948D01*
Y262280D01*
X596298Y263946D01*
X589634D01*
X587968Y262280D01*
Y258948D01*
X589634Y257281D01*
X591300D01*
X592966Y258948D01*
Y263946D01*
X588200Y275398D02*
X589867Y273732D01*
X593199D01*
X594865Y275398D01*
Y282062D01*
X593199Y283728D01*
X589867D01*
X588200Y282062D01*
X584868Y275398D02*
X583202Y273732D01*
X579870D01*
X578204Y275398D01*
Y277064D01*
X579870Y278730D01*
X581536D01*
X579870D01*
X578204Y280396D01*
Y282062D01*
X579870Y283728D01*
X583202D01*
X584868Y282062D01*
X568207Y283728D02*
X574871D01*
X568207Y277064D01*
Y275398D01*
X569873Y273732D01*
X573205D01*
X574871Y275398D01*
X573005Y304048D02*
Y294052D01*
X578003D01*
X579670Y295718D01*
Y302382D01*
X578003Y304048D01*
X573005D01*
X583002Y294052D02*
X586334D01*
X584668D01*
Y304048D01*
X583002Y302382D01*
X597997Y294052D02*
X591333D01*
X597997Y300716D01*
Y302382D01*
X596331Y304048D01*
X592999D01*
X591333Y302382D01*
X583262Y349768D02*
Y339772D01*
X578264D01*
X576597Y341438D01*
Y344770D01*
X578264Y346436D01*
X583262D01*
X579930D02*
X576597Y349768D01*
X573265D02*
X569933D01*
X571599D01*
Y339772D01*
X573265Y341438D01*
X564935Y339772D02*
X558270D01*
Y341438D01*
X564935Y348102D01*
Y349768D01*
X557437Y315642D02*
Y325638D01*
X562435D01*
X564101Y323972D01*
Y320640D01*
X562435Y318974D01*
X557437D01*
X560769D02*
X564101Y315642D01*
X574098D02*
X567434D01*
X574098Y322306D01*
Y323972D01*
X572432Y325638D01*
X569100D01*
X567434Y323972D01*
X584095Y315642D02*
X577430D01*
X584095Y322306D01*
Y323972D01*
X582429Y325638D01*
X579097D01*
X577430Y323972D01*
X648135Y17751D02*
X638139D01*
Y22749D01*
X639805Y24416D01*
X643137D01*
X644803Y22749D01*
Y17751D01*
Y21083D02*
X648135Y24416D01*
X639805Y27748D02*
X638139Y29414D01*
Y32746D01*
X639805Y34412D01*
X641471D01*
X643137Y32746D01*
Y31080D01*
Y32746D01*
X644803Y34412D01*
X646469D01*
X648135Y32746D01*
Y29414D01*
X646469Y27748D01*
X648135Y44409D02*
Y37745D01*
X641471Y44409D01*
X639805D01*
X638139Y42743D01*
Y39411D01*
X639805Y37745D01*
X624005Y17751D02*
X614009D01*
Y22749D01*
X615675Y24416D01*
X619007D01*
X620673Y22749D01*
Y17751D01*
Y21083D02*
X624005Y24416D01*
X615675Y27748D02*
X614009Y29414D01*
Y32746D01*
X615675Y34412D01*
X617341D01*
X619007Y32746D01*
Y31080D01*
Y32746D01*
X620673Y34412D01*
X622339D01*
X624005Y32746D01*
Y29414D01*
X622339Y27748D01*
X615675Y37745D02*
X614009Y39411D01*
Y42743D01*
X615675Y44409D01*
X617341D01*
X619007Y42743D01*
Y41077D01*
Y42743D01*
X620673Y44409D01*
X622339D01*
X624005Y42743D01*
Y39411D01*
X622339Y37745D01*
X475415Y-11459D02*
X465419D01*
Y-6461D01*
X467085Y-4794D01*
X470417D01*
X472083Y-6461D01*
Y-11459D01*
Y-8127D02*
X475415Y-4794D01*
X467085Y-1462D02*
X465419Y204D01*
Y3536D01*
X467085Y5202D01*
X468751D01*
X470417Y3536D01*
Y1870D01*
Y3536D01*
X472083Y5202D01*
X473749D01*
X475415Y3536D01*
Y204D01*
X473749Y-1462D01*
X475415Y13533D02*
X465419D01*
X470417Y8535D01*
Y15199D01*
X386038Y44673D02*
X396034D01*
Y39674D01*
X394368Y38008D01*
X391036D01*
X389370Y39674D01*
Y44673D01*
Y41341D02*
X386038Y38008D01*
X394368Y34676D02*
X396034Y33010D01*
Y29678D01*
X394368Y28012D01*
X392702D01*
X391036Y29678D01*
Y31344D01*
Y29678D01*
X389370Y28012D01*
X387704D01*
X386038Y29678D01*
Y33010D01*
X387704Y34676D01*
X386038Y24679D02*
Y21347D01*
Y23013D01*
X396034D01*
X394368Y24679D01*
X224189Y-12119D02*
X214193D01*
Y-7121D01*
X215859Y-5454D01*
X219191D01*
X220857Y-7121D01*
Y-12119D01*
Y-8787D02*
X224189Y-5454D01*
X215859Y-2122D02*
X214193Y-456D01*
Y2876D01*
X215859Y4542D01*
X217525D01*
X219191Y2876D01*
Y1210D01*
Y2876D01*
X220857Y4542D01*
X222523D01*
X224189Y2876D01*
Y-456D01*
X222523Y-2122D01*
X215859Y7875D02*
X214193Y9541D01*
Y12873D01*
X215859Y14539D01*
X222523D01*
X224189Y12873D01*
Y9541D01*
X222523Y7875D01*
X215859D01*
X371904Y19681D02*
X361908D01*
Y24679D01*
X363574Y26346D01*
X366906D01*
X368572Y24679D01*
Y19681D01*
Y23013D02*
X371904Y26346D01*
Y36342D02*
Y29678D01*
X365240Y36342D01*
X363574D01*
X361908Y34676D01*
Y31344D01*
X363574Y29678D01*
X370238Y39674D02*
X371904Y41341D01*
Y44673D01*
X370238Y46339D01*
X363574D01*
X361908Y44673D01*
Y41341D01*
X363574Y39674D01*
X365240D01*
X366906Y41341D01*
Y46339D01*
X197518Y524155D02*
X199184Y525821D01*
Y529153D01*
X197518Y530819D01*
X190854D01*
X189188Y529153D01*
Y525821D01*
X190854Y524155D01*
X189188Y514158D02*
Y520822D01*
X195852Y514158D01*
X197518D01*
X199184Y515824D01*
Y519156D01*
X197518Y520822D01*
Y510825D02*
X199184Y509159D01*
Y505827D01*
X197518Y504161D01*
X195852D01*
X194186Y505827D01*
Y507493D01*
Y505827D01*
X192520Y504161D01*
X190854D01*
X189188Y505827D01*
Y509159D01*
X190854Y510825D01*
X51468Y520345D02*
X53134Y522011D01*
Y525343D01*
X51468Y527009D01*
X44804D01*
X43138Y525343D01*
Y522011D01*
X44804Y520345D01*
X43138Y510348D02*
Y517012D01*
X49802Y510348D01*
X51468D01*
X53134Y512014D01*
Y515346D01*
X51468Y517012D01*
X43138Y500351D02*
Y507015D01*
X49802Y500351D01*
X51468D01*
X53134Y502017D01*
Y505349D01*
X51468Y507015D01*
X78138Y518678D02*
X79804Y520345D01*
Y523677D01*
X78138Y525343D01*
X71474D01*
X69808Y523677D01*
Y520345D01*
X71474Y518678D01*
X69808Y508682D02*
Y515346D01*
X76472Y508682D01*
X78138D01*
X79804Y510348D01*
Y513680D01*
X78138Y515346D01*
X69808Y505349D02*
Y502017D01*
Y503683D01*
X79804D01*
X78138Y505349D01*
X132748Y409855D02*
X134414Y411521D01*
Y414853D01*
X132748Y416519D01*
X126084D01*
X124418Y414853D01*
Y411521D01*
X126084Y409855D01*
X124418Y399858D02*
Y406522D01*
X131082Y399858D01*
X132748D01*
X134414Y401524D01*
Y404856D01*
X132748Y406522D01*
X134414Y389861D02*
Y396525D01*
X129416D01*
X131082Y393193D01*
Y391527D01*
X129416Y389861D01*
X126084D01*
X124418Y391527D01*
Y394859D01*
X126084Y396525D01*
X126084Y442245D02*
X124418Y440579D01*
Y437247D01*
X126084Y435581D01*
X132748D01*
X134414Y437247D01*
Y440579D01*
X132748Y442245D01*
X134414Y452242D02*
Y445578D01*
X127750Y452242D01*
X126084D01*
X124418Y450576D01*
Y447244D01*
X126084Y445578D01*
X134414Y460573D02*
X124418D01*
X129416Y455574D01*
Y462239D01*
X196411Y204592D02*
X194745Y206258D01*
X191413D01*
X189747Y204592D01*
Y197928D01*
X191413Y196262D01*
X194745D01*
X196411Y197928D01*
X199744Y204592D02*
X201410Y206258D01*
X204742D01*
X206408Y204592D01*
Y202926D01*
X204742Y201260D01*
X203076D01*
X204742D01*
X206408Y199594D01*
Y197928D01*
X204742Y196262D01*
X201410D01*
X199744Y197928D01*
X209741Y204592D02*
X211407Y206258D01*
X214739D01*
X216405Y204592D01*
Y197928D01*
X214739Y196262D01*
X211407D01*
X209741Y197928D01*
Y204592D01*
X252524Y197928D02*
X254191Y196262D01*
X257523D01*
X259189Y197928D01*
Y204592D01*
X257523Y206258D01*
X254191D01*
X252524Y204592D01*
X249192Y197928D02*
X247526Y196262D01*
X244194D01*
X242528Y197928D01*
Y199594D01*
X244194Y201260D01*
X245860D01*
X244194D01*
X242528Y202926D01*
Y204592D01*
X244194Y206258D01*
X247526D01*
X249192Y204592D01*
X239195Y206258D02*
X235863D01*
X237529D01*
Y196262D01*
X239195Y197928D01*
X630274Y668224D02*
X628608Y666558D01*
Y663225D01*
X630274Y661559D01*
X636938D01*
X638604Y663225D01*
Y666558D01*
X636938Y668224D01*
X630274Y671556D02*
X628608Y673222D01*
Y676554D01*
X630274Y678221D01*
X631940D01*
X633606Y676554D01*
X635272Y678221D01*
X636938D01*
X638604Y676554D01*
Y673222D01*
X636938Y671556D01*
X635272D01*
X633606Y673222D01*
X631940Y671556D01*
X630274D01*
X633606Y673222D02*
Y676554D01*
X560342Y707198D02*
X562008Y705532D01*
X565340D01*
X567007Y707198D01*
Y713862D01*
X565340Y715528D01*
X562008D01*
X560342Y713862D01*
X550345Y705532D02*
X553678Y707198D01*
X557010Y710530D01*
Y713862D01*
X555344Y715528D01*
X552011D01*
X550345Y713862D01*
Y712196D01*
X552011Y710530D01*
X557010D01*
X444854Y706405D02*
X443188Y704739D01*
Y701407D01*
X444854Y699741D01*
X451518D01*
X453184Y701407D01*
Y704739D01*
X451518Y706405D01*
X453184Y716402D02*
Y709738D01*
X446520Y716402D01*
X444854D01*
X443188Y714736D01*
Y711404D01*
X444854Y709738D01*
Y719734D02*
X443188Y721401D01*
Y724733D01*
X444854Y726399D01*
X451518D01*
X453184Y724733D01*
Y721401D01*
X451518Y719734D01*
X444854D01*
X466048Y703316D02*
X476044D01*
Y698317D01*
X474378Y696651D01*
X471046D01*
X469380Y698317D01*
Y703316D01*
Y699984D02*
X466048Y696651D01*
Y693319D02*
Y689987D01*
Y691653D01*
X476044D01*
X474378Y693319D01*
Y684988D02*
X476044Y683322D01*
Y679990D01*
X474378Y678324D01*
X472712D01*
X471046Y679990D01*
Y681656D01*
Y679990D01*
X469380Y678324D01*
X467714D01*
X466048Y679990D01*
Y683322D01*
X467714Y684988D01*
X443857Y669098D02*
X445523Y667432D01*
X448856D01*
X450522Y669098D01*
Y675762D01*
X448856Y677428D01*
X445523D01*
X443857Y675762D01*
X440525Y677428D02*
X437193D01*
X438859D01*
Y667432D01*
X440525Y669098D01*
X427196Y677428D02*
Y667432D01*
X432195Y672430D01*
X425530D01*
X466048Y664210D02*
X476044D01*
Y659211D01*
X474378Y657545D01*
X471046D01*
X469380Y659211D01*
Y664210D01*
Y660878D02*
X466048Y657545D01*
Y654213D02*
Y650881D01*
Y652547D01*
X476044D01*
X474378Y654213D01*
X466048Y645882D02*
Y642550D01*
Y644216D01*
X476044D01*
X474378Y645882D01*
X443584Y624688D02*
X441918Y623022D01*
Y619690D01*
X443584Y618024D01*
X450248D01*
X451914Y619690D01*
Y623022D01*
X450248Y624688D01*
X451914Y628021D02*
Y631353D01*
Y629687D01*
X441918D01*
X443584Y628021D01*
X451914Y643016D02*
Y636352D01*
X445250Y643016D01*
X443584D01*
X441918Y641350D01*
Y638018D01*
X443584Y636352D01*
X361034Y666599D02*
X359368Y664932D01*
Y661600D01*
X361034Y659934D01*
X367698D01*
X369364Y661600D01*
Y664932D01*
X367698Y666599D01*
X369364Y669931D02*
Y673263D01*
Y671597D01*
X359368D01*
X361034Y669931D01*
Y678261D02*
X359368Y679928D01*
Y683260D01*
X361034Y684926D01*
X362700D01*
X364366Y683260D01*
X366032Y684926D01*
X367698D01*
X369364Y683260D01*
Y679928D01*
X367698Y678261D01*
X366032D01*
X364366Y679928D01*
X362700Y678261D01*
X361034D01*
X364366Y679928D02*
Y683260D01*
X295267Y709738D02*
X296933Y708072D01*
X300266D01*
X301932Y709738D01*
Y716402D01*
X300266Y718068D01*
X296933D01*
X295267Y716402D01*
X291935Y718068D02*
X288603D01*
X290269D01*
Y708072D01*
X291935Y709738D01*
X276940Y708072D02*
X280272Y709738D01*
X283605Y713070D01*
Y716402D01*
X281938Y718068D01*
X278606D01*
X276940Y716402D01*
Y714736D01*
X278606Y713070D01*
X283605D01*
X443584Y878689D02*
X441918Y877022D01*
Y873690D01*
X443584Y872024D01*
X450248D01*
X451914Y873690D01*
Y877022D01*
X450248Y878689D01*
X451914Y882021D02*
Y885353D01*
Y883687D01*
X441918D01*
X443584Y882021D01*
Y890351D02*
X441918Y892018D01*
Y895350D01*
X443584Y897016D01*
X450248D01*
X451914Y895350D01*
Y892018D01*
X450248Y890351D01*
X443584D01*
X464778Y870601D02*
X474774D01*
Y865602D01*
X473108Y863936D01*
X469776D01*
X468110Y865602D01*
Y870601D01*
Y867268D02*
X464778Y863936D01*
X466444Y860604D02*
X464778Y858938D01*
Y855605D01*
X466444Y853939D01*
X473108D01*
X474774Y855605D01*
Y858938D01*
X473108Y860604D01*
X471442D01*
X469776Y858938D01*
Y853939D01*
X438422Y840548D02*
X440088Y838882D01*
X443420D01*
X445087Y840548D01*
Y847212D01*
X443420Y848878D01*
X440088D01*
X438422Y847212D01*
X430092Y848878D02*
Y838882D01*
X435090Y843880D01*
X428425D01*
X464778Y833161D02*
X474774D01*
Y828162D01*
X473108Y826496D01*
X469776D01*
X468110Y828162D01*
Y833161D01*
Y829828D02*
X464778Y826496D01*
X474774Y823164D02*
Y816499D01*
X473108D01*
X466444Y823164D01*
X464778D01*
X442314Y800304D02*
X440648Y798638D01*
Y795305D01*
X442314Y793639D01*
X448978D01*
X450644Y795305D01*
Y798638D01*
X448978Y800304D01*
X450644Y810301D02*
Y803636D01*
X443980Y810301D01*
X442314D01*
X440648Y808634D01*
Y805302D01*
X442314Y803636D01*
X563237Y878648D02*
X564903Y876982D01*
X568236D01*
X569902Y878648D01*
Y885312D01*
X568236Y886978D01*
X564903D01*
X563237Y885312D01*
X559905Y886978D02*
X556573D01*
X558239D01*
Y876982D01*
X559905Y878648D01*
X544910Y876982D02*
X551575D01*
Y881980D01*
X548242Y880314D01*
X546576D01*
X544910Y881980D01*
Y885312D01*
X546576Y886978D01*
X549908D01*
X551575Y885312D01*
X175614Y709779D02*
X173948Y708112D01*
Y704780D01*
X175614Y703114D01*
X182278D01*
X183944Y704780D01*
Y708112D01*
X182278Y709779D01*
X183944Y713111D02*
Y716443D01*
Y714777D01*
X173948D01*
X175614Y713111D01*
X182278Y721441D02*
X183944Y723108D01*
Y726440D01*
X182278Y728106D01*
X175614D01*
X173948Y726440D01*
Y723108D01*
X175614Y721441D01*
X177280D01*
X178946Y723108D01*
Y728106D01*
X196808Y705856D02*
X206804D01*
Y700857D01*
X205138Y699191D01*
X201806D01*
X200140Y700857D01*
Y705856D01*
Y702524D02*
X196808Y699191D01*
Y695859D02*
Y692527D01*
Y694193D01*
X206804D01*
X205138Y695859D01*
X196808Y680864D02*
Y687529D01*
X203472Y680864D01*
X205138D01*
X206804Y682530D01*
Y685862D01*
X205138Y687529D01*
X174617Y671638D02*
X176283Y669972D01*
X179616D01*
X181282Y671638D01*
Y678302D01*
X179616Y679968D01*
X176283D01*
X174617Y678302D01*
X171285Y679968D02*
X167953D01*
X169619D01*
Y669972D01*
X171285Y671638D01*
X162955D02*
X161288Y669972D01*
X157956D01*
X156290Y671638D01*
Y673304D01*
X157956Y674970D01*
X159622D01*
X157956D01*
X156290Y676636D01*
Y678302D01*
X157956Y679968D01*
X161288D01*
X162955Y678302D01*
X196808Y668416D02*
X206804D01*
Y663418D01*
X205138Y661751D01*
X201806D01*
X200140Y663418D01*
Y668416D01*
Y665084D02*
X196808Y661751D01*
Y658419D02*
Y655087D01*
Y656753D01*
X206804D01*
X205138Y658419D01*
Y650089D02*
X206804Y648422D01*
Y645090D01*
X205138Y643424D01*
X198474D01*
X196808Y645090D01*
Y648422D01*
X198474Y650089D01*
X205138D01*
X174344Y628895D02*
X172678Y627229D01*
Y623896D01*
X174344Y622230D01*
X181008D01*
X182674Y623896D01*
Y627229D01*
X181008Y628895D01*
X182674Y632227D02*
Y635559D01*
Y633893D01*
X172678D01*
X174344Y632227D01*
X182674Y640558D02*
Y643890D01*
Y642224D01*
X172678D01*
X174344Y640558D01*
Y804510D02*
X172678Y802844D01*
Y799512D01*
X174344Y797846D01*
X181008D01*
X182674Y799512D01*
Y802844D01*
X181008Y804510D01*
X182674Y807842D02*
Y811174D01*
Y809508D01*
X172678D01*
X174344Y807842D01*
X175614Y885394D02*
X173948Y883728D01*
Y880396D01*
X175614Y878729D01*
X182278D01*
X183944Y880396D01*
Y883728D01*
X182278Y885394D01*
Y888726D02*
X183944Y890392D01*
Y893725D01*
X182278Y895391D01*
X175614D01*
X173948Y893725D01*
Y890392D01*
X175614Y888726D01*
X177280D01*
X178946Y890392D01*
Y895391D01*
X170452Y843088D02*
X172118Y841422D01*
X175450D01*
X177117Y843088D01*
Y849752D01*
X175450Y851418D01*
X172118D01*
X170452Y849752D01*
X167120Y843088D02*
X165454Y841422D01*
X162122D01*
X160455Y843088D01*
Y844754D01*
X162122Y846420D01*
X163788D01*
X162122D01*
X160455Y848086D01*
Y849752D01*
X162122Y851418D01*
X165454D01*
X167120Y849752D01*
X196808Y835701D02*
X206804D01*
Y830702D01*
X205138Y829036D01*
X201806D01*
X200140Y830702D01*
Y835701D01*
Y832368D02*
X196808Y829036D01*
X206804Y819039D02*
X205138Y822372D01*
X201806Y825704D01*
X198474D01*
X196808Y824038D01*
Y820705D01*
X198474Y819039D01*
X200140D01*
X201806Y820705D01*
Y825704D01*
X196808Y873141D02*
X206804D01*
Y868142D01*
X205138Y866476D01*
X201806D01*
X200140Y868142D01*
Y873141D01*
Y869808D02*
X196808Y866476D01*
X205138Y863144D02*
X206804Y861478D01*
Y858146D01*
X205138Y856479D01*
X203472D01*
X201806Y858146D01*
X200140Y856479D01*
X198474D01*
X196808Y858146D01*
Y861478D01*
X198474Y863144D01*
X200140D01*
X201806Y861478D01*
X203472Y863144D01*
X205138D01*
X201806Y861478D02*
Y858146D01*
X291102Y881188D02*
X292768Y879522D01*
X296101D01*
X297767Y881188D01*
Y887852D01*
X296101Y889518D01*
X292768D01*
X291102Y887852D01*
X281105Y879522D02*
X287770D01*
Y884520D01*
X284438Y882854D01*
X282771D01*
X281105Y884520D01*
Y887852D01*
X282771Y889518D01*
X286104D01*
X287770Y887852D01*
X361034Y842214D02*
X359368Y840548D01*
Y837215D01*
X361034Y835549D01*
X367698D01*
X369364Y837215D01*
Y840548D01*
X367698Y842214D01*
X359368Y845546D02*
Y852211D01*
X361034D01*
X367698Y845546D01*
X369364D01*
X400718Y393344D02*
X402384Y395011D01*
Y398343D01*
X400718Y400009D01*
X394054D01*
X392388Y398343D01*
Y395011D01*
X394054Y393344D01*
X392388Y383348D02*
Y390012D01*
X399052Y383348D01*
X400718D01*
X402384Y385014D01*
Y388346D01*
X400718Y390012D01*
X394054Y380015D02*
X392388Y378349D01*
Y375017D01*
X394054Y373351D01*
X400718D01*
X402384Y375017D01*
Y378349D01*
X400718Y380015D01*
X399052D01*
X397386Y378349D01*
Y373351D01*
X394054Y333026D02*
X392388Y331359D01*
Y328027D01*
X394054Y326361D01*
X400718D01*
X402384Y328027D01*
Y331359D01*
X400718Y333026D01*
X402384Y343022D02*
Y336358D01*
X395720Y343022D01*
X394054D01*
X392388Y341356D01*
Y338024D01*
X394054Y336358D01*
Y346354D02*
X392388Y348021D01*
Y351353D01*
X394054Y353019D01*
X395720D01*
X397386Y351353D01*
X399052Y353019D01*
X400718D01*
X402384Y351353D01*
Y348021D01*
X400718Y346354D01*
X399052D01*
X397386Y348021D01*
X395720Y346354D01*
X394054D01*
X397386Y348021D02*
Y351353D01*
X376862Y319288D02*
Y309292D01*
X371864D01*
X370197Y310958D01*
Y314290D01*
X371864Y315956D01*
X376862D01*
X373530D02*
X370197Y319288D01*
X366865D02*
X363533D01*
X365199D01*
Y309292D01*
X366865Y310958D01*
X351870Y309292D02*
X355202Y310958D01*
X358535Y314290D01*
Y317622D01*
X356868Y319288D01*
X353536D01*
X351870Y317622D01*
Y315956D01*
X353536Y314290D01*
X358535D01*
X311501Y320558D02*
Y310562D01*
X316500D01*
X318166Y312228D01*
Y318892D01*
X316500Y320558D01*
X311501D01*
X321498Y310562D02*
X324830D01*
X323164D01*
Y320558D01*
X321498Y318892D01*
X329829Y310562D02*
X333161D01*
X331495D01*
Y320558D01*
X329829Y318892D01*
X307295Y457718D02*
Y447722D01*
X312293D01*
X313960Y449388D01*
Y456052D01*
X312293Y457718D01*
X307295D01*
X317292Y447722D02*
X320624D01*
X318958D01*
Y457718D01*
X317292Y456052D01*
X325622D02*
X327289Y457718D01*
X330621D01*
X332287Y456052D01*
Y449388D01*
X330621Y447722D01*
X327289D01*
X325622Y449388D01*
Y456052D01*
X374322Y456448D02*
Y446452D01*
X369324D01*
X367657Y448118D01*
Y451450D01*
X369324Y453116D01*
X374322D01*
X370990D02*
X367657Y456448D01*
X364325D02*
X360993D01*
X362659D01*
Y446452D01*
X364325Y448118D01*
X349330Y446452D02*
X355994D01*
Y451450D01*
X352662Y449784D01*
X350996D01*
X349330Y451450D01*
Y454782D01*
X350996Y456448D01*
X354328D01*
X355994Y454782D01*
X391514Y470186D02*
X389848Y468519D01*
Y465187D01*
X391514Y463521D01*
X398178D01*
X399844Y465187D01*
Y468519D01*
X398178Y470186D01*
X399844Y480182D02*
Y473518D01*
X393180Y480182D01*
X391514D01*
X389848Y478516D01*
Y475184D01*
X391514Y473518D01*
X389848Y490179D02*
X391514Y486847D01*
X394846Y483515D01*
X398178D01*
X399844Y485181D01*
Y488513D01*
X398178Y490179D01*
X396512D01*
X394846Y488513D01*
Y483515D01*
X398178Y530504D02*
X399844Y532171D01*
Y535503D01*
X398178Y537169D01*
X391514D01*
X389848Y535503D01*
Y532171D01*
X391514Y530504D01*
X389848Y520508D02*
Y527172D01*
X396512Y520508D01*
X398178D01*
X399844Y522174D01*
Y525506D01*
X398178Y527172D01*
X399844Y517175D02*
Y510511D01*
X398178D01*
X391514Y517175D01*
X389848D01*
M02*
