G04*
G04 #@! TF.GenerationSoftware,Altium Limited,Altium Designer,24.1.2 (44)*
G04*
G04 Layer_Physical_Order=2*
G04 Layer_Color=16711680*
%FSLAX44Y44*%
%MOMM*%
G71*
G04*
G04 #@! TF.SameCoordinates,51AA683D-CA4B-47C4-9456-8286C0F4AF48*
G04*
G04*
G04 #@! TF.FilePolarity,Positive*
G04*
G01*
G75*
%ADD11C,0.3000*%
%ADD16C,0.4000*%
G04:AMPARAMS|DCode=29|XSize=1mm|YSize=1.7mm|CornerRadius=0.125mm|HoleSize=0mm|Usage=FLASHONLY|Rotation=0.000|XOffset=0mm|YOffset=0mm|HoleType=Round|Shape=RoundedRectangle|*
%AMROUNDEDRECTD29*
21,1,1.0000,1.4500,0,0,0.0*
21,1,0.7500,1.7000,0,0,0.0*
1,1,0.2500,0.3750,-0.7250*
1,1,0.2500,-0.3750,-0.7250*
1,1,0.2500,-0.3750,0.7250*
1,1,0.2500,0.3750,0.7250*
%
%ADD29ROUNDEDRECTD29*%
G04:AMPARAMS|DCode=31|XSize=1.4mm|YSize=1.7mm|CornerRadius=0.175mm|HoleSize=0mm|Usage=FLASHONLY|Rotation=180.000|XOffset=0mm|YOffset=0mm|HoleType=Round|Shape=RoundedRectangle|*
%AMROUNDEDRECTD31*
21,1,1.4000,1.3500,0,0,180.0*
21,1,1.0500,1.7000,0,0,180.0*
1,1,0.3500,-0.5250,0.6750*
1,1,0.3500,0.5250,0.6750*
1,1,0.3500,0.5250,-0.6750*
1,1,0.3500,-0.5250,-0.6750*
%
%ADD31ROUNDEDRECTD31*%
G04:AMPARAMS|DCode=32|XSize=1mm|YSize=1.7mm|CornerRadius=0.125mm|HoleSize=0mm|Usage=FLASHONLY|Rotation=90.000|XOffset=0mm|YOffset=0mm|HoleType=Round|Shape=RoundedRectangle|*
%AMROUNDEDRECTD32*
21,1,1.0000,1.4500,0,0,90.0*
21,1,0.7500,1.7000,0,0,90.0*
1,1,0.2500,0.7250,0.3750*
1,1,0.2500,0.7250,-0.3750*
1,1,0.2500,-0.7250,-0.3750*
1,1,0.2500,-0.7250,0.3750*
%
%ADD32ROUNDEDRECTD32*%
%ADD46C,1.0000*%
%ADD75C,0.5000*%
%ADD77C,1.0000*%
%ADD78C,1.5000*%
%ADD79C,0.7000*%
%ADD80C,2.0000*%
%ADD81C,0.8250*%
%ADD82C,0.5750*%
%ADD83O,6.0000X10.0000*%
%ADD84C,1.7250*%
%ADD85R,2.6250X2.6250*%
%ADD86C,2.6250*%
%ADD87C,1.8000*%
%ADD88C,6.0000*%
%ADD89C,0.5000*%
G04:AMPARAMS|DCode=90|XSize=1.27mm|YSize=2.1mm|CornerRadius=0.1588mm|HoleSize=0mm|Usage=FLASHONLY|Rotation=90.000|XOffset=0mm|YOffset=0mm|HoleType=Round|Shape=RoundedRectangle|*
%AMROUNDEDRECTD90*
21,1,1.2700,1.7825,0,0,90.0*
21,1,0.9525,2.1000,0,0,90.0*
1,1,0.3175,0.8913,0.4763*
1,1,0.3175,0.8913,-0.4763*
1,1,0.3175,-0.8913,-0.4763*
1,1,0.3175,-0.8913,0.4763*
%
%ADD90ROUNDEDRECTD90*%
G36*
X924025Y925129D02*
X930028Y923521D01*
X935770Y921142D01*
X941152Y918035D01*
X946083Y914251D01*
X950477Y909857D01*
X954261Y904926D01*
X957368Y899544D01*
X959747Y893802D01*
X961355Y887799D01*
X962166Y881637D01*
Y878530D01*
Y-21470D01*
Y-24577D01*
X961355Y-30739D01*
X959747Y-36742D01*
X957368Y-42484D01*
X954261Y-47866D01*
X950478Y-52797D01*
X946083Y-57192D01*
X941152Y-60975D01*
X935770Y-64082D01*
X930028Y-66461D01*
X924025Y-68069D01*
X917863Y-68880D01*
X11649D01*
X5487Y-68069D01*
X-516Y-66461D01*
X-6258Y-64082D01*
X-11640Y-60975D01*
X-16571Y-57192D01*
X-20965Y-52797D01*
X-24749Y-47866D01*
X-27856Y-42484D01*
X-30235Y-36742D01*
X-31843Y-30739D01*
X-32654Y-24577D01*
Y-21470D01*
Y878530D01*
Y881637D01*
X-31843Y887799D01*
X-30235Y893802D01*
X-27856Y899544D01*
X-24749Y904926D01*
X-20965Y909857D01*
X-16571Y914251D01*
X-11640Y918035D01*
X-6258Y921142D01*
X-516Y923521D01*
X5487Y925129D01*
X11649Y925940D01*
X917863D01*
X924025Y925129D01*
D02*
G37*
%LPC*%
G36*
X347901Y916493D02*
X347901Y916493D01*
X41665D01*
X40104Y916183D01*
X38781Y915299D01*
X38781Y915299D01*
X22851Y899368D01*
X20430D01*
X20239Y899383D01*
X19535Y899541D01*
X18730Y899825D01*
X17831Y900249D01*
X16845Y900818D01*
X15779Y901536D01*
X14659Y902390D01*
X12148Y904603D01*
X10806Y905928D01*
X10646Y906034D01*
X9642Y907038D01*
X7164Y908694D01*
X4412Y909834D01*
X1490Y910415D01*
X-1490D01*
X-4412Y909834D01*
X-7164Y908694D01*
X-9642Y907038D01*
X-11748Y904932D01*
X-13404Y902454D01*
X-14544Y899702D01*
X-15125Y896780D01*
Y893800D01*
X-14544Y890878D01*
X-13404Y888126D01*
X-11748Y885648D01*
X-9642Y883542D01*
X-7164Y881886D01*
X-4412Y880746D01*
X-1490Y880165D01*
X1490D01*
X4412Y880746D01*
X7164Y881886D01*
X9642Y883542D01*
X10646Y884546D01*
X10806Y884652D01*
X12148Y885976D01*
X14659Y888190D01*
X15780Y889045D01*
X16845Y889762D01*
X17831Y890331D01*
X18730Y890755D01*
X19535Y891039D01*
X20239Y891197D01*
X20430Y891212D01*
X24540D01*
X24540Y891212D01*
X26101Y891522D01*
X27424Y892406D01*
X43354Y908337D01*
X64875D01*
Y880165D01*
X95125D01*
Y908337D01*
X346212D01*
X394420Y860129D01*
X394841Y859111D01*
X396107Y857845D01*
X397761Y857160D01*
X399551D01*
X401205Y857845D01*
X402471Y859111D01*
X403156Y860765D01*
Y862555D01*
X402471Y864209D01*
X401205Y865475D01*
X400187Y865897D01*
X350785Y915299D01*
X349462Y916183D01*
X349203Y916234D01*
X347901Y916493D01*
D02*
G37*
G36*
X129041Y905530D02*
X127251D01*
X125597Y904845D01*
X124331Y903579D01*
X124101Y903023D01*
X92730Y871653D01*
X92553Y871501D01*
X91939Y871117D01*
X91191Y870777D01*
X90299Y870491D01*
X89258Y870268D01*
X88069Y870117D01*
X86764Y870046D01*
X83619Y870154D01*
X81880Y870337D01*
X81490Y870415D01*
X78510D01*
X75588Y869834D01*
X72836Y868694D01*
X70358Y867038D01*
X68252Y864932D01*
X66596Y862454D01*
X65456Y859702D01*
X64875Y856780D01*
Y853800D01*
X65456Y850878D01*
X66596Y848126D01*
X68252Y845648D01*
X70358Y843542D01*
X72836Y841886D01*
X75588Y840746D01*
X78510Y840165D01*
X81490D01*
X84412Y840746D01*
X87164Y841886D01*
X89642Y843542D01*
X91748Y845648D01*
X93404Y848126D01*
X94544Y850878D01*
X95125Y853800D01*
Y854032D01*
X95581Y857504D01*
X96208Y860678D01*
X96553Y861978D01*
X96926Y863123D01*
X97313Y864088D01*
X97706Y864867D01*
X98086Y865459D01*
X98172Y865559D01*
X129215Y896602D01*
X130695Y897215D01*
X131961Y898481D01*
X132646Y900135D01*
Y901925D01*
X131961Y903579D01*
X130695Y904845D01*
X129041Y905530D01*
D02*
G37*
G36*
X41490Y890415D02*
X38510D01*
X35588Y889834D01*
X32836Y888694D01*
X30358Y887038D01*
X28252Y884932D01*
X26596Y882454D01*
X25456Y879702D01*
X24875Y876780D01*
Y873800D01*
X25456Y870878D01*
X26596Y868126D01*
X28252Y865648D01*
X30358Y863542D01*
X32836Y861886D01*
X35588Y860746D01*
X38510Y860165D01*
X41490D01*
X44412Y860746D01*
X47164Y861886D01*
X49642Y863542D01*
X51748Y865648D01*
X53404Y868126D01*
X54544Y870878D01*
X55125Y873800D01*
Y876780D01*
X54544Y879702D01*
X53404Y882454D01*
X51748Y884932D01*
X49642Y887038D01*
X47164Y888694D01*
X44412Y889834D01*
X41490Y890415D01*
D02*
G37*
G36*
X829021Y877250D02*
X827231D01*
X825577Y876565D01*
X824311Y875299D01*
X823626Y873645D01*
Y871855D01*
X824311Y870201D01*
X824557Y869955D01*
Y869340D01*
X823978Y868634D01*
X822146D01*
X820878Y868381D01*
X819803Y867663D01*
X819085Y866588D01*
X818832Y865320D01*
Y857820D01*
X819085Y856552D01*
X819803Y855477D01*
X820878Y854759D01*
X822146Y854506D01*
X836646D01*
X837914Y854759D01*
X838989Y855477D01*
X839707Y856552D01*
X839960Y857820D01*
Y865320D01*
X839707Y866588D01*
X838989Y867663D01*
X837914Y868381D01*
X836646Y868634D01*
X832852D01*
X832693Y869436D01*
X832033Y870423D01*
X832626Y871855D01*
Y873645D01*
X831941Y875299D01*
X830675Y876565D01*
X829021Y877250D01*
D02*
G37*
G36*
X801081D02*
X799291D01*
X797637Y876565D01*
X796371Y875299D01*
X795686Y873645D01*
Y871855D01*
X796371Y870201D01*
X796617Y869955D01*
Y869340D01*
X796038Y868634D01*
X794206D01*
X792938Y868381D01*
X791863Y867663D01*
X791145Y866588D01*
X790892Y865320D01*
Y857820D01*
X791145Y856552D01*
X791863Y855477D01*
X792938Y854759D01*
X794206Y854506D01*
X808706D01*
X809974Y854759D01*
X811049Y855477D01*
X811767Y856552D01*
X812020Y857820D01*
Y865320D01*
X811767Y866588D01*
X811049Y867663D01*
X809974Y868381D01*
X808706Y868634D01*
X804912D01*
X804753Y869436D01*
X804093Y870423D01*
X804686Y871855D01*
Y873645D01*
X804001Y875299D01*
X802735Y876565D01*
X801081Y877250D01*
D02*
G37*
G36*
X773141D02*
X771351D01*
X769697Y876565D01*
X768431Y875299D01*
X767746Y873645D01*
Y871855D01*
X768431Y870201D01*
X768677Y869955D01*
Y869340D01*
X768098Y868634D01*
X766266D01*
X764998Y868381D01*
X763923Y867663D01*
X763205Y866588D01*
X762952Y865320D01*
Y857820D01*
X763205Y856552D01*
X763923Y855477D01*
X764998Y854759D01*
X766266Y854506D01*
X780766D01*
X782034Y854759D01*
X783109Y855477D01*
X783827Y856552D01*
X784080Y857820D01*
Y865320D01*
X783827Y866588D01*
X783109Y867663D01*
X782034Y868381D01*
X780766Y868634D01*
X776973D01*
X776813Y869436D01*
X776153Y870423D01*
X776746Y871855D01*
Y873645D01*
X776061Y875299D01*
X774795Y876565D01*
X773141Y877250D01*
D02*
G37*
G36*
X745201D02*
X743411D01*
X741757Y876565D01*
X740491Y875299D01*
X739806Y873645D01*
Y871855D01*
X740491Y870201D01*
X740788Y869904D01*
X740262Y868634D01*
X738326D01*
X737058Y868381D01*
X735983Y867663D01*
X735265Y866588D01*
X735012Y865320D01*
Y857820D01*
X735265Y856552D01*
X735983Y855477D01*
X737058Y854759D01*
X738326Y854506D01*
X752826D01*
X754094Y854759D01*
X755169Y855477D01*
X755887Y856552D01*
X756140Y857820D01*
Y865320D01*
X755887Y866588D01*
X755169Y867663D01*
X754094Y868381D01*
X752826Y868634D01*
X749176D01*
X749161Y868727D01*
X749145Y868912D01*
Y871480D01*
X748873Y872846D01*
X748806Y872946D01*
Y873645D01*
X748121Y875299D01*
X746855Y876565D01*
X745201Y877250D01*
D02*
G37*
G36*
X717261D02*
X715471D01*
X713817Y876565D01*
X712551Y875299D01*
X711866Y873645D01*
Y871855D01*
X712551Y870201D01*
X712848Y869904D01*
X712322Y868634D01*
X710386D01*
X709118Y868381D01*
X708043Y867663D01*
X707325Y866588D01*
X707072Y865320D01*
Y857820D01*
X707325Y856552D01*
X708043Y855477D01*
X709118Y854759D01*
X710386Y854506D01*
X724886D01*
X726154Y854759D01*
X727229Y855477D01*
X727947Y856552D01*
X728200Y857820D01*
Y865320D01*
X727947Y866588D01*
X727229Y867663D01*
X726154Y868381D01*
X724886Y868634D01*
X721236D01*
X721221Y868727D01*
X721205Y868912D01*
Y871480D01*
X720933Y872846D01*
X720866Y872946D01*
Y873645D01*
X720181Y875299D01*
X718915Y876565D01*
X717261Y877250D01*
D02*
G37*
G36*
X1490Y870415D02*
X-1490D01*
X-4412Y869834D01*
X-7164Y868694D01*
X-9642Y867038D01*
X-11748Y864932D01*
X-13404Y862454D01*
X-14544Y859702D01*
X-15125Y856780D01*
Y853800D01*
X-14544Y850878D01*
X-13404Y848126D01*
X-11748Y845648D01*
X-9642Y843542D01*
X-7164Y841886D01*
X-4412Y840746D01*
X-1490Y840165D01*
X1490D01*
X4412Y840746D01*
X7164Y841886D01*
X9642Y843542D01*
X11748Y845648D01*
X13404Y848126D01*
X14544Y850878D01*
X15125Y853800D01*
Y856780D01*
X14544Y859702D01*
X13404Y862454D01*
X11748Y864932D01*
X9642Y867038D01*
X7164Y868694D01*
X4412Y869834D01*
X1490Y870415D01*
D02*
G37*
G36*
X41490Y850415D02*
X38510D01*
X35588Y849834D01*
X32836Y848694D01*
X30358Y847038D01*
X28252Y844932D01*
X26596Y842454D01*
X25456Y839702D01*
X24875Y836780D01*
Y833800D01*
X25456Y830878D01*
X26596Y828126D01*
X28252Y825648D01*
X30358Y823542D01*
X32836Y821886D01*
X35588Y820746D01*
X38510Y820165D01*
X41490D01*
X44412Y820746D01*
X47164Y821886D01*
X49642Y823542D01*
X51748Y825648D01*
X53404Y828126D01*
X54544Y830878D01*
X55125Y833800D01*
Y836780D01*
X54544Y839702D01*
X53404Y842454D01*
X51748Y844932D01*
X49642Y847038D01*
X47164Y848694D01*
X44412Y849834D01*
X41490Y850415D01*
D02*
G37*
G36*
X696731Y778540D02*
X694941D01*
X693287Y777855D01*
X692021Y776589D01*
X691336Y774935D01*
Y773145D01*
X692021Y771491D01*
X693287Y770225D01*
X694941Y769540D01*
X696731D01*
X698385Y770225D01*
X698624Y770464D01*
X698729Y770471D01*
X823882D01*
X835804Y758549D01*
X835178Y757378D01*
X834826Y757449D01*
X766304D01*
X762826Y760927D01*
Y761275D01*
X762141Y762929D01*
X760875Y764195D01*
X759221Y764880D01*
X757431D01*
X755777Y764195D01*
X754511Y762929D01*
X753826Y761275D01*
Y759485D01*
X754511Y757831D01*
X755777Y756565D01*
X757431Y755880D01*
X757769D01*
X757848Y755811D01*
X762303Y751357D01*
X763460Y750583D01*
X764826Y750311D01*
X833348D01*
X849207Y734452D01*
X849627Y733823D01*
X852076Y731375D01*
Y730485D01*
X852761Y728831D01*
X854027Y727565D01*
X855681Y726880D01*
X857471D01*
X859125Y727565D01*
X860391Y728831D01*
X861076Y730485D01*
Y732275D01*
X860391Y733929D01*
X860353Y733967D01*
X860440Y734502D01*
X860785Y735331D01*
X862212Y735922D01*
X863478Y737188D01*
X864163Y738842D01*
Y740632D01*
X863478Y742286D01*
X862212Y743552D01*
X860558Y744237D01*
X860220D01*
X860141Y744305D01*
X827883Y776563D01*
X826725Y777337D01*
X825360Y777609D01*
X698631D01*
X698385Y777855D01*
X696731Y778540D01*
D02*
G37*
G36*
X753881Y746780D02*
X752091D01*
X750437Y746095D01*
X749171Y744829D01*
X748486Y743175D01*
Y741385D01*
X749171Y739731D01*
X750437Y738465D01*
X752091Y737780D01*
X753881D01*
X755535Y738465D01*
X755702Y738632D01*
X755771Y738636D01*
X806956D01*
X807277Y738315D01*
X808931Y737630D01*
X810721D01*
X812375Y738315D01*
X813641Y739581D01*
X814326Y741235D01*
Y743025D01*
X813641Y744679D01*
X812375Y745945D01*
X810721Y746630D01*
X808931D01*
X807277Y745945D01*
X807110Y745778D01*
X807040Y745774D01*
X755856D01*
X755535Y746095D01*
X753881Y746780D01*
D02*
G37*
G36*
X81490Y750415D02*
X78510D01*
X75588Y749834D01*
X72836Y748694D01*
X70358Y747038D01*
X68252Y744932D01*
X66596Y742454D01*
X65456Y739702D01*
X64875Y736780D01*
Y733800D01*
X65456Y730878D01*
X66596Y728126D01*
X68252Y725648D01*
X70358Y723542D01*
X72836Y721886D01*
X75588Y720746D01*
X78510Y720165D01*
X81490D01*
X84412Y720746D01*
X87164Y721886D01*
X89642Y723542D01*
X91748Y725648D01*
X93404Y728126D01*
X94544Y730878D01*
X95125Y733800D01*
Y736780D01*
X94544Y739702D01*
X93404Y742454D01*
X91748Y744932D01*
X89642Y747038D01*
X87164Y748694D01*
X84412Y749834D01*
X81490Y750415D01*
D02*
G37*
G36*
Y710415D02*
X78510D01*
X75588Y709834D01*
X72836Y708694D01*
X70358Y707038D01*
X68252Y704932D01*
X66596Y702454D01*
X65456Y699702D01*
X64875Y696780D01*
Y693800D01*
X65456Y690878D01*
X66596Y688126D01*
X68252Y685648D01*
X70358Y683542D01*
X72836Y681886D01*
X75588Y680746D01*
X78510Y680165D01*
X81490D01*
X84412Y680746D01*
X87164Y681886D01*
X89642Y683542D01*
X91748Y685648D01*
X93404Y688126D01*
X94544Y690878D01*
X95125Y693800D01*
Y696780D01*
X94544Y699702D01*
X93404Y702454D01*
X91748Y704932D01*
X89642Y707038D01*
X87164Y708694D01*
X84412Y709834D01*
X81490Y710415D01*
D02*
G37*
G36*
X873645Y669000D02*
X871855D01*
X870201Y668315D01*
X868935Y667049D01*
X868250Y665395D01*
Y663605D01*
X868671Y662589D01*
X867908Y661319D01*
X863795D01*
X863549Y661565D01*
X861895Y662250D01*
X860105D01*
X858451Y661565D01*
X857185Y660299D01*
X856500Y658645D01*
Y656855D01*
X857185Y655201D01*
X858418Y653969D01*
X858411Y653786D01*
X858118Y652699D01*
X804326D01*
X802960Y652427D01*
X801803Y651653D01*
X784279Y634130D01*
X783931D01*
X782277Y633445D01*
X781397Y634351D01*
X802810Y655764D01*
X803931Y655300D01*
X805721D01*
X807375Y655985D01*
X808641Y657251D01*
X809326Y658904D01*
Y660695D01*
X808641Y662349D01*
X807375Y663615D01*
X805721Y664300D01*
X803931D01*
X802277Y663615D01*
X801648Y662986D01*
X801417D01*
X800051Y662714D01*
X798894Y661940D01*
X767303Y630349D01*
X766529Y629192D01*
X766257Y627826D01*
Y609373D01*
X751206Y594322D01*
X750432Y593164D01*
X750161Y591798D01*
Y571958D01*
X736703Y558500D01*
X736355D01*
X734701Y557815D01*
X733435Y556549D01*
X732750Y554895D01*
Y553105D01*
X733435Y551451D01*
X734701Y550185D01*
X736355Y549500D01*
X738145D01*
X739799Y550185D01*
X741065Y551451D01*
X741750Y553105D01*
Y553443D01*
X741819Y553522D01*
X756253Y567956D01*
X757026Y569114D01*
X757298Y570479D01*
Y590320D01*
X761776Y594798D01*
X762595Y594515D01*
X762988Y594214D01*
Y405031D01*
X557596Y199638D01*
X490880D01*
X490425Y199705D01*
X489840Y199849D01*
X489246Y200055D01*
X488640Y200327D01*
X488020Y200668D01*
X487387Y201081D01*
X486742Y201569D01*
X486085Y202135D01*
X485381Y202816D01*
X485228Y202914D01*
X484290Y203852D01*
X481782Y205300D01*
X478984Y206050D01*
X476088D01*
X473290Y205300D01*
X470782Y203852D01*
X468734Y201804D01*
X467286Y199296D01*
X466536Y196498D01*
Y193602D01*
X467286Y190804D01*
X468734Y188296D01*
X470782Y186248D01*
X473290Y184800D01*
X476088Y184050D01*
X478984D01*
X481782Y184800D01*
X484290Y186248D01*
X485228Y187186D01*
X485381Y187284D01*
X486085Y187965D01*
X486742Y188531D01*
X487387Y189019D01*
X488020Y189432D01*
X488640Y189773D01*
X489246Y190045D01*
X489840Y190251D01*
X490425Y190395D01*
X490880Y190462D01*
X559496D01*
X561252Y190811D01*
X561917Y191255D01*
X562726Y190269D01*
X541175Y168718D01*
X465476D01*
X456724Y177470D01*
Y181706D01*
X456791Y182161D01*
X456935Y182746D01*
X457141Y183340D01*
X457413Y183946D01*
X457754Y184566D01*
X458167Y185199D01*
X458655Y185844D01*
X459221Y186501D01*
X459902Y187205D01*
X460000Y187358D01*
X460938Y188296D01*
X462386Y190804D01*
X463136Y193602D01*
Y196498D01*
X462386Y199296D01*
X460938Y201804D01*
X458890Y203852D01*
X456382Y205300D01*
X453584Y206050D01*
X450688D01*
X447890Y205300D01*
X445382Y203852D01*
X443334Y201804D01*
X441886Y199296D01*
X441136Y196498D01*
Y193602D01*
X441886Y190804D01*
X443334Y188296D01*
X444272Y187358D01*
X444370Y187205D01*
X445051Y186501D01*
X445617Y185844D01*
X446105Y185199D01*
X446518Y184566D01*
X446859Y183946D01*
X447131Y183340D01*
X447337Y182746D01*
X447481Y182162D01*
X447548Y181706D01*
Y175570D01*
X447897Y173814D01*
X448892Y172326D01*
X460332Y160886D01*
X461820Y159891D01*
X463576Y159542D01*
X543076D01*
X544832Y159891D01*
X546320Y160886D01*
X785244Y399810D01*
X786239Y401298D01*
X786588Y403054D01*
Y586654D01*
X792570Y592636D01*
X792821Y593011D01*
X793141Y593331D01*
X793314Y593748D01*
X793565Y594124D01*
X793653Y594567D01*
X793826Y594985D01*
Y595437D01*
X793914Y595880D01*
X793826Y596323D01*
Y596775D01*
X793653Y597192D01*
X793565Y597636D01*
X793314Y598012D01*
X793141Y598429D01*
X792821Y598749D01*
X792570Y599124D01*
X792195Y599375D01*
X791875Y599695D01*
X791458Y599868D01*
X791082Y600119D01*
X790639Y600207D01*
X790221Y600380D01*
X789769D01*
X789326Y600468D01*
X788883Y600380D01*
X788431D01*
X788013Y600207D01*
X787570Y600119D01*
X787194Y599868D01*
X786777Y599695D01*
X786458Y599375D01*
X786082Y599124D01*
X778756Y591798D01*
X777761Y590310D01*
X777412Y588554D01*
Y404954D01*
X772357Y399900D01*
X771371Y400709D01*
X771815Y401374D01*
X772164Y403130D01*
Y594380D01*
X772076Y594823D01*
Y595275D01*
X771903Y595693D01*
X771815Y596136D01*
X771564Y596512D01*
X771391Y596929D01*
X771071Y597248D01*
X770820Y597624D01*
X770444Y597875D01*
X770125Y598195D01*
X769708Y598368D01*
X769332Y598619D01*
X768889Y598707D01*
X768471Y598880D01*
X768019D01*
X767715Y598941D01*
X767417Y599430D01*
X767158Y600180D01*
X772349Y605371D01*
X773123Y606529D01*
X773395Y607895D01*
Y626348D01*
X780106Y633059D01*
X781011Y632179D01*
X780326Y630525D01*
Y628735D01*
X781011Y627081D01*
X782277Y625815D01*
X783931Y625130D01*
X785721D01*
X787375Y625815D01*
X788641Y627081D01*
X789326Y628735D01*
Y629073D01*
X789395Y629152D01*
X799531Y639288D01*
X800458Y638801D01*
X800660Y638621D01*
Y636904D01*
X801345Y635251D01*
X802611Y633985D01*
X804265Y633300D01*
X806055D01*
X807709Y633985D01*
X807948Y634224D01*
X808053Y634231D01*
X884413D01*
X894257Y624387D01*
Y548358D01*
X832977Y487077D01*
X832203Y485920D01*
X831931Y484554D01*
Y393978D01*
X755763Y317809D01*
X754989Y316652D01*
X754717Y315286D01*
Y263508D01*
X645981Y154772D01*
X645462Y154289D01*
X645040Y153950D01*
X644831Y153804D01*
X639246D01*
X637978Y153551D01*
X636903Y152833D01*
X636185Y151758D01*
X635932Y150490D01*
Y148239D01*
X635856Y148193D01*
X635572Y148077D01*
X635137Y147961D01*
X634557Y147865D01*
X634142Y147828D01*
X633410D01*
X632995Y147865D01*
X632415Y147961D01*
X631980Y148077D01*
X631696Y148193D01*
X631620Y148239D01*
Y150490D01*
X631367Y151758D01*
X630649Y152833D01*
X629574Y153551D01*
X628306Y153804D01*
X626644D01*
Y156370D01*
X626922Y156787D01*
X627213Y158250D01*
Y171750D01*
X626922Y173213D01*
X626094Y174454D01*
X624853Y175282D01*
X623390Y175573D01*
X612890D01*
X611427Y175282D01*
X610186Y174454D01*
X609358Y173213D01*
X609067Y171750D01*
Y158250D01*
X609358Y156787D01*
X610186Y155546D01*
X611427Y154718D01*
X612890Y154427D01*
X617468D01*
Y145740D01*
X617492Y145617D01*
Y135990D01*
X617745Y134722D01*
X618463Y133647D01*
X619538Y132929D01*
X620806Y132676D01*
X628306D01*
X629574Y132929D01*
X630649Y133647D01*
X631367Y134722D01*
X631620Y135990D01*
Y138241D01*
X631696Y138287D01*
X631980Y138403D01*
X632415Y138519D01*
X632995Y138615D01*
X633410Y138652D01*
X634142D01*
X634557Y138615D01*
X635137Y138519D01*
X635572Y138403D01*
X635856Y138287D01*
X635932Y138241D01*
Y135990D01*
X636185Y134722D01*
X636903Y133647D01*
X637978Y132929D01*
X639246Y132676D01*
X646746D01*
X648014Y132929D01*
X649089Y133647D01*
X649807Y134722D01*
X650060Y135990D01*
Y148575D01*
X650190Y148761D01*
X650899Y149596D01*
X760809Y259507D01*
X761583Y260664D01*
X761855Y262030D01*
Y313808D01*
X838023Y389977D01*
X838797Y391134D01*
X839069Y392500D01*
Y483076D01*
X900349Y544357D01*
X901123Y545514D01*
X901395Y546880D01*
Y625865D01*
X901123Y627231D01*
X900349Y628389D01*
X888415Y640323D01*
X887257Y641097D01*
X885892Y641368D01*
X807955D01*
X807709Y641615D01*
X806055Y642300D01*
X804338D01*
X804158Y642502D01*
X803671Y643428D01*
X805804Y645561D01*
X887348D01*
X906257Y626652D01*
Y534358D01*
X847053Y475153D01*
X846279Y473996D01*
X846007Y472630D01*
Y394554D01*
X786803Y335349D01*
X786029Y334192D01*
X785757Y332826D01*
Y247108D01*
X647647Y108997D01*
X647076Y108466D01*
X646637Y108113D01*
X646596Y108084D01*
X639856D01*
X638588Y107831D01*
X637513Y107113D01*
X636795Y106038D01*
X636542Y104770D01*
Y101120D01*
X636449Y101105D01*
X636264Y101089D01*
X632508D01*
X632323Y101105D01*
X632230Y101120D01*
Y104770D01*
X631977Y106038D01*
X631259Y107113D01*
X630184Y107831D01*
X628916Y108084D01*
X621416D01*
X620148Y107831D01*
X619073Y107113D01*
X618355Y106038D01*
X618102Y104770D01*
Y90270D01*
X618355Y89002D01*
X619073Y87927D01*
X620148Y87209D01*
X621416Y86956D01*
X628916D01*
X630184Y87209D01*
X631259Y87927D01*
X631977Y89002D01*
X632230Y90270D01*
Y93920D01*
X632323Y93935D01*
X632508Y93951D01*
X636264D01*
X636449Y93935D01*
X636542Y93920D01*
Y90270D01*
X636795Y89002D01*
X637513Y87927D01*
X638588Y87209D01*
X639018Y87123D01*
Y85573D01*
X638320D01*
X636857Y85282D01*
X635616Y84454D01*
X634788Y83213D01*
X634497Y81750D01*
Y68250D01*
X634788Y66787D01*
X635616Y65546D01*
X636857Y64718D01*
X638320Y64427D01*
X648820D01*
X650283Y64718D01*
X651524Y65546D01*
X652352Y66787D01*
X652643Y68250D01*
Y81750D01*
X652352Y83213D01*
X651524Y84454D01*
X650283Y85282D01*
X648820Y85573D01*
X648194D01*
Y87123D01*
X648624Y87209D01*
X649699Y87927D01*
X650417Y89002D01*
X650670Y90270D01*
Y101428D01*
X650774Y101624D01*
X651046Y102043D01*
X651414Y102533D01*
X652373Y103630D01*
X791849Y243107D01*
X792623Y244264D01*
X792895Y245630D01*
Y331348D01*
X852099Y390553D01*
X852873Y391710D01*
X853145Y393076D01*
Y471152D01*
X912349Y530357D01*
X913123Y531514D01*
X913395Y532880D01*
Y628130D01*
X913123Y629496D01*
X912349Y630653D01*
X891349Y651653D01*
X890192Y652427D01*
X888826Y652699D01*
X865229D01*
X864602Y653969D01*
X864762Y654177D01*
X864776Y654181D01*
X923522D01*
X931382Y646321D01*
X930737Y645170D01*
X928397D01*
X925790Y644472D01*
X923452Y643122D01*
X921544Y641214D01*
X920194Y638876D01*
X919496Y636269D01*
Y633571D01*
X920194Y630964D01*
X921544Y628626D01*
X923452Y626718D01*
X925790Y625368D01*
X928397Y624670D01*
X931095D01*
X933702Y625368D01*
X936040Y626718D01*
X936508Y627186D01*
X937681Y626700D01*
Y485728D01*
X897227Y445273D01*
X896453Y444116D01*
X896181Y442750D01*
Y141228D01*
X745022Y-9931D01*
X118490D01*
X86035Y22523D01*
X84877Y23297D01*
X83511Y23569D01*
X73228D01*
X52773Y44023D01*
X51616Y44797D01*
X50250Y45069D01*
X46795D01*
X46542Y46339D01*
X47164Y46596D01*
X49642Y48252D01*
X51748Y50358D01*
X53404Y52836D01*
X54544Y55588D01*
X55125Y58510D01*
Y61490D01*
X54544Y64412D01*
X53404Y67164D01*
X51748Y69642D01*
X49642Y71748D01*
X47164Y73404D01*
X44412Y74544D01*
X41490Y75125D01*
X38510D01*
X35588Y74544D01*
X32836Y73404D01*
X30358Y71748D01*
X28252Y69642D01*
X26596Y67164D01*
X25456Y64412D01*
X24875Y61490D01*
Y58510D01*
X24908Y58347D01*
X23788Y57748D01*
X15422Y66113D01*
X15208Y66369D01*
X14882Y66929D01*
X14600Y67635D01*
X14377Y68499D01*
X14228Y69527D01*
X14162Y70715D01*
X14188Y72031D01*
X14540Y75222D01*
X14869Y77023D01*
X14866Y77207D01*
X15125Y78510D01*
Y81490D01*
X14544Y84412D01*
X13404Y87164D01*
X11748Y89642D01*
X9642Y91748D01*
X7164Y93404D01*
X4412Y94544D01*
X1490Y95125D01*
X-1490D01*
X-4412Y94544D01*
X-7164Y93404D01*
X-9642Y91748D01*
X-11748Y89642D01*
X-13404Y87164D01*
X-14544Y84412D01*
X-15125Y81490D01*
Y78510D01*
X-14544Y75588D01*
X-13404Y72836D01*
X-11748Y70358D01*
X-9642Y68252D01*
X-7164Y66596D01*
X-4412Y65456D01*
X-2929Y65161D01*
X-2751Y65088D01*
X1535Y64236D01*
X4991Y63400D01*
X7650Y62577D01*
X8621Y62197D01*
X9381Y61838D01*
X9889Y61533D01*
X9997Y61445D01*
X32465Y38977D01*
X33623Y38203D01*
X34989Y37931D01*
X48772D01*
X69227Y17477D01*
X70384Y16703D01*
X71750Y16431D01*
X80929D01*
X80951Y16395D01*
X80232Y15125D01*
X78510D01*
X75588Y14544D01*
X72836Y13404D01*
X70358Y11748D01*
X68252Y9642D01*
X66596Y7164D01*
X65456Y4412D01*
X64875Y1490D01*
Y-1490D01*
X65456Y-4412D01*
X66596Y-7164D01*
X68252Y-9642D01*
X70358Y-11748D01*
X72836Y-13404D01*
X75588Y-14544D01*
X78510Y-15125D01*
X81490D01*
X84412Y-14544D01*
X87164Y-13404D01*
X89642Y-11748D01*
X91748Y-9642D01*
X93404Y-7164D01*
X94544Y-4412D01*
X95125Y-1490D01*
Y1490D01*
X95092Y1653D01*
X96213Y2252D01*
X114488Y-16023D01*
X115646Y-16797D01*
X117011Y-17069D01*
X746500D01*
X747866Y-16797D01*
X749023Y-16023D01*
X902273Y137227D01*
X903047Y138384D01*
X903319Y139750D01*
Y441272D01*
X941754Y479707D01*
X942927Y479221D01*
Y440841D01*
X911727Y409640D01*
X910953Y408483D01*
X910681Y407117D01*
Y115728D01*
X774522Y-20431D01*
X61967D01*
X25898Y15637D01*
X25898Y15637D01*
X15422Y26113D01*
X15208Y26369D01*
X14882Y26929D01*
X14600Y27635D01*
X14377Y28500D01*
X14228Y29527D01*
X14162Y30715D01*
X14188Y32031D01*
X14540Y35222D01*
X14869Y37023D01*
X14866Y37207D01*
X15125Y38510D01*
Y41490D01*
X14544Y44412D01*
X13404Y47164D01*
X11748Y49642D01*
X9642Y51748D01*
X7164Y53404D01*
X4412Y54544D01*
X1490Y55125D01*
X-1490D01*
X-4412Y54544D01*
X-7164Y53404D01*
X-9642Y51748D01*
X-11748Y49642D01*
X-13404Y47164D01*
X-14544Y44412D01*
X-15125Y41490D01*
Y38510D01*
X-14544Y35588D01*
X-13404Y32836D01*
X-11748Y30358D01*
X-9642Y28252D01*
X-7164Y26596D01*
X-4412Y25456D01*
X-2929Y25161D01*
X-2751Y25088D01*
X1536Y24236D01*
X4991Y23400D01*
X7650Y22577D01*
X8621Y22197D01*
X9381Y21838D01*
X9889Y21533D01*
X9997Y21445D01*
X20852Y10590D01*
X20852Y10590D01*
X57965Y-26523D01*
X59123Y-27297D01*
X60489Y-27569D01*
X776000D01*
X777366Y-27297D01*
X778523Y-26523D01*
X916773Y111727D01*
X917547Y112884D01*
X917819Y114250D01*
Y405639D01*
X949019Y436839D01*
X949793Y437997D01*
X950064Y439363D01*
Y643325D01*
X949793Y644691D01*
X949019Y645848D01*
X927844Y667023D01*
X926687Y667797D01*
X925321Y668069D01*
X875545D01*
X875299Y668315D01*
X873645Y669000D01*
D02*
G37*
G36*
X325736Y903540D02*
X252950D01*
X251123Y903300D01*
X249420Y902595D01*
X247957Y901472D01*
X238724Y892238D01*
X237602Y890776D01*
X236896Y889073D01*
X236656Y887246D01*
Y753742D01*
X235482Y753256D01*
X225925Y762813D01*
X224767Y763587D01*
X223401Y763859D01*
X139438D01*
X125483Y777813D01*
X124326Y778587D01*
X122960Y778859D01*
X100688D01*
X100424Y778883D01*
X99797Y779042D01*
X99034Y779342D01*
X98148Y779797D01*
X97154Y780412D01*
X96098Y781163D01*
X92232Y784513D01*
X90810Y785925D01*
X90648Y786032D01*
X89642Y787038D01*
X87164Y788694D01*
X84412Y789834D01*
X83869Y789942D01*
X83994Y791212D01*
X134407D01*
X153119Y772499D01*
X153541Y771481D01*
X154807Y770215D01*
X156461Y769530D01*
X158251D01*
X159905Y770215D01*
X161171Y771481D01*
X161856Y773135D01*
Y774925D01*
X161171Y776579D01*
X159905Y777845D01*
X158887Y778267D01*
X138980Y798174D01*
X137657Y799058D01*
X136096Y799368D01*
X136096Y799368D01*
X83994D01*
X83869Y800638D01*
X84412Y800746D01*
X87164Y801886D01*
X89642Y803542D01*
X90646Y804546D01*
X90806Y804652D01*
X92148Y805976D01*
X94659Y808190D01*
X95780Y809045D01*
X96845Y809762D01*
X97831Y810331D01*
X98730Y810755D01*
X99535Y811039D01*
X100239Y811197D01*
X100430Y811212D01*
X120486D01*
X121561Y810137D01*
X121791Y809581D01*
X123057Y808315D01*
X124711Y807630D01*
X126501D01*
X128155Y808315D01*
X129421Y809581D01*
X130106Y811235D01*
Y813025D01*
X129421Y814679D01*
X128155Y815945D01*
X126675Y816558D01*
X125059Y818174D01*
X123736Y819058D01*
X122175Y819368D01*
X122175Y819368D01*
X100430D01*
X100239Y819383D01*
X99535Y819541D01*
X98730Y819825D01*
X97831Y820249D01*
X96845Y820818D01*
X95779Y821536D01*
X94659Y822390D01*
X92148Y824603D01*
X90806Y825928D01*
X90646Y826034D01*
X89642Y827038D01*
X87164Y828694D01*
X84412Y829834D01*
X81490Y830415D01*
X78510D01*
X75588Y829834D01*
X72836Y828694D01*
X70358Y827038D01*
X68252Y824932D01*
X66596Y822454D01*
X65456Y819702D01*
X64875Y816780D01*
Y813800D01*
X65456Y810878D01*
X66596Y808126D01*
X68252Y805648D01*
X70358Y803542D01*
X72836Y801886D01*
X75588Y800746D01*
X76131Y800638D01*
X76006Y799368D01*
X60430D01*
X60239Y799383D01*
X59535Y799541D01*
X58730Y799825D01*
X57831Y800249D01*
X56845Y800818D01*
X55779Y801536D01*
X54659Y802390D01*
X52148Y804603D01*
X50806Y805928D01*
X50646Y806034D01*
X49642Y807038D01*
X47164Y808694D01*
X44412Y809834D01*
X41490Y810415D01*
X38510D01*
X35588Y809834D01*
X32836Y808694D01*
X30358Y807038D01*
X28252Y804932D01*
X26596Y802454D01*
X25456Y799702D01*
X24875Y796780D01*
Y793800D01*
X25456Y790878D01*
X26596Y788126D01*
X28252Y785648D01*
X30358Y783542D01*
X32836Y781886D01*
X35588Y780746D01*
X38510Y780165D01*
X41490D01*
X44412Y780746D01*
X47164Y781886D01*
X49642Y783542D01*
X50646Y784546D01*
X50806Y784652D01*
X52148Y785976D01*
X54659Y788190D01*
X55780Y789045D01*
X56845Y789762D01*
X57831Y790331D01*
X58730Y790755D01*
X59535Y791039D01*
X60239Y791197D01*
X60430Y791212D01*
X76006D01*
X76131Y789942D01*
X75588Y789834D01*
X72836Y788694D01*
X70358Y787038D01*
X68252Y784932D01*
X66596Y782454D01*
X65456Y779702D01*
X64875Y776780D01*
Y773800D01*
X65456Y770878D01*
X66596Y768126D01*
X68252Y765648D01*
X70358Y763542D01*
X72836Y761886D01*
X75588Y760746D01*
X78510Y760165D01*
X81490D01*
X84412Y760746D01*
X87164Y761886D01*
X89642Y763542D01*
X90648Y764548D01*
X90810Y764655D01*
X92246Y766081D01*
X94894Y768465D01*
X96062Y769392D01*
X97154Y770168D01*
X98148Y770783D01*
X99034Y771238D01*
X99797Y771538D01*
X100424Y771697D01*
X100688Y771721D01*
X121482D01*
X133171Y760032D01*
X132685Y758859D01*
X60688D01*
X60424Y758883D01*
X59797Y759042D01*
X59034Y759342D01*
X58148Y759797D01*
X57154Y760412D01*
X56098Y761163D01*
X52232Y764513D01*
X50810Y765925D01*
X50648Y766032D01*
X49642Y767038D01*
X47164Y768694D01*
X44412Y769834D01*
X41490Y770415D01*
X38510D01*
X35588Y769834D01*
X32836Y768694D01*
X30358Y767038D01*
X28252Y764932D01*
X26596Y762454D01*
X25456Y759702D01*
X24875Y756780D01*
Y753800D01*
X25456Y750878D01*
X26596Y748126D01*
X28252Y745648D01*
X30358Y743542D01*
X32836Y741886D01*
X35588Y740746D01*
X38510Y740165D01*
X41490D01*
X44412Y740746D01*
X47164Y741886D01*
X49642Y743542D01*
X50648Y744548D01*
X50810Y744655D01*
X52246Y746081D01*
X54894Y748465D01*
X56062Y749392D01*
X57154Y750168D01*
X58148Y750783D01*
X59034Y751238D01*
X59797Y751538D01*
X60424Y751697D01*
X60688Y751721D01*
X218438D01*
X224076Y746083D01*
Y745735D01*
X224761Y744081D01*
X226027Y742815D01*
X227681Y742130D01*
X229471D01*
X229951Y742329D01*
X231007Y741623D01*
Y739601D01*
X230027Y739195D01*
X228761Y737929D01*
X228076Y736275D01*
Y734485D01*
X228761Y732831D01*
X230027Y731565D01*
X231681Y730880D01*
X233471D01*
X235125Y731565D01*
X235386Y731826D01*
X236656Y731300D01*
Y511942D01*
X236612Y510806D01*
X236484Y509907D01*
X235830Y509419D01*
X235022Y509302D01*
X234296Y509847D01*
X233461Y510619D01*
X193838Y550242D01*
X192376Y551365D01*
X190673Y552070D01*
X188846Y552310D01*
X144500D01*
X142673Y552070D01*
X140970Y551365D01*
X139508Y550242D01*
X138385Y548780D01*
X138298Y548569D01*
X137028Y548821D01*
Y628680D01*
X136701Y631160D01*
X135744Y633471D01*
X134221Y635455D01*
X107611Y662066D01*
X105627Y663588D01*
X103316Y664546D01*
X100836Y664872D01*
X96652D01*
X95925Y664887D01*
X93724Y665058D01*
X92868Y665176D01*
X92148Y665316D01*
X91593Y665466D01*
X91220Y665607D01*
X91046Y665701D01*
X90855Y665859D01*
X90782Y665898D01*
X89642Y667038D01*
X87164Y668694D01*
X84412Y669834D01*
X81490Y670415D01*
X78510D01*
X75588Y669834D01*
X72836Y668694D01*
X70358Y667038D01*
X68252Y664932D01*
X66596Y662454D01*
X65456Y659702D01*
X64875Y656780D01*
Y653800D01*
X65456Y650878D01*
X66596Y648126D01*
X68252Y645648D01*
X70358Y643542D01*
X72836Y641886D01*
X75588Y640746D01*
X78510Y640165D01*
X81490D01*
X84412Y640746D01*
X87164Y641886D01*
X89642Y643542D01*
X90782Y644682D01*
X90855Y644721D01*
X91046Y644879D01*
X91220Y644973D01*
X91593Y645114D01*
X92148Y645264D01*
X92808Y645392D01*
X96869Y645706D01*
X117864Y624711D01*
Y353090D01*
X118190Y350610D01*
X119148Y348299D01*
X120670Y346315D01*
X149311Y317675D01*
X151295Y316152D01*
X153606Y315194D01*
X156086Y314868D01*
X201806D01*
X204286Y315194D01*
X206597Y316152D01*
X208581Y317675D01*
X295329Y404422D01*
X296131Y404032D01*
X297128Y403248D01*
X298000Y402207D01*
X298754Y400863D01*
X299372Y399188D01*
X299833Y397169D01*
X300118Y394811D01*
X300174Y393268D01*
Y225477D01*
X298904Y224951D01*
X287230Y236624D01*
X285742Y237619D01*
X283986Y237968D01*
X123898D01*
X122143Y237619D01*
X120654Y236624D01*
X108618Y224588D01*
X85635D01*
X85382Y225858D01*
X87164Y226596D01*
X89642Y228252D01*
X91748Y230358D01*
X93404Y232836D01*
X94544Y235588D01*
X95125Y238510D01*
Y241490D01*
X94544Y244412D01*
X93404Y247164D01*
X91748Y249642D01*
X89642Y251748D01*
X87164Y253404D01*
X84412Y254544D01*
X81490Y255125D01*
X78510D01*
X75588Y254544D01*
X72836Y253404D01*
X70358Y251748D01*
X68252Y249642D01*
X66596Y247164D01*
X65456Y244412D01*
X64875Y241490D01*
Y238510D01*
X65456Y235588D01*
X66596Y232836D01*
X68252Y230358D01*
X70358Y228252D01*
X72836Y226596D01*
X74618Y225858D01*
X74365Y224588D01*
X60109D01*
X60044Y224593D01*
X59265Y224746D01*
X58419Y225015D01*
X57506Y225408D01*
X56528Y225933D01*
X55491Y226593D01*
X54420Y227375D01*
X52048Y229418D01*
X50802Y230642D01*
X50644Y230746D01*
X49642Y231748D01*
X47164Y233404D01*
X44412Y234544D01*
X41490Y235125D01*
X38510D01*
X35588Y234544D01*
X32836Y233404D01*
X30358Y231748D01*
X28252Y229642D01*
X26596Y227164D01*
X25456Y224412D01*
X24875Y221490D01*
Y218510D01*
X25456Y215588D01*
X26596Y212836D01*
X28252Y210358D01*
X30358Y208252D01*
X32836Y206596D01*
X35588Y205456D01*
X38510Y204875D01*
X41490D01*
X44412Y205456D01*
X47164Y206596D01*
X49642Y208252D01*
X50629Y209239D01*
X50772Y209329D01*
X53273Y211688D01*
X54399Y212610D01*
X55491Y213407D01*
X56528Y214067D01*
X57506Y214592D01*
X58419Y214985D01*
X59266Y215254D01*
X60044Y215407D01*
X60109Y215412D01*
X74365D01*
X74618Y214142D01*
X72836Y213404D01*
X70358Y211748D01*
X68252Y209642D01*
X66596Y207164D01*
X65456Y204412D01*
X64875Y201490D01*
Y198510D01*
X65456Y195588D01*
X66596Y192836D01*
X68252Y190358D01*
X70358Y188252D01*
X72836Y186596D01*
X75588Y185456D01*
X78510Y184875D01*
X81490D01*
X84412Y185456D01*
X87164Y186596D01*
X89642Y188252D01*
X90648Y189258D01*
X90810Y189365D01*
X92246Y190791D01*
X94894Y193175D01*
X96062Y194102D01*
X97154Y194878D01*
X98148Y195493D01*
X99034Y195948D01*
X99797Y196248D01*
X100424Y196407D01*
X100688Y196431D01*
X119022D01*
X244501Y70952D01*
X244015Y69779D01*
X203268D01*
X90523Y182523D01*
X89366Y183297D01*
X88000Y183569D01*
X60688D01*
X60424Y183593D01*
X59797Y183752D01*
X59034Y184052D01*
X58148Y184507D01*
X57154Y185122D01*
X56098Y185873D01*
X52232Y189223D01*
X50810Y190635D01*
X50648Y190742D01*
X49642Y191748D01*
X47164Y193404D01*
X44412Y194544D01*
X41490Y195125D01*
X38510D01*
X35588Y194544D01*
X32836Y193404D01*
X30358Y191748D01*
X28252Y189642D01*
X26596Y187164D01*
X25456Y184412D01*
X24875Y181490D01*
Y178510D01*
X25456Y175588D01*
X26596Y172836D01*
X28252Y170358D01*
X30358Y168252D01*
X32836Y166596D01*
X35588Y165456D01*
X38510Y164875D01*
X41490D01*
X44412Y165456D01*
X47164Y166596D01*
X49642Y168252D01*
X50648Y169258D01*
X50810Y169365D01*
X52246Y170791D01*
X54894Y173175D01*
X56062Y174102D01*
X57154Y174878D01*
X58148Y175493D01*
X59034Y175948D01*
X59797Y176248D01*
X60424Y176407D01*
X60688Y176431D01*
X86522D01*
X89750Y173203D01*
X88940Y172217D01*
X87164Y173404D01*
X84412Y174544D01*
X81490Y175125D01*
X78510D01*
X75588Y174544D01*
X72836Y173404D01*
X70358Y171748D01*
X68252Y169642D01*
X66596Y167164D01*
X65456Y164412D01*
X64875Y161490D01*
Y158510D01*
X65456Y155588D01*
X66596Y152836D01*
X68252Y150358D01*
X70358Y148252D01*
X72836Y146596D01*
X75588Y145456D01*
X78510Y144875D01*
X81490D01*
X84412Y145456D01*
X87164Y146596D01*
X89642Y148252D01*
X91748Y150358D01*
X93404Y152836D01*
X94544Y155588D01*
X95125Y158510D01*
Y161490D01*
X94544Y164412D01*
X93404Y167164D01*
X92217Y168940D01*
X93203Y169750D01*
X199267Y63687D01*
X200424Y62913D01*
X201790Y62641D01*
X508851D01*
X509376Y61371D01*
X497587Y49582D01*
X96891D01*
X95950Y49605D01*
X93749Y49796D01*
X92887Y49928D01*
X92151Y50086D01*
X91571Y50256D01*
X91158Y50422D01*
X90920Y50556D01*
X90667Y50763D01*
X90580Y50810D01*
X89642Y51748D01*
X87164Y53404D01*
X84412Y54544D01*
X81490Y55125D01*
X78510D01*
X75588Y54544D01*
X72836Y53404D01*
X70358Y51748D01*
X68252Y49642D01*
X66596Y47164D01*
X65456Y44412D01*
X64875Y41490D01*
Y38510D01*
X65456Y35588D01*
X66596Y32836D01*
X68252Y30358D01*
X70358Y28252D01*
X72836Y26596D01*
X75588Y25456D01*
X78510Y24875D01*
X81490D01*
X84412Y25456D01*
X87164Y26596D01*
X89642Y28252D01*
X90580Y29190D01*
X90667Y29237D01*
X90920Y29444D01*
X91158Y29578D01*
X91571Y29744D01*
X92151Y29914D01*
X92887Y30072D01*
X93731Y30201D01*
X96876Y30418D01*
X501556D01*
X504036Y30745D01*
X506347Y31702D01*
X508331Y33224D01*
X523541Y48435D01*
X525064Y50419D01*
X526021Y52730D01*
X526348Y55210D01*
X526021Y57690D01*
X525064Y60001D01*
X524013Y61371D01*
X524639Y62641D01*
X526812D01*
X539977Y49477D01*
X541134Y48703D01*
X542500Y48431D01*
X583000D01*
X584366Y48703D01*
X585523Y49477D01*
X608689Y72643D01*
X609463Y73800D01*
X609735Y75166D01*
Y86678D01*
X609751Y86862D01*
X609766Y86956D01*
X609916D01*
X611184Y87209D01*
X612259Y87927D01*
X612977Y89002D01*
X613230Y90270D01*
Y104770D01*
X612977Y106038D01*
X612259Y107113D01*
X611184Y107831D01*
X609916Y108084D01*
X602416D01*
X601148Y107831D01*
X600073Y107113D01*
X599355Y106038D01*
X599102Y104770D01*
Y90270D01*
X599355Y89002D01*
X600073Y87927D01*
X601148Y87209D01*
X602416Y86956D01*
X602566D01*
X602581Y86862D01*
X602597Y86678D01*
Y76644D01*
X581522Y55569D01*
X543978D01*
X533079Y66468D01*
X533565Y67641D01*
X538812D01*
X546227Y60227D01*
X547384Y59453D01*
X548750Y59181D01*
X573250D01*
X574616Y59453D01*
X575773Y60227D01*
X586037Y70490D01*
X586810Y71648D01*
X587082Y73014D01*
Y116220D01*
X602571Y131708D01*
X603090Y132191D01*
X603512Y132530D01*
X603721Y132676D01*
X609306D01*
X610574Y132929D01*
X611649Y133647D01*
X612367Y134722D01*
X612620Y135990D01*
Y150490D01*
X612367Y151758D01*
X611649Y152833D01*
X610574Y153551D01*
X609306Y153804D01*
X601806D01*
X600538Y153551D01*
X599463Y152833D01*
X598745Y151758D01*
X598492Y150490D01*
Y137905D01*
X598362Y137719D01*
X597653Y136884D01*
X580990Y120221D01*
X580217Y119063D01*
X579945Y117698D01*
Y74492D01*
X571772Y66319D01*
X550228D01*
X542813Y73733D01*
X541656Y74507D01*
X540290Y74779D01*
X366377D01*
X366174Y74907D01*
X365634Y75601D01*
X365466Y76049D01*
X365576Y76315D01*
Y76767D01*
X365664Y77210D01*
X365576Y77653D01*
Y78105D01*
X365403Y78523D01*
X365315Y78966D01*
X365064Y79342D01*
X364891Y79759D01*
X364571Y80078D01*
X364320Y80454D01*
X362840Y81934D01*
X361352Y82929D01*
X359596Y83278D01*
X338352D01*
X337866Y84452D01*
X344996Y91582D01*
X345501Y91985D01*
X346147Y92425D01*
X346813Y92802D01*
X347499Y93120D01*
X348209Y93381D01*
X348946Y93584D01*
X349714Y93731D01*
X350356Y93802D01*
X536376D01*
X559242Y70936D01*
X559617Y70685D01*
X559937Y70365D01*
X560354Y70192D01*
X560730Y69941D01*
X561174Y69853D01*
X561591Y69680D01*
X562043D01*
X562486Y69592D01*
X562929Y69680D01*
X563381D01*
X563798Y69853D01*
X564242Y69941D01*
X564618Y70192D01*
X565035Y70365D01*
X565354Y70685D01*
X565730Y70936D01*
X565981Y71311D01*
X566301Y71631D01*
X566474Y72048D01*
X566725Y72424D01*
X566813Y72867D01*
X566986Y73285D01*
Y73737D01*
X567074Y74180D01*
X566986Y74623D01*
Y75075D01*
X566813Y75493D01*
X566725Y75936D01*
X566474Y76312D01*
X566301Y76729D01*
X565981Y77049D01*
X565730Y77424D01*
X541520Y101634D01*
X540032Y102629D01*
X538276Y102978D01*
X352051D01*
X351518Y103072D01*
X351078Y103219D01*
X350755Y103392D01*
X350515Y103589D01*
X350318Y103829D01*
X350145Y104152D01*
X349998Y104592D01*
X349904Y105125D01*
Y198390D01*
X349555Y200146D01*
X348560Y201634D01*
X337070Y213124D01*
X336695Y213375D01*
X336375Y213695D01*
X335958Y213868D01*
X335582Y214119D01*
X335139Y214207D01*
X334721Y214380D01*
X334269D01*
X333826Y214468D01*
X333383Y214380D01*
X332931D01*
X332514Y214207D01*
X332070Y214119D01*
X331694Y213868D01*
X331277Y213695D01*
X330957Y213375D01*
X330582Y213124D01*
X330331Y212749D01*
X330011Y212429D01*
X329838Y212012D01*
X329587Y211636D01*
X329499Y211192D01*
X329326Y210775D01*
Y210323D01*
X329238Y209880D01*
X329326Y209437D01*
Y208985D01*
X329499Y208568D01*
X329587Y208124D01*
X329838Y207748D01*
X330011Y207331D01*
X330331Y207011D01*
X330582Y206636D01*
X340728Y196490D01*
Y103430D01*
X340657Y102788D01*
X340510Y102020D01*
X340307Y101283D01*
X340047Y100573D01*
X339728Y99887D01*
X339351Y99221D01*
X338912Y98575D01*
X338508Y98070D01*
X329372Y88934D01*
X329121Y88559D01*
X328801Y88239D01*
X328628Y87822D01*
X328377Y87446D01*
X328289Y87002D01*
X328116Y86585D01*
Y86133D01*
X328028Y85690D01*
X328116Y85247D01*
Y84795D01*
X328218Y84548D01*
X328027Y84052D01*
X327495Y83392D01*
X327311Y83278D01*
X317166D01*
X179070Y221374D01*
X178694Y221625D01*
X178375Y221945D01*
X177958Y222118D01*
X177582Y222369D01*
X177139Y222457D01*
X176721Y222630D01*
X176269D01*
X175826Y222718D01*
X175383Y222630D01*
X174931D01*
X174513Y222457D01*
X174070Y222369D01*
X173694Y222118D01*
X173277Y221945D01*
X172957Y221625D01*
X172582Y221374D01*
X172331Y220998D01*
X172011Y220679D01*
X171838Y220262D01*
X171587Y219886D01*
X171499Y219443D01*
X171326Y219025D01*
Y218573D01*
X171238Y218130D01*
X171326Y217687D01*
Y217235D01*
X171499Y216817D01*
X171587Y216374D01*
X171838Y215998D01*
X172011Y215581D01*
X172331Y215261D01*
X172582Y214886D01*
X311419Y76049D01*
X310893Y74779D01*
X250768D01*
X123023Y202523D01*
X121866Y203297D01*
X120500Y203569D01*
X100688D01*
X100424Y203593D01*
X99797Y203752D01*
X99034Y204052D01*
X98148Y204507D01*
X97154Y205122D01*
X96098Y205873D01*
X92232Y209223D01*
X90810Y210635D01*
X90648Y210742D01*
X89642Y211748D01*
X87164Y213404D01*
X85382Y214142D01*
X85635Y215412D01*
X110518D01*
X112274Y215761D01*
X113763Y216756D01*
X125799Y228792D01*
X282085D01*
X292474Y218403D01*
X294422Y216368D01*
X297108Y213219D01*
X298123Y211870D01*
X298941Y210651D01*
X299549Y209590D01*
X299949Y208708D01*
X300153Y208040D01*
X300174Y207855D01*
Y207610D01*
X300501Y205130D01*
X301458Y202819D01*
X302980Y200835D01*
X304965Y199312D01*
X307276Y198354D01*
X309756Y198028D01*
X312236Y198354D01*
X314547Y199312D01*
X316531Y200835D01*
X318054Y202819D01*
X319011Y205130D01*
X319185Y206446D01*
X361330Y248592D01*
X426210D01*
X426696Y247418D01*
X423492Y244214D01*
X422497Y242726D01*
X422148Y240970D01*
Y208394D01*
X422081Y207939D01*
X421937Y207354D01*
X421731Y206760D01*
X421459Y206154D01*
X421118Y205534D01*
X420705Y204901D01*
X420217Y204256D01*
X419651Y203599D01*
X418970Y202895D01*
X418872Y202742D01*
X417934Y201804D01*
X416486Y199296D01*
X415736Y196498D01*
Y193602D01*
X416486Y190804D01*
X417934Y188296D01*
X419982Y186248D01*
X422490Y184800D01*
X425288Y184050D01*
X428184D01*
X430982Y184800D01*
X433490Y186248D01*
X435538Y188296D01*
X436986Y190804D01*
X437736Y193602D01*
Y196498D01*
X436986Y199296D01*
X435538Y201804D01*
X434600Y202742D01*
X434502Y202895D01*
X433821Y203599D01*
X433255Y204256D01*
X432767Y204901D01*
X432354Y205534D01*
X432013Y206154D01*
X431741Y206760D01*
X431535Y207354D01*
X431391Y207939D01*
X431324Y208394D01*
Y228089D01*
X432594Y228474D01*
X432853Y228087D01*
X433928Y227369D01*
X435196Y227116D01*
X437077D01*
X437123Y227040D01*
X437239Y226756D01*
X437355Y226321D01*
X437451Y225741D01*
X437488Y225326D01*
Y221130D01*
X437576Y220687D01*
Y220235D01*
X437749Y219817D01*
X437837Y219374D01*
X438088Y218998D01*
X438261Y218581D01*
X438581Y218261D01*
X438832Y217886D01*
X439207Y217635D01*
X439527Y217315D01*
X439944Y217142D01*
X440320Y216891D01*
X440763Y216803D01*
X441181Y216630D01*
X441633D01*
X442076Y216542D01*
X442519Y216630D01*
X442971D01*
X443389Y216803D01*
X443832Y216891D01*
X444208Y217142D01*
X444625Y217315D01*
X444945Y217635D01*
X445320Y217886D01*
X445571Y218261D01*
X445891Y218581D01*
X446064Y218998D01*
X446315Y219374D01*
X446403Y219817D01*
X446576Y220235D01*
Y220687D01*
X446664Y221130D01*
Y225326D01*
X446701Y225741D01*
X446796Y226321D01*
X446913Y226756D01*
X447029Y227040D01*
X447075Y227116D01*
X449696D01*
X450964Y227369D01*
X452039Y228087D01*
X452757Y229162D01*
X453010Y230430D01*
Y237930D01*
X452757Y239198D01*
X452039Y240273D01*
X450964Y240991D01*
X449696Y241244D01*
X435294D01*
X435101Y241469D01*
X434693Y242439D01*
X436348Y244094D01*
X437271Y244951D01*
X438046Y245573D01*
X438731Y246052D01*
X438844Y246116D01*
X449696D01*
X450964Y246369D01*
X451580Y246780D01*
X451597Y246786D01*
X451622Y246808D01*
X452039Y247087D01*
X452181Y247299D01*
X452194Y247311D01*
X452424Y247611D01*
X452599Y247787D01*
X452811Y247952D01*
X453069Y248107D01*
X453384Y248251D01*
X453761Y248380D01*
X453876Y248408D01*
X453991Y248380D01*
X454368Y248251D01*
X454683Y248107D01*
X454941Y247952D01*
X455153Y247787D01*
X455328Y247611D01*
X455558Y247311D01*
X455571Y247299D01*
X455713Y247087D01*
X456129Y246808D01*
X456155Y246786D01*
X456172Y246780D01*
X456788Y246369D01*
X458056Y246116D01*
X472556D01*
X473824Y246369D01*
X474899Y247087D01*
X475617Y248162D01*
X475870Y249430D01*
Y256930D01*
X475617Y258198D01*
X474899Y259273D01*
X473824Y259991D01*
X472556Y260244D01*
X458056D01*
X456788Y259991D01*
X456172Y259580D01*
X456155Y259574D01*
X456130Y259552D01*
X455713Y259273D01*
X455571Y259060D01*
X455558Y259049D01*
X455328Y258749D01*
X455153Y258573D01*
X454941Y258408D01*
X454683Y258253D01*
X454368Y258109D01*
X453991Y257980D01*
X453876Y257952D01*
X453761Y257980D01*
X453384Y258109D01*
X453069Y258253D01*
X452811Y258408D01*
X452599Y258573D01*
X452424Y258749D01*
X452194Y259049D01*
X452181Y259060D01*
X452039Y259273D01*
X451623Y259551D01*
X451597Y259574D01*
X451580Y259580D01*
X450964Y259991D01*
X449696Y260244D01*
X435196D01*
X433928Y259991D01*
X433312Y259580D01*
X433295Y259574D01*
X433270Y259552D01*
X432853Y259273D01*
X432711Y259060D01*
X432698Y259049D01*
X432468Y258749D01*
X432293Y258573D01*
X432081Y258408D01*
X431823Y258253D01*
X431508Y258109D01*
X431131Y257980D01*
X430687Y257872D01*
X430175Y257790D01*
X429934Y257768D01*
X359430D01*
X357674Y257419D01*
X356186Y256424D01*
X320511Y220750D01*
X319338Y221236D01*
Y414620D01*
Y733390D01*
Y760544D01*
X319436Y762403D01*
X319838Y764683D01*
X320485Y766623D01*
X321358Y768246D01*
X322455Y769586D01*
X323796Y770683D01*
X325418Y771556D01*
X327358Y772203D01*
X329638Y772605D01*
X331497Y772703D01*
X449932D01*
X518881Y703755D01*
X520865Y702232D01*
X523176Y701275D01*
X525656Y700948D01*
X528136Y701275D01*
X530447Y702232D01*
X532431Y703755D01*
X533954Y705739D01*
X534911Y708050D01*
X535238Y710530D01*
X534911Y713010D01*
X533954Y715321D01*
X532431Y717306D01*
X460676Y789060D01*
X458692Y790583D01*
X456381Y791541D01*
X453901Y791867D01*
X453359D01*
X453023Y792180D01*
X452684Y792891D01*
X452667Y793247D01*
X453022Y793875D01*
X454068Y795306D01*
X455526Y797006D01*
X456039Y797542D01*
X529625Y871128D01*
X532006D01*
X534486Y871454D01*
X536797Y872412D01*
X538781Y873934D01*
X540304Y875919D01*
X541261Y878230D01*
X541588Y880710D01*
X541261Y883190D01*
X540304Y885501D01*
X539246Y886880D01*
X539873Y888150D01*
X597132D01*
X648136Y837145D01*
Y691864D01*
X612901Y656630D01*
X379991D01*
X370156Y666464D01*
Y697830D01*
X369916Y699657D01*
X369211Y701360D01*
X368088Y702822D01*
X366626Y703944D01*
X364923Y704650D01*
X363096Y704890D01*
X361269Y704650D01*
X359566Y703944D01*
X358104Y702822D01*
X356982Y701360D01*
X356276Y699657D01*
X356036Y697830D01*
Y663540D01*
X356276Y661713D01*
X356982Y660010D01*
X358104Y658548D01*
X372074Y644578D01*
X373536Y643456D01*
X375239Y642750D01*
X377066Y642510D01*
X565194D01*
X565518Y637620D01*
Y633850D01*
X565867Y632094D01*
X566862Y630606D01*
X604832Y592636D01*
X605207Y592385D01*
X605527Y592065D01*
X605945Y591892D01*
X606320Y591641D01*
X606763Y591553D01*
X607181Y591380D01*
X607633D01*
X608076Y591292D01*
X608519Y591380D01*
X608971D01*
X609389Y591553D01*
X609832Y591641D01*
X610207Y591892D01*
X610625Y592065D01*
X610945Y592385D01*
X611320Y592636D01*
X611571Y593011D01*
X611891Y593331D01*
X612064Y593749D01*
X612315Y594124D01*
X612403Y594567D01*
X612576Y594985D01*
Y595437D01*
X612664Y595880D01*
X612576Y596323D01*
Y596775D01*
X612403Y597193D01*
X612315Y597636D01*
X612064Y598012D01*
X611891Y598429D01*
X611571Y598749D01*
X611320Y599124D01*
X574694Y635751D01*
Y638196D01*
X574808Y641518D01*
X574903Y642510D01*
X615826D01*
X617653Y642750D01*
X619356Y643456D01*
X620818Y644578D01*
X660188Y683948D01*
X661311Y685410D01*
X662016Y687113D01*
X662256Y688940D01*
Y840070D01*
X662016Y841897D01*
X661311Y843600D01*
X660188Y845062D01*
X605048Y900202D01*
X603586Y901324D01*
X601883Y902030D01*
X600056Y902270D01*
X519650D01*
X517823Y902030D01*
X516120Y901324D01*
X514658Y900202D01*
X451425Y836970D01*
X395230D01*
X330728Y901472D01*
X329266Y902595D01*
X327563Y903300D01*
X325736Y903540D01*
D02*
G37*
G36*
X782000Y675858D02*
X775500D01*
X773354Y675431D01*
X771535Y674215D01*
X753927Y656608D01*
X748859D01*
X748333Y657878D01*
X748427Y657972D01*
X749349Y659568D01*
X749826Y661348D01*
Y663192D01*
X749349Y664972D01*
X748427Y666568D01*
X747124Y667871D01*
X745528Y668793D01*
X743748Y669270D01*
X741904D01*
X740124Y668793D01*
X738528Y667871D01*
X737225Y666568D01*
X736303Y664972D01*
X735826Y663192D01*
Y661348D01*
X736303Y659568D01*
X737225Y657972D01*
X737319Y657878D01*
X736793Y656608D01*
X725750D01*
X723604Y656181D01*
X721785Y654965D01*
X703285Y636465D01*
X702069Y634646D01*
X701642Y632500D01*
Y605823D01*
X652427Y556608D01*
X625750D01*
X623604Y556181D01*
X621785Y554965D01*
X529785Y462965D01*
X528569Y461146D01*
X528142Y459000D01*
Y437000D01*
X528569Y434854D01*
X529785Y433035D01*
X531604Y431819D01*
X533750Y431392D01*
X535896Y431819D01*
X537715Y433035D01*
X538931Y434854D01*
X539358Y437000D01*
Y456677D01*
X560325Y477645D01*
X561496Y477019D01*
X561392Y476500D01*
X561819Y474354D01*
X563035Y472535D01*
X564854Y471319D01*
X567000Y470892D01*
X569146Y471319D01*
X570965Y472535D01*
X627823Y529392D01*
X658478D01*
X660624Y529819D01*
X662443Y531035D01*
X686508Y555100D01*
X687681Y554614D01*
Y540861D01*
X682648Y535828D01*
X682300D01*
X680646Y535143D01*
X679380Y533877D01*
X678695Y532223D01*
Y530433D01*
X679380Y528779D01*
X680646Y527513D01*
X682300Y526828D01*
X684090D01*
X685744Y527513D01*
X687010Y528779D01*
X687695Y530433D01*
Y530771D01*
X687764Y530850D01*
X693773Y536860D01*
X694547Y538018D01*
X694819Y539383D01*
Y556394D01*
X758049Y619625D01*
X758823Y620783D01*
X759095Y622149D01*
Y628750D01*
X759341Y628996D01*
X760026Y630650D01*
Y632440D01*
X759341Y634094D01*
X758625Y634810D01*
X759151Y636081D01*
X768053D01*
X770199Y636507D01*
X772018Y637723D01*
X791509Y657214D01*
X792725Y659034D01*
X793152Y661180D01*
X792725Y663326D01*
X791509Y665145D01*
X789690Y666360D01*
X787795Y666737D01*
X787032Y667882D01*
X787181Y668104D01*
X787608Y670250D01*
X787181Y672396D01*
X785965Y674215D01*
X784146Y675431D01*
X782000Y675858D01*
D02*
G37*
G36*
X328721Y751130D02*
X326931D01*
X325277Y750445D01*
X324011Y749179D01*
X323326Y747525D01*
Y745735D01*
X324011Y744081D01*
X325277Y742815D01*
X326931Y742130D01*
X327666D01*
X328261Y740929D01*
X327576Y739275D01*
Y737485D01*
X328261Y735831D01*
X328500Y735592D01*
X328507Y735487D01*
Y656674D01*
X328779Y655308D01*
X329553Y654151D01*
X363597Y620107D01*
X364754Y619333D01*
X366120Y619061D01*
X553598D01*
X600803Y571857D01*
X601960Y571083D01*
X603326Y570811D01*
X635969D01*
X637301Y570260D01*
X639091D01*
X640745Y570945D01*
X642011Y572211D01*
X642696Y573865D01*
Y575655D01*
X642011Y577309D01*
X641932Y577388D01*
X642418Y578561D01*
X649191D01*
X650836Y577880D01*
X652626D01*
X654280Y578565D01*
X655546Y579831D01*
X656231Y581485D01*
Y583275D01*
X655546Y584929D01*
X654280Y586195D01*
X652626Y586880D01*
X650836D01*
X649182Y586195D01*
X648687Y585700D01*
X648667Y585699D01*
X605304D01*
X557099Y633903D01*
X555942Y634677D01*
X554576Y634949D01*
X372098D01*
X354445Y652601D01*
Y730873D01*
X354174Y732239D01*
X353400Y733397D01*
X338026Y748771D01*
X336868Y749544D01*
X335503Y749816D01*
X331004D01*
X330375Y750445D01*
X328721Y751130D01*
D02*
G37*
G36*
X868826Y467968D02*
X868383Y467880D01*
X867931D01*
X867513Y467707D01*
X867070Y467619D01*
X866694Y467368D01*
X866277Y467195D01*
X865957Y466875D01*
X865582Y466624D01*
X865331Y466249D01*
X865011Y465929D01*
X864838Y465512D01*
X864587Y465136D01*
X864499Y464693D01*
X864326Y464275D01*
Y463823D01*
X864238Y463380D01*
Y391390D01*
X837372Y364524D01*
X837121Y364148D01*
X836801Y363829D01*
X836628Y363412D01*
X836377Y363036D01*
X836289Y362593D01*
X836116Y362175D01*
Y361723D01*
X836028Y361280D01*
X836116Y360837D01*
Y360385D01*
X836289Y359967D01*
X836377Y359524D01*
X836628Y359148D01*
X836801Y358731D01*
X837121Y358411D01*
X837372Y358036D01*
X837747Y357785D01*
X838067Y357465D01*
X838484Y357292D01*
X838860Y357041D01*
X839304Y356953D01*
X839721Y356780D01*
X840173D01*
X840616Y356692D01*
X841059Y356780D01*
X841511D01*
X841928Y356953D01*
X842372Y357041D01*
X842748Y357292D01*
X843165Y357465D01*
X843484Y357785D01*
X843860Y358036D01*
X872070Y386246D01*
X873065Y387734D01*
X873414Y389490D01*
Y463380D01*
X873326Y463823D01*
Y464275D01*
X873153Y464693D01*
X873065Y465136D01*
X872814Y465512D01*
X872641Y465929D01*
X872321Y466249D01*
X872070Y466624D01*
X871694Y466875D01*
X871375Y467195D01*
X870958Y467368D01*
X870582Y467619D01*
X870139Y467707D01*
X869721Y467880D01*
X869269D01*
X868826Y467968D01*
D02*
G37*
G36*
X35436Y415330D02*
X33609Y415090D01*
X31906Y414384D01*
X30444Y413262D01*
X29321Y411800D01*
X28616Y410097D01*
X28376Y408270D01*
X28616Y406443D01*
X29321Y404740D01*
X30444Y403278D01*
X33456Y400266D01*
Y380149D01*
X33429Y379092D01*
X33291Y377448D01*
X33068Y376046D01*
X32774Y374897D01*
X32428Y374008D01*
X32061Y373378D01*
X31763Y373040D01*
X31604D01*
X30204Y372762D01*
X29017Y371969D01*
X28224Y370782D01*
X27946Y369383D01*
Y359857D01*
X28224Y358458D01*
X29017Y357271D01*
X30204Y356478D01*
X31604Y356200D01*
X49429D01*
X50828Y356478D01*
X52015Y357271D01*
X52808Y358458D01*
X53086Y359857D01*
Y369383D01*
X52808Y370782D01*
X52015Y371969D01*
X50828Y372762D01*
X49429Y373040D01*
X49269D01*
X48971Y373378D01*
X48604Y374008D01*
X48258Y374897D01*
X47964Y376046D01*
X47741Y377448D01*
X47603Y379092D01*
X47576Y380149D01*
Y403190D01*
X47336Y405017D01*
X46631Y406720D01*
X45508Y408182D01*
X40428Y413262D01*
X38966Y414384D01*
X37263Y415090D01*
X35436Y415330D01*
D02*
G37*
G36*
X41490Y730415D02*
X38510D01*
X35588Y729834D01*
X32836Y728694D01*
X30358Y727038D01*
X28252Y724932D01*
X26596Y722454D01*
X25456Y719702D01*
X24875Y716780D01*
Y715383D01*
X24837Y715219D01*
X24736Y711782D01*
X24592Y710334D01*
X24384Y708998D01*
X24118Y707798D01*
X23797Y706736D01*
X23430Y705811D01*
X23021Y705023D01*
X22580Y704364D01*
X22537Y704315D01*
X16006Y697784D01*
X15011Y696296D01*
X14662Y694540D01*
Y664250D01*
X15011Y662494D01*
X16006Y661006D01*
X24756Y652256D01*
X26244Y651261D01*
X28000Y650912D01*
X34872D01*
X35125Y649642D01*
X32836Y648694D01*
X30358Y647038D01*
X28252Y644932D01*
X26596Y642454D01*
X25456Y639702D01*
X24875Y636780D01*
Y633800D01*
X25456Y630878D01*
X26596Y628126D01*
X28252Y625648D01*
X30358Y623542D01*
X32836Y621886D01*
X35588Y620746D01*
X38510Y620165D01*
X41490D01*
X44412Y620746D01*
X47164Y621886D01*
X49642Y623542D01*
X51748Y625648D01*
X53404Y628126D01*
X54544Y630878D01*
X55125Y633800D01*
Y636780D01*
X54544Y639702D01*
X54212Y640504D01*
X55288Y641223D01*
X66256Y630256D01*
X67744Y629261D01*
X69500Y628912D01*
X70876D01*
X71262Y627642D01*
X70358Y627038D01*
X68252Y624932D01*
X66596Y622454D01*
X65456Y619702D01*
X64875Y616780D01*
Y615383D01*
X64837Y615220D01*
X64805Y614145D01*
X64696Y613178D01*
X64507Y612238D01*
X64240Y611320D01*
X63893Y610420D01*
X63464Y609536D01*
X62950Y608664D01*
X62348Y607804D01*
X61656Y606955D01*
X61294Y606568D01*
X12008Y557282D01*
X10886Y555820D01*
X10180Y554117D01*
X9940Y552290D01*
Y344286D01*
X10180Y342459D01*
X10886Y340756D01*
X12008Y339294D01*
X22260Y329041D01*
X22596Y328693D01*
X24538Y326403D01*
X25331Y325322D01*
X26037Y324240D01*
X26645Y323180D01*
X27157Y322141D01*
X27574Y321124D01*
X27899Y320128D01*
X28155Y319071D01*
X28167Y319044D01*
X28224Y318758D01*
X28470Y318390D01*
X28489Y318349D01*
X28511Y318328D01*
X28719Y318016D01*
X28727Y317994D01*
X28755Y317964D01*
X29017Y317571D01*
X29244Y317420D01*
X29259Y317402D01*
X30077Y316791D01*
X30722Y316186D01*
X31289Y315519D01*
X31783Y314784D01*
X32207Y313973D01*
X32561Y313079D01*
X32842Y312094D01*
X33048Y311015D01*
X33175Y309840D01*
X33198Y309163D01*
Y279508D01*
X33180Y278968D01*
X33067Y277882D01*
X32882Y276854D01*
X32626Y275882D01*
X32300Y274963D01*
X31905Y274094D01*
X31439Y273269D01*
X30902Y272487D01*
X30289Y271743D01*
X29540Y270977D01*
X29452Y270842D01*
X28252Y269642D01*
X26596Y267164D01*
X25456Y264412D01*
X24875Y261490D01*
Y258510D01*
X25456Y255588D01*
X26596Y252836D01*
X28252Y250358D01*
X30358Y248252D01*
X32836Y246596D01*
X35588Y245456D01*
X38510Y244875D01*
X41490D01*
X44412Y245456D01*
X47164Y246596D01*
X49642Y248252D01*
X51748Y250358D01*
X53404Y252836D01*
X54544Y255588D01*
X55125Y258510D01*
Y261490D01*
X54544Y264412D01*
X53404Y267164D01*
X51748Y269642D01*
X50957Y270433D01*
X50881Y270560D01*
X50155Y271361D01*
X49557Y272138D01*
X49032Y272951D01*
X48577Y273802D01*
X48191Y274696D01*
X47873Y275636D01*
X47624Y276623D01*
X47444Y277662D01*
X47335Y278755D01*
X47318Y279274D01*
Y309379D01*
X47345Y310421D01*
X47483Y312041D01*
X47704Y313419D01*
X47997Y314545D01*
X48341Y315412D01*
X48703Y316024D01*
X49051Y316409D01*
X49183Y316500D01*
X49429D01*
X50828Y316778D01*
X52015Y317571D01*
X52808Y318758D01*
X53086Y320158D01*
Y329683D01*
X52808Y331082D01*
X52015Y332269D01*
X50828Y333062D01*
X49429Y333340D01*
X39443D01*
X38313Y333986D01*
X36857Y334996D01*
X33379Y337930D01*
X32295Y338976D01*
X24060Y347211D01*
Y549366D01*
X71278Y596584D01*
X71665Y596946D01*
X72514Y597638D01*
X73374Y598240D01*
X74246Y598754D01*
X75130Y599183D01*
X76030Y599530D01*
X76948Y599797D01*
X77888Y599986D01*
X78854Y600095D01*
X79930Y600127D01*
X80093Y600165D01*
X81490D01*
X84412Y600746D01*
X87164Y601886D01*
X89642Y603542D01*
X91748Y605648D01*
X93404Y608126D01*
X94544Y610878D01*
X95125Y613800D01*
Y616780D01*
X94544Y619702D01*
X93404Y622454D01*
X91748Y624932D01*
X89835Y626845D01*
X89903Y627661D01*
X90142Y628231D01*
X90253Y628259D01*
X101412Y617099D01*
Y343750D01*
X101761Y341994D01*
X102756Y340506D01*
X144506Y298756D01*
X145994Y297761D01*
X147750Y297412D01*
X212376D01*
X214132Y297761D01*
X215620Y298756D01*
X291410Y374546D01*
X291661Y374921D01*
X291981Y375241D01*
X292154Y375658D01*
X292405Y376034D01*
X292493Y376477D01*
X292666Y376895D01*
Y377347D01*
X292754Y377790D01*
X292666Y378233D01*
Y378685D01*
X292493Y379103D01*
X292405Y379546D01*
X292154Y379921D01*
X291981Y380339D01*
X291661Y380659D01*
X291410Y381034D01*
X291035Y381285D01*
X290715Y381605D01*
X290298Y381778D01*
X289922Y382029D01*
X289479Y382117D01*
X289061Y382290D01*
X288609D01*
X288166Y382378D01*
X287723Y382290D01*
X287271D01*
X286853Y382117D01*
X286410Y382029D01*
X286035Y381778D01*
X285617Y381605D01*
X285297Y381285D01*
X284922Y381034D01*
X210476Y306588D01*
X149650D01*
X110588Y345650D01*
Y619000D01*
X110239Y620756D01*
X109244Y622244D01*
X94744Y636744D01*
X93256Y637739D01*
X91500Y638088D01*
X71400D01*
X50744Y658744D01*
X49256Y659739D01*
X47500Y660088D01*
X46142D01*
X45889Y661358D01*
X47164Y661886D01*
X49642Y663542D01*
X51748Y665648D01*
X53404Y668126D01*
X54544Y670878D01*
X55125Y673800D01*
Y676780D01*
X54544Y679702D01*
X53404Y682454D01*
X51748Y684932D01*
X49642Y687038D01*
X47164Y688694D01*
X44412Y689834D01*
X41490Y690415D01*
X38510D01*
X35588Y689834D01*
X32836Y688694D01*
X30358Y687038D01*
X28252Y684932D01*
X26596Y682454D01*
X25456Y679702D01*
X25108Y677952D01*
X23838Y678077D01*
Y692639D01*
X29025Y697827D01*
X29074Y697869D01*
X29733Y698311D01*
X30521Y698719D01*
X31446Y699087D01*
X32508Y699408D01*
X33708Y699674D01*
X35018Y699878D01*
X38140Y700111D01*
X39887Y700126D01*
X40072Y700165D01*
X41490D01*
X44412Y700746D01*
X47164Y701886D01*
X49642Y703542D01*
X51748Y705648D01*
X53404Y708126D01*
X54544Y710878D01*
X55125Y713800D01*
Y716780D01*
X54544Y719702D01*
X53404Y722454D01*
X51748Y724932D01*
X49642Y727038D01*
X47164Y728694D01*
X44412Y729834D01*
X41490Y730415D01*
D02*
G37*
G36*
X95125Y295125D02*
X64875D01*
Y264875D01*
X95125D01*
Y295125D01*
D02*
G37*
G36*
X1490Y670415D02*
X-1490D01*
X-4412Y669834D01*
X-7164Y668694D01*
X-9642Y667038D01*
X-11748Y664932D01*
X-13404Y662454D01*
X-14544Y659702D01*
X-15125Y656780D01*
Y653800D01*
X-14544Y650878D01*
X-13404Y648126D01*
X-12104Y646180D01*
Y624400D01*
X-13404Y622454D01*
X-14544Y619702D01*
X-15125Y616780D01*
Y615591D01*
X-16302Y614413D01*
X-18226Y611907D01*
X-19435Y608987D01*
X-19848Y605855D01*
Y289435D01*
X-19435Y286303D01*
X-18226Y283384D01*
X-16302Y280877D01*
X-15125Y279699D01*
Y278510D01*
X-14544Y275588D01*
X-13404Y272836D01*
X-11748Y270358D01*
X-9642Y268252D01*
X-7164Y266596D01*
X-4412Y265456D01*
X-1490Y264875D01*
X1490D01*
X4412Y265456D01*
X7164Y266596D01*
X9642Y268252D01*
X11748Y270358D01*
X13404Y272836D01*
X14544Y275588D01*
X15125Y278510D01*
Y281490D01*
X14544Y284412D01*
X13404Y287164D01*
X11748Y289642D01*
X9642Y291748D01*
X7164Y293404D01*
X4412Y294544D01*
X4360Y294554D01*
Y600736D01*
X4412Y600746D01*
X7164Y601886D01*
X9642Y603542D01*
X11748Y605648D01*
X13404Y608126D01*
X14544Y610878D01*
X15125Y613800D01*
Y616780D01*
X14544Y619702D01*
X13404Y622454D01*
X12104Y624400D01*
Y646180D01*
X13404Y648126D01*
X14544Y650878D01*
X15125Y653800D01*
Y656780D01*
X14544Y659702D01*
X13404Y662454D01*
X11748Y664932D01*
X9642Y667038D01*
X7164Y668694D01*
X4412Y669834D01*
X1490Y670415D01*
D02*
G37*
G36*
X472556Y241244D02*
X458056D01*
X456788Y240991D01*
X455713Y240273D01*
X454995Y239198D01*
X454742Y237930D01*
Y230430D01*
X454995Y229162D01*
X455713Y228087D01*
X456788Y227369D01*
X458056Y227116D01*
X460307D01*
X460354Y227040D01*
X460469Y226756D01*
X460586Y226321D01*
X460681Y225741D01*
X460718Y225326D01*
Y223400D01*
X461067Y221644D01*
X462062Y220156D01*
X463832Y218386D01*
X464207Y218135D01*
X464527Y217815D01*
X464944Y217642D01*
X465320Y217391D01*
X465763Y217303D01*
X466181Y217130D01*
X466633D01*
X467076Y217042D01*
X467519Y217130D01*
X467971D01*
X468389Y217303D01*
X468832Y217391D01*
X469207Y217642D01*
X469625Y217815D01*
X469945Y218135D01*
X470320Y218386D01*
X470571Y218761D01*
X470891Y219081D01*
X471064Y219499D01*
X471315Y219874D01*
X471403Y220317D01*
X471576Y220735D01*
Y221187D01*
X471664Y221630D01*
X471576Y222073D01*
Y222525D01*
X471403Y222943D01*
X471315Y223386D01*
X471064Y223762D01*
X470891Y224179D01*
X470571Y224499D01*
X470320Y224874D01*
X469894Y225301D01*
Y225326D01*
X469931Y225741D01*
X470027Y226321D01*
X470143Y226756D01*
X470259Y227040D01*
X470305Y227116D01*
X472556D01*
X473824Y227369D01*
X474899Y228087D01*
X475617Y229162D01*
X475870Y230430D01*
Y237930D01*
X475617Y239198D01*
X474899Y240273D01*
X473824Y240991D01*
X472556Y241244D01*
D02*
G37*
G36*
X1490Y215125D02*
X-1490D01*
X-4412Y214544D01*
X-7164Y213404D01*
X-9642Y211748D01*
X-11748Y209642D01*
X-13404Y207164D01*
X-14544Y204412D01*
X-15125Y201490D01*
Y198510D01*
X-14544Y195588D01*
X-13404Y192836D01*
X-11748Y190358D01*
X-9642Y188252D01*
X-7164Y186596D01*
X-4412Y185456D01*
X-1490Y184875D01*
X1490D01*
X4412Y185456D01*
X7164Y186596D01*
X9642Y188252D01*
X11748Y190358D01*
X13404Y192836D01*
X14544Y195588D01*
X15125Y198510D01*
Y201490D01*
X14544Y204412D01*
X13404Y207164D01*
X11748Y209642D01*
X9642Y211748D01*
X7164Y213404D01*
X4412Y214544D01*
X1490Y215125D01*
D02*
G37*
G36*
X844641Y584880D02*
X842851D01*
X841197Y584195D01*
X839931Y582929D01*
X839246Y581275D01*
Y579485D01*
X839931Y577831D01*
X840170Y577592D01*
X840177Y577487D01*
Y571528D01*
X792803Y524153D01*
X792029Y522996D01*
X791757Y521630D01*
Y403054D01*
X541402Y152699D01*
X402554D01*
X399826Y155427D01*
Y155775D01*
X399141Y157429D01*
X397875Y158695D01*
X396221Y159380D01*
X394431D01*
X392777Y158695D01*
X391511Y157429D01*
X390826Y155775D01*
Y153985D01*
X391511Y152331D01*
X392777Y151065D01*
X394431Y150380D01*
X394769D01*
X394848Y150311D01*
X398553Y146607D01*
X399710Y145833D01*
X401076Y145561D01*
X542880D01*
X544246Y145833D01*
X545403Y146607D01*
X797849Y399053D01*
X798623Y400210D01*
X798895Y401576D01*
Y520152D01*
X846269Y567527D01*
X847043Y568684D01*
X847315Y570050D01*
Y577585D01*
X847561Y577831D01*
X848246Y579485D01*
Y581275D01*
X847561Y582929D01*
X846295Y584195D01*
X844641Y584880D01*
D02*
G37*
G36*
X1490Y175125D02*
X-1490D01*
X-4412Y174544D01*
X-7164Y173404D01*
X-9642Y171748D01*
X-11748Y169642D01*
X-13404Y167164D01*
X-14544Y164412D01*
X-15125Y161490D01*
Y158510D01*
X-14544Y155588D01*
X-13404Y152836D01*
X-11748Y150358D01*
X-9642Y148252D01*
X-7164Y146596D01*
X-4412Y145456D01*
X-1490Y144875D01*
X1490D01*
X4412Y145456D01*
X7164Y146596D01*
X9642Y148252D01*
X11748Y150358D01*
X13404Y152836D01*
X14544Y155588D01*
X15125Y158510D01*
Y161490D01*
X14544Y164412D01*
X13404Y167164D01*
X11748Y169642D01*
X9642Y171748D01*
X7164Y173404D01*
X4412Y174544D01*
X1490Y175125D01*
D02*
G37*
G36*
X41490Y155125D02*
X38510D01*
X35588Y154544D01*
X32836Y153404D01*
X30358Y151748D01*
X28252Y149642D01*
X26596Y147164D01*
X25456Y144412D01*
X24875Y141490D01*
Y138510D01*
X25456Y135588D01*
X26596Y132836D01*
X28252Y130358D01*
X30358Y128252D01*
X32836Y126596D01*
X35588Y125456D01*
X38510Y124875D01*
X41490D01*
X44412Y125456D01*
X47164Y126596D01*
X49642Y128252D01*
X51748Y130358D01*
X53404Y132836D01*
X54544Y135588D01*
X55125Y138510D01*
Y141490D01*
X54544Y144412D01*
X53404Y147164D01*
X51748Y149642D01*
X49642Y151748D01*
X47164Y153404D01*
X44412Y154544D01*
X41490Y155125D01*
D02*
G37*
G36*
X885961Y585490D02*
X884171D01*
X882517Y584805D01*
X881251Y583539D01*
X880566Y581885D01*
Y580095D01*
X881251Y578441D01*
X881490Y578202D01*
X881497Y578097D01*
Y560848D01*
X820477Y499827D01*
X819703Y498670D01*
X819431Y497304D01*
Y397478D01*
X545402Y123449D01*
X400304D01*
X396076Y127677D01*
Y128025D01*
X395391Y129679D01*
X394125Y130945D01*
X392999Y131411D01*
X393251Y132681D01*
X543250D01*
X544616Y132953D01*
X545773Y133727D01*
X810849Y398803D01*
X811623Y399960D01*
X811895Y401326D01*
Y502652D01*
X839329Y530087D01*
X840103Y531244D01*
X840375Y532610D01*
Y545175D01*
X840621Y545421D01*
X841306Y547075D01*
Y548865D01*
X840621Y550519D01*
X839355Y551785D01*
X837701Y552470D01*
X835911D01*
X834257Y551785D01*
X832991Y550519D01*
X832306Y548865D01*
Y547075D01*
X832991Y545421D01*
X833230Y545182D01*
X833237Y545077D01*
Y534088D01*
X805803Y506653D01*
X805029Y505496D01*
X804757Y504130D01*
Y402804D01*
X541772Y139819D01*
X370434D01*
X366326Y143927D01*
Y144275D01*
X365641Y145929D01*
X364375Y147195D01*
X362721Y147880D01*
X360931D01*
X359277Y147195D01*
X358011Y145929D01*
X357326Y144275D01*
Y142485D01*
X358011Y140831D01*
X359277Y139565D01*
X360931Y138880D01*
X361269D01*
X361348Y138811D01*
X366433Y133727D01*
X367590Y132953D01*
X368956Y132681D01*
X389901D01*
X390153Y131411D01*
X389027Y130945D01*
X387761Y129679D01*
X387076Y128025D01*
Y126235D01*
X387761Y124581D01*
X389027Y123315D01*
X390681Y122630D01*
X391019D01*
X391098Y122561D01*
X396303Y117357D01*
X397460Y116583D01*
X398826Y116311D01*
X546880D01*
X548246Y116583D01*
X549403Y117357D01*
X825523Y393477D01*
X826297Y394634D01*
X826569Y396000D01*
Y495826D01*
X887589Y556847D01*
X888363Y558004D01*
X888635Y559370D01*
Y578195D01*
X888881Y578441D01*
X889566Y580095D01*
Y581885D01*
X888881Y583539D01*
X887615Y584805D01*
X885961Y585490D01*
D02*
G37*
G36*
X81490Y135125D02*
X78510D01*
X75588Y134544D01*
X72836Y133404D01*
X70358Y131748D01*
X68252Y129642D01*
X66596Y127164D01*
X65456Y124412D01*
X64875Y121490D01*
Y118510D01*
X65456Y115588D01*
X66596Y112836D01*
X68252Y110358D01*
X70358Y108252D01*
X72836Y106596D01*
X75588Y105456D01*
X78510Y104875D01*
X81490D01*
X84412Y105456D01*
X87164Y106596D01*
X89642Y108252D01*
X91748Y110358D01*
X93404Y112836D01*
X94544Y115588D01*
X95125Y118510D01*
Y121490D01*
X94544Y124412D01*
X93404Y127164D01*
X91748Y129642D01*
X89642Y131748D01*
X87164Y133404D01*
X84412Y134544D01*
X81490Y135125D01*
D02*
G37*
G36*
X1490D02*
X-1490D01*
X-4412Y134544D01*
X-7164Y133404D01*
X-9642Y131748D01*
X-11748Y129642D01*
X-13404Y127164D01*
X-14544Y124412D01*
X-15125Y121490D01*
Y118510D01*
X-14544Y115588D01*
X-13404Y112836D01*
X-11748Y110358D01*
X-9642Y108252D01*
X-7164Y106596D01*
X-4412Y105456D01*
X-1490Y104875D01*
X1490D01*
X4412Y105456D01*
X7164Y106596D01*
X9642Y108252D01*
X11748Y110358D01*
X13404Y112836D01*
X14544Y115588D01*
X15125Y118510D01*
Y121490D01*
X14544Y124412D01*
X13404Y127164D01*
X11748Y129642D01*
X9642Y131748D01*
X7164Y133404D01*
X4412Y134544D01*
X1490Y135125D01*
D02*
G37*
G36*
X41490Y115125D02*
X38510D01*
X35588Y114544D01*
X32836Y113404D01*
X30358Y111748D01*
X28252Y109642D01*
X26596Y107164D01*
X25456Y104412D01*
X24875Y101490D01*
Y98510D01*
X25456Y95588D01*
X26596Y92836D01*
X28252Y90358D01*
X30358Y88252D01*
X32836Y86596D01*
X35588Y85456D01*
X38510Y84875D01*
X41490D01*
X44412Y85456D01*
X47164Y86596D01*
X49642Y88252D01*
X51748Y90358D01*
X53404Y92836D01*
X54544Y95588D01*
X55125Y98510D01*
Y101490D01*
X54544Y104412D01*
X53404Y107164D01*
X51748Y109642D01*
X49642Y111748D01*
X47164Y113404D01*
X44412Y114544D01*
X41490Y115125D01*
D02*
G37*
G36*
X81490Y95125D02*
X78510D01*
X75588Y94544D01*
X72836Y93404D01*
X70358Y91748D01*
X68252Y89642D01*
X66596Y87164D01*
X65456Y84412D01*
X64875Y81490D01*
Y78510D01*
X65456Y75588D01*
X66596Y72836D01*
X68252Y70358D01*
X70358Y68252D01*
X72836Y66596D01*
X75588Y65456D01*
X78510Y64875D01*
X81490D01*
X84412Y65456D01*
X87164Y66596D01*
X89642Y68252D01*
X91748Y70358D01*
X93404Y72836D01*
X94544Y75588D01*
X95125Y78510D01*
Y81490D01*
X94544Y84412D01*
X93404Y87164D01*
X91748Y89642D01*
X89642Y91748D01*
X87164Y93404D01*
X84412Y94544D01*
X81490Y95125D01*
D02*
G37*
%LPD*%
G36*
X10756Y903112D02*
X13365Y900812D01*
X14591Y899877D01*
X15764Y899087D01*
X16885Y898440D01*
X17954Y897937D01*
X18971Y897578D01*
X19935Y897362D01*
X20847Y897290D01*
Y893290D01*
X19935Y893218D01*
X18971Y893002D01*
X17954Y892643D01*
X16885Y892140D01*
X15764Y891493D01*
X14591Y890703D01*
X13365Y889768D01*
X10756Y887468D01*
X9373Y886103D01*
Y904477D01*
X10756Y903112D01*
D02*
G37*
G36*
X96993Y867319D02*
X96446Y866677D01*
X95933Y865880D01*
X95453Y864927D01*
X95008Y863819D01*
X94597Y862556D01*
X94220Y861138D01*
X93568Y857835D01*
X93052Y853911D01*
X81640Y868312D01*
X83478Y868119D01*
X86784Y868005D01*
X88254Y868085D01*
X89601Y868256D01*
X90825Y868518D01*
X91927Y868872D01*
X92906Y869316D01*
X93762Y869852D01*
X94496Y870479D01*
X96993Y867319D01*
D02*
G37*
G36*
X830903Y866533D02*
X827889D01*
X827891Y866548D01*
X827892Y866594D01*
X827896Y868070D01*
X830896D01*
X830903Y866533D01*
D02*
G37*
G36*
X802963D02*
X799949D01*
X799951Y866548D01*
X799952Y866594D01*
X799956Y868070D01*
X802956D01*
X802963Y866533D01*
D02*
G37*
G36*
X775023D02*
X772009D01*
X772011Y866548D01*
X772012Y866594D01*
X772016Y868070D01*
X775016D01*
X775023Y866533D01*
D02*
G37*
G36*
X747013Y869563D02*
X747076D01*
X747091Y868988D01*
X747136Y868472D01*
X747211Y868018D01*
X747316Y867624D01*
X747451Y867290D01*
X747616Y867018D01*
X747811Y866806D01*
X748036Y866654D01*
X748291Y866563D01*
X748576Y866533D01*
X742576D01*
X742861Y866563D01*
X743116Y866654D01*
X743341Y866806D01*
X743536Y867018D01*
X743701Y867290D01*
X743836Y867624D01*
X743941Y868018D01*
X744016Y868472D01*
X744061Y868988D01*
X744065Y869133D01*
X744017Y869717D01*
X743983Y869887D01*
X743943Y870029D01*
X743895Y870144D01*
X743839Y870231D01*
X743776Y870291D01*
X743706Y870323D01*
X746686Y871985D01*
X747013Y869563D01*
D02*
G37*
G36*
X719073D02*
X719136D01*
X719151Y868988D01*
X719196Y868472D01*
X719271Y868018D01*
X719376Y867624D01*
X719511Y867290D01*
X719676Y867018D01*
X719871Y866806D01*
X720096Y866654D01*
X720351Y866563D01*
X720636Y866533D01*
X714636D01*
X714921Y866563D01*
X715176Y866654D01*
X715401Y866806D01*
X715596Y867018D01*
X715761Y867290D01*
X715896Y867624D01*
X716001Y868018D01*
X716076Y868472D01*
X716121Y868988D01*
X716125Y869133D01*
X716077Y869717D01*
X716043Y869887D01*
X716003Y870029D01*
X715955Y870144D01*
X715899Y870231D01*
X715836Y870291D01*
X715766Y870323D01*
X718746Y871985D01*
X719073Y869563D01*
D02*
G37*
G36*
X697683Y775742D02*
X697768Y775700D01*
X697879Y775663D01*
X698013Y775630D01*
X698173Y775602D01*
X698564Y775563D01*
X699054Y775543D01*
X699336Y775540D01*
Y772540D01*
X699054Y772538D01*
X698173Y772477D01*
X698013Y772450D01*
X697879Y772418D01*
X697768Y772380D01*
X697683Y772337D01*
X697621Y772290D01*
Y775790D01*
X697683Y775742D01*
D02*
G37*
G36*
X760836Y760278D02*
X760866Y760187D01*
X760918Y760083D01*
X760990Y759965D01*
X761083Y759833D01*
X761332Y759527D01*
X761664Y759167D01*
X761861Y758966D01*
X759740Y756844D01*
X759539Y757042D01*
X758873Y757623D01*
X758741Y757716D01*
X758623Y757788D01*
X758519Y757840D01*
X758428Y757870D01*
X758351Y757880D01*
X760826Y760355D01*
X760836Y760278D01*
D02*
G37*
G36*
X858450Y743075D02*
X859116Y742494D01*
X859248Y742401D01*
X859366Y742328D01*
X859470Y742277D01*
X859561Y742246D01*
X859638Y742237D01*
X857163Y739762D01*
X857153Y739839D01*
X857123Y739929D01*
X857071Y740034D01*
X856999Y740152D01*
X856906Y740284D01*
X856657Y740590D01*
X856325Y740950D01*
X856127Y741151D01*
X858249Y743272D01*
X858450Y743075D01*
D02*
G37*
G36*
X855885Y734735D02*
X856820Y733907D01*
X856886Y733870D01*
X856934Y733854D01*
X854109Y731787D01*
X854112Y731876D01*
X854092Y731977D01*
X854051Y732090D01*
X853988Y732216D01*
X853902Y732354D01*
X853794Y732505D01*
X853513Y732843D01*
X853339Y733031D01*
X853144Y733232D01*
X855684Y734935D01*
X855885Y734735D01*
D02*
G37*
G36*
X754885Y743924D02*
X754972Y743878D01*
X755082Y743838D01*
X755218Y743802D01*
X755377Y743773D01*
X755561Y743748D01*
X756002Y743716D01*
X756540Y743705D01*
X756428Y740705D01*
X756145Y740703D01*
X755264Y740648D01*
X755105Y740623D01*
X754971Y740593D01*
X754862Y740559D01*
X754778Y740520D01*
X754718Y740477D01*
X754823Y743976D01*
X754885Y743924D01*
D02*
G37*
G36*
X807989Y740434D02*
X807927Y740486D01*
X807840Y740532D01*
X807729Y740572D01*
X807594Y740608D01*
X807435Y740637D01*
X807251Y740662D01*
X806810Y740694D01*
X806272Y740705D01*
X806385Y743705D01*
X806667Y743707D01*
X807548Y743762D01*
X807707Y743787D01*
X807840Y743817D01*
X807950Y743851D01*
X808034Y743889D01*
X808094Y743933D01*
X807989Y740434D01*
D02*
G37*
G36*
X874597Y666202D02*
X874682Y666160D01*
X874793Y666123D01*
X874927Y666090D01*
X875087Y666062D01*
X875478Y666022D01*
X875968Y666003D01*
X876250Y666000D01*
Y663000D01*
X875968Y662998D01*
X875087Y662937D01*
X874927Y662910D01*
X874793Y662878D01*
X874682Y662840D01*
X874597Y662797D01*
X874535Y662750D01*
Y666250D01*
X874597Y666202D01*
D02*
G37*
G36*
X862847Y659453D02*
X862932Y659410D01*
X863043Y659372D01*
X863177Y659340D01*
X863337Y659313D01*
X863728Y659273D01*
X864218Y659252D01*
X864500Y659250D01*
Y656250D01*
X864218Y656247D01*
X863337Y656188D01*
X863177Y656160D01*
X863043Y656127D01*
X862932Y656090D01*
X862847Y656048D01*
X862785Y656000D01*
Y659500D01*
X862847Y659453D01*
D02*
G37*
G36*
X807007Y639502D02*
X807092Y639460D01*
X807202Y639422D01*
X807337Y639390D01*
X807496Y639362D01*
X807888Y639322D01*
X808378Y639302D01*
X808660Y639300D01*
Y636300D01*
X808378Y636297D01*
X807496Y636237D01*
X807337Y636210D01*
X807202Y636177D01*
X807092Y636140D01*
X807007Y636097D01*
X806945Y636050D01*
Y639550D01*
X807007Y639502D01*
D02*
G37*
G36*
X788362Y631044D02*
X788164Y630843D01*
X787583Y630177D01*
X787490Y630045D01*
X787418Y629927D01*
X787366Y629823D01*
X787336Y629732D01*
X787326Y629655D01*
X784851Y632130D01*
X784928Y632140D01*
X785019Y632170D01*
X785123Y632222D01*
X785241Y632294D01*
X785373Y632387D01*
X785679Y632636D01*
X786039Y632968D01*
X786240Y633166D01*
X788362Y631044D01*
D02*
G37*
G36*
X740786Y555414D02*
X740588Y555213D01*
X740007Y554547D01*
X739914Y554415D01*
X739842Y554297D01*
X739790Y554193D01*
X739760Y554102D01*
X739750Y554025D01*
X737275Y556500D01*
X737352Y556510D01*
X737443Y556540D01*
X737547Y556592D01*
X737665Y556664D01*
X737797Y556757D01*
X738103Y557006D01*
X738463Y557338D01*
X738664Y557536D01*
X740786Y555414D01*
D02*
G37*
G36*
X484710Y200628D02*
X485460Y199982D01*
X486213Y199412D01*
X486970Y198918D01*
X487730Y198500D01*
X488494Y198158D01*
X489261Y197892D01*
X490031Y197702D01*
X490805Y197588D01*
X491582Y197550D01*
Y192550D01*
X490805Y192512D01*
X490031Y192398D01*
X489261Y192208D01*
X488494Y191942D01*
X487730Y191600D01*
X486970Y191182D01*
X486213Y190688D01*
X485460Y190118D01*
X484710Y189472D01*
X483963Y188750D01*
Y201350D01*
X484710Y200628D01*
D02*
G37*
G36*
X457714Y187876D02*
X457068Y187126D01*
X456498Y186373D01*
X456004Y185616D01*
X455586Y184856D01*
X455244Y184092D01*
X454978Y183325D01*
X454788Y182555D01*
X454674Y181781D01*
X454636Y181004D01*
X449636D01*
X449598Y181781D01*
X449484Y182555D01*
X449294Y183325D01*
X449028Y184092D01*
X448686Y184856D01*
X448268Y185616D01*
X447774Y186373D01*
X447204Y187126D01*
X446558Y187876D01*
X445836Y188623D01*
X458436D01*
X457714Y187876D01*
D02*
G37*
G36*
X650111Y151733D02*
X649514Y151116D01*
X648574Y150009D01*
X648232Y149520D01*
X647974Y149074D01*
X647801Y148671D01*
X647713Y148312D01*
X647710Y147995D01*
X647792Y147721D01*
X647959Y147491D01*
X643747Y151703D01*
X643977Y151536D01*
X644251Y151454D01*
X644568Y151458D01*
X644927Y151545D01*
X645330Y151718D01*
X645776Y151976D01*
X646265Y152318D01*
X646797Y152746D01*
X647989Y153855D01*
X650111Y151733D01*
D02*
G37*
G36*
X638033Y138240D02*
X637983Y138715D01*
X637832Y139140D01*
X637580Y139515D01*
X637228Y139840D01*
X636776Y140115D01*
X636222Y140340D01*
X635568Y140515D01*
X634814Y140640D01*
X633958Y140715D01*
X633776Y140720D01*
X633594Y140715D01*
X632738Y140640D01*
X631984Y140515D01*
X631330Y140340D01*
X630776Y140115D01*
X630324Y139840D01*
X629972Y139515D01*
X629720Y139140D01*
X629569Y138715D01*
X629519Y138240D01*
Y148240D01*
X629569Y147765D01*
X629720Y147340D01*
X629972Y146965D01*
X630324Y146640D01*
X630776Y146365D01*
X631330Y146140D01*
X631984Y145965D01*
X632738Y145840D01*
X633594Y145765D01*
X633776Y145760D01*
X633958Y145765D01*
X634814Y145840D01*
X635568Y145965D01*
X636222Y146140D01*
X636776Y146365D01*
X637228Y146640D01*
X637580Y146965D01*
X637832Y147340D01*
X637983Y147765D01*
X638033Y148240D01*
Y138240D01*
D02*
G37*
G36*
X644501Y146477D02*
X644539Y145996D01*
X644573Y145776D01*
X644617Y145571D01*
X644670Y145381D01*
X644733Y145205D01*
X644805Y145043D01*
X644887Y144896D01*
X644979Y144763D01*
X641013D01*
X641105Y144896D01*
X641187Y145043D01*
X641260Y145205D01*
X641322Y145381D01*
X641375Y145571D01*
X641419Y145776D01*
X641453Y145996D01*
X641491Y146477D01*
X641496Y146740D01*
X644496D01*
X644501Y146477D01*
D02*
G37*
G36*
X651759Y105942D02*
X651021Y105183D01*
X649829Y103818D01*
X649374Y103213D01*
X649014Y102659D01*
X648748Y102156D01*
X648577Y101705D01*
X648500Y101306D01*
X648518Y100958D01*
X648630Y100661D01*
X645467Y106044D01*
X645652Y105820D01*
X645890Y105692D01*
X646180Y105659D01*
X646522Y105722D01*
X646916Y105879D01*
X647363Y106132D01*
X647861Y106480D01*
X648412Y106924D01*
X649671Y108096D01*
X651759Y105942D01*
D02*
G37*
G36*
X638643Y94520D02*
X638613Y94805D01*
X638522Y95060D01*
X638370Y95285D01*
X638158Y95480D01*
X637885Y95645D01*
X637552Y95780D01*
X637158Y95885D01*
X636704Y95960D01*
X636188Y96005D01*
X635613Y96020D01*
Y99020D01*
X636188Y99035D01*
X636704Y99080D01*
X637158Y99155D01*
X637552Y99260D01*
X637885Y99395D01*
X638158Y99560D01*
X638370Y99755D01*
X638522Y99980D01*
X638613Y100235D01*
X638643Y100520D01*
Y94520D01*
D02*
G37*
G36*
X630159Y100235D02*
X630250Y99980D01*
X630402Y99755D01*
X630614Y99560D01*
X630887Y99395D01*
X631220Y99260D01*
X631614Y99155D01*
X632068Y99080D01*
X632584Y99035D01*
X633159Y99020D01*
Y96020D01*
X632584Y96005D01*
X632068Y95960D01*
X631614Y95885D01*
X631220Y95780D01*
X630887Y95645D01*
X630614Y95480D01*
X630402Y95285D01*
X630250Y95060D01*
X630159Y94805D01*
X630129Y94520D01*
Y100520D01*
X630159Y100235D01*
D02*
G37*
G36*
X12522Y75518D02*
X12151Y72163D01*
X12122Y70679D01*
X12197Y69324D01*
X12375Y68097D01*
X12658Y67000D01*
X13044Y66032D01*
X13534Y65192D01*
X14128Y64482D01*
X11595Y62772D01*
X11066Y63205D01*
X10344Y63639D01*
X9429Y64071D01*
X8323Y64503D01*
X5533Y65366D01*
X1974Y66228D01*
X-2354Y67088D01*
X12863Y77388D01*
X12522Y75518D01*
D02*
G37*
G36*
Y35518D02*
X12151Y32163D01*
X12122Y30679D01*
X12197Y29324D01*
X12375Y28097D01*
X12658Y27000D01*
X13044Y26032D01*
X13534Y25192D01*
X14128Y24482D01*
X11595Y22772D01*
X11066Y23205D01*
X10344Y23639D01*
X9429Y24071D01*
X8323Y24503D01*
X5533Y25366D01*
X1974Y26228D01*
X-2354Y27088D01*
X12863Y37388D01*
X12522Y35518D01*
D02*
G37*
G36*
X90756Y823112D02*
X93365Y820812D01*
X94591Y819877D01*
X95764Y819087D01*
X96885Y818440D01*
X97954Y817937D01*
X98971Y817578D01*
X99935Y817362D01*
X100847Y817290D01*
Y813290D01*
X99935Y813218D01*
X98971Y813002D01*
X97954Y812643D01*
X96885Y812140D01*
X95764Y811493D01*
X94591Y810703D01*
X93365Y809768D01*
X90756Y807468D01*
X89373Y806103D01*
Y824477D01*
X90756Y823112D01*
D02*
G37*
G36*
X387314Y824918D02*
X388776Y823795D01*
X390479Y823090D01*
X392306Y822850D01*
X452585D01*
X453071Y821676D01*
X432442Y801047D01*
X431232Y799921D01*
X429101Y798215D01*
X426893Y796715D01*
X424609Y795418D01*
X422245Y794322D01*
X419798Y793426D01*
X417266Y792727D01*
X414645Y792227D01*
X411931Y791926D01*
X410280Y791867D01*
X331497D01*
X329638Y791965D01*
X327358Y792367D01*
X325418Y793014D01*
X323795Y793887D01*
X322455Y794984D01*
X321358Y796324D01*
X320485Y797947D01*
X319838Y799887D01*
X319436Y802167D01*
X319338Y804026D01*
Y831180D01*
X319011Y833660D01*
X318054Y835971D01*
X316531Y837955D01*
X266337Y888150D01*
X266863Y889420D01*
X322812D01*
X387314Y824918D01*
D02*
G37*
G36*
X50756Y803112D02*
X53365Y800812D01*
X54591Y799877D01*
X55764Y799087D01*
X56885Y798440D01*
X57954Y797937D01*
X58971Y797578D01*
X59935Y797362D01*
X60847Y797290D01*
Y793290D01*
X59935Y793218D01*
X58971Y793002D01*
X57954Y792643D01*
X56885Y792140D01*
X55764Y791493D01*
X54591Y790703D01*
X53365Y789768D01*
X50756Y787468D01*
X49373Y786103D01*
Y804477D01*
X50756Y803112D01*
D02*
G37*
G36*
X454015Y798376D02*
X452468Y796573D01*
X451306Y794982D01*
X450526Y793603D01*
X450130Y792437D01*
X450117Y791482D01*
X450488Y790740D01*
X451242Y790209D01*
X452380Y789891D01*
X453901Y789785D01*
X427231Y774785D01*
X409124Y789785D01*
X412080Y789891D01*
X414949Y790209D01*
X417729Y790740D01*
X420421Y791482D01*
X423026Y792437D01*
X425543Y793603D01*
X427972Y794982D01*
X430313Y796573D01*
X432566Y798376D01*
X434731Y800392D01*
X455944D01*
X454015Y798376D01*
D02*
G37*
G36*
X90845Y783017D02*
X94837Y779557D01*
X96026Y778712D01*
X97145Y778020D01*
X98193Y777482D01*
X99171Y777097D01*
X100078Y776867D01*
X100914Y776790D01*
Y773790D01*
X100078Y773713D01*
X99171Y773483D01*
X98193Y773098D01*
X97145Y772560D01*
X96026Y771868D01*
X94837Y771022D01*
X93577Y770023D01*
X90845Y767563D01*
X89373Y766103D01*
Y784477D01*
X90845Y783017D01*
D02*
G37*
G36*
X317406Y801935D02*
X317856Y799385D01*
X318606Y797135D01*
X319656Y795185D01*
X321006Y793535D01*
X322656Y792185D01*
X324606Y791135D01*
X326856Y790385D01*
X329406Y789935D01*
X332256Y789785D01*
Y774785D01*
X329406Y774635D01*
X326856Y774185D01*
X324606Y773435D01*
X322656Y772385D01*
X321006Y771035D01*
X319656Y769385D01*
X318606Y767435D01*
X317856Y765185D01*
X317406Y762635D01*
X317256Y759785D01*
X302256Y782285D01*
X317256Y804785D01*
X317406Y801935D01*
D02*
G37*
G36*
X227363Y749968D02*
X228029Y749387D01*
X228161Y749294D01*
X228279Y749222D01*
X228383Y749170D01*
X228474Y749140D01*
X228551Y749130D01*
X226076Y746655D01*
X226066Y746732D01*
X226036Y746823D01*
X225984Y746927D01*
X225912Y747045D01*
X225819Y747177D01*
X225570Y747483D01*
X225238Y747843D01*
X225040Y748044D01*
X227162Y750165D01*
X227363Y749968D01*
D02*
G37*
G36*
X50845Y763017D02*
X54837Y759557D01*
X56026Y758712D01*
X57145Y758020D01*
X58193Y757482D01*
X59171Y757097D01*
X60078Y756867D01*
X60914Y756790D01*
Y753790D01*
X60078Y753713D01*
X59171Y753483D01*
X58193Y753098D01*
X57145Y752560D01*
X56026Y751868D01*
X54837Y751022D01*
X53577Y750023D01*
X50845Y747563D01*
X49373Y746103D01*
Y764477D01*
X50845Y763017D01*
D02*
G37*
G36*
X89901Y664002D02*
X90371Y663747D01*
X90967Y663523D01*
X91687Y663329D01*
X92533Y663164D01*
X93505Y663029D01*
X95825Y662850D01*
X98646Y662790D01*
Y647790D01*
X97173Y647775D01*
X92533Y647416D01*
X91687Y647251D01*
X90967Y647057D01*
X90371Y646833D01*
X89901Y646578D01*
X89557Y646294D01*
Y664286D01*
X89901Y664002D01*
D02*
G37*
G36*
X573447Y645742D02*
X573270Y645272D01*
X573115Y644629D01*
X572980Y643810D01*
X572772Y641651D01*
X572616Y637104D01*
X572606Y635240D01*
X567606D01*
X567596Y637104D01*
X567098Y644629D01*
X566942Y645272D01*
X566765Y645742D01*
X566568Y646037D01*
X573644D01*
X573447Y645742D01*
D02*
G37*
G36*
X248716Y490380D02*
X238716Y478309D01*
X238645Y480280D01*
X238433Y482192D01*
X238080Y484045D01*
X237585Y485840D01*
X236948Y487577D01*
X236170Y489254D01*
X235251Y490874D01*
X234191Y492434D01*
X232988Y493937D01*
X231645Y495380D01*
Y509522D01*
X232988Y508279D01*
X234191Y507377D01*
X235251Y506816D01*
X236170Y506597D01*
X236948Y506719D01*
X237585Y507183D01*
X238080Y507988D01*
X238433Y509134D01*
X238645Y510622D01*
X238716Y512451D01*
X248716Y490380D01*
D02*
G37*
G36*
X182220Y407013D02*
X181545Y406323D01*
X179948Y404506D01*
X179558Y403984D01*
X179240Y403505D01*
X178993Y403067D01*
X178818Y402671D01*
X178713Y402318D01*
X178681Y402006D01*
X170142Y410545D01*
X170454Y410577D01*
X170807Y410681D01*
X171203Y410857D01*
X171641Y411104D01*
X172120Y411422D01*
X172642Y411812D01*
X173812Y412805D01*
X175149Y414084D01*
X182220Y407013D01*
D02*
G37*
G36*
X317256Y414620D02*
X302256Y392120D01*
X302153Y394970D01*
X301845Y397520D01*
X301331Y399770D01*
X300611Y401720D01*
X299686Y403370D01*
X298555Y404720D01*
X297219Y405770D01*
X295677Y406520D01*
X293929Y406970D01*
X291976Y407120D01*
Y422120D01*
X293929Y422270D01*
X295677Y422720D01*
X297219Y423470D01*
X298555Y424520D01*
X299686Y425870D01*
X300611Y427520D01*
X301331Y429470D01*
X301845Y431720D01*
X302153Y434270D01*
X302256Y437120D01*
X317256Y414620D01*
D02*
G37*
G36*
X252181Y875204D02*
X300174Y827211D01*
Y782285D01*
Y733390D01*
Y435972D01*
X300118Y434429D01*
X299833Y432071D01*
X299372Y430052D01*
X298754Y428377D01*
X298001Y427034D01*
X297128Y425992D01*
X296131Y425208D01*
X294970Y424644D01*
X293594Y424289D01*
X292455Y424202D01*
X291976D01*
X289496Y423876D01*
X287185Y422918D01*
X285201Y421395D01*
X197837Y334032D01*
X160055D01*
X137028Y357059D01*
Y541679D01*
X138298Y541931D01*
X138385Y541720D01*
X139508Y540257D01*
X140970Y539136D01*
X142673Y538430D01*
X144500Y538190D01*
X185921D01*
X230580Y493531D01*
X231444Y492603D01*
X232549Y491222D01*
X233518Y489796D01*
X234356Y488321D01*
X235063Y486796D01*
X235641Y485217D01*
X236092Y483582D01*
X236415Y481888D01*
X236610Y480130D01*
X236656Y478864D01*
Y478504D01*
X173040Y414889D01*
X172446Y414321D01*
X171371Y413408D01*
X170946Y413090D01*
X170574Y412844D01*
X170286Y412681D01*
X170103Y412600D01*
X170056Y412586D01*
X169929Y412573D01*
X169840Y412545D01*
X168657D01*
X165955Y411821D01*
X163532Y410422D01*
X161554Y408444D01*
X160155Y406021D01*
X159431Y403319D01*
Y400521D01*
X160155Y397819D01*
X161554Y395396D01*
X163532Y393418D01*
X165955Y392019D01*
X168657Y391295D01*
X171455D01*
X174157Y392019D01*
X176580Y393418D01*
X178558Y395396D01*
X179957Y397819D01*
X180681Y400521D01*
Y401704D01*
X180709Y401793D01*
X180722Y401920D01*
X180736Y401967D01*
X180817Y402150D01*
X180980Y402439D01*
X181226Y402810D01*
X181533Y403221D01*
X182922Y404802D01*
X248708Y470588D01*
X249830Y472050D01*
X250536Y473753D01*
X250776Y475580D01*
Y490380D01*
Y875059D01*
X251979Y875467D01*
X252181Y875204D01*
D02*
G37*
G36*
X457177Y248551D02*
X456867Y248955D01*
X456507Y249317D01*
X456096Y249637D01*
X455636Y249913D01*
X455124Y250148D01*
X454563Y250339D01*
X453951Y250488D01*
X453876Y250500D01*
X453801Y250488D01*
X453189Y250339D01*
X452628Y250148D01*
X452116Y249913D01*
X451656Y249637D01*
X451245Y249317D01*
X450885Y248955D01*
X450575Y248551D01*
Y257809D01*
X450885Y257405D01*
X451245Y257043D01*
X451656Y256723D01*
X452116Y256446D01*
X452628Y256212D01*
X453189Y256021D01*
X453801Y255872D01*
X453876Y255860D01*
X453951Y255872D01*
X454563Y256021D01*
X455124Y256212D01*
X455636Y256446D01*
X456096Y256723D01*
X456507Y257043D01*
X456867Y257405D01*
X457177Y257809D01*
Y248551D01*
D02*
G37*
G36*
X434317Y254924D02*
X441024Y248217D01*
X440638Y248497D01*
X440180Y248635D01*
X439651Y248632D01*
X439051Y248488D01*
X438380Y248202D01*
X437637Y247775D01*
X436823Y247206D01*
X435937Y246496D01*
X433953Y244651D01*
X430417Y248186D01*
X431410Y249215D01*
X432215Y250164D01*
X431703Y250339D01*
X431091Y250488D01*
X430428Y250595D01*
X429716Y250659D01*
X428953Y250680D01*
Y255680D01*
X429716Y255701D01*
X430428Y255765D01*
X431091Y255872D01*
X431703Y256021D01*
X432264Y256212D01*
X432776Y256446D01*
X433236Y256723D01*
X433647Y257043D01*
X434007Y257405D01*
X434317Y257809D01*
Y254924D01*
D02*
G37*
G36*
X446601Y229167D02*
X446176Y229016D01*
X445801Y228764D01*
X445476Y228412D01*
X445201Y227959D01*
X444976Y227406D01*
X444801Y226752D01*
X444676Y225998D01*
X444601Y225142D01*
X444576Y224186D01*
X439576D01*
X439551Y225142D01*
X439476Y225998D01*
X439351Y226752D01*
X439176Y227406D01*
X438951Y227959D01*
X438676Y228412D01*
X438351Y228764D01*
X437976Y229016D01*
X437551Y229167D01*
X437076Y229217D01*
X447076D01*
X446601Y229167D01*
D02*
G37*
G36*
X50667Y227917D02*
X53151Y225777D01*
X54341Y224907D01*
X55497Y224172D01*
X56619Y223570D01*
X57706Y223102D01*
X58758Y222768D01*
X59776Y222567D01*
X60760Y222500D01*
Y217500D01*
X59776Y217433D01*
X58758Y217232D01*
X57706Y216898D01*
X56619Y216430D01*
X55497Y215828D01*
X54341Y215093D01*
X53151Y214223D01*
X51926Y213220D01*
X49373Y210812D01*
Y229188D01*
X50667Y227917D01*
D02*
G37*
G36*
X297833Y223109D02*
X304314Y217580D01*
X305639Y216691D01*
X306847Y216000D01*
X307936Y215506D01*
X308907Y215209D01*
X309761Y215110D01*
X302256Y207605D01*
X302157Y208459D01*
X301860Y209430D01*
X301366Y210519D01*
X300675Y211727D01*
X299786Y213052D01*
X298700Y214495D01*
X295936Y217736D01*
X292382Y221449D01*
X295917Y224984D01*
X297833Y223109D01*
D02*
G37*
G36*
X429274Y208319D02*
X429388Y207545D01*
X429578Y206775D01*
X429844Y206008D01*
X430186Y205244D01*
X430604Y204484D01*
X431098Y203727D01*
X431668Y202974D01*
X432314Y202224D01*
X433036Y201477D01*
X420436D01*
X421158Y202224D01*
X421804Y202974D01*
X422374Y203727D01*
X422868Y204484D01*
X423286Y205244D01*
X423628Y206008D01*
X423894Y206775D01*
X424084Y207545D01*
X424198Y208319D01*
X424236Y209096D01*
X429236D01*
X429274Y208319D01*
D02*
G37*
G36*
X90845Y207727D02*
X94837Y204268D01*
X96026Y203422D01*
X97145Y202730D01*
X98193Y202192D01*
X99171Y201807D01*
X100078Y201577D01*
X100914Y201500D01*
Y198500D01*
X100078Y198423D01*
X99171Y198193D01*
X98193Y197808D01*
X97145Y197270D01*
X96026Y196578D01*
X94837Y195732D01*
X93577Y194733D01*
X90845Y192273D01*
X89373Y190812D01*
Y209188D01*
X90845Y207727D01*
D02*
G37*
G36*
X50845Y187727D02*
X54837Y184268D01*
X56026Y183422D01*
X57145Y182730D01*
X58193Y182192D01*
X59171Y181807D01*
X60078Y181577D01*
X60914Y181500D01*
Y178500D01*
X60078Y178423D01*
X59171Y178193D01*
X58193Y177808D01*
X57145Y177270D01*
X56026Y176578D01*
X54837Y175732D01*
X53577Y174733D01*
X50845Y172273D01*
X49373Y170812D01*
Y189188D01*
X50845Y187727D01*
D02*
G37*
G36*
X604805Y134777D02*
X604575Y134944D01*
X604301Y135026D01*
X603984Y135022D01*
X603625Y134935D01*
X603222Y134762D01*
X602776Y134504D01*
X602287Y134162D01*
X601755Y133735D01*
X600563Y132625D01*
X598441Y134747D01*
X599038Y135365D01*
X599978Y136471D01*
X600320Y136960D01*
X600578Y137406D01*
X600751Y137809D01*
X600839Y138168D01*
X600841Y138485D01*
X600760Y138759D01*
X600593Y138989D01*
X604805Y134777D01*
D02*
G37*
G36*
X347866Y104940D02*
X348016Y104090D01*
X348266Y103340D01*
X348616Y102690D01*
X349066Y102140D01*
X349616Y101690D01*
X350266Y101340D01*
X351016Y101090D01*
X351866Y100940D01*
X352816Y100890D01*
X351352Y95890D01*
X350366Y95855D01*
X349410Y95749D01*
X348483Y95572D01*
X347586Y95324D01*
X346718Y95006D01*
X345879Y94617D01*
X345069Y94158D01*
X344289Y93627D01*
X343538Y93026D01*
X342816Y92354D01*
X339281Y95890D01*
X339952Y96612D01*
X340553Y97363D01*
X341084Y98143D01*
X341543Y98953D01*
X341932Y99792D01*
X342250Y100660D01*
X342498Y101557D01*
X342675Y102484D01*
X342781Y103440D01*
X342816Y104425D01*
X347816Y105890D01*
X347866Y104940D01*
D02*
G37*
G36*
X608881Y89027D02*
X608626Y88936D01*
X608401Y88784D01*
X608206Y88572D01*
X608041Y88299D01*
X607906Y87966D01*
X607801Y87572D01*
X607726Y87118D01*
X607681Y86602D01*
X607666Y86027D01*
X604666D01*
X604651Y86602D01*
X604606Y87118D01*
X604531Y87572D01*
X604426Y87966D01*
X604291Y88299D01*
X604126Y88572D01*
X603931Y88784D01*
X603706Y88936D01*
X603451Y89027D01*
X603166Y89057D01*
X609166D01*
X608881Y89027D01*
D02*
G37*
G36*
X89764Y48867D02*
X90273Y48580D01*
X90902Y48327D01*
X91651Y48108D01*
X92518Y47922D01*
X93505Y47770D01*
X95837Y47568D01*
X98646Y47500D01*
Y32500D01*
X97182Y32483D01*
X93505Y32230D01*
X92518Y32078D01*
X91651Y31892D01*
X90902Y31673D01*
X90273Y31420D01*
X89764Y31133D01*
X89373Y30812D01*
Y49187D01*
X89764Y48867D01*
D02*
G37*
%LPC*%
G36*
X171455Y463345D02*
X168657D01*
X165955Y462621D01*
X163532Y461222D01*
X161554Y459244D01*
X160155Y456821D01*
X159431Y454119D01*
Y451321D01*
X160155Y448619D01*
X161554Y446196D01*
X163532Y444218D01*
X165955Y442819D01*
X168657Y442095D01*
X171455D01*
X174157Y442819D01*
X176580Y444218D01*
X178558Y446196D01*
X179957Y448619D01*
X180681Y451321D01*
Y454119D01*
X179957Y456821D01*
X178558Y459244D01*
X176580Y461222D01*
X174157Y462621D01*
X171455Y463345D01*
D02*
G37*
G36*
X177626Y384918D02*
X170056D01*
X169613Y384830D01*
X169161D01*
X168743Y384657D01*
X168300Y384569D01*
X167924Y384318D01*
X167507Y384145D01*
X167187Y383825D01*
X166812Y383574D01*
X166561Y383199D01*
X166241Y382879D01*
X166068Y382462D01*
X165817Y382086D01*
X165729Y381643D01*
X165556Y381225D01*
Y380773D01*
X165468Y380330D01*
X165556Y379887D01*
Y379435D01*
X165729Y379017D01*
X165817Y378574D01*
X166068Y378198D01*
X166241Y377781D01*
X166561Y377461D01*
X166812Y377086D01*
X167187Y376835D01*
X167507Y376515D01*
X167924Y376342D01*
X168300Y376091D01*
X168743Y376003D01*
X169161Y375830D01*
X169613D01*
X170056Y375742D01*
X175725D01*
X177508Y373960D01*
Y366172D01*
X177486Y365931D01*
X177404Y365419D01*
X177296Y364975D01*
X177167Y364598D01*
X177023Y364283D01*
X176868Y364025D01*
X176703Y363813D01*
X176527Y363638D01*
X176227Y363408D01*
X176216Y363395D01*
X176003Y363253D01*
X175725Y362836D01*
X175702Y362811D01*
X175696Y362794D01*
X175285Y362178D01*
X175032Y360910D01*
Y346410D01*
X175285Y345142D01*
X176003Y344067D01*
X177078Y343349D01*
X178346Y343096D01*
X185846D01*
X187114Y343349D01*
X188189Y344067D01*
X188907Y345142D01*
X189160Y346410D01*
Y360910D01*
X188907Y362178D01*
X188496Y362794D01*
X188490Y362811D01*
X188468Y362836D01*
X188189Y363253D01*
X187976Y363395D01*
X187965Y363408D01*
X187665Y363638D01*
X187489Y363813D01*
X187324Y364025D01*
X187169Y364283D01*
X187025Y364598D01*
X186896Y364975D01*
X186788Y365419D01*
X186706Y365931D01*
X186684Y366172D01*
Y375860D01*
X186335Y377616D01*
X185340Y379104D01*
X180870Y383574D01*
X179382Y384569D01*
X177626Y384918D01*
D02*
G37*
G36*
X166846Y364224D02*
X159346D01*
X158078Y363971D01*
X157003Y363253D01*
X156285Y362178D01*
X156032Y360910D01*
Y358260D01*
X155886Y358248D01*
X154816D01*
X154373Y358160D01*
X153921D01*
X153503Y357987D01*
X153060Y357899D01*
X152684Y357648D01*
X152267Y357475D01*
X151947Y357155D01*
X151572Y356904D01*
X151321Y356529D01*
X151001Y356209D01*
X150828Y355792D01*
X150577Y355416D01*
X150489Y354973D01*
X150316Y354555D01*
Y354103D01*
X150228Y353660D01*
X150316Y353217D01*
Y352765D01*
X150489Y352347D01*
X150577Y351904D01*
X150828Y351528D01*
X151001Y351111D01*
X151321Y350791D01*
X151572Y350416D01*
X151947Y350165D01*
X152267Y349845D01*
X152684Y349672D01*
X153060Y349421D01*
X153503Y349333D01*
X153921Y349160D01*
X154373D01*
X154816Y349072D01*
X156032D01*
Y346410D01*
X156285Y345142D01*
X157003Y344067D01*
X158078Y343349D01*
X159346Y343096D01*
X166846D01*
X168114Y343349D01*
X169189Y344067D01*
X169907Y345142D01*
X170160Y346410D01*
Y360910D01*
X169907Y362178D01*
X169189Y363253D01*
X168114Y363971D01*
X166846Y364224D01*
D02*
G37*
%LPD*%
G36*
X184617Y366390D02*
X184681Y365678D01*
X184788Y365015D01*
X184937Y364403D01*
X185128Y363842D01*
X185362Y363330D01*
X185639Y362870D01*
X185959Y362459D01*
X186321Y362099D01*
X186725Y361789D01*
X177467D01*
X177871Y362099D01*
X178233Y362459D01*
X178553Y362870D01*
X178829Y363330D01*
X179064Y363842D01*
X179255Y364403D01*
X179404Y365015D01*
X179511Y365678D01*
X179575Y366390D01*
X179596Y367153D01*
X184596D01*
X184617Y366390D01*
D02*
G37*
G36*
X158133Y350373D02*
X158100Y350523D01*
X158000Y350657D01*
X157835Y350775D01*
X157602Y350877D01*
X157304Y350963D01*
X156939Y351034D01*
X156508Y351089D01*
X155446Y351152D01*
X154816Y351160D01*
Y356160D01*
X155446Y356168D01*
X156939Y356286D01*
X157304Y356357D01*
X157602Y356443D01*
X157835Y356545D01*
X158000Y356663D01*
X158100Y356797D01*
X158133Y356947D01*
Y350373D01*
D02*
G37*
%LPC*%
G36*
X434317Y254693D02*
Y253547D01*
X434398Y253885D01*
X434401Y254414D01*
X434317Y254693D01*
D02*
G37*
%LPD*%
G36*
X757228Y629699D02*
X757186Y629613D01*
X757149Y629503D01*
X757116Y629368D01*
X757088Y629209D01*
X757048Y628817D01*
X757029Y628327D01*
X757026Y628045D01*
X754026D01*
X754024Y628327D01*
X753963Y629209D01*
X753936Y629368D01*
X753904Y629503D01*
X753866Y629613D01*
X753823Y629699D01*
X753776Y629760D01*
X757276D01*
X757228Y629699D01*
D02*
G37*
G36*
X686730Y532742D02*
X686533Y532541D01*
X685952Y531875D01*
X685859Y531743D01*
X685787Y531625D01*
X685735Y531521D01*
X685704Y531430D01*
X685695Y531353D01*
X683220Y533828D01*
X683297Y533838D01*
X683388Y533868D01*
X683492Y533920D01*
X683610Y533992D01*
X683742Y534085D01*
X684048Y534334D01*
X684408Y534666D01*
X684609Y534864D01*
X686730Y532742D01*
D02*
G37*
G36*
X329919Y748022D02*
X330004Y747964D01*
X330113Y747913D01*
X330247Y747869D01*
X330406Y747832D01*
X330588Y747802D01*
X331027Y747761D01*
X331282Y747751D01*
X331562Y747747D01*
X330971Y744747D01*
X330686Y744746D01*
X329440Y744670D01*
X329368Y744650D01*
X329322Y744627D01*
X329858Y748086D01*
X329919Y748022D01*
D02*
G37*
G36*
X333778Y736533D02*
X333736Y736448D01*
X333699Y736337D01*
X333666Y736203D01*
X333638Y736043D01*
X333599Y735652D01*
X333578Y735162D01*
X333576Y734880D01*
X330576D01*
X330574Y735162D01*
X330513Y736043D01*
X330486Y736203D01*
X330453Y736337D01*
X330416Y736448D01*
X330373Y736533D01*
X330326Y736595D01*
X333826D01*
X333778Y736533D01*
D02*
G37*
G36*
X650129Y580460D02*
X650076Y580493D01*
X649997Y580521D01*
X649893Y580547D01*
X649762Y580569D01*
X649426Y580603D01*
X648987Y580623D01*
X648446Y580630D01*
X648066Y583630D01*
X648346Y583633D01*
X649042Y583680D01*
X649226Y583708D01*
X649385Y583743D01*
X649520Y583783D01*
X649631Y583830D01*
X649717Y583883D01*
X649780Y583943D01*
X650129Y580460D01*
D02*
G37*
G36*
X636697Y572759D02*
X636652Y572782D01*
X636580Y572803D01*
X636481Y572821D01*
X636356Y572836D01*
X635821Y572869D01*
X635048Y572880D01*
X634461Y575880D01*
X634741Y575883D01*
X635435Y575934D01*
X635618Y575965D01*
X635776Y576002D01*
X635910Y576046D01*
X636020Y576096D01*
X636105Y576154D01*
X636166Y576218D01*
X636697Y572759D01*
D02*
G37*
G36*
X45566Y378981D02*
X45715Y377202D01*
X45964Y375632D01*
X46313Y374271D01*
X46762Y373120D01*
X47310Y372178D01*
X47958Y371445D01*
X48705Y370922D01*
X49552Y370608D01*
X50499Y370503D01*
X30533D01*
X31480Y370608D01*
X32327Y370922D01*
X33074Y371445D01*
X33722Y372178D01*
X34270Y373120D01*
X34719Y374271D01*
X35068Y375632D01*
X35317Y377202D01*
X35466Y378981D01*
X35516Y380970D01*
X45516D01*
X45566Y378981D01*
D02*
G37*
G36*
X39869Y702166D02*
X38055Y702149D01*
X34786Y701906D01*
X33329Y701679D01*
X31992Y701382D01*
X30773Y701014D01*
X29674Y700577D01*
X28693Y700069D01*
X27831Y699491D01*
X27088Y698843D01*
X23553Y702378D01*
X24201Y703121D01*
X24779Y703983D01*
X25287Y704964D01*
X25724Y706063D01*
X26092Y707282D01*
X26389Y708619D01*
X26616Y710076D01*
X26773Y711651D01*
X26876Y715159D01*
X39869Y702166D01*
D02*
G37*
G36*
X79869Y602166D02*
X78709Y602131D01*
X77573Y602002D01*
X76463Y601780D01*
X75377Y601464D01*
X74316Y601055D01*
X73281Y600552D01*
X72270Y599956D01*
X71284Y599266D01*
X70322Y598482D01*
X69386Y597605D01*
X62315Y604676D01*
X63192Y605612D01*
X63976Y606574D01*
X64666Y607560D01*
X65262Y608571D01*
X65765Y609606D01*
X66174Y610667D01*
X66490Y611753D01*
X66712Y612863D01*
X66841Y613998D01*
X66876Y615159D01*
X79869Y602166D01*
D02*
G37*
G36*
X32012Y336416D02*
X35616Y333375D01*
X37224Y332260D01*
X38703Y331414D01*
X40052Y330839D01*
X41273Y330534D01*
X42364Y330499D01*
X43326Y330734D01*
X44158Y331240D01*
X30137Y319550D01*
X29862Y320685D01*
X29489Y321828D01*
X29017Y322979D01*
X28446Y324138D01*
X27777Y325306D01*
X27008Y326482D01*
X26140Y327667D01*
X24109Y330061D01*
X22945Y331270D01*
X30016Y338341D01*
X32012Y336416D01*
D02*
G37*
G36*
X50241Y318864D02*
X49294Y318769D01*
X48447Y318466D01*
X47700Y317956D01*
X47052Y317238D01*
X46504Y316312D01*
X46055Y315179D01*
X45707Y313838D01*
X45457Y312290D01*
X45308Y310534D01*
X45258Y308570D01*
X35258D01*
X35210Y309984D01*
X35067Y311316D01*
X34828Y312567D01*
X34494Y313736D01*
X34064Y314823D01*
X33538Y315828D01*
X32917Y316753D01*
X32201Y317595D01*
X31389Y318356D01*
X30481Y319035D01*
X50241Y318864D01*
D02*
G37*
G36*
X45258Y279901D02*
X45299Y278620D01*
X45423Y277387D01*
X45628Y276199D01*
X45916Y275059D01*
X46286Y273964D01*
X46738Y272917D01*
X47273Y271915D01*
X47890Y270961D01*
X48589Y270052D01*
X49370Y269191D01*
X30998Y269552D01*
X31808Y270380D01*
X32532Y271259D01*
X33171Y272188D01*
X33725Y273169D01*
X34193Y274199D01*
X34576Y275281D01*
X34875Y276413D01*
X35088Y277596D01*
X35215Y278829D01*
X35258Y280113D01*
X45258Y279901D01*
D02*
G37*
G36*
X469831Y229167D02*
X469406Y229016D01*
X469031Y228764D01*
X468706Y228412D01*
X468431Y227959D01*
X468206Y227406D01*
X468031Y226752D01*
X467906Y225998D01*
X467831Y225142D01*
X467806Y224186D01*
X462806D01*
X462781Y225142D01*
X462706Y225998D01*
X462581Y226752D01*
X462406Y227406D01*
X462181Y227959D01*
X461906Y228412D01*
X461581Y228764D01*
X461206Y229016D01*
X460781Y229167D01*
X460306Y229217D01*
X470306D01*
X469831Y229167D01*
D02*
G37*
G36*
X845449Y578533D02*
X845406Y578448D01*
X845368Y578337D01*
X845336Y578203D01*
X845309Y578043D01*
X845268Y577651D01*
X845248Y577162D01*
X845246Y576880D01*
X842246D01*
X842243Y577162D01*
X842184Y578043D01*
X842156Y578203D01*
X842123Y578337D01*
X842086Y578448D01*
X842044Y578533D01*
X841996Y578595D01*
X845496D01*
X845449Y578533D01*
D02*
G37*
G36*
X397836Y154778D02*
X397866Y154687D01*
X397918Y154583D01*
X397990Y154465D01*
X398083Y154333D01*
X398332Y154027D01*
X398664Y153667D01*
X398862Y153466D01*
X396740Y151344D01*
X396539Y151542D01*
X395873Y152123D01*
X395741Y152216D01*
X395623Y152288D01*
X395519Y152340D01*
X395428Y152370D01*
X395351Y152380D01*
X397826Y154855D01*
X397836Y154778D01*
D02*
G37*
G36*
X886768Y579143D02*
X886726Y579058D01*
X886689Y578947D01*
X886656Y578813D01*
X886628Y578653D01*
X886589Y578262D01*
X886569Y577772D01*
X886566Y577490D01*
X883566D01*
X883564Y577772D01*
X883503Y578653D01*
X883476Y578813D01*
X883444Y578947D01*
X883406Y579058D01*
X883363Y579143D01*
X883316Y579205D01*
X886816D01*
X886768Y579143D01*
D02*
G37*
G36*
X838509Y546123D02*
X838466Y546038D01*
X838428Y545927D01*
X838396Y545793D01*
X838369Y545634D01*
X838328Y545242D01*
X838308Y544752D01*
X838306Y544470D01*
X835306D01*
X835303Y544752D01*
X835244Y545634D01*
X835216Y545793D01*
X835183Y545927D01*
X835146Y546038D01*
X835104Y546123D01*
X835056Y546185D01*
X838556D01*
X838509Y546123D01*
D02*
G37*
G36*
X364336Y143278D02*
X364366Y143187D01*
X364418Y143083D01*
X364490Y142965D01*
X364583Y142833D01*
X364832Y142527D01*
X365164Y142167D01*
X365362Y141966D01*
X363240Y139845D01*
X363039Y140042D01*
X362373Y140623D01*
X362241Y140716D01*
X362123Y140788D01*
X362019Y140840D01*
X361928Y140870D01*
X361851Y140880D01*
X364326Y143355D01*
X364336Y143278D01*
D02*
G37*
G36*
X394086Y127028D02*
X394116Y126937D01*
X394168Y126833D01*
X394240Y126715D01*
X394333Y126583D01*
X394582Y126277D01*
X394914Y125917D01*
X395112Y125716D01*
X392990Y123595D01*
X392789Y123792D01*
X392123Y124373D01*
X391991Y124466D01*
X391873Y124538D01*
X391769Y124590D01*
X391678Y124620D01*
X391601Y124630D01*
X394076Y127105D01*
X394086Y127028D01*
D02*
G37*
D11*
X643570Y75000D02*
X643606Y75036D01*
X83511Y20000D02*
X117011Y-13500D01*
X50250Y41500D02*
X71750Y20000D01*
X83511D01*
X0Y76489D02*
X34989Y41500D01*
X50250D01*
X0Y76489D02*
Y80000D01*
Y36489D02*
X23375Y13114D01*
X0Y36489D02*
Y40000D01*
X23375Y13114D02*
Y13114D01*
Y13114D02*
X60489Y-24000D01*
X117011Y-13500D02*
X746500D01*
X899750Y139750D01*
X914250Y114250D02*
Y407117D01*
X776000Y-24000D02*
X914250Y114250D01*
Y407117D02*
X946496Y439363D01*
X899750Y139750D02*
Y442750D01*
X941250Y484250D02*
Y629807D01*
X899750Y442750D02*
X941250Y484250D01*
X849576Y472630D02*
X909826Y532880D01*
Y628130D01*
X872750Y664500D02*
X925321D01*
X946496Y643325D01*
X861000Y657750D02*
X925000D01*
X941496Y641254D01*
X941250Y629807D02*
X941496Y630053D01*
Y641254D01*
X946496Y439363D02*
Y643325D01*
X885892Y637800D02*
X897826Y625865D01*
X888826Y649130D02*
X909826Y628130D01*
X897826Y546880D02*
Y625865D01*
X805160Y637800D02*
X885892D01*
X804326Y649130D02*
X888826D01*
X60489Y-24000D02*
X776000D01*
X583000Y52000D02*
X606166Y75166D01*
X542500Y52000D02*
X583000D01*
X528290Y66210D02*
X542500Y52000D01*
X603326Y574380D02*
X637816D01*
X638196Y574760D01*
X769826Y627826D02*
X801417Y659417D01*
X804443D01*
X804826Y659800D01*
X755526Y622149D02*
Y631545D01*
X691250Y557873D02*
X755526Y622149D01*
X650807Y582130D02*
X651057Y582380D01*
X603826Y582130D02*
X650807D01*
X651057Y582380D02*
X651731D01*
X691250Y539383D02*
Y557873D01*
X683195Y531328D02*
X691250Y539383D01*
X823000Y497304D02*
X885066Y559370D01*
X546880Y119880D02*
X823000Y396000D01*
Y497304D01*
X758286Y315286D02*
X835500Y392500D01*
Y484554D01*
X897826Y546880D01*
X398826Y119880D02*
X546880D01*
X758286Y262030D02*
Y315286D01*
X849576Y393076D02*
Y472630D01*
X789326Y245630D02*
Y332826D01*
X849576Y393076D01*
X769826Y607895D02*
Y627826D01*
X543250Y136250D02*
X808326Y401326D01*
X361826Y143380D02*
X368956Y136250D01*
X543250D01*
X795326Y401576D02*
Y521630D01*
X542880Y149130D02*
X795326Y401576D01*
X401076Y149130D02*
X542880D01*
X808326Y401326D02*
Y504130D01*
X370620Y631380D02*
X554576D01*
X350877Y651123D02*
X370620Y631380D01*
X350877Y651123D02*
Y730873D01*
X332076Y656674D02*
X366120Y622630D01*
X332076Y656674D02*
Y738380D01*
X366120Y622630D02*
X555076D01*
X328209Y746247D02*
X335503D01*
X350877Y730873D01*
X122960Y775290D02*
X137960Y760290D01*
X80000Y775290D02*
X122960D01*
X137960Y760290D02*
X223401D01*
X201790Y66210D02*
X528290D01*
X249290Y71210D02*
X540290D01*
X548750Y62750D01*
X573250D01*
X583514Y73014D01*
Y117698D01*
X606166Y75166D02*
Y97520D01*
X120500Y200000D02*
X249290Y71210D01*
X80000Y200000D02*
X120500D01*
X40000Y180000D02*
X88000D01*
X201790Y66210D01*
X716500Y862706D02*
X717636Y861570D01*
X745250Y861896D02*
X745576Y861570D01*
X829396D02*
Y868070D01*
X828126Y869340D02*
X829396Y868070D01*
X828126Y869340D02*
Y872750D01*
X801456Y861570D02*
Y868070D01*
X800186Y869340D02*
X801456Y868070D01*
X800186Y869340D02*
Y872750D01*
X717636Y861570D02*
Y871480D01*
X716366Y872750D02*
X717636Y871480D01*
X745576Y861570D02*
Y871480D01*
X744306Y872750D02*
X745576Y871480D01*
X773516Y861570D02*
Y868070D01*
X772246Y869340D02*
X773516Y868070D01*
X772246Y869340D02*
Y872750D01*
X753729Y591798D02*
X769826Y607895D01*
X737250Y554000D02*
X753729Y570479D01*
Y591798D01*
X395326Y154880D02*
X401076Y149130D01*
X885066Y559370D02*
Y580990D01*
X808326Y504130D02*
X836806Y532610D01*
Y547970D01*
X795326Y521630D02*
X843746Y570050D01*
Y580380D01*
X834826Y753880D02*
X852151Y736555D01*
X764826Y753880D02*
X834826D01*
X758326Y760380D02*
X764826Y753880D01*
X753061Y742205D02*
X809751D01*
X752986Y742280D02*
X753061Y742205D01*
X809751D02*
X809826Y742130D01*
X695836Y774040D02*
X825360D01*
X859663Y739737D01*
X852151Y736347D02*
Y736555D01*
Y736347D02*
X856576Y731921D01*
Y731380D02*
Y731921D01*
X648216Y104520D02*
X789326Y245630D01*
X784826Y629630D02*
X804326Y649130D01*
X391576Y127130D02*
X398826Y119880D01*
X554576Y631380D02*
X603826Y582130D01*
X555076Y622630D02*
X603326Y574380D01*
X327826Y746630D02*
X328209Y746247D01*
X232576Y735380D02*
Y735921D01*
X234576Y737921D01*
Y749115D01*
X223401Y760290D02*
X234576Y749115D01*
X40000Y755290D02*
X219916D01*
X228576Y746630D01*
X643606Y101020D02*
X647106Y104520D01*
X643606Y97520D02*
Y101020D01*
X647106Y104520D02*
X648216D01*
X642996Y146740D02*
X758286Y262030D01*
X605556Y139740D02*
Y143240D01*
X583514Y117698D02*
X605556Y139740D01*
X625166Y97520D02*
X643606D01*
X642996Y143240D02*
Y146740D01*
D16*
X41665Y912415D02*
X347901D01*
X0Y895290D02*
X24540D01*
X41665Y912415D01*
X40000Y795290D02*
X136096D01*
X157356Y774030D01*
X122175Y815290D02*
X125335Y812130D01*
X80000Y815290D02*
X122175D01*
X125335Y812130D02*
X125606D01*
X347901Y912415D02*
X398656Y861660D01*
X127875Y901030D02*
X128146D01*
X80000Y855290D02*
X82135D01*
X127875Y901030D01*
D29*
X662606Y97520D02*
D03*
X643606D02*
D03*
X605556Y143240D02*
D03*
X624556D02*
D03*
X606166Y97520D02*
D03*
X625166D02*
D03*
X661996Y143240D02*
D03*
X642996D02*
D03*
X182096Y353660D02*
D03*
X163096D02*
D03*
D31*
X643570Y75000D02*
D03*
X666430D02*
D03*
X618140Y165000D02*
D03*
X641000D02*
D03*
D32*
X442446Y234180D02*
D03*
Y253180D02*
D03*
X465306Y234180D02*
D03*
Y253180D02*
D03*
X829396Y861570D02*
D03*
Y842570D02*
D03*
X801456Y861570D02*
D03*
Y842570D02*
D03*
X773516Y861570D02*
D03*
Y842570D02*
D03*
X745576Y861570D02*
D03*
Y842570D02*
D03*
X717636Y861570D02*
D03*
Y842570D02*
D03*
D46*
X742826Y662270D02*
D03*
D75*
X643606Y75036D02*
Y97520D01*
X622056Y145740D02*
Y161084D01*
X618140Y165000D02*
X622056Y161084D01*
Y145740D02*
X624556Y143240D01*
X782000Y403054D02*
Y588554D01*
X543076Y164130D02*
X782000Y403054D01*
Y588554D02*
X789326Y595880D01*
X91500Y633500D02*
X106000Y619000D01*
X69500Y633500D02*
X91500D01*
X47500Y655500D02*
X69500Y633500D01*
X19250Y664250D02*
X28000Y655500D01*
X47500D01*
X19250Y694540D02*
X40000Y715290D01*
X19250Y664250D02*
Y694540D01*
X106000Y343750D02*
Y619000D01*
Y343750D02*
X147750Y302000D01*
X212376D01*
X288166Y377790D01*
X359430Y253180D02*
X438946D01*
X313860Y207610D02*
X359430Y253180D01*
X426736Y195050D02*
Y240970D01*
X438946Y253180D01*
X309756Y207610D02*
X313860D01*
X283986Y233380D02*
X309756Y207610D01*
X767576Y403130D02*
Y594380D01*
X345316Y98390D02*
Y198390D01*
X333826Y209880D02*
X345316Y198390D01*
X442446Y253180D02*
X465306D01*
X438946D02*
X442446D01*
X702826Y842880D02*
X703136Y842570D01*
X717636D01*
X846266D02*
X846326Y842630D01*
X829396Y842570D02*
X846266D01*
X801456D02*
X829396D01*
X773516D02*
X801456D01*
X745576D02*
X773516D01*
X717636D02*
X745576D01*
X477536Y195050D02*
X559496D01*
X767576Y403130D01*
X463576Y164130D02*
X543076D01*
X452136Y175570D02*
Y195050D01*
Y175570D02*
X463576Y164130D01*
X442076Y233810D02*
X442446Y234180D01*
X442076Y221130D02*
Y233810D01*
X465306Y223400D02*
X467076Y221630D01*
X465306Y223400D02*
Y234180D01*
X840616Y361280D02*
X868826Y389490D01*
X110518Y220000D02*
X123898Y233380D01*
X283986D01*
X40000Y220000D02*
X110518D01*
X570106Y633850D02*
Y649570D01*
Y633850D02*
X608076Y595880D01*
X868826Y389490D02*
Y463380D01*
X359596Y78690D02*
X361076Y77210D01*
X315266Y78690D02*
X359596D01*
X175826Y218130D02*
X315266Y78690D01*
X624556Y143240D02*
X642996D01*
X538276Y98390D02*
X562486Y74180D01*
X345316Y98390D02*
X538276D01*
X332616Y85690D02*
X345316Y98390D01*
X170056Y380330D02*
X177626D01*
X182096Y375860D01*
Y353660D02*
Y375860D01*
X154816Y353660D02*
X163096D01*
D77*
X243716Y887246D02*
X252950Y896480D01*
X243716Y490380D02*
Y887246D01*
X144500Y545250D02*
X188846D01*
X243716Y490380D01*
X662606Y101020D02*
X669966Y108380D01*
X662606Y97520D02*
Y101020D01*
X669966Y108380D02*
X674576D01*
X669886Y154630D02*
X671326D01*
X661996Y143240D02*
Y146740D01*
X669886Y154630D01*
X363096Y663540D02*
Y697830D01*
Y663540D02*
X377066Y649570D01*
X615826D02*
X655196Y688940D01*
X570106Y649570D02*
X615826D01*
X243716Y475580D02*
Y490380D01*
X377066Y649570D02*
X570106D01*
X600056Y895210D02*
X655196Y840070D01*
Y688940D02*
Y840070D01*
X325736Y896480D02*
X392306Y829910D01*
X454350D01*
X519650Y895210D01*
X600056D01*
X252950Y896480D02*
X325736D01*
X170056Y401920D02*
X243716Y475580D01*
X35436Y408270D02*
X40516Y403190D01*
Y364620D02*
Y403190D01*
X17000Y552290D02*
X80000Y615290D01*
X39166Y326270D02*
X40516Y324920D01*
X35016Y326270D02*
X39166D01*
X17000Y344286D02*
X35016Y326270D01*
X17000Y344286D02*
Y552290D01*
X40258Y260258D02*
Y324662D01*
X40516Y324920D01*
X40000Y260000D02*
X40258Y260258D01*
D78*
X80000Y40000D02*
X501556D01*
X291976Y414620D02*
X309756D01*
X156086Y324450D02*
X201806D01*
X291976Y414620D01*
X309756Y207610D02*
Y414620D01*
X453901Y782285D02*
X525656Y710530D01*
X427231Y782285D02*
X453901D01*
X127446Y353090D02*
X156086Y324450D01*
X127446Y353090D02*
Y628680D01*
X80000Y655290D02*
X100836D01*
X127446Y628680D01*
X309756Y414620D02*
Y733390D01*
Y782285D01*
X427231D02*
X525656Y880710D01*
X532006D01*
X501556Y40000D02*
X516766Y55210D01*
X309756Y782285D02*
X427231D01*
X309756D02*
Y831180D01*
X258956Y881980D02*
X309756Y831180D01*
D79*
X768053Y641688D02*
X787544Y661180D01*
X754355Y641688D02*
X768053D01*
X734864Y622197D02*
X754355Y641688D01*
X734864Y611386D02*
Y622197D01*
X725750Y651000D02*
X756250D01*
X775500Y670250D01*
X782000D01*
X625750Y551000D02*
X654750D01*
X707250Y603500D01*
X533750Y459000D02*
X625750Y551000D01*
X707250Y603500D02*
Y632500D01*
X725750Y651000D01*
X658478Y535000D02*
X734864Y611386D01*
X625500Y535000D02*
X658478D01*
X567000Y476500D02*
X625500Y535000D01*
X533750Y437000D02*
Y459000D01*
D80*
X-7744Y289435D02*
X0Y281691D01*
X-7744Y605855D02*
X0Y613599D01*
Y280000D02*
Y281691D01*
X-7744Y289435D02*
Y605855D01*
X0Y613599D02*
Y615290D01*
Y655290D01*
D81*
X929746Y634920D02*
D03*
D82*
X729746D02*
D03*
D83*
X829746Y224710D02*
D03*
D84*
X170056Y401920D02*
D03*
Y427320D02*
D03*
Y452720D02*
D03*
D85*
X80000Y895290D02*
D03*
Y280000D02*
D03*
D86*
Y615290D02*
D03*
X40000Y875290D02*
D03*
Y635290D02*
D03*
X0Y895290D02*
D03*
Y615290D02*
D03*
X80000Y855290D02*
D03*
Y815290D02*
D03*
Y775290D02*
D03*
Y735290D02*
D03*
Y695290D02*
D03*
Y655290D02*
D03*
X40000Y835290D02*
D03*
Y795290D02*
D03*
Y755290D02*
D03*
Y715290D02*
D03*
Y675290D02*
D03*
X0Y855290D02*
D03*
Y815290D02*
D03*
Y775290D02*
D03*
Y735290D02*
D03*
Y695290D02*
D03*
Y655290D02*
D03*
X80000Y0D02*
D03*
X40000Y260000D02*
D03*
Y20000D02*
D03*
X0Y280000D02*
D03*
Y0D02*
D03*
X80000Y240000D02*
D03*
Y200000D02*
D03*
Y160000D02*
D03*
Y120000D02*
D03*
Y80000D02*
D03*
Y40000D02*
D03*
X40000Y220000D02*
D03*
Y180000D02*
D03*
Y140000D02*
D03*
Y100000D02*
D03*
Y60000D02*
D03*
X0Y240000D02*
D03*
Y200000D02*
D03*
Y160000D02*
D03*
Y120000D02*
D03*
Y80000D02*
D03*
Y40000D02*
D03*
D87*
X452136Y195050D02*
D03*
X401336D02*
D03*
X477536D02*
D03*
X426736D02*
D03*
D88*
X900000Y0D02*
D03*
Y850000D02*
D03*
D89*
X935077Y909131D02*
D03*
X945077Y889131D02*
D03*
X935077Y869131D02*
D03*
X945077Y849131D02*
D03*
X935077Y829131D02*
D03*
X945077Y809131D02*
D03*
X935077Y789131D02*
D03*
X945077Y769131D02*
D03*
X935077Y749131D02*
D03*
X945077Y729131D02*
D03*
X935077Y709131D02*
D03*
X945077Y689130D02*
D03*
X935077Y589131D02*
D03*
Y549131D02*
D03*
Y509131D02*
D03*
Y469130D02*
D03*
X945077Y409130D02*
D03*
X935077Y389130D02*
D03*
X945077Y369130D02*
D03*
X935077Y349130D02*
D03*
X945077Y329130D02*
D03*
X935077Y309130D02*
D03*
X945077Y289130D02*
D03*
X935077Y269130D02*
D03*
X945077Y249130D02*
D03*
X935077Y229130D02*
D03*
X945077Y209130D02*
D03*
X935077Y189130D02*
D03*
X945077Y169130D02*
D03*
X935077Y149130D02*
D03*
X945077Y129130D02*
D03*
X935077Y109130D02*
D03*
X945077Y89130D02*
D03*
X935077Y69130D02*
D03*
X945077Y49130D02*
D03*
X935077Y29130D02*
D03*
X945077Y9130D02*
D03*
X935077Y-10870D02*
D03*
X945077Y-30870D02*
D03*
X935077Y-50870D02*
D03*
X915077Y909131D02*
D03*
X925077Y889131D02*
D03*
Y809131D02*
D03*
X915077Y789131D02*
D03*
X925077Y769131D02*
D03*
X915077Y749131D02*
D03*
X925077Y729131D02*
D03*
X915077Y709131D02*
D03*
Y429130D02*
D03*
X925077Y369130D02*
D03*
Y329130D02*
D03*
Y289130D02*
D03*
Y249130D02*
D03*
Y209130D02*
D03*
Y169130D02*
D03*
Y129130D02*
D03*
Y89130D02*
D03*
X915077Y69130D02*
D03*
X925077Y49130D02*
D03*
Y-30870D02*
D03*
X915077Y-50870D02*
D03*
X895077Y909131D02*
D03*
X905077Y889131D02*
D03*
Y809131D02*
D03*
X895077Y789131D02*
D03*
X905077Y769131D02*
D03*
Y649130D02*
D03*
Y129130D02*
D03*
X895077Y109130D02*
D03*
X905077Y89130D02*
D03*
X895077Y69130D02*
D03*
X905077Y49130D02*
D03*
X895077Y-50870D02*
D03*
X875077Y909131D02*
D03*
X885077Y889131D02*
D03*
Y809131D02*
D03*
X875077Y509131D02*
D03*
X885077Y489130D02*
D03*
X875077Y469130D02*
D03*
X885077Y409130D02*
D03*
Y369130D02*
D03*
Y329130D02*
D03*
X875077Y309130D02*
D03*
X885077Y289130D02*
D03*
X875077Y269130D02*
D03*
X885077Y249130D02*
D03*
X875077Y229130D02*
D03*
X885077Y209130D02*
D03*
X875077Y189130D02*
D03*
X885077Y169130D02*
D03*
X875077Y149130D02*
D03*
X885077Y49130D02*
D03*
X875077Y29130D02*
D03*
Y-50870D02*
D03*
X855077Y909131D02*
D03*
X865077Y889131D02*
D03*
X855077Y869131D02*
D03*
X865077Y849131D02*
D03*
X855077Y829131D02*
D03*
X865077Y809131D02*
D03*
X855077Y389130D02*
D03*
X865077Y369130D02*
D03*
X855077Y349130D02*
D03*
Y309130D02*
D03*
X865077Y289130D02*
D03*
X855077Y269130D02*
D03*
X865077Y249130D02*
D03*
Y209130D02*
D03*
Y169130D02*
D03*
X855077Y149130D02*
D03*
X865077Y129130D02*
D03*
X855077Y109130D02*
D03*
X865077Y89130D02*
D03*
X855077Y69130D02*
D03*
X865077Y49130D02*
D03*
X855077Y29130D02*
D03*
X865077Y9130D02*
D03*
X855077Y-10870D02*
D03*
X865077Y-30870D02*
D03*
X855077Y-50870D02*
D03*
X835077Y909131D02*
D03*
X845077Y889131D02*
D03*
Y729131D02*
D03*
X835077Y709131D02*
D03*
Y629131D02*
D03*
X845077Y329130D02*
D03*
Y289130D02*
D03*
Y169130D02*
D03*
X835077Y149130D02*
D03*
X845077Y129130D02*
D03*
X835077Y109130D02*
D03*
X845077Y9130D02*
D03*
X835077Y-10870D02*
D03*
X845077Y-30870D02*
D03*
X835077Y-50870D02*
D03*
X815077Y909131D02*
D03*
X825077Y889131D02*
D03*
X815077Y869131D02*
D03*
Y709131D02*
D03*
X825077Y569131D02*
D03*
X815077Y469130D02*
D03*
Y429130D02*
D03*
Y349130D02*
D03*
X825077Y169130D02*
D03*
X815077Y149130D02*
D03*
X825077Y129130D02*
D03*
X815077Y109130D02*
D03*
X825077Y89130D02*
D03*
X815077Y69130D02*
D03*
X825077Y49130D02*
D03*
X815077Y29130D02*
D03*
X825077Y9130D02*
D03*
X815077Y-10870D02*
D03*
X825077Y-30870D02*
D03*
X815077Y-50870D02*
D03*
X795077Y909131D02*
D03*
X805077Y889131D02*
D03*
X795077Y829131D02*
D03*
Y709131D02*
D03*
Y549131D02*
D03*
X805077Y329130D02*
D03*
Y289130D02*
D03*
Y169130D02*
D03*
Y129130D02*
D03*
Y-30870D02*
D03*
X795077Y-50870D02*
D03*
X775077Y909131D02*
D03*
X785077Y889131D02*
D03*
Y809131D02*
D03*
X775077Y789131D02*
D03*
X785077Y729131D02*
D03*
X775077Y309130D02*
D03*
Y69130D02*
D03*
X785077Y-30870D02*
D03*
X775077Y-50870D02*
D03*
X755077Y909131D02*
D03*
X765077Y889131D02*
D03*
X755077Y749131D02*
D03*
X765077Y729131D02*
D03*
X755077Y549131D02*
D03*
Y509131D02*
D03*
Y469130D02*
D03*
Y429130D02*
D03*
X765077Y289130D02*
D03*
Y249130D02*
D03*
X755077Y229130D02*
D03*
X765077Y209130D02*
D03*
X755077Y189130D02*
D03*
X765077Y169130D02*
D03*
X755077Y149130D02*
D03*
X765077Y129130D02*
D03*
X755077Y109130D02*
D03*
X765077Y89130D02*
D03*
X755077Y29130D02*
D03*
X765077Y-30870D02*
D03*
X755077Y-50870D02*
D03*
X735077Y909131D02*
D03*
X745077Y889131D02*
D03*
X735077Y829131D02*
D03*
Y749131D02*
D03*
X745077Y729131D02*
D03*
Y529131D02*
D03*
Y489130D02*
D03*
Y449130D02*
D03*
Y409130D02*
D03*
X735077Y269130D02*
D03*
Y229130D02*
D03*
X745077Y169130D02*
D03*
X735077Y149130D02*
D03*
X745077Y129130D02*
D03*
X735077Y109130D02*
D03*
X745077Y89130D02*
D03*
Y9130D02*
D03*
Y-30870D02*
D03*
X735077Y-50870D02*
D03*
X715077Y909131D02*
D03*
X725077Y889131D02*
D03*
X715077Y789131D02*
D03*
Y749131D02*
D03*
X725077Y729131D02*
D03*
X715077Y549131D02*
D03*
X725077Y529131D02*
D03*
X715077Y509131D02*
D03*
X725077Y489130D02*
D03*
X715077Y469130D02*
D03*
X725077Y449130D02*
D03*
X715077Y429130D02*
D03*
X725077Y409130D02*
D03*
X715077Y389130D02*
D03*
X725077Y249130D02*
D03*
X715077Y229130D02*
D03*
X725077Y209130D02*
D03*
X715077Y189130D02*
D03*
X725077Y169130D02*
D03*
X715077Y149130D02*
D03*
X725077Y129130D02*
D03*
X715077Y109130D02*
D03*
X725077Y89130D02*
D03*
Y-30870D02*
D03*
X715077Y-50870D02*
D03*
X695077Y909131D02*
D03*
X705077Y889131D02*
D03*
X695077Y869131D02*
D03*
Y829131D02*
D03*
Y789131D02*
D03*
Y749131D02*
D03*
X705077Y729131D02*
D03*
X695077Y709131D02*
D03*
Y669130D02*
D03*
Y629131D02*
D03*
X705077Y529131D02*
D03*
X695077Y509131D02*
D03*
X705077Y489130D02*
D03*
X695077Y469130D02*
D03*
X705077Y449130D02*
D03*
X695077Y429130D02*
D03*
X705077Y409130D02*
D03*
X695077Y389130D02*
D03*
X705077Y369130D02*
D03*
X695077Y349130D02*
D03*
Y229130D02*
D03*
Y189130D02*
D03*
X705077Y129130D02*
D03*
X695077Y109130D02*
D03*
X705077Y89130D02*
D03*
Y49130D02*
D03*
Y9130D02*
D03*
Y-30870D02*
D03*
X695077Y-50870D02*
D03*
X675077Y909131D02*
D03*
X685077Y889131D02*
D03*
X675077Y869131D02*
D03*
Y829131D02*
D03*
Y789131D02*
D03*
Y749131D02*
D03*
X685077Y729131D02*
D03*
X675077Y709131D02*
D03*
Y509131D02*
D03*
Y469130D02*
D03*
Y429130D02*
D03*
Y389130D02*
D03*
Y349130D02*
D03*
X685077Y209130D02*
D03*
X675077Y189130D02*
D03*
X685077Y169130D02*
D03*
Y129130D02*
D03*
Y89130D02*
D03*
Y49130D02*
D03*
X675077Y29130D02*
D03*
X685077Y9130D02*
D03*
Y-30870D02*
D03*
X675077Y-50870D02*
D03*
X655077Y909131D02*
D03*
X665077Y889131D02*
D03*
Y849131D02*
D03*
Y729131D02*
D03*
Y689130D02*
D03*
X655077Y669130D02*
D03*
X665077Y529131D02*
D03*
X655077Y509131D02*
D03*
X665077Y489130D02*
D03*
Y449130D02*
D03*
Y409130D02*
D03*
X655077Y389130D02*
D03*
X665077Y369130D02*
D03*
X655077Y349130D02*
D03*
X665077Y329130D02*
D03*
X655077Y309130D02*
D03*
Y189130D02*
D03*
X665077Y49130D02*
D03*
Y9130D02*
D03*
Y-30870D02*
D03*
X655077Y-50870D02*
D03*
X635076Y909131D02*
D03*
X645077Y889131D02*
D03*
X635076Y789131D02*
D03*
Y749131D02*
D03*
X645077Y729131D02*
D03*
X635076Y709131D02*
D03*
Y589131D02*
D03*
X645077Y569131D02*
D03*
X635076Y509131D02*
D03*
Y469130D02*
D03*
X645077Y449130D02*
D03*
X635076Y389130D02*
D03*
X645077Y329130D02*
D03*
X635076Y309130D02*
D03*
X645077Y129130D02*
D03*
X635076Y109130D02*
D03*
X645077Y9130D02*
D03*
X635076Y-50870D02*
D03*
X615076Y909131D02*
D03*
X625076Y889131D02*
D03*
X615076Y829131D02*
D03*
Y789131D02*
D03*
Y749131D02*
D03*
X625076Y729131D02*
D03*
X615076Y709131D02*
D03*
Y669130D02*
D03*
Y509131D02*
D03*
X625076Y489130D02*
D03*
X615076Y469130D02*
D03*
Y389130D02*
D03*
X625076Y329130D02*
D03*
X615076Y309130D02*
D03*
X625076Y289130D02*
D03*
X615076Y269130D02*
D03*
X625076Y129130D02*
D03*
X615076Y109130D02*
D03*
X625076Y9130D02*
D03*
X615076Y-50870D02*
D03*
X595076Y909131D02*
D03*
Y869131D02*
D03*
X605076Y809131D02*
D03*
X595076Y789131D02*
D03*
Y749131D02*
D03*
X605076Y729131D02*
D03*
X595076Y709131D02*
D03*
X605076Y449130D02*
D03*
Y329130D02*
D03*
Y289130D02*
D03*
Y129130D02*
D03*
X595076Y109130D02*
D03*
Y29130D02*
D03*
Y-50870D02*
D03*
X575076Y909131D02*
D03*
X585076Y849131D02*
D03*
X575076Y829131D02*
D03*
X585076Y809131D02*
D03*
X575076Y789131D02*
D03*
Y749131D02*
D03*
X585076Y729131D02*
D03*
Y689130D02*
D03*
X575076Y669130D02*
D03*
Y109130D02*
D03*
Y29130D02*
D03*
X585076Y9130D02*
D03*
X575076Y-50870D02*
D03*
X555076Y909131D02*
D03*
Y869131D02*
D03*
X565076Y849131D02*
D03*
X555076Y829131D02*
D03*
X565076Y809131D02*
D03*
X555076Y789131D02*
D03*
Y749131D02*
D03*
X565076Y729131D02*
D03*
Y689130D02*
D03*
X555076Y549131D02*
D03*
Y509131D02*
D03*
Y429130D02*
D03*
Y269130D02*
D03*
X565076Y89130D02*
D03*
X555076Y69130D02*
D03*
Y29130D02*
D03*
X565076Y9130D02*
D03*
X555076Y-50870D02*
D03*
X535076Y909131D02*
D03*
X545076Y809131D02*
D03*
X535076Y789131D02*
D03*
Y749131D02*
D03*
X545076Y729131D02*
D03*
Y569131D02*
D03*
X535076Y549131D02*
D03*
X545076Y529131D02*
D03*
X535076Y509131D02*
D03*
X545076Y489130D02*
D03*
Y449130D02*
D03*
Y409130D02*
D03*
X535076Y389130D02*
D03*
X545076Y369130D02*
D03*
X535076Y349130D02*
D03*
X545076Y329130D02*
D03*
X535076Y309130D02*
D03*
X545076Y289130D02*
D03*
X535076Y269130D02*
D03*
X545076Y249130D02*
D03*
X535076Y-50870D02*
D03*
X515076Y909131D02*
D03*
Y829131D02*
D03*
X525076Y809131D02*
D03*
X515076Y789131D02*
D03*
Y749131D02*
D03*
X525076Y729131D02*
D03*
X515076Y669130D02*
D03*
X525076Y569131D02*
D03*
X515076Y549131D02*
D03*
X525076Y529131D02*
D03*
X515076Y509131D02*
D03*
X525076Y489130D02*
D03*
X515076Y469130D02*
D03*
X525076Y449130D02*
D03*
X515076Y429130D02*
D03*
X525076Y409130D02*
D03*
X515076Y389130D02*
D03*
X525076Y369130D02*
D03*
X515076Y349130D02*
D03*
X525076Y329130D02*
D03*
X515076Y309130D02*
D03*
X525076Y289130D02*
D03*
X515076Y269130D02*
D03*
X525076Y249130D02*
D03*
Y89130D02*
D03*
X515076Y-50870D02*
D03*
X495076Y909131D02*
D03*
X505076Y809131D02*
D03*
X495076Y789131D02*
D03*
Y709131D02*
D03*
X505076Y689130D02*
D03*
Y569131D02*
D03*
Y89130D02*
D03*
X495076Y-50870D02*
D03*
X475076Y909131D02*
D03*
X485076Y889131D02*
D03*
Y809131D02*
D03*
X475076Y789131D02*
D03*
X485076Y729131D02*
D03*
X475076Y549131D02*
D03*
Y509131D02*
D03*
Y469130D02*
D03*
Y429130D02*
D03*
Y389130D02*
D03*
Y349130D02*
D03*
Y309130D02*
D03*
Y269130D02*
D03*
X485076Y209130D02*
D03*
Y89130D02*
D03*
X475076Y-50870D02*
D03*
X455076Y909131D02*
D03*
X465076Y889131D02*
D03*
X455076Y749131D02*
D03*
Y549131D02*
D03*
X465076Y529131D02*
D03*
X455076Y509131D02*
D03*
X465076Y489130D02*
D03*
X455076Y469130D02*
D03*
X465076Y449130D02*
D03*
X455076Y429130D02*
D03*
X465076Y409130D02*
D03*
X455076Y389130D02*
D03*
X465076Y369130D02*
D03*
X455076Y349130D02*
D03*
X465076Y329130D02*
D03*
X455076Y309130D02*
D03*
X465076Y289130D02*
D03*
X455076Y269130D02*
D03*
X465076Y209130D02*
D03*
Y89130D02*
D03*
X455076Y-50870D02*
D03*
X435076Y909131D02*
D03*
Y749131D02*
D03*
Y709131D02*
D03*
X445076Y689130D02*
D03*
X435076Y549131D02*
D03*
X445076Y529131D02*
D03*
X435076Y509131D02*
D03*
X445076Y489130D02*
D03*
X435076Y469130D02*
D03*
X445076Y449130D02*
D03*
X435076Y429130D02*
D03*
X445076Y409130D02*
D03*
X435076Y389130D02*
D03*
X445076Y369130D02*
D03*
X435076Y349130D02*
D03*
X445076Y329130D02*
D03*
X435076Y309130D02*
D03*
X445076Y289130D02*
D03*
X435076Y269130D02*
D03*
X445076Y209130D02*
D03*
Y89130D02*
D03*
Y9130D02*
D03*
X435076Y-50870D02*
D03*
X415076Y909131D02*
D03*
Y749131D02*
D03*
X425076Y729131D02*
D03*
X415076Y709131D02*
D03*
Y669130D02*
D03*
Y549131D02*
D03*
X425076Y529131D02*
D03*
X415076Y509131D02*
D03*
X425076Y489130D02*
D03*
X415076Y469130D02*
D03*
X425076Y449130D02*
D03*
X415076Y429130D02*
D03*
X425076Y409130D02*
D03*
X415076Y389130D02*
D03*
X425076Y369130D02*
D03*
X415076Y349130D02*
D03*
X425076Y329130D02*
D03*
X415076Y309130D02*
D03*
X425076Y289130D02*
D03*
X415076Y269130D02*
D03*
Y229130D02*
D03*
X425076Y89130D02*
D03*
Y9130D02*
D03*
Y-30870D02*
D03*
X415076Y-50870D02*
D03*
X395076Y909131D02*
D03*
X405076Y889131D02*
D03*
Y809131D02*
D03*
X395076Y749131D02*
D03*
X405076Y729131D02*
D03*
Y689130D02*
D03*
X395076Y549131D02*
D03*
X405076Y449130D02*
D03*
X395076Y429130D02*
D03*
Y309130D02*
D03*
X405076Y289130D02*
D03*
X395076Y269130D02*
D03*
Y229130D02*
D03*
X405076Y209130D02*
D03*
Y89130D02*
D03*
Y9130D02*
D03*
Y-30870D02*
D03*
X395076Y-50870D02*
D03*
X375076Y909131D02*
D03*
X385076Y889131D02*
D03*
Y809131D02*
D03*
X375076Y749131D02*
D03*
X385076Y609131D02*
D03*
Y449130D02*
D03*
X375076Y429130D02*
D03*
X385076Y289130D02*
D03*
X375076Y269130D02*
D03*
Y229130D02*
D03*
X385076Y209130D02*
D03*
X375076Y189130D02*
D03*
X385076Y89130D02*
D03*
Y9130D02*
D03*
Y-30870D02*
D03*
X375076Y-50870D02*
D03*
X365076Y809131D02*
D03*
Y769131D02*
D03*
Y609131D02*
D03*
X355076Y549131D02*
D03*
Y509131D02*
D03*
X365076Y489130D02*
D03*
X355076Y469130D02*
D03*
Y429130D02*
D03*
X365076Y409130D02*
D03*
X355076Y349130D02*
D03*
X365076Y289130D02*
D03*
X355076Y269130D02*
D03*
Y229130D02*
D03*
X365076Y209130D02*
D03*
X355076Y189130D02*
D03*
X365076Y89130D02*
D03*
Y9130D02*
D03*
Y-30870D02*
D03*
X355076Y-50870D02*
D03*
X345076Y609131D02*
D03*
X335076Y549131D02*
D03*
Y509131D02*
D03*
X345076Y489130D02*
D03*
X335076Y469130D02*
D03*
Y429130D02*
D03*
X345076Y409130D02*
D03*
Y369130D02*
D03*
X335076Y349130D02*
D03*
X345076Y329130D02*
D03*
Y289130D02*
D03*
Y249130D02*
D03*
Y209130D02*
D03*
X335076Y189130D02*
D03*
X345076Y-30870D02*
D03*
X335076Y-50870D02*
D03*
X315076Y869131D02*
D03*
X325076Y809131D02*
D03*
Y729131D02*
D03*
Y609131D02*
D03*
Y489130D02*
D03*
Y409130D02*
D03*
Y369130D02*
D03*
Y329130D02*
D03*
X315076Y189130D02*
D03*
X325076Y9130D02*
D03*
Y-30870D02*
D03*
X315076Y-50870D02*
D03*
X295076Y789131D02*
D03*
Y669130D02*
D03*
Y629131D02*
D03*
Y549131D02*
D03*
Y469130D02*
D03*
Y429130D02*
D03*
Y349130D02*
D03*
Y269130D02*
D03*
Y189130D02*
D03*
X305076Y9130D02*
D03*
Y-30870D02*
D03*
X295076Y-50870D02*
D03*
X285076Y809131D02*
D03*
X275076Y789131D02*
D03*
Y629131D02*
D03*
X285076Y609131D02*
D03*
X275076Y549131D02*
D03*
X285076Y529131D02*
D03*
X275076Y509131D02*
D03*
X285076Y489130D02*
D03*
X275076Y469130D02*
D03*
Y429130D02*
D03*
Y309130D02*
D03*
X285076Y289130D02*
D03*
X275076Y269130D02*
D03*
X285076Y-30870D02*
D03*
X275076Y-50870D02*
D03*
X265076Y809131D02*
D03*
X255076Y789131D02*
D03*
X265076Y729131D02*
D03*
X255076Y709131D02*
D03*
X265076Y649130D02*
D03*
X255076Y629131D02*
D03*
X265076Y609131D02*
D03*
X255076Y549131D02*
D03*
X265076Y529131D02*
D03*
X255076Y509131D02*
D03*
X265076Y489130D02*
D03*
X255076Y469130D02*
D03*
Y309130D02*
D03*
X265076Y289130D02*
D03*
X255076Y269130D02*
D03*
X265076Y-30870D02*
D03*
X255076Y-50870D02*
D03*
X235076Y429130D02*
D03*
X245076Y409130D02*
D03*
X235076Y389130D02*
D03*
Y309130D02*
D03*
Y269130D02*
D03*
X245076Y249130D02*
D03*
Y129130D02*
D03*
X235076Y-50870D02*
D03*
X225076Y889131D02*
D03*
Y809131D02*
D03*
X215076Y789131D02*
D03*
Y749131D02*
D03*
X225076Y729131D02*
D03*
X215076Y709131D02*
D03*
Y629131D02*
D03*
X225076Y609131D02*
D03*
X215076Y549131D02*
D03*
X225076Y529131D02*
D03*
Y489130D02*
D03*
X215076Y469130D02*
D03*
Y429130D02*
D03*
X225076Y409130D02*
D03*
X215076Y389130D02*
D03*
X225076Y369130D02*
D03*
Y329130D02*
D03*
X215076Y269130D02*
D03*
X225076Y249130D02*
D03*
Y129130D02*
D03*
X215076Y-50870D02*
D03*
X205076Y889131D02*
D03*
X195076Y749131D02*
D03*
X205076Y729131D02*
D03*
X195076Y629131D02*
D03*
X205076Y609131D02*
D03*
Y489130D02*
D03*
X195076Y469130D02*
D03*
X205076Y409130D02*
D03*
X195076Y389130D02*
D03*
X205076Y369130D02*
D03*
X195076Y349130D02*
D03*
Y309130D02*
D03*
X205076Y129130D02*
D03*
Y9130D02*
D03*
X195076Y-50870D02*
D03*
X175076Y829131D02*
D03*
Y749131D02*
D03*
X185076Y689130D02*
D03*
Y609131D02*
D03*
Y489130D02*
D03*
Y289130D02*
D03*
X175076Y269130D02*
D03*
X185076Y249130D02*
D03*
X175076Y69130D02*
D03*
X185076Y9130D02*
D03*
X175076Y-50870D02*
D03*
X165076Y889131D02*
D03*
X155076Y829131D02*
D03*
Y789131D02*
D03*
Y749131D02*
D03*
X165076Y729131D02*
D03*
Y689130D02*
D03*
Y529131D02*
D03*
X155076Y429130D02*
D03*
Y389130D02*
D03*
Y309130D02*
D03*
Y269130D02*
D03*
X165076Y249130D02*
D03*
X155076Y189130D02*
D03*
X165076Y129130D02*
D03*
X155076Y69130D02*
D03*
X165076Y9130D02*
D03*
X155076Y-50870D02*
D03*
X145076Y889131D02*
D03*
Y809131D02*
D03*
Y769131D02*
D03*
X135076Y749131D02*
D03*
X145076Y729131D02*
D03*
Y689130D02*
D03*
Y489130D02*
D03*
Y449130D02*
D03*
Y409130D02*
D03*
Y369130D02*
D03*
Y289130D02*
D03*
X135076Y269130D02*
D03*
X145076Y209130D02*
D03*
X135076Y69130D02*
D03*
X145076Y9130D02*
D03*
X135076Y-50870D02*
D03*
X115076Y829131D02*
D03*
Y589131D02*
D03*
Y469130D02*
D03*
Y429130D02*
D03*
Y389130D02*
D03*
Y349130D02*
D03*
Y309130D02*
D03*
X125076Y289130D02*
D03*
X115076Y269130D02*
D03*
X125076Y209130D02*
D03*
X115076Y189130D02*
D03*
X125076Y129130D02*
D03*
Y-30870D02*
D03*
X115076Y-50870D02*
D03*
X105076Y849131D02*
D03*
X95076Y589131D02*
D03*
Y469130D02*
D03*
Y429130D02*
D03*
Y389130D02*
D03*
Y349130D02*
D03*
X105076Y329130D02*
D03*
X95076Y309130D02*
D03*
X105076Y289130D02*
D03*
X95076Y229130D02*
D03*
X105076Y209130D02*
D03*
X95076Y189130D02*
D03*
X105076Y129130D02*
D03*
X95076Y69130D02*
D03*
X105076Y-30870D02*
D03*
X95076Y-50870D02*
D03*
X75076Y589131D02*
D03*
X85076Y569131D02*
D03*
Y489130D02*
D03*
Y449130D02*
D03*
Y409130D02*
D03*
Y369130D02*
D03*
Y329130D02*
D03*
Y-30870D02*
D03*
X75076Y-50870D02*
D03*
X65076Y489130D02*
D03*
X55076Y469130D02*
D03*
X65076Y449130D02*
D03*
X55076Y429130D02*
D03*
X65076Y-30870D02*
D03*
X55076Y-50870D02*
D03*
X35076Y549131D02*
D03*
Y509131D02*
D03*
X45076Y449130D02*
D03*
X35076Y349130D02*
D03*
Y-10870D02*
D03*
X45076Y-30870D02*
D03*
X35076Y-50870D02*
D03*
X15076Y909131D02*
D03*
Y869131D02*
D03*
Y829131D02*
D03*
X25076Y809131D02*
D03*
X15076Y789131D02*
D03*
X25076Y769131D02*
D03*
X15076Y749131D02*
D03*
X25076Y729131D02*
D03*
X15076Y709131D02*
D03*
Y629131D02*
D03*
X25076Y609131D02*
D03*
X15076Y589131D02*
D03*
Y269130D02*
D03*
X25076Y249130D02*
D03*
X15076Y229130D02*
D03*
X25076Y209130D02*
D03*
X15076Y189130D02*
D03*
X25076Y169130D02*
D03*
X15076Y149130D02*
D03*
X25076Y129130D02*
D03*
X15076Y109130D02*
D03*
X25076Y89130D02*
D03*
X15076Y-10870D02*
D03*
X25076Y-30870D02*
D03*
X15076Y-50870D02*
D03*
X5076Y-30870D02*
D03*
X-4924Y-50870D02*
D03*
X-24924Y869131D02*
D03*
Y829131D02*
D03*
Y789131D02*
D03*
Y749131D02*
D03*
Y709131D02*
D03*
Y669130D02*
D03*
Y629131D02*
D03*
Y589131D02*
D03*
Y549131D02*
D03*
Y509131D02*
D03*
Y469130D02*
D03*
Y429130D02*
D03*
Y389130D02*
D03*
Y349130D02*
D03*
Y309130D02*
D03*
Y269130D02*
D03*
Y229130D02*
D03*
Y189130D02*
D03*
Y149130D02*
D03*
Y109130D02*
D03*
Y69130D02*
D03*
Y29130D02*
D03*
Y-10870D02*
D03*
X-14924Y-30870D02*
D03*
X203826Y-7500D02*
D03*
X456576Y-4370D02*
D03*
X903826Y624630D02*
D03*
X872750Y664500D02*
D03*
X877250Y624500D02*
D03*
X857750Y624750D02*
D03*
X861000Y657750D02*
D03*
X638196Y574760D02*
D03*
X804826Y659800D02*
D03*
X787544Y661180D02*
D03*
X755526Y631545D02*
D03*
X651731Y582380D02*
D03*
X782000Y670250D02*
D03*
X740784Y598922D02*
D03*
X567000Y476500D02*
D03*
X564326Y501630D02*
D03*
X610273Y548621D02*
D03*
X533750Y437000D02*
D03*
X647250Y347250D02*
D03*
X588500Y365000D02*
D03*
X828126Y872750D02*
D03*
X800186D02*
D03*
X716366D02*
D03*
X744306D02*
D03*
X772246D02*
D03*
X805160Y637800D02*
D03*
X767576Y594380D02*
D03*
X361826Y143380D02*
D03*
X72655Y712016D02*
D03*
X66486Y707680D02*
D03*
X62670Y701177D02*
D03*
X61789Y693689D02*
D03*
X63948Y686465D02*
D03*
X68905Y680783D02*
D03*
X75684Y677482D02*
D03*
X83222Y677293D02*
D03*
X90454Y679424D02*
D03*
X94420Y673011D02*
D03*
X94562Y642852D02*
D03*
X140978Y577650D02*
D03*
X146309Y572318D02*
D03*
X151771Y567120D02*
D03*
X158056Y562955D02*
D03*
X165154Y560410D02*
D03*
X172631Y559438D02*
D03*
X180171Y559442D02*
D03*
X187711D02*
D03*
X195251D02*
D03*
X202791D02*
D03*
X210331D02*
D03*
X217871D02*
D03*
X225410D02*
D03*
X232950D02*
D03*
X255571D02*
D03*
X263111D02*
D03*
X270651D02*
D03*
X278190D02*
D03*
X285730D02*
D03*
X293270D02*
D03*
X323430D02*
D03*
X330970D02*
D03*
X338510D02*
D03*
X346050D02*
D03*
X353590D02*
D03*
X361130D02*
D03*
X368670D02*
D03*
X376210D02*
D03*
X383750D02*
D03*
X391290D02*
D03*
X398830D02*
D03*
X406370D02*
D03*
X413910D02*
D03*
X421450D02*
D03*
X428990D02*
D03*
X436530D02*
D03*
X444070D02*
D03*
X451610D02*
D03*
X459150D02*
D03*
X466690D02*
D03*
X474227Y559226D02*
D03*
X480984Y555880D02*
D03*
X484654Y549293D02*
D03*
X484948Y541759D02*
D03*
Y534219D02*
D03*
Y526679D02*
D03*
Y519139D02*
D03*
Y511599D02*
D03*
Y504059D02*
D03*
Y496519D02*
D03*
Y488979D02*
D03*
Y481439D02*
D03*
Y473899D02*
D03*
Y466359D02*
D03*
Y458819D02*
D03*
Y451279D02*
D03*
Y443739D02*
D03*
Y436199D02*
D03*
Y428659D02*
D03*
Y421119D02*
D03*
Y413579D02*
D03*
Y406039D02*
D03*
Y398499D02*
D03*
Y390959D02*
D03*
Y383419D02*
D03*
Y375879D02*
D03*
Y368339D02*
D03*
Y360799D02*
D03*
Y353259D02*
D03*
Y345719D02*
D03*
Y338179D02*
D03*
Y330639D02*
D03*
Y323099D02*
D03*
Y315559D02*
D03*
Y308019D02*
D03*
Y300479D02*
D03*
Y292939D02*
D03*
Y285399D02*
D03*
Y277859D02*
D03*
Y270319D02*
D03*
Y262779D02*
D03*
Y255239D02*
D03*
Y247699D02*
D03*
X485232Y240165D02*
D03*
X487075Y232853D02*
D03*
X490417Y226095D02*
D03*
X495700Y220715D02*
D03*
X501460Y215849D02*
D03*
X508350Y212788D02*
D03*
X515776Y211477D02*
D03*
X523315Y211352D02*
D03*
X530855D02*
D03*
X538395D02*
D03*
X545935D02*
D03*
X553465Y211723D02*
D03*
X560731Y213739D02*
D03*
X567397Y217262D02*
D03*
X573032Y222272D02*
D03*
X577432Y228395D02*
D03*
X573566Y258182D02*
D03*
X566177Y256682D02*
D03*
X563674Y249569D02*
D03*
Y242029D02*
D03*
X563176Y234506D02*
D03*
X557681Y229343D02*
D03*
X550541Y226920D02*
D03*
X543003Y226728D02*
D03*
X535463D02*
D03*
X527923D02*
D03*
X520383D02*
D03*
X512891Y227573D02*
D03*
X506533Y231626D02*
D03*
X501767Y237469D02*
D03*
X500324Y244870D02*
D03*
Y252410D02*
D03*
Y259950D02*
D03*
Y267490D02*
D03*
Y275030D02*
D03*
Y282570D02*
D03*
Y290110D02*
D03*
Y297649D02*
D03*
Y305189D02*
D03*
Y312729D02*
D03*
Y320270D02*
D03*
Y327809D02*
D03*
Y335350D02*
D03*
Y342890D02*
D03*
Y350429D02*
D03*
Y357969D02*
D03*
Y365509D02*
D03*
Y373049D02*
D03*
Y380589D02*
D03*
Y388129D02*
D03*
Y395669D02*
D03*
Y403209D02*
D03*
Y410749D02*
D03*
Y418289D02*
D03*
Y425829D02*
D03*
Y433369D02*
D03*
Y440909D02*
D03*
Y448449D02*
D03*
Y455989D02*
D03*
Y463529D02*
D03*
Y471069D02*
D03*
Y478609D02*
D03*
Y486149D02*
D03*
Y493689D02*
D03*
Y501229D02*
D03*
Y508769D02*
D03*
Y516309D02*
D03*
Y523849D02*
D03*
Y531389D02*
D03*
Y538929D02*
D03*
X500340Y546469D02*
D03*
X499341Y553943D02*
D03*
X496441Y560903D02*
D03*
X491834Y566872D02*
D03*
X485730Y571298D02*
D03*
X478713Y574058D02*
D03*
X471212Y574818D02*
D03*
X463672D02*
D03*
X456132D02*
D03*
X448592D02*
D03*
X441052D02*
D03*
X433512D02*
D03*
X425972D02*
D03*
X418432D02*
D03*
X410892D02*
D03*
X403352D02*
D03*
X395812D02*
D03*
X388272D02*
D03*
X380732D02*
D03*
X373192D02*
D03*
X365652D02*
D03*
X358112D02*
D03*
X350572D02*
D03*
X343032D02*
D03*
X335492D02*
D03*
X327952D02*
D03*
X290252D02*
D03*
X282712D02*
D03*
X275172D02*
D03*
X267632D02*
D03*
X260092D02*
D03*
X229932D02*
D03*
X222392D02*
D03*
X214852D02*
D03*
X207312D02*
D03*
X199772D02*
D03*
X192232D02*
D03*
X184692D02*
D03*
X177152D02*
D03*
X169619Y575133D02*
D03*
X162685Y578094D02*
D03*
X157154Y583218D02*
D03*
X151822Y588550D02*
D03*
X146490Y593881D02*
D03*
X141159Y599213D02*
D03*
X109938Y670127D02*
D03*
X109230Y677633D02*
D03*
X106290Y684577D02*
D03*
X101349Y690273D02*
D03*
X98181Y697115D02*
D03*
X95923Y704308D02*
D03*
X90909Y709940D02*
D03*
X84097Y713172D02*
D03*
X683195Y531328D02*
D03*
X737250Y554000D02*
D03*
X395326Y154880D02*
D03*
X63971Y744150D02*
D03*
X61795Y736931D02*
D03*
X62654Y729441D02*
D03*
X66462Y722932D02*
D03*
X72618Y718579D02*
D03*
X103525Y700893D02*
D03*
X108502Y695230D02*
D03*
X141898Y608980D02*
D03*
X147229Y603648D02*
D03*
X152561Y598317D02*
D03*
X157893Y592985D02*
D03*
X163278Y587708D02*
D03*
X169402Y583310D02*
D03*
X176379Y580449D02*
D03*
X296923Y579192D02*
D03*
X485423D02*
D03*
X492963D02*
D03*
X500503D02*
D03*
X508043D02*
D03*
X515583D02*
D03*
X523123D02*
D03*
X530663D02*
D03*
X538203D02*
D03*
X545743D02*
D03*
X553283D02*
D03*
X560816Y578878D02*
D03*
X567542Y575470D02*
D03*
X571727Y569198D02*
D03*
X572578Y561707D02*
D03*
Y554167D02*
D03*
X570883Y546820D02*
D03*
X570024Y539329D02*
D03*
Y531789D02*
D03*
X572145Y524553D02*
D03*
X579478Y522798D02*
D03*
X606078Y554886D02*
D03*
X609118Y561787D02*
D03*
X594995Y573664D02*
D03*
X587954Y553332D02*
D03*
Y560872D02*
D03*
X587663Y568406D02*
D03*
X585809Y575715D02*
D03*
X582112Y582286D02*
D03*
X576891Y587726D02*
D03*
X570529Y591772D02*
D03*
X563357Y594101D02*
D03*
X555832Y594568D02*
D03*
X548292D02*
D03*
X540752D02*
D03*
X533212D02*
D03*
X525672D02*
D03*
X518132D02*
D03*
X510592D02*
D03*
X503052D02*
D03*
X495512D02*
D03*
X487972D02*
D03*
X480432D02*
D03*
X472892D02*
D03*
X465352D02*
D03*
X457812D02*
D03*
X450272D02*
D03*
X442732D02*
D03*
X435192D02*
D03*
X427652D02*
D03*
X420112D02*
D03*
X412572D02*
D03*
X405032D02*
D03*
X397492D02*
D03*
X389952D02*
D03*
X382412D02*
D03*
X374872D02*
D03*
X367332D02*
D03*
X359792D02*
D03*
X352252D02*
D03*
X344712D02*
D03*
X337172D02*
D03*
X329632D02*
D03*
X322092D02*
D03*
X291932D02*
D03*
X284392D02*
D03*
X276852D02*
D03*
X269312D02*
D03*
X261772D02*
D03*
X254232D02*
D03*
X231612D02*
D03*
X224072D02*
D03*
X216532D02*
D03*
X208992D02*
D03*
X201452D02*
D03*
X193912D02*
D03*
X186372D02*
D03*
X178932Y595792D02*
D03*
X172654Y599968D02*
D03*
X167323Y605299D02*
D03*
X161991Y610631D02*
D03*
X156659Y615962D02*
D03*
X151328Y621294D02*
D03*
X145996Y626626D02*
D03*
X140665Y631957D02*
D03*
X126621Y649410D02*
D03*
X125938Y656919D02*
D03*
Y664459D02*
D03*
Y671999D02*
D03*
Y679539D02*
D03*
Y687079D02*
D03*
X125217Y694584D02*
D03*
X122545Y701635D02*
D03*
X118259Y707839D02*
D03*
X112960Y713202D02*
D03*
X107628Y718534D02*
D03*
X102297Y723865D02*
D03*
X97417Y729613D02*
D03*
X98181Y737115D02*
D03*
X95923Y744308D02*
D03*
X144500Y545250D02*
D03*
X291576Y357630D02*
D03*
X333826Y209880D02*
D03*
X674576Y108380D02*
D03*
X192326Y726880D02*
D03*
X919576Y599380D02*
D03*
X888076Y627130D02*
D03*
X750576Y597130D02*
D03*
X702826Y842880D02*
D03*
X846326Y842630D02*
D03*
X192576Y896630D02*
D03*
X145576Y845630D02*
D03*
X191326Y622130D02*
D03*
X157826Y687880D02*
D03*
X296326Y699130D02*
D03*
X291076Y653130D02*
D03*
X460326Y615380D02*
D03*
X381576Y662130D02*
D03*
X426076Y686130D02*
D03*
X462826Y722880D02*
D03*
X580326Y710380D02*
D03*
X563076Y659380D02*
D03*
X646576Y658380D02*
D03*
X717326Y668130D02*
D03*
X756576Y672880D02*
D03*
X769326Y697880D02*
D03*
X781326Y679630D02*
D03*
X802826Y703130D02*
D03*
X817826Y701130D02*
D03*
X850076Y671380D02*
D03*
X835326Y669880D02*
D03*
X922576Y698380D02*
D03*
X907076Y675380D02*
D03*
X892076D02*
D03*
X877576Y675880D02*
D03*
X862076Y676380D02*
D03*
X829746Y623880D02*
D03*
X844746D02*
D03*
X813746Y600630D02*
D03*
X799826Y598880D02*
D03*
X783746Y601380D02*
D03*
X843746Y580380D02*
D03*
X836806Y547970D02*
D03*
X809826Y742130D02*
D03*
X856576Y731380D02*
D03*
X859663Y739737D02*
D03*
X789326Y595880D02*
D03*
X784826Y629630D02*
D03*
X442076Y221130D02*
D03*
X467076Y221630D02*
D03*
X391576Y127130D02*
D03*
X840616Y361280D02*
D03*
X758326Y760380D02*
D03*
X933076Y696880D02*
D03*
X580826Y880130D02*
D03*
X645326Y829130D02*
D03*
X532576Y819630D02*
D03*
X460576Y895880D02*
D03*
X425326Y856630D02*
D03*
X412576Y798130D02*
D03*
X462076Y793630D02*
D03*
X301076Y871880D02*
D03*
X364326Y822130D02*
D03*
X262326Y820130D02*
D03*
X192576Y793880D02*
D03*
X178076Y525130D02*
D03*
X33826Y524630D02*
D03*
X89076Y525130D02*
D03*
X249076Y288130D02*
D03*
X758576Y79630D02*
D03*
X671326Y154630D02*
D03*
X541826Y263380D02*
D03*
X561576Y552130D02*
D03*
X363096Y697830D02*
D03*
X332076Y738380D02*
D03*
X232576Y735380D02*
D03*
X327826Y746630D02*
D03*
X228576D02*
D03*
X608076Y595880D02*
D03*
X868826Y463380D02*
D03*
X175826Y218130D02*
D03*
X361076Y77210D02*
D03*
X562486Y74180D02*
D03*
X332616Y85690D02*
D03*
X288166Y377790D02*
D03*
X170056Y380330D02*
D03*
X885066Y580990D02*
D03*
X570106Y649570D02*
D03*
X653926Y686400D02*
D03*
X647576Y850230D02*
D03*
X378336Y845150D02*
D03*
X532006Y880710D02*
D03*
X516766Y55210D02*
D03*
X525656Y710530D02*
D03*
X309756Y733390D02*
D03*
X258956Y881980D02*
D03*
X309756Y207610D02*
D03*
X695836Y774040D02*
D03*
X752986Y742280D02*
D03*
X157356Y774030D02*
D03*
X125606Y812130D02*
D03*
X398656Y861660D02*
D03*
X128146Y901030D02*
D03*
X154816Y353660D02*
D03*
X35436Y408270D02*
D03*
X900000Y22860D02*
D03*
X883836Y16164D02*
D03*
X877140Y0D02*
D03*
X883836Y-16164D02*
D03*
X900000Y-22860D02*
D03*
X916164Y-16164D02*
D03*
X922860Y0D02*
D03*
X916164Y16164D02*
D03*
X900000Y872860D02*
D03*
X883836Y866164D02*
D03*
X877140Y850000D02*
D03*
X883836Y833836D02*
D03*
X900000Y827140D02*
D03*
X916164Y833836D02*
D03*
X922860Y850000D02*
D03*
X916164Y866164D02*
D03*
D90*
X40516Y324920D02*
D03*
Y364620D02*
D03*
M02*
