G04*
G04 #@! TF.GenerationSoftware,Altium Limited,Altium Designer,24.1.2 (44)*
G04*
G04 Layer_Color=8388736*
%FSLAX44Y44*%
%MOMM*%
G71*
G04*
G04 #@! TF.SameCoordinates,51AA683D-CA4B-47C4-9456-8286C0F4AF48*
G04*
G04*
G04 #@! TF.FilePolarity,Negative*
G04*
G01*
G75*
G04:AMPARAMS|DCode=39|XSize=0.5mm|YSize=0.5mm|CornerRadius=0.0875mm|HoleSize=0mm|Usage=FLASHONLY|Rotation=90.000|XOffset=0mm|YOffset=0mm|HoleType=Round|Shape=RoundedRectangle|*
%AMROUNDEDRECTD39*
21,1,0.5000,0.3250,0,0,90.0*
21,1,0.3250,0.5000,0,0,90.0*
1,1,0.1750,0.1625,0.1625*
1,1,0.1750,0.1625,-0.1625*
1,1,0.1750,-0.1625,-0.1625*
1,1,0.1750,-0.1625,0.1625*
%
%ADD39ROUNDEDRECTD39*%
%ADD43R,0.8000X1.6500*%
%ADD44R,1.3500X2.9000*%
%ADD45R,0.4500X1.7000*%
%ADD46C,1.0000*%
%ADD47O,1.6000X0.7500*%
G04:AMPARAMS|DCode=48|XSize=1.55mm|YSize=1.85mm|CornerRadius=0.25mm|HoleSize=0mm|Usage=FLASHONLY|Rotation=90.000|XOffset=0mm|YOffset=0mm|HoleType=Round|Shape=RoundedRectangle|*
%AMROUNDEDRECTD48*
21,1,1.5500,1.3500,0,0,90.0*
21,1,1.0500,1.8500,0,0,90.0*
1,1,0.5000,0.6750,0.5250*
1,1,0.5000,0.6750,-0.5250*
1,1,0.5000,-0.6750,-0.5250*
1,1,0.5000,-0.6750,0.5250*
%
%ADD48ROUNDEDRECTD48*%
%ADD49R,3.4000X1.9000*%
%ADD50R,1.1000X1.9000*%
%ADD51R,1.9000X3.4000*%
%ADD52R,1.9000X1.1000*%
G04:AMPARAMS|DCode=53|XSize=1.15mm|YSize=1.85mm|CornerRadius=0.2mm|HoleSize=0mm|Usage=FLASHONLY|Rotation=0.000|XOffset=0mm|YOffset=0mm|HoleType=Round|Shape=RoundedRectangle|*
%AMROUNDEDRECTD53*
21,1,1.1500,1.4500,0,0,0.0*
21,1,0.7500,1.8500,0,0,0.0*
1,1,0.4000,0.3750,-0.7250*
1,1,0.4000,-0.3750,-0.7250*
1,1,0.4000,-0.3750,0.7250*
1,1,0.4000,0.3750,0.7250*
%
%ADD53ROUNDEDRECTD53*%
%ADD54R,2.9500X2.3500*%
G04:AMPARAMS|DCode=55|XSize=1.55mm|YSize=1.85mm|CornerRadius=0.25mm|HoleSize=0mm|Usage=FLASHONLY|Rotation=180.000|XOffset=0mm|YOffset=0mm|HoleType=Round|Shape=RoundedRectangle|*
%AMROUNDEDRECTD55*
21,1,1.5500,1.3500,0,0,180.0*
21,1,1.0500,1.8500,0,0,180.0*
1,1,0.5000,-0.5250,0.6750*
1,1,0.5000,0.5250,0.6750*
1,1,0.5000,0.5250,-0.6750*
1,1,0.5000,-0.5250,-0.6750*
%
%ADD55ROUNDEDRECTD55*%
G04:AMPARAMS|DCode=56|XSize=1.15mm|YSize=1.85mm|CornerRadius=0.2mm|HoleSize=0mm|Usage=FLASHONLY|Rotation=90.000|XOffset=0mm|YOffset=0mm|HoleType=Round|Shape=RoundedRectangle|*
%AMROUNDEDRECTD56*
21,1,1.1500,1.4500,0,0,90.0*
21,1,0.7500,1.8500,0,0,90.0*
1,1,0.4000,0.7250,0.3750*
1,1,0.4000,0.7250,-0.3750*
1,1,0.4000,-0.7250,-0.3750*
1,1,0.4000,-0.7250,0.3750*
%
%ADD56ROUNDEDRECTD56*%
G04:AMPARAMS|DCode=57|XSize=0.78mm|YSize=0.98mm|CornerRadius=0.1538mm|HoleSize=0mm|Usage=FLASHONLY|Rotation=0.000|XOffset=0mm|YOffset=0mm|HoleType=Round|Shape=RoundedRectangle|*
%AMROUNDEDRECTD57*
21,1,0.7800,0.6725,0,0,0.0*
21,1,0.4725,0.9800,0,0,0.0*
1,1,0.3075,0.2362,-0.3363*
1,1,0.3075,-0.2362,-0.3363*
1,1,0.3075,-0.2362,0.3363*
1,1,0.3075,0.2362,0.3363*
%
%ADD57ROUNDEDRECTD57*%
%ADD58R,1.5500X1.0500*%
%ADD59R,1.6500X0.8000*%
%ADD60R,1.8500X1.1500*%
%ADD61R,2.7500X1.2100*%
%ADD62R,5.8500X5.7820*%
%ADD63R,1.0500X1.5500*%
%ADD64R,1.0500X0.8500*%
%ADD65R,1.1500X1.3000*%
%ADD66C,0.9750*%
%ADD67C,0.7250*%
%ADD68O,6.1500X10.1500*%
%ADD69C,1.8750*%
%ADD70R,2.7750X2.7750*%
%ADD71C,2.7750*%
%ADD72C,1.9400*%
%ADD73C,6.1500*%
%ADD74C,0.6500*%
G36*
X23116Y429876D02*
Y442540D01*
X36530D01*
X48116Y430954D01*
Y417540D01*
X35452D01*
X23116Y429876D01*
D02*
G37*
G36*
Y473204D02*
X35452Y485540D01*
X48116D01*
Y472126D01*
X36530Y460540D01*
X23116D01*
Y473204D01*
D02*
G37*
G36*
X66116Y430954D02*
X77702Y442540D01*
X91116D01*
Y429876D01*
X78780Y417540D01*
X66116D01*
Y430954D01*
D02*
G37*
G36*
Y472126D02*
Y485540D01*
X78780D01*
X91116Y473204D01*
Y460540D01*
X77702D01*
X66116Y472126D01*
D02*
G37*
G36*
X319956Y66800D02*
Y76800D01*
X324956D01*
Y66800D01*
X319956D01*
D02*
G37*
G36*
X336466Y66640D02*
Y76640D01*
X341466D01*
Y66640D01*
X336466D01*
D02*
G37*
G36*
X569517Y64180D02*
Y74180D01*
X574517D01*
Y64180D01*
X569517D01*
D02*
G37*
G36*
X587297D02*
Y74180D01*
X592297D01*
Y64180D01*
X587297D01*
D02*
G37*
D39*
X338966Y76640D02*
D03*
Y66640D02*
D03*
X322456Y76800D02*
D03*
Y66800D02*
D03*
X589797Y74180D02*
D03*
Y64180D02*
D03*
X572017Y74180D02*
D03*
Y64180D02*
D03*
D43*
X609450Y413500D02*
D03*
X622150D02*
D03*
X634850D02*
D03*
X647550D02*
D03*
Y359500D02*
D03*
X634850D02*
D03*
X622150D02*
D03*
X609450D02*
D03*
D44*
X933246Y679920D02*
D03*
X726246D02*
D03*
D45*
X922246Y687670D02*
D03*
X919746Y612170D02*
D03*
X917246Y687670D02*
D03*
X914746Y612170D02*
D03*
X912246Y687670D02*
D03*
X909746Y612170D02*
D03*
X907246Y687670D02*
D03*
X904746Y612170D02*
D03*
X902246Y687670D02*
D03*
X899746Y612170D02*
D03*
X897246Y687670D02*
D03*
X894746Y612170D02*
D03*
X892246Y687670D02*
D03*
X889746Y612170D02*
D03*
X887246Y687670D02*
D03*
X884746Y612170D02*
D03*
X882246Y687670D02*
D03*
X879746Y612170D02*
D03*
X877246Y687670D02*
D03*
X874746Y612170D02*
D03*
X872246Y687670D02*
D03*
X869746Y612170D02*
D03*
X867246Y687670D02*
D03*
X864746Y612170D02*
D03*
X862246Y687670D02*
D03*
X859746Y612170D02*
D03*
X857246Y687670D02*
D03*
X854746Y612170D02*
D03*
X852246Y687670D02*
D03*
X849746Y612170D02*
D03*
X847246Y687670D02*
D03*
X844746Y612170D02*
D03*
X842246Y687670D02*
D03*
X839746Y612170D02*
D03*
X837246Y687670D02*
D03*
X834746Y612170D02*
D03*
X832246Y687670D02*
D03*
X829746Y612170D02*
D03*
X827246Y687670D02*
D03*
X824746Y612170D02*
D03*
X822246Y687670D02*
D03*
X819746Y612170D02*
D03*
X817246Y687670D02*
D03*
X814746Y612170D02*
D03*
X812246Y687670D02*
D03*
X809746Y612170D02*
D03*
X807246Y687670D02*
D03*
X804746Y612170D02*
D03*
X802246Y687670D02*
D03*
X799746Y612170D02*
D03*
X797246Y687670D02*
D03*
X794746Y612170D02*
D03*
X792246Y687670D02*
D03*
X789746Y612170D02*
D03*
X787246Y687670D02*
D03*
X784746Y612170D02*
D03*
X762246Y687670D02*
D03*
X759746Y612170D02*
D03*
X757246Y687670D02*
D03*
X754746Y612170D02*
D03*
X752246Y687670D02*
D03*
X749746Y612170D02*
D03*
X747246Y687670D02*
D03*
X744746Y612170D02*
D03*
X742246Y687670D02*
D03*
X739746Y612170D02*
D03*
X737246Y687670D02*
D03*
D46*
X537086Y471770D02*
D03*
X461576Y233630D02*
D03*
X435826Y233380D02*
D03*
X151006Y532730D02*
D03*
X599316Y564480D02*
D03*
X528196Y319370D02*
D03*
X591696Y216500D02*
D03*
X779656Y92040D02*
D03*
X806326D02*
D03*
X479936Y69180D02*
D03*
X232286Y71720D02*
D03*
X248500Y389250D02*
D03*
X375796Y409540D02*
D03*
X373256Y546700D02*
D03*
X278826Y248630D02*
D03*
D47*
X601166Y650840D02*
D03*
Y663540D02*
D03*
Y676240D02*
D03*
Y688940D02*
D03*
X546666Y650840D02*
D03*
Y663540D02*
D03*
Y676240D02*
D03*
Y688940D02*
D03*
X277426Y862930D02*
D03*
Y850230D02*
D03*
Y837530D02*
D03*
Y824830D02*
D03*
X331926Y862930D02*
D03*
Y850230D02*
D03*
Y837530D02*
D03*
Y824830D02*
D03*
X545396Y860390D02*
D03*
Y847690D02*
D03*
Y834990D02*
D03*
Y822290D02*
D03*
X599896Y860390D02*
D03*
Y847690D02*
D03*
Y834990D02*
D03*
Y822290D02*
D03*
X277426Y691480D02*
D03*
Y678780D02*
D03*
Y666080D02*
D03*
Y653380D02*
D03*
X331926Y691480D02*
D03*
Y678780D02*
D03*
Y666080D02*
D03*
Y653380D02*
D03*
D48*
X632336Y829910D02*
D03*
Y852770D02*
D03*
X588250Y399180D02*
D03*
Y376320D02*
D03*
X194186Y506060D02*
D03*
Y528920D02*
D03*
X48136Y502250D02*
D03*
Y525110D02*
D03*
X74806Y502250D02*
D03*
Y525110D02*
D03*
X129416Y391760D02*
D03*
Y414620D02*
D03*
Y460340D02*
D03*
Y437480D02*
D03*
X633606Y681320D02*
D03*
Y658460D02*
D03*
X448186Y724500D02*
D03*
Y701640D02*
D03*
X446916Y641950D02*
D03*
Y619090D02*
D03*
X364366Y683860D02*
D03*
Y661000D02*
D03*
X446916Y895950D02*
D03*
Y873090D02*
D03*
X445646Y813400D02*
D03*
Y790540D02*
D03*
X178946Y727040D02*
D03*
Y704180D02*
D03*
X177676Y644490D02*
D03*
Y621630D02*
D03*
Y815940D02*
D03*
Y793080D02*
D03*
X178946Y898490D02*
D03*
Y875630D02*
D03*
X364366Y855310D02*
D03*
Y832450D02*
D03*
X397386Y375250D02*
D03*
Y398110D02*
D03*
Y351120D02*
D03*
Y328260D02*
D03*
X394846Y488280D02*
D03*
Y465420D02*
D03*
Y512410D02*
D03*
Y535270D02*
D03*
D49*
X224666Y288390D02*
D03*
D50*
X247666Y225390D02*
D03*
X224666D02*
D03*
X201666D02*
D03*
D51*
X307466Y500980D02*
D03*
X310006Y363820D02*
D03*
D52*
X370466Y523980D02*
D03*
Y500980D02*
D03*
Y477980D02*
D03*
X373006Y386820D02*
D03*
Y363820D02*
D03*
Y340820D02*
D03*
D53*
X554916Y244440D02*
D03*
X573916D02*
D03*
X561266Y536540D02*
D03*
X580266D02*
D03*
X571376Y456530D02*
D03*
X590376D02*
D03*
X571426Y433670D02*
D03*
X590426D02*
D03*
X580266Y344770D02*
D03*
X561266D02*
D03*
Y320640D02*
D03*
X580266D02*
D03*
X373866Y314290D02*
D03*
X354866D02*
D03*
X371326Y451450D02*
D03*
X352326D02*
D03*
D54*
X118116Y506060D02*
D03*
X166116D02*
D03*
D55*
X735206Y45050D02*
D03*
X758066D02*
D03*
X735206Y66640D02*
D03*
X758066D02*
D03*
X577726Y500980D02*
D03*
X600586D02*
D03*
X570106Y278730D02*
D03*
X592966D02*
D03*
X214506Y201260D02*
D03*
X191646D02*
D03*
X236096D02*
D03*
X258956D02*
D03*
X547246Y710530D02*
D03*
X570106D02*
D03*
X426596Y672430D02*
D03*
X449456D02*
D03*
X278006Y713070D02*
D03*
X300866D02*
D03*
X425326Y843880D02*
D03*
X448186D02*
D03*
X545976Y881980D02*
D03*
X568836D02*
D03*
X157356Y674970D02*
D03*
X180216D02*
D03*
X157356Y846420D02*
D03*
X180216D02*
D03*
X278006Y884520D02*
D03*
X300866D02*
D03*
D56*
X599316Y520690D02*
D03*
Y539690D02*
D03*
X592966Y241950D02*
D03*
Y260950D02*
D03*
X471046Y700320D02*
D03*
Y681320D02*
D03*
Y662880D02*
D03*
Y643880D02*
D03*
X469776Y871770D02*
D03*
Y852770D02*
D03*
Y834330D02*
D03*
Y815330D02*
D03*
X201806Y702860D02*
D03*
Y683860D02*
D03*
Y665420D02*
D03*
Y646420D02*
D03*
Y836870D02*
D03*
Y817870D02*
D03*
Y874310D02*
D03*
Y855310D02*
D03*
D57*
X601856Y478120D02*
D03*
X579556D02*
D03*
X596776Y299050D02*
D03*
X574476D02*
D03*
X333606Y315560D02*
D03*
X311306D02*
D03*
X331066Y452720D02*
D03*
X308766D02*
D03*
D58*
X828126Y862180D02*
D03*
Y843180D02*
D03*
X800186Y862180D02*
D03*
Y843180D02*
D03*
X772246Y862180D02*
D03*
Y843180D02*
D03*
X744306Y862180D02*
D03*
Y843180D02*
D03*
X716366Y862180D02*
D03*
Y843180D02*
D03*
X470417Y29200D02*
D03*
Y48200D02*
D03*
X218636Y33010D02*
D03*
Y52010D02*
D03*
D59*
X773636Y-14640D02*
D03*
Y-1940D02*
D03*
Y10760D02*
D03*
Y23460D02*
D03*
X719636D02*
D03*
Y10760D02*
D03*
Y-1940D02*
D03*
Y-14640D02*
D03*
D60*
X643137Y21580D02*
D03*
Y40580D02*
D03*
X619007Y21580D02*
D03*
Y40580D02*
D03*
X470417Y-7630D02*
D03*
Y11370D02*
D03*
X391036Y42510D02*
D03*
Y23510D02*
D03*
X219191Y-8290D02*
D03*
Y10710D02*
D03*
X366906Y23510D02*
D03*
Y42510D02*
D03*
D61*
X580996Y-4480D02*
D03*
Y41240D02*
D03*
X330076Y-1940D02*
D03*
Y43780D02*
D03*
D62*
X515496Y18380D02*
D03*
X264576Y20920D02*
D03*
D63*
X126876Y353660D02*
D03*
X145876D02*
D03*
D64*
X424056Y701640D02*
D03*
Y717640D02*
D03*
X422786Y873090D02*
D03*
Y889090D02*
D03*
X154816Y875630D02*
D03*
Y891630D02*
D03*
Y704180D02*
D03*
Y720180D02*
D03*
X424056Y625950D02*
D03*
Y641950D02*
D03*
X154816Y628490D02*
D03*
Y644490D02*
D03*
X422786Y797400D02*
D03*
Y813400D02*
D03*
X154816Y799940D02*
D03*
Y815940D02*
D03*
D65*
X527546Y662510D02*
D03*
X490746D02*
D03*
Y679810D02*
D03*
X527546D02*
D03*
X526276Y833960D02*
D03*
X489476D02*
D03*
Y851260D02*
D03*
X526276D02*
D03*
X258306Y665050D02*
D03*
X221506D02*
D03*
Y682350D02*
D03*
X258306D02*
D03*
Y836500D02*
D03*
X221506D02*
D03*
Y853800D02*
D03*
X258306D02*
D03*
D66*
X929746Y634920D02*
D03*
D67*
X729746D02*
D03*
D68*
X829746Y224710D02*
D03*
D69*
X170056Y401920D02*
D03*
Y427320D02*
D03*
Y452720D02*
D03*
D70*
X80000Y895290D02*
D03*
Y280000D02*
D03*
D71*
Y615290D02*
D03*
X40000Y875290D02*
D03*
Y635290D02*
D03*
X0Y895290D02*
D03*
Y615290D02*
D03*
X80000Y855290D02*
D03*
Y815290D02*
D03*
Y775290D02*
D03*
Y735290D02*
D03*
Y695290D02*
D03*
Y655290D02*
D03*
X40000Y835290D02*
D03*
Y795290D02*
D03*
Y755290D02*
D03*
Y715290D02*
D03*
Y675290D02*
D03*
X0Y855290D02*
D03*
Y815290D02*
D03*
Y775290D02*
D03*
Y735290D02*
D03*
Y695290D02*
D03*
Y655290D02*
D03*
X80000Y0D02*
D03*
X40000Y260000D02*
D03*
Y20000D02*
D03*
X0Y280000D02*
D03*
Y0D02*
D03*
X80000Y240000D02*
D03*
Y200000D02*
D03*
Y160000D02*
D03*
Y120000D02*
D03*
Y80000D02*
D03*
Y40000D02*
D03*
X40000Y220000D02*
D03*
Y180000D02*
D03*
Y140000D02*
D03*
Y100000D02*
D03*
Y60000D02*
D03*
X0Y240000D02*
D03*
Y200000D02*
D03*
Y160000D02*
D03*
Y120000D02*
D03*
Y80000D02*
D03*
Y40000D02*
D03*
D72*
X452136Y195050D02*
D03*
X401336D02*
D03*
X477536D02*
D03*
X426736D02*
D03*
D73*
X900000Y0D02*
D03*
Y850000D02*
D03*
D74*
Y22860D02*
D03*
X883836Y16164D02*
D03*
X877140Y0D02*
D03*
X883836Y-16164D02*
D03*
X900000Y-22860D02*
D03*
X916164Y-16164D02*
D03*
X922860Y0D02*
D03*
X916164Y16164D02*
D03*
X900000Y872860D02*
D03*
X883836Y866164D02*
D03*
X877140Y850000D02*
D03*
X883836Y833836D02*
D03*
X900000Y827140D02*
D03*
X916164Y833836D02*
D03*
X922860Y850000D02*
D03*
X916164Y866164D02*
D03*
M02*
