M48
;Layer_Color=9474304
;FILE_FORMAT=4:4
METRIC,TZ
;TYPE=PLATED
T01F00S00C0.3000
T02F00S00C0.5000
T03F00S00C1.1000
T04F00S00C1.1500
T05F00S00C1.7500
T06F00S00C3.5000
;TYPE=NON_PLATED
T08F00S00C1.1500
T09F00S00C1.6500
%
T01
X-4924Y-50870
X15076
X35076
X55076
X75076
X85076Y-30870
X65076
X45076
X25076
X5076
X-14924
X-24924Y-10870
X15076
X35076
X-24924Y29130
X145076Y9130
X165076
X185076
X205076
X203826Y-7500
X195076Y-50870
X215076
X235076
X255076
X275076
X295076
X315076
X335076
X355076
X375076
X395076
X415076
X435076
X455076
X475076
X456576Y-4370
X445076Y9130
X425076
X405076
X385076
X365076
Y-30870
X385076
X405076
X425076
X345076
X325076
X305076
X285076
X265076
X305076Y9130
X325076
X175076Y-50870
X155076
X135076
X115076
X95076
X105076Y-30870
X125076
X495076Y-50870
X515076
X535076
X555076
X575076
X595076
X615076
X635076
X655077
X675077
X695077
X715077
X735077
X755077
X775077
X795077
X815077
X835077
X855077
X875077
X865077Y-30870
X845077
X825077
X805077
X785077
X765077
X745077
X725077
X705077
X685077
X665077
Y9130
X685077
X705077
X745077
X755077Y29130
X815077
X825077Y49130
X865077
X885077
X875077Y29130
X855077
X865077Y9130
X845077
X825077
X835077Y-10870
X855077
X877140Y0
X883836Y16164
Y-16164
X815077Y-10870
X705077Y49130
X685077
X665077
X675077Y29130
X645077Y9130
X625076
X585076
X565076
X575076Y29130
X595076
X555076
X516766Y55210
X905077Y49130
X925077
X945077
X935077Y29130
X945077Y9130
X935077Y-10870
X922860Y0
X916164Y-16164
X900000Y-22860
X895077Y-50870
X915077
X935077
X945077Y-30870
X925077
X916164Y16164
X900000Y22860
X895077Y69130
X915077
X935077
X945077Y89130
X925077
X905077
X895077Y109130
X905077Y129130
X925077
X945077
X935077Y149130
X945077Y169130
X925077
X935077Y189130
X945077Y209130
X925077
X935077Y229130
X945077Y249130
X925077
X935077Y269130
X945077Y289130
X925077
X935077Y309130
X945077Y329130
X925077
X935077Y349130
X945077Y369130
X925077
X935077Y389130
X945077Y409130
X915077Y429130
X935077Y109130
X855077
X835077
X815077
X825077Y129130
X845077
X865077
X875077Y149130
X855077
X835077
X815077
X825077Y169130
X845077
X865077
X885077
X875077Y189130
X885077Y209130
X865077
X875077Y229130
X885077Y249130
X865077
X875077Y269130
X855077
X865077Y289130
X885077
X875077Y309130
X855077
X845077Y329130
X855077Y349130
X840616Y361280
X865077Y369130
X885077
Y409130
X855077Y389130
X815077Y429130
X755077
X745077Y449130
X725077
X705077
X715077Y429130
X695077
X675077
X665077Y449130
X645077
X605076
X545076
X525076
X533750Y437000
X515076Y429130
X500324Y425829
Y418289
Y410749
Y403209
Y395669
Y388129
Y380589
Y373049
Y365509
Y357969
Y350429
Y342890
Y335350
Y327809
Y320270
Y312729
Y305189
Y297649
Y290110
Y282570
Y275030
Y267490
Y259950
Y252410
Y244870
X501767Y237469
X506533Y231626
X512891Y227573
X520383Y226728
X527923
X535463
X543003
X550541Y226920
X557681Y229343
X563176Y234506
X563674Y242029
Y249569
X566177Y256682
X573566Y258182
X555076Y269130
X541826Y263380
X535076Y269130
X515076
X525076Y289130
X545076
X535076Y309130
X515076
X525076Y329130
X545076
X535076Y349130
X515076
X525076Y369130
X545076
X535076Y389130
X515076
X525076Y409130
X545076
X555076Y429130
X500324Y433369
Y440909
Y448449
Y455989
X588500Y365000
X615076Y389130
X635076
X655077
X675077
X695077
X715077
X725077Y409130
X745077
X705077
Y369130
X695077Y349130
X675077
X655077
X647250Y347250
X645077Y329130
X665077
X655077Y309130
X635076
X615076
X625076Y329130
X605076
Y289130
X625076
X615076Y269130
X577432Y228395
X573032Y222272
X567397Y217262
X560731Y213739
X553465Y211723
X545935Y211352
X538395
X530855
X523315
X515776Y211477
X508350Y212788
X501460Y215849
X495700Y220715
X490417Y226095
X525076Y249130
X545076
X695077Y229130
X715077
X735077
X755077
X765077Y249130
Y289130
X775077Y309130
X805077Y329130
X815077Y349130
X805077Y289130
X845077
X885077Y329130
X735077Y269130
X725077Y249130
Y209130
X715077Y189130
X695077
X675077
X655077
X685077Y209130
Y169130
X671326Y154630
X685077Y129130
X705077
X725077
X745077
X765077
X755077Y149130
X735077
X715077
X725077Y169130
X745077
X765077
X755077Y189130
X765077Y209130
X805077Y169130
Y129130
X825077Y89130
X815077Y69130
X855077
X865077Y89130
X765077
X758576Y79630
X745077Y89130
X725077
X705077
X685077
X674576Y108380
X695077Y109130
X715077
X735077
X755077
X775077Y69130
X635076Y109130
X615076
X595076
X575076
X565076Y89130
X562486Y74180
X555076Y69130
X525076Y89130
X505076
X605076Y129130
X625076
X645077
X665077Y369130
Y409130
X484948Y406039
Y413579
Y421119
Y428659
Y436199
Y443739
Y451279
Y458819
X465076Y449130
X445076
X425076
X405076
X385076
X395076Y429130
X415076
X435076
X455076
X475076
X465076Y409130
X445076
X425076
X435076Y389130
X455076
X475076
X484948Y390959
Y398499
Y383419
Y375879
Y368339
Y360799
Y353259
Y345719
Y338179
Y330639
Y323099
Y315559
Y308019
Y300479
Y292939
Y285399
Y277859
Y270319
Y262779
Y255239
Y247699
X485232Y240165
X487075Y232853
X485076Y209130
X465076
X467076Y221630
X442076Y221130
X445076Y209130
X405076
X385076
X365076
X345076
X333826Y209880
X335076Y189130
X355076
X375076
Y229130
X395076
X415076
Y269130
X435076
X455076
X475076
X465076Y289130
X445076
X425076
X405076
X385076
X365076
X345076
X355076Y269130
X375076
X395076
Y309130
X415076
X435076
X455076
X475076
X465076Y329130
X445076
X425076
X435076Y349130
X455076
X475076
X465076Y369130
X445076
X425076
X415076Y389130
Y349130
X355076
X335076
X345076Y369130
X325076
Y409130
X345076
X365076
X375076Y429130
X355076
X335076
X295076
X275076
X235076
X215076
X225076Y409130
X245076
X235076Y389130
X215076
X195076
X205076Y409130
Y369130
X225076
Y329130
X235076Y309130
X255076
X275076
X285076Y289130
X265076
X249076Y288130
X255076Y269130
X275076
X295076
X235076
X215076
X225076Y249130
X245076
X185076
X165076
X175076Y269130
X155076
X135076
X115076
X125076Y289130
X145076
X155076Y309130
X195076
X185076Y289130
X195076Y349130
X154816Y353660
X145076Y369130
X155076Y389130
X170056Y380330
X145076Y409130
X155076Y429130
X145076Y449130
X115076Y429130
X95076
Y389130
X115076
Y349130
X95076
X105076Y329130
X115076Y309130
X95076
X105076Y289130
X95076Y229130
X105076Y209130
X125076
X145076
X155076Y189130
X115076
X95076
X105076Y129130
X125076
X165076
X205076
X225076
X245076
X295076Y189130
X315076
X309756Y207610
X355076Y229130
X345076Y249130
Y329130
X325076
X295076Y349130
X291576Y357630
X288166Y377790
X175826Y218130
X175076Y69130
X155076
X135076
X95076
X332616Y85690
X365076Y89130
X361076Y77210
X385076Y89130
X405076
X425076
X445076
X465076
X485076
X391576Y127130
X395326Y154880
X361826Y143380
X25076Y129130
X15076Y149130
X25076Y169130
X15076Y189130
X25076Y209130
X15076Y229130
X25076Y249130
X15076Y269130
X-24924
Y309130
Y349130
Y389130
Y429130
X55076
X65076Y449130
X85076
Y409130
Y369130
Y329130
X35076Y349130
X35436Y408270
X45076Y449130
X-24924Y229130
Y189130
Y149130
Y109130
X15076
X25076Y89130
X-24924Y69130
Y469130
Y509131
Y549131
Y589131
X15076
X25076Y609131
X15076Y629131
X-24924
Y669130
Y709131
X15076
X25076Y729131
X15076Y749131
X25076Y769131
X15076Y789131
X25076Y809131
X15076Y829131
X-24924
Y789131
Y749131
X63971Y744150
X61795Y736931
X62654Y729441
X66462Y722932
X72618Y718579
X72655Y712016
X66486Y707680
X62670Y701177
X61789Y693689
X63948Y686465
X68905Y680783
X75684Y677482
X83222Y677293
X90454Y679424
X90909Y709940
X84097Y713172
X75076Y589131
X85076Y569131
X89076Y525130
X85076Y489130
X65076
X55076Y469130
X35076Y509131
X33826Y524630
X35076Y549131
X95076Y589131
X115076
X146490Y593881
X147229Y603648
X141159Y599213
X141898Y608980
X152561Y598317
X151822Y588550
X157893Y592985
X157154Y583218
X163278Y587708
X162685Y578094
X169619Y575133
X177152Y574818
X176379Y580449
X169402Y583310
X172654Y599968
X178932Y595792
X186372Y594568
X193912
X201452
X208992
X216532
X224072
X231612
X225076Y609131
X205076
X185076
X191326Y622130
X195076Y629131
X215076
X255076
X275076
X295076
X291076Y653130
X295076Y669130
X296326Y699130
X309756Y733390
X325076Y729131
X332076Y738380
X327826Y746630
X375076Y749131
X395076
X415076
X435076
X455076
X462826Y722880
X485076Y729131
X425076
X405076
X415076Y709131
X435076
X445076Y689130
X426076Y686130
X405076Y689130
X415076Y669130
X381576Y662130
X363096Y697830
X365076Y769131
Y809131
X364326Y822130
X385076Y809131
X405076
X412576Y798130
X462076Y793630
X475076Y789131
X485076Y809131
X425326Y856630
X378336Y845150
X325076Y809131
X285076
X265076
X262326Y820130
X255076Y789131
X275076
X295076
X215076
X192576Y793880
X155076Y789131
X157356Y774030
X145076Y769131
X155076Y749131
X175076
X195076
X215076
X228576Y746630
X232576Y735380
X225076Y729131
X205076
X192326Y726880
X165076Y729131
X145076
X135076Y749131
X95923Y744308
X98181Y737115
X97417Y729613
X102297Y723865
X107628Y718534
X112960Y713202
X118259Y707839
X122545Y701635
X125217Y694584
X125938Y687079
Y679539
Y671999
Y664459
Y656919
X126621Y649410
X140665Y631957
X145996Y626626
X151328Y621294
X156659Y615962
X161991Y610631
X167323Y605299
X165154Y560410
X172631Y559438
X180171Y559442
X187711
X195251
X202791
X210331
X217871
X225410
X232950
X229932Y574818
X222392
X214852
X207312
X199772
X192232
X184692
X158056Y562955
X151771Y567120
X146309Y572318
X140978Y577650
X144500Y545250
X165076Y529131
X178076Y525130
X185076Y489130
X205076
X225076
X215076Y469130
X195076
X255076
X275076
X295076
X285076Y489130
X265076
X275076Y509131
X255076
X265076Y529131
X285076
X295076Y549131
X293270Y559442
X285730
X278190
X270651
X263111
X255571
X255076Y549131
X275076
X275172Y574818
X282712
X290252
X296923Y579192
X291932Y594568
X284392
X276852
X269312
X261772
X254232
X265076Y609131
X285076
X325076
X322092Y594568
X329632
X337172
X344712
X352252
X359792
X367332
X374872
X382412
X389952
X397492
X405032
X412572
X420112
X427652
X435192
X442732
X450272
X457812
X465352
X472892
X480432
X487972
X485423Y579192
X485730Y571298
X478713Y574058
X471212Y574818
X463672
X456132
X448592
X441052
X433512
X425972
X418432
X410892
X403352
X395812
X388272
X380732
X373192
X365652
X358112
X350572
X343032
X335492
X327952
X330970Y559442
X323430
X338510
X346050
X353590
X361130
X368670
X376210
X383750
X391290
X398830
X406370
X413910
X421450
X428990
X436530
X444070
X451610
X459150
X466690
X474227Y559226
X480984Y555880
X484654Y549293
X484948Y541759
Y534219
Y526679
Y519139
Y511599
Y504059
Y496519
Y488979
Y481439
Y473899
Y466359
X475076Y469130
X455076
X435076
X415076
X425076Y489130
X445076
X465076
X475076Y509131
X455076
X435076
X415076
X425076Y529131
X445076
X465076
X475076Y549131
X455076
X435076
X415076
X395076
X355076
X335076
Y509131
X355076
X365076Y489130
X345076
X325076
X335076Y469130
X355076
X365076Y609131
X385076
X345076
X267632Y574818
X260092
X215076Y549131
X225076Y529131
X145076Y489130
X115076Y469130
X95076
X94562Y642852
X94420Y673011
X109938Y670127
X109230Y677633
X106290Y684577
X101349Y690273
X98181Y697115
X103525Y700893
X108502Y695230
X95923Y704308
X145076Y689130
X157826Y687880
X165076Y689130
X185076
X215076Y709131
X255076
X265076Y729131
Y649130
X225076Y809131
X175076Y829131
X155076
X145576Y845630
X145076Y809131
X125606Y812130
X115076Y829131
X105076Y849131
X460326Y615380
X495512Y594568
X503052
X510592
X518132
X525672
X533212
X540752
X548292
X555832
X563357Y594101
X570529Y591772
X576891Y587726
X582112Y582286
X585809Y575715
X587663Y568406
X587954Y560872
Y553332
X572578Y554167
Y561707
X571727Y569198
X567542Y575470
X560816Y578878
X553283Y579192
X545743
X538203
X530663
X523123
X515583
X508043
X500503
X492963
X491834Y566872
X496441Y560903
X499341Y553943
X500340Y546469
X500324Y538929
Y531389
Y523849
Y516309
Y508769
Y501229
Y493689
Y486149
Y478609
Y471069
Y463529
X515076Y469130
X525076Y489130
X545076
X555076Y509131
X564326Y501630
X567000Y476500
X572145Y524553
X579478Y522798
X570024Y531789
Y539329
X570883Y546820
X561576Y552130
X555076Y549131
X535076
X515076
X525076Y569131
X545076
Y529131
X525076
X535076Y509131
X515076
X505076Y569131
X594995Y573664
X609118Y561787
X606078Y554886
X610273Y548621
X615076Y509131
X635076
X655077
X675077
X695077
X715077
X725077Y529131
X745077
X755077Y549131
X737250Y554000
X715077Y549131
X705077Y529131
X683195Y531328
X665077Y529131
Y489130
X675077Y469130
X695077
X715077
X725077Y489130
X745077
X755077Y509131
Y469130
X815077
X868826Y463380
X875077Y469130
X885077Y489130
X875077Y509131
X836806Y547970
X825077Y569131
X843746Y580380
X885066Y580990
X877250Y624500
X857750Y624750
X844746Y623880
X835077Y629131
X829746Y623880
X805160Y637800
X804826Y659800
X787544Y661180
X782000Y670250
X781326Y679630
X769326Y697880
X765077Y729131
X785077
X795077Y709131
X802826Y703130
X817826Y701130
X815077Y709131
X835077
X845077Y729131
X856576Y731380
X859663Y739737
X809826Y742130
X752986Y742280
X755077Y749131
X758326Y760380
X735077Y749131
X715077
X695077
X675077
X685077Y729131
X705077
X725077
X745077
X756576Y672880
X755526Y631545
X784826Y629630
X783746Y601380
X789326Y595880
X799826Y598880
X813746Y600630
X767576Y594380
X750576Y597130
X740784Y598922
X695077Y629131
Y669130
X717326Y668130
X695077Y709131
X675077
X665077Y729131
X645077
X625076
X605076
X585076
X565076
X545076
X525076
X525656Y710530
X495076Y709131
X505076Y689130
X515076Y669130
X563076Y659380
X570106Y649570
X575076Y669130
X585076Y689130
X565076
X580326Y710380
X595076Y709131
X615076
X635076
Y749131
X615076
X595076
X575076
X555076
X535076
X515076
Y789131
X535076
X555076
X575076
X595076
X615076
X635076
X675077
X695077
X695836Y774040
X715077Y789131
X775077
X785077Y809131
X795077Y829131
X855077
X846326Y842630
X865077Y849131
X877140Y850000
X883836Y833836
X885077Y809131
X865077
X862076Y676380
X877576Y675880
X872750Y664500
X861000Y657750
X850076Y671380
X835326Y669880
X795077Y549131
X705077Y489130
X625076
X635076Y469130
X615076
X638196Y574760
X645077Y569131
X651731Y582380
X635076Y589131
X608076Y595880
X615076Y669130
X655077
X653926Y686400
X665077Y689130
X646576Y658380
X645326Y829130
X647576Y850230
X665077Y849131
X675077Y829131
X695077
X702826Y842880
X735077Y829131
X615076
X605076Y809131
X585076
X565076
X545076
X525076
X532576Y819630
X515076Y829131
X505076Y809131
X495076Y789131
X555076Y829131
X575076
X585076Y849131
X565076
X900000Y827140
X916164Y833836
X922860Y850000
X945077Y849131
X935077Y829131
X945077Y809131
X925077
X905077
X915077Y789131
X935077
X945077Y769131
X925077
X905077
X915077Y749131
X935077
X945077Y729131
X925077
X935077Y709131
X933076Y696880
X922576Y698380
X915077Y709131
X907076Y675380
X892076
X905077Y649130
X903826Y624630
X888076Y627130
X919576Y599380
X935077Y589131
Y549131
Y509131
Y469130
X945077Y689130
X895077Y789131
X900000Y872860
X905077Y889131
X925077
X945077
X935077Y909131
X915077
X895077
X916164Y866164
X935077Y869131
X883836Y866164
X885077Y889131
X865077
X845077
X825077
X828126Y872750
X815077Y869131
X800186Y872750
X805077Y889131
X785077
X765077
X745077
X744306Y872750
X716366
X695077Y869131
X675077
X685077Y889131
X705077
X725077
X735077Y909131
X755077
X775077
X795077
X815077
X835077
X855077
X875077
X855077Y869131
X772246Y872750
X715077Y909131
X695077
X675077
X655077
X635076
X615076
X595076
X575076
X555076
X535076
X515076
X495076
X532006Y880710
X555076Y869131
X580826Y880130
X595076Y869131
X625076Y889131
X645077
X665077
X485076
X465076
X460576Y895880
X455076Y909131
X475076
X435076
X415076
X395076
X375076
X385076Y889131
X405076
X398656Y861660
X315076Y869131
X301076Y871880
X258956Y881980
X225076Y889131
X205076
X192576Y896630
X165076Y889131
X145076
X128146Y901030
X15076Y909131
Y869131
X-24924
T02
X742826Y662270
T03
X401336Y195050
X426736
X452136
X477536
T04
X170056Y401920
Y427320
Y452720
T05
X0Y0
Y40000
X40000Y20000
Y60000
X80000Y40000
Y0
Y80000
Y120000
Y160000
Y200000
Y240000
Y280000
X40000Y260000
Y220000
Y180000
Y140000
Y100000
X0Y120000
Y80000
Y160000
Y200000
Y240000
Y280000
Y615290
Y655290
Y695290
Y735290
Y775290
Y815290
Y855290
X40000Y835290
Y795290
Y755290
Y715290
Y675290
Y635290
X80000Y655290
Y615290
Y695290
Y735290
Y775290
Y815290
Y855290
Y895290
X40000Y875290
X0Y895290
T06
X900000Y0
Y850000
T08
X729746Y634920
T09
X929746Y634920
M30
