G04*
G04 #@! TF.GenerationSoftware,Altium Limited,Altium Designer,24.1.2 (44)*
G04*
G04 Layer_Color=16711935*
%FSLAX44Y44*%
%MOMM*%
G71*
G04*
G04 #@! TF.SameCoordinates,51AA683D-CA4B-47C4-9456-8286C0F4AF48*
G04*
G04*
G04 #@! TF.FilePolarity,Negative*
G04*
G01*
G75*
G04:AMPARAMS|DCode=53|XSize=1.15mm|YSize=1.85mm|CornerRadius=0.2mm|HoleSize=0mm|Usage=FLASHONLY|Rotation=0.000|XOffset=0mm|YOffset=0mm|HoleType=Round|Shape=RoundedRectangle|*
%AMROUNDEDRECTD53*
21,1,1.1500,1.4500,0,0,0.0*
21,1,0.7500,1.8500,0,0,0.0*
1,1,0.4000,0.3750,-0.7250*
1,1,0.4000,-0.3750,-0.7250*
1,1,0.4000,-0.3750,0.7250*
1,1,0.4000,0.3750,0.7250*
%
%ADD53ROUNDEDRECTD53*%
G04:AMPARAMS|DCode=55|XSize=1.55mm|YSize=1.85mm|CornerRadius=0.25mm|HoleSize=0mm|Usage=FLASHONLY|Rotation=180.000|XOffset=0mm|YOffset=0mm|HoleType=Round|Shape=RoundedRectangle|*
%AMROUNDEDRECTD55*
21,1,1.5500,1.3500,0,0,180.0*
21,1,1.0500,1.8500,0,0,180.0*
1,1,0.5000,-0.5250,0.6750*
1,1,0.5000,0.5250,0.6750*
1,1,0.5000,0.5250,-0.6750*
1,1,0.5000,-0.5250,-0.6750*
%
%ADD55ROUNDEDRECTD55*%
G04:AMPARAMS|DCode=56|XSize=1.15mm|YSize=1.85mm|CornerRadius=0.2mm|HoleSize=0mm|Usage=FLASHONLY|Rotation=90.000|XOffset=0mm|YOffset=0mm|HoleType=Round|Shape=RoundedRectangle|*
%AMROUNDEDRECTD56*
21,1,1.1500,1.4500,0,0,90.0*
21,1,0.7500,1.8500,0,0,90.0*
1,1,0.4000,0.7250,0.3750*
1,1,0.4000,0.7250,-0.3750*
1,1,0.4000,-0.7250,-0.3750*
1,1,0.4000,-0.7250,0.3750*
%
%ADD56ROUNDEDRECTD56*%
%ADD66C,0.9750*%
%ADD67C,0.7250*%
%ADD68O,6.1500X10.1500*%
%ADD69C,1.8750*%
%ADD70R,2.7750X2.7750*%
%ADD71C,2.7750*%
%ADD72C,1.9400*%
%ADD73C,6.1500*%
%ADD74C,0.6500*%
G04:AMPARAMS|DCode=91|XSize=1.42mm|YSize=2.25mm|CornerRadius=0.2338mm|HoleSize=0mm|Usage=FLASHONLY|Rotation=90.000|XOffset=0mm|YOffset=0mm|HoleType=Round|Shape=RoundedRectangle|*
%AMROUNDEDRECTD91*
21,1,1.4200,1.7825,0,0,90.0*
21,1,0.9525,2.2500,0,0,90.0*
1,1,0.4675,0.8913,0.4763*
1,1,0.4675,0.8913,-0.4763*
1,1,0.4675,-0.8913,-0.4763*
1,1,0.4675,-0.8913,0.4763*
%
%ADD91ROUNDEDRECTD91*%
D53*
X662606Y97520D02*
D03*
X643606D02*
D03*
X605556Y143240D02*
D03*
X624556D02*
D03*
X606166Y97520D02*
D03*
X625166D02*
D03*
X661996Y143240D02*
D03*
X642996D02*
D03*
X182096Y353660D02*
D03*
X163096D02*
D03*
D55*
X643570Y75000D02*
D03*
X666430D02*
D03*
X618140Y165000D02*
D03*
X641000D02*
D03*
D56*
X442446Y234180D02*
D03*
Y253180D02*
D03*
X465306Y234180D02*
D03*
Y253180D02*
D03*
X829396Y861570D02*
D03*
Y842570D02*
D03*
X801456Y861570D02*
D03*
Y842570D02*
D03*
X773516Y861570D02*
D03*
Y842570D02*
D03*
X745576Y861570D02*
D03*
Y842570D02*
D03*
X717636Y861570D02*
D03*
Y842570D02*
D03*
D66*
X929746Y634920D02*
D03*
D67*
X729746D02*
D03*
D68*
X829746Y224710D02*
D03*
D69*
X170056Y401920D02*
D03*
Y427320D02*
D03*
Y452720D02*
D03*
D70*
X80000Y895290D02*
D03*
Y280000D02*
D03*
D71*
Y615290D02*
D03*
X40000Y875290D02*
D03*
Y635290D02*
D03*
X0Y895290D02*
D03*
Y615290D02*
D03*
X80000Y855290D02*
D03*
Y815290D02*
D03*
Y775290D02*
D03*
Y735290D02*
D03*
Y695290D02*
D03*
Y655290D02*
D03*
X40000Y835290D02*
D03*
Y795290D02*
D03*
Y755290D02*
D03*
Y715290D02*
D03*
Y675290D02*
D03*
X0Y855290D02*
D03*
Y815290D02*
D03*
Y775290D02*
D03*
Y735290D02*
D03*
Y695290D02*
D03*
Y655290D02*
D03*
X80000Y0D02*
D03*
X40000Y260000D02*
D03*
Y20000D02*
D03*
X0Y280000D02*
D03*
Y0D02*
D03*
X80000Y240000D02*
D03*
Y200000D02*
D03*
Y160000D02*
D03*
Y120000D02*
D03*
Y80000D02*
D03*
Y40000D02*
D03*
X40000Y220000D02*
D03*
Y180000D02*
D03*
Y140000D02*
D03*
Y100000D02*
D03*
Y60000D02*
D03*
X0Y240000D02*
D03*
Y200000D02*
D03*
Y160000D02*
D03*
Y120000D02*
D03*
Y80000D02*
D03*
Y40000D02*
D03*
D72*
X452136Y195050D02*
D03*
X401336D02*
D03*
X477536D02*
D03*
X426736D02*
D03*
D73*
X900000Y0D02*
D03*
Y850000D02*
D03*
D74*
Y22860D02*
D03*
X883836Y16164D02*
D03*
X877140Y0D02*
D03*
X883836Y-16164D02*
D03*
X900000Y-22860D02*
D03*
X916164Y-16164D02*
D03*
X922860Y0D02*
D03*
X916164Y16164D02*
D03*
X900000Y872860D02*
D03*
X883836Y866164D02*
D03*
X877140Y850000D02*
D03*
X883836Y833836D02*
D03*
X900000Y827140D02*
D03*
X916164Y833836D02*
D03*
X922860Y850000D02*
D03*
X916164Y866164D02*
D03*
D91*
X40516Y324920D02*
D03*
Y364620D02*
D03*
M02*
