<?xml version="1.0" encoding="UTF-8" standalone="no"?>
<svg
   id="Component_1_3"
   data-name="Component 1 – 3"
   width="170.28128"
   height="100.424"
   viewBox="0 0 170.28128 100.424"
   version="1.1"
   sodipodi:docname="Badge_Yellow.svg"
   inkscape:export-filename="Logo_Grey.svg"
   inkscape:export-xdpi="96"
   inkscape:export-ydpi="96"
   xmlns:inkscape="http://www.inkscape.org/namespaces/inkscape"
   xmlns:sodipodi="http://sodipodi.sourceforge.net/DTD/sodipodi-0.dtd"
   xmlns="http://www.w3.org/2000/svg"
   xmlns:svg="http://www.w3.org/2000/svg">
  <defs
     id="defs537" />
  <sodipodi:namedview
     id="namedview535"
     pagecolor="#505050"
     bordercolor="#eeeeee"
     borderopacity="1"
     inkscape:showpageshadow="0"
     inkscape:pageopacity="0"
     inkscape:pagecheckerboard="0"
     inkscape:deskcolor="#505050"
     showgrid="false" />
  <g
     id="Group_181"
     data-name="Group 181"
     transform="translate(1.5633137e-6,-20.528027)">
    <path
       id="Union_191"
       data-name="Union 191"
       d="M 43.667,25.252 37.973,43.552 0,0 29.151,16.831 34.754,0.192 77.03,24.6 l 1.87,2.538 -2.005,17.3 z"
       transform="matrix(0.883,-0.469,0.469,0.883,0,78.75)"
       fill="#272722" />
    <path
       id="Union_117"
       d="M 32.761,0 30.846,16.683 3.871,17.041 0,0.17 Z"
       transform="rotate(2,-2343.6338,1574.8559)"
       fill="#272722" />
    <path
       id="Union_120"
       d="M 31.816,0 32.407,0.78 30.781,17.58 3.962,17.691 0,0.594 Z"
       transform="rotate(2,-1217.8051,1344.8003)"
       fill="#272722" />
    <path
       id="Ellipse_14_-_Outline-2"
       d="m 50.212,17.665 a 32.547,32.547 0 1 0 32.547,32.547 v 0 A 32.586,32.586 0 0 0 50.212,17.665 M 50.212,0 A 50.212,50.212 0 1 1 0,50.212 v 0 A 50.215,50.215 0 0 1 50.212,0 Z"
       transform="rotate(-50,107.15189,-14.428691)"
       fill="#272722" />
    <circle
       id="Ellipse_17"
       cx="8.1859999"
       cy="8.1859999"
       transform="rotate(-50,125.50245,-60.094383)"
       fill="#272722"
       r="8.1859999" />
  </g>
</svg>
